%TF.GenerationSoftware,KiCad,Pcbnew,(6.0.0)*%
%TF.CreationDate,2022-06-02T21:19:14-07:00*%
%TF.ProjectId,mini_weather_monitor,6d696e69-5f77-4656-9174-6865725f6d6f,rev?*%
%TF.SameCoordinates,Original*%
%TF.FileFunction,Soldermask,Bot*%
%TF.FilePolarity,Negative*%
%FSLAX46Y46*%
G04 Gerber Fmt 4.6, Leading zero omitted, Abs format (unit mm)*
G04 Created by KiCad (PCBNEW (6.0.0)) date 2022-06-02 21:19:14*
%MOMM*%
%LPD*%
G01*
G04 APERTURE LIST*
%ADD10R,1.700000X1.700000*%
%ADD11O,1.700000X1.700000*%
%ADD12C,1.524000*%
%ADD13C,2.200000*%
%ADD14O,1.400000X1.200000*%
%ADD15R,1.400000X1.200000*%
%ADD16C,4.000000*%
%ADD17R,2.000000X2.000000*%
%ADD18C,2.000000*%
%ADD19R,1.524000X1.524000*%
G04 APERTURE END LIST*
D10*
%TO.C,J1*%
X151195000Y-125335000D03*
D11*
X151195000Y-122795000D03*
X151195000Y-120255000D03*
%TD*%
D12*
%TO.C,U2_BME280*%
X184697000Y-93554000D03*
X184697000Y-96094000D03*
X184697000Y-98634000D03*
X184697000Y-101174000D03*
X184697000Y-103714000D03*
X184697000Y-106254000D03*
%TD*%
D13*
%TO.C,H1*%
X69000000Y-67000000D03*
%TD*%
%TO.C,H2*%
X198000000Y-67000000D03*
%TD*%
%TO.C,H4*%
X198000000Y-133000000D03*
%TD*%
D12*
%TO.C,U3_BH1750*%
X193500000Y-86075000D03*
X190960000Y-86075000D03*
X188420000Y-86075000D03*
X185880000Y-86075000D03*
X183340000Y-86075000D03*
%TD*%
D14*
%TO.C,U2*%
X177940000Y-103610000D03*
X177940000Y-101070000D03*
X177940000Y-98530000D03*
D15*
X177940000Y-95990000D03*
D14*
X73900000Y-116310000D03*
X73900000Y-113770000D03*
X73900000Y-111230000D03*
X73900000Y-108690000D03*
X73900000Y-106150000D03*
X73900000Y-103610000D03*
X73900000Y-101070000D03*
X73900000Y-98530000D03*
X73900000Y-95990000D03*
X73900000Y-93450000D03*
X73900000Y-90910000D03*
X73900000Y-88370000D03*
X73900000Y-85830000D03*
D15*
X73900000Y-83290000D03*
D16*
X176940000Y-127250000D03*
X74900000Y-72350000D03*
X74410000Y-128150000D03*
X176940000Y-71930000D03*
%TD*%
D13*
%TO.C,H3*%
X69000000Y-133000000D03*
%TD*%
D17*
%TO.C,U_ESP32_DEVKIT_V1*%
X124315000Y-112500000D03*
D18*
X121775000Y-112500000D03*
X119235000Y-112500000D03*
X116695000Y-112500000D03*
X114155000Y-112500000D03*
X111615000Y-112500000D03*
X109075000Y-112500000D03*
X106535000Y-112500000D03*
X103995000Y-112500000D03*
X101455000Y-112500000D03*
X98915000Y-112500000D03*
X96375000Y-112500000D03*
X93835000Y-112500000D03*
X91295000Y-112500000D03*
X88755000Y-112500000D03*
X88755000Y-87100000D03*
X91295000Y-87100000D03*
X93835000Y-87100000D03*
X96375000Y-87100000D03*
X98915000Y-87100000D03*
X101455000Y-87100000D03*
X103995000Y-87100000D03*
X106535000Y-87100000D03*
X109075000Y-87100000D03*
X111615000Y-87100000D03*
X114155000Y-87100000D03*
X116695000Y-87100000D03*
X119235000Y-87100000D03*
X121775000Y-87100000D03*
X124315000Y-87100000D03*
%TD*%
D12*
%TO.C,U1*%
X167311500Y-78875000D03*
D19*
X167311500Y-76335000D03*
D12*
X158311500Y-78875000D03*
D19*
X158311500Y-76335000D03*
D12*
X167311500Y-123235000D03*
D19*
X167311500Y-120695000D03*
D12*
X158311500Y-123235000D03*
D19*
X158311500Y-120695000D03*
%TD*%
M02*
