%TF.GenerationSoftware,KiCad,Pcbnew,8.0.2*%
%TF.CreationDate,2025-05-14T18:04:52-07:00*%
%TF.ProjectId,mini_weather_monitor,6d696e69-5f77-4656-9174-6865725f6d6f,rev?*%
%TF.SameCoordinates,Original*%
%TF.FileFunction,Soldermask,Top*%
%TF.FilePolarity,Negative*%
%FSLAX46Y46*%
G04 Gerber Fmt 4.6, Leading zero omitted, Abs format (unit mm)*
G04 Created by KiCad (PCBNEW 8.0.2) date 2025-05-14 18:04:52*
%MOMM*%
%LPD*%
G01*
G04 APERTURE LIST*
G04 Aperture macros list*
%AMRoundRect*
0 Rectangle with rounded corners*
0 $1 Rounding radius*
0 $2 $3 $4 $5 $6 $7 $8 $9 X,Y pos of 4 corners*
0 Add a 4 corners polygon primitive as box body*
4,1,4,$2,$3,$4,$5,$6,$7,$8,$9,$2,$3,0*
0 Add four circle primitives for the rounded corners*
1,1,$1+$1,$2,$3*
1,1,$1+$1,$4,$5*
1,1,$1+$1,$6,$7*
1,1,$1+$1,$8,$9*
0 Add four rect primitives between the rounded corners*
20,1,$1+$1,$2,$3,$4,$5,0*
20,1,$1+$1,$4,$5,$6,$7,0*
20,1,$1+$1,$6,$7,$8,$9,0*
20,1,$1+$1,$8,$9,$2,$3,0*%
G04 Aperture macros list end*
%ADD10RoundRect,0.250000X0.650000X-0.412500X0.650000X0.412500X-0.650000X0.412500X-0.650000X-0.412500X0*%
%ADD11RoundRect,0.250000X-0.650000X0.412500X-0.650000X-0.412500X0.650000X-0.412500X0.650000X0.412500X0*%
%ADD12C,1.524000*%
%ADD13C,3.000000*%
%ADD14RoundRect,0.250000X0.412500X0.650000X-0.412500X0.650000X-0.412500X-0.650000X0.412500X-0.650000X0*%
%ADD15C,4.000000*%
%ADD16R,1.400000X1.200000*%
%ADD17O,1.400000X1.200000*%
%ADD18R,1.700000X1.700000*%
%ADD19O,1.700000X1.700000*%
%ADD20C,2.032000*%
%ADD21C,3.301600*%
%ADD22C,2.781600*%
%ADD23C,1.500000*%
%ADD24R,4.000000X4.000000*%
%ADD25R,2.000000X2.000000*%
%ADD26C,3.250000*%
%ADD27C,1.750000*%
%ADD28C,2.000000*%
%ADD29R,1.600000X1.600000*%
%ADD30O,1.600000X1.600000*%
G04 APERTURE END LIST*
D10*
%TO.C,C10*%
X113950000Y-121012500D03*
X113950000Y-117887500D03*
%TD*%
%TO.C,C9*%
X116650000Y-121012500D03*
X116650000Y-117887500D03*
%TD*%
D11*
%TO.C,C3*%
X76450000Y-76637500D03*
X76450000Y-79762500D03*
%TD*%
D12*
%TO.C,U2_BME280*%
X184697000Y-93554000D03*
X184697000Y-96094000D03*
X184697000Y-98634000D03*
X184697000Y-101174000D03*
X184697000Y-103714000D03*
X184697000Y-106254000D03*
D13*
X192577000Y-94825000D03*
X192577000Y-105250000D03*
%TD*%
%TO.C,H1*%
X69000000Y-67000000D03*
%TD*%
%TO.C,H2*%
X198000000Y-67000000D03*
%TD*%
D14*
%TO.C,C2*%
X121150000Y-83450000D03*
X118025000Y-83450000D03*
%TD*%
D13*
%TO.C,H4*%
X198000000Y-133000000D03*
%TD*%
D11*
%TO.C,C8*%
X185300000Y-77787500D03*
X185300000Y-80912500D03*
%TD*%
%TO.C,C6*%
X79250000Y-76637500D03*
X79250000Y-79762500D03*
%TD*%
D13*
%TO.C,U3_BH1750*%
X184102000Y-71851000D03*
X192738000Y-71851000D03*
D12*
X183340000Y-86075000D03*
X185880000Y-86075000D03*
X188420000Y-86075000D03*
X190960000Y-86075000D03*
X193500000Y-86075000D03*
%TD*%
D11*
%TO.C,C1*%
X188100000Y-77800000D03*
X188100000Y-80925000D03*
%TD*%
D15*
%TO.C,U2*%
X74900000Y-72350000D03*
X74900000Y-127230000D03*
X176940000Y-71930000D03*
X176940000Y-127250000D03*
D16*
X73900000Y-83290000D03*
D17*
X73900000Y-85830000D03*
X73900000Y-88370000D03*
X73900000Y-90910000D03*
X73900000Y-93450000D03*
X73900000Y-95990000D03*
X73900000Y-98530000D03*
X73900000Y-101070000D03*
X73900000Y-103610000D03*
X73900000Y-106150000D03*
X73900000Y-108690000D03*
X73900000Y-111230000D03*
X73900000Y-113770000D03*
X73900000Y-116310000D03*
D16*
X177940000Y-95990000D03*
D17*
X177940000Y-98530000D03*
X177940000Y-101070000D03*
X177940000Y-103610000D03*
%TD*%
D14*
%TO.C,C5*%
X121162500Y-80600000D03*
X118037500Y-80600000D03*
%TD*%
D13*
%TO.C,H3*%
X69000000Y-133000000D03*
%TD*%
D18*
%TO.C,J1*%
X93875000Y-70800000D03*
D19*
X91335000Y-70800000D03*
%TD*%
D20*
%TO.C,adafruit_type_c_breakout_rev_b1*%
X189550000Y-111160000D03*
X189550000Y-113700000D03*
X189550000Y-116240000D03*
X189550000Y-118780000D03*
X189550000Y-121320000D03*
X189550000Y-123860000D03*
X189550000Y-126400000D03*
X189550000Y-128940000D03*
D21*
X198440000Y-127670000D03*
X198440000Y-112430000D03*
%TD*%
D22*
%TO.C,U1*%
X147861704Y-117860917D03*
X137061704Y-81660917D03*
D23*
X146291704Y-114980917D03*
D24*
X142401704Y-117520917D03*
D25*
X141211704Y-114980917D03*
X143751704Y-114980917D03*
D26*
X137401704Y-117520917D03*
D27*
X136131704Y-114980917D03*
X138671704Y-114980917D03*
D25*
X146251704Y-84540917D03*
X148791704Y-84540917D03*
D24*
X147521704Y-82000917D03*
D27*
X141171704Y-84540917D03*
X143711704Y-84540917D03*
D26*
X142521704Y-82000917D03*
%TD*%
D25*
%TO.C,U_ESP32_DEVKIT_V1*%
X121165000Y-112500000D03*
D28*
X118625000Y-112500000D03*
X116085000Y-112500000D03*
X113545000Y-112500000D03*
X111005000Y-112500000D03*
X108465000Y-112500000D03*
X105925000Y-112500000D03*
X103385000Y-112500000D03*
X100845000Y-112500000D03*
X98305000Y-112500000D03*
X95765000Y-112500000D03*
X93225000Y-112500000D03*
X90685000Y-112500000D03*
X88145000Y-112500000D03*
X85605000Y-112500000D03*
X85605000Y-87100000D03*
X88145000Y-87100000D03*
X90685000Y-87100000D03*
X93225000Y-87100000D03*
X95765000Y-87100000D03*
X98305000Y-87100000D03*
X100845000Y-87100000D03*
X103385000Y-87100000D03*
X105925000Y-87100000D03*
X108465000Y-87100000D03*
X111005000Y-87100000D03*
X113545000Y-87100000D03*
X116085000Y-87100000D03*
X118625000Y-87100000D03*
X121165000Y-87100000D03*
%TD*%
D29*
%TO.C,U3_minisdcard1*%
X107050000Y-121000000D03*
D30*
X107050000Y-123540000D03*
X107050000Y-126080000D03*
X107050000Y-128620000D03*
X107050000Y-131160000D03*
X107050000Y-133700000D03*
%TD*%
D20*
%TO.C,adafruit_type_c_vertical_breakout1*%
X158830000Y-91190000D03*
X158830000Y-93730000D03*
X158830000Y-96270000D03*
X158830000Y-98810000D03*
X158830000Y-101350000D03*
X158830000Y-103890000D03*
X158830000Y-106430000D03*
X158830000Y-108970000D03*
X168990000Y-91190000D03*
X168990000Y-93730000D03*
X168990000Y-96270000D03*
X168990000Y-98810000D03*
X168990000Y-101350000D03*
X168990000Y-103890000D03*
X168990000Y-106430000D03*
X168990000Y-108970000D03*
D21*
X158830000Y-112780000D03*
X168990000Y-112780000D03*
X158830000Y-87380000D03*
X168990000Y-87380000D03*
%TD*%
M02*
