%TF.GenerationSoftware,KiCad,Pcbnew,8.0.2*%
%TF.CreationDate,2025-04-23T23:20:31-07:00*%
%TF.ProjectId,mini_weather_monitor,6d696e69-5f77-4656-9174-6865725f6d6f,rev?*%
%TF.SameCoordinates,Original*%
%TF.FileFunction,Drillmap*%
%TF.FilePolarity,Positive*%
%FSLAX45Y45*%
G04 Gerber Fmt 4.5, Leading zero omitted, Abs format (unit mm)*
G04 Created by KiCad (PCBNEW 8.0.2) date 2025-04-23 23:20:31*
%MOMM*%
%LPD*%
G01*
G04 APERTURE LIST*
%ADD10C,0.100000*%
%ADD11C,0.200000*%
%ADD12C,0.218000*%
%ADD13C,0.220000*%
%ADD14C,0.254000*%
%ADD15C,0.320000*%
G04 APERTURE END LIST*
D10*
X20000000Y-13600000D02*
X6700000Y-13600000D01*
X6700000Y-6400000D02*
X20000000Y-6400000D01*
X20000000Y-6400000D02*
G75*
G02*
X20100000Y-6500000I0J-100000D01*
G01*
X20100000Y-6500000D02*
X20100000Y-13500000D01*
X6600000Y-13500000D02*
X6600000Y-6500000D01*
X6600000Y-6500000D02*
G75*
G02*
X6700000Y-6400000I100000J0D01*
G01*
X20100000Y-13500000D02*
G75*
G02*
X20000000Y-13600000I-100000J0D01*
G01*
X6700000Y-13600000D02*
G75*
G02*
X6600000Y-13500000I0J100000D01*
G01*
D11*
D12*
X13597170Y-8057092D02*
X13815170Y-8275092D01*
X13815170Y-8057092D02*
X13597170Y-8275092D01*
X14677170Y-11677092D02*
X14895170Y-11895092D01*
X14895170Y-11677092D02*
X14677170Y-11895092D01*
D13*
X7010000Y-6700000D02*
G75*
G02*
X6790000Y-6700000I-110000J0D01*
G01*
X6790000Y-6700000D02*
G75*
G02*
X7010000Y-6700000I110000J0D01*
G01*
X7010000Y-13300000D02*
G75*
G02*
X6790000Y-13300000I-110000J0D01*
G01*
X6790000Y-13300000D02*
G75*
G02*
X7010000Y-13300000I110000J0D01*
G01*
X19910000Y-6700000D02*
G75*
G02*
X19690000Y-6700000I-110000J0D01*
G01*
X19690000Y-6700000D02*
G75*
G02*
X19910000Y-6700000I110000J0D01*
G01*
X19910000Y-13300000D02*
G75*
G02*
X19690000Y-13300000I-110000J0D01*
G01*
X19690000Y-13300000D02*
G75*
G02*
X19910000Y-13300000I110000J0D01*
G01*
D14*
X18410200Y-7058100D02*
X18410200Y-7312100D01*
X18283200Y-7185100D02*
X18537200Y-7185100D01*
X19273800Y-7058100D02*
X19273800Y-7312100D01*
X19146800Y-7185100D02*
X19400800Y-7185100D01*
D15*
X7603138Y-7348138D02*
X7603138Y-7121862D01*
X7376862Y-7121862D01*
X7376862Y-7348138D01*
X7603138Y-7348138D01*
X7603138Y-12836138D02*
X7603138Y-12609862D01*
X7376862Y-12609862D01*
X7376862Y-12836138D01*
X7603138Y-12836138D01*
X17807138Y-7306138D02*
X17807138Y-7079862D01*
X17580862Y-7079862D01*
X17580862Y-7306138D01*
X17807138Y-7306138D01*
X17807138Y-12838138D02*
X17807138Y-12611862D01*
X17580862Y-12611862D01*
X17580862Y-12838138D01*
X17807138Y-12838138D01*
D11*
X6855777Y-13916484D02*
X6855777Y-13716484D01*
X6855777Y-13716484D02*
X6903396Y-13716484D01*
X6903396Y-13716484D02*
X6931967Y-13726008D01*
X6931967Y-13726008D02*
X6951015Y-13745055D01*
X6951015Y-13745055D02*
X6960539Y-13764103D01*
X6960539Y-13764103D02*
X6970062Y-13802198D01*
X6970062Y-13802198D02*
X6970062Y-13830769D01*
X6970062Y-13830769D02*
X6960539Y-13868865D01*
X6960539Y-13868865D02*
X6951015Y-13887912D01*
X6951015Y-13887912D02*
X6931967Y-13906960D01*
X6931967Y-13906960D02*
X6903396Y-13916484D01*
X6903396Y-13916484D02*
X6855777Y-13916484D01*
X7055777Y-13916484D02*
X7055777Y-13783150D01*
X7055777Y-13821246D02*
X7065301Y-13802198D01*
X7065301Y-13802198D02*
X7074824Y-13792674D01*
X7074824Y-13792674D02*
X7093872Y-13783150D01*
X7093872Y-13783150D02*
X7112920Y-13783150D01*
X7179586Y-13916484D02*
X7179586Y-13783150D01*
X7179586Y-13716484D02*
X7170062Y-13726008D01*
X7170062Y-13726008D02*
X7179586Y-13735531D01*
X7179586Y-13735531D02*
X7189110Y-13726008D01*
X7189110Y-13726008D02*
X7179586Y-13716484D01*
X7179586Y-13716484D02*
X7179586Y-13735531D01*
X7303396Y-13916484D02*
X7284348Y-13906960D01*
X7284348Y-13906960D02*
X7274824Y-13887912D01*
X7274824Y-13887912D02*
X7274824Y-13716484D01*
X7408158Y-13916484D02*
X7389110Y-13906960D01*
X7389110Y-13906960D02*
X7379586Y-13887912D01*
X7379586Y-13887912D02*
X7379586Y-13716484D01*
X7636729Y-13916484D02*
X7636729Y-13716484D01*
X7636729Y-13716484D02*
X7703396Y-13859341D01*
X7703396Y-13859341D02*
X7770062Y-13716484D01*
X7770062Y-13716484D02*
X7770062Y-13916484D01*
X7951015Y-13916484D02*
X7951015Y-13811722D01*
X7951015Y-13811722D02*
X7941491Y-13792674D01*
X7941491Y-13792674D02*
X7922443Y-13783150D01*
X7922443Y-13783150D02*
X7884348Y-13783150D01*
X7884348Y-13783150D02*
X7865301Y-13792674D01*
X7951015Y-13906960D02*
X7931967Y-13916484D01*
X7931967Y-13916484D02*
X7884348Y-13916484D01*
X7884348Y-13916484D02*
X7865301Y-13906960D01*
X7865301Y-13906960D02*
X7855777Y-13887912D01*
X7855777Y-13887912D02*
X7855777Y-13868865D01*
X7855777Y-13868865D02*
X7865301Y-13849817D01*
X7865301Y-13849817D02*
X7884348Y-13840293D01*
X7884348Y-13840293D02*
X7931967Y-13840293D01*
X7931967Y-13840293D02*
X7951015Y-13830769D01*
X8046253Y-13783150D02*
X8046253Y-13983150D01*
X8046253Y-13792674D02*
X8065301Y-13783150D01*
X8065301Y-13783150D02*
X8103396Y-13783150D01*
X8103396Y-13783150D02*
X8122443Y-13792674D01*
X8122443Y-13792674D02*
X8131967Y-13802198D01*
X8131967Y-13802198D02*
X8141491Y-13821246D01*
X8141491Y-13821246D02*
X8141491Y-13878388D01*
X8141491Y-13878388D02*
X8131967Y-13897436D01*
X8131967Y-13897436D02*
X8122443Y-13906960D01*
X8122443Y-13906960D02*
X8103396Y-13916484D01*
X8103396Y-13916484D02*
X8065301Y-13916484D01*
X8065301Y-13916484D02*
X8046253Y-13906960D01*
X8227205Y-13897436D02*
X8236729Y-13906960D01*
X8236729Y-13906960D02*
X8227205Y-13916484D01*
X8227205Y-13916484D02*
X8217682Y-13906960D01*
X8217682Y-13906960D02*
X8227205Y-13897436D01*
X8227205Y-13897436D02*
X8227205Y-13916484D01*
X8227205Y-13792674D02*
X8236729Y-13802198D01*
X8236729Y-13802198D02*
X8227205Y-13811722D01*
X8227205Y-13811722D02*
X8217682Y-13802198D01*
X8217682Y-13802198D02*
X8227205Y-13792674D01*
X8227205Y-13792674D02*
X8227205Y-13811722D01*
X6395000Y-14145000D02*
X6595000Y-14345000D01*
X6595000Y-14145000D02*
X6395000Y-14345000D01*
X6846253Y-14155531D02*
X6855777Y-14146008D01*
X6855777Y-14146008D02*
X6874824Y-14136484D01*
X6874824Y-14136484D02*
X6922443Y-14136484D01*
X6922443Y-14136484D02*
X6941491Y-14146008D01*
X6941491Y-14146008D02*
X6951015Y-14155531D01*
X6951015Y-14155531D02*
X6960539Y-14174579D01*
X6960539Y-14174579D02*
X6960539Y-14193627D01*
X6960539Y-14193627D02*
X6951015Y-14222198D01*
X6951015Y-14222198D02*
X6836729Y-14336484D01*
X6836729Y-14336484D02*
X6960539Y-14336484D01*
X7046253Y-14317436D02*
X7055777Y-14326960D01*
X7055777Y-14326960D02*
X7046253Y-14336484D01*
X7046253Y-14336484D02*
X7036729Y-14326960D01*
X7036729Y-14326960D02*
X7046253Y-14317436D01*
X7046253Y-14317436D02*
X7046253Y-14336484D01*
X7246253Y-14336484D02*
X7131967Y-14336484D01*
X7189110Y-14336484D02*
X7189110Y-14136484D01*
X7189110Y-14136484D02*
X7170062Y-14165055D01*
X7170062Y-14165055D02*
X7151015Y-14184103D01*
X7151015Y-14184103D02*
X7131967Y-14193627D01*
X7360539Y-14222198D02*
X7341491Y-14212674D01*
X7341491Y-14212674D02*
X7331967Y-14203150D01*
X7331967Y-14203150D02*
X7322443Y-14184103D01*
X7322443Y-14184103D02*
X7322443Y-14174579D01*
X7322443Y-14174579D02*
X7331967Y-14155531D01*
X7331967Y-14155531D02*
X7341491Y-14146008D01*
X7341491Y-14146008D02*
X7360539Y-14136484D01*
X7360539Y-14136484D02*
X7398634Y-14136484D01*
X7398634Y-14136484D02*
X7417682Y-14146008D01*
X7417682Y-14146008D02*
X7427205Y-14155531D01*
X7427205Y-14155531D02*
X7436729Y-14174579D01*
X7436729Y-14174579D02*
X7436729Y-14184103D01*
X7436729Y-14184103D02*
X7427205Y-14203150D01*
X7427205Y-14203150D02*
X7417682Y-14212674D01*
X7417682Y-14212674D02*
X7398634Y-14222198D01*
X7398634Y-14222198D02*
X7360539Y-14222198D01*
X7360539Y-14222198D02*
X7341491Y-14231722D01*
X7341491Y-14231722D02*
X7331967Y-14241246D01*
X7331967Y-14241246D02*
X7322443Y-14260293D01*
X7322443Y-14260293D02*
X7322443Y-14298388D01*
X7322443Y-14298388D02*
X7331967Y-14317436D01*
X7331967Y-14317436D02*
X7341491Y-14326960D01*
X7341491Y-14326960D02*
X7360539Y-14336484D01*
X7360539Y-14336484D02*
X7398634Y-14336484D01*
X7398634Y-14336484D02*
X7417682Y-14326960D01*
X7417682Y-14326960D02*
X7427205Y-14317436D01*
X7427205Y-14317436D02*
X7436729Y-14298388D01*
X7436729Y-14298388D02*
X7436729Y-14260293D01*
X7436729Y-14260293D02*
X7427205Y-14241246D01*
X7427205Y-14241246D02*
X7417682Y-14231722D01*
X7417682Y-14231722D02*
X7398634Y-14222198D01*
X7560539Y-14136484D02*
X7579586Y-14136484D01*
X7579586Y-14136484D02*
X7598634Y-14146008D01*
X7598634Y-14146008D02*
X7608158Y-14155531D01*
X7608158Y-14155531D02*
X7617682Y-14174579D01*
X7617682Y-14174579D02*
X7627205Y-14212674D01*
X7627205Y-14212674D02*
X7627205Y-14260293D01*
X7627205Y-14260293D02*
X7617682Y-14298388D01*
X7617682Y-14298388D02*
X7608158Y-14317436D01*
X7608158Y-14317436D02*
X7598634Y-14326960D01*
X7598634Y-14326960D02*
X7579586Y-14336484D01*
X7579586Y-14336484D02*
X7560539Y-14336484D01*
X7560539Y-14336484D02*
X7541491Y-14326960D01*
X7541491Y-14326960D02*
X7531967Y-14317436D01*
X7531967Y-14317436D02*
X7522443Y-14298388D01*
X7522443Y-14298388D02*
X7512920Y-14260293D01*
X7512920Y-14260293D02*
X7512920Y-14212674D01*
X7512920Y-14212674D02*
X7522443Y-14174579D01*
X7522443Y-14174579D02*
X7531967Y-14155531D01*
X7531967Y-14155531D02*
X7541491Y-14146008D01*
X7541491Y-14146008D02*
X7560539Y-14136484D01*
X7712920Y-14336484D02*
X7712920Y-14203150D01*
X7712920Y-14222198D02*
X7722443Y-14212674D01*
X7722443Y-14212674D02*
X7741491Y-14203150D01*
X7741491Y-14203150D02*
X7770063Y-14203150D01*
X7770063Y-14203150D02*
X7789110Y-14212674D01*
X7789110Y-14212674D02*
X7798634Y-14231722D01*
X7798634Y-14231722D02*
X7798634Y-14336484D01*
X7798634Y-14231722D02*
X7808158Y-14212674D01*
X7808158Y-14212674D02*
X7827205Y-14203150D01*
X7827205Y-14203150D02*
X7855777Y-14203150D01*
X7855777Y-14203150D02*
X7874824Y-14212674D01*
X7874824Y-14212674D02*
X7884348Y-14231722D01*
X7884348Y-14231722D02*
X7884348Y-14336484D01*
X7979586Y-14336484D02*
X7979586Y-14203150D01*
X7979586Y-14222198D02*
X7989110Y-14212674D01*
X7989110Y-14212674D02*
X8008158Y-14203150D01*
X8008158Y-14203150D02*
X8036729Y-14203150D01*
X8036729Y-14203150D02*
X8055777Y-14212674D01*
X8055777Y-14212674D02*
X8065301Y-14231722D01*
X8065301Y-14231722D02*
X8065301Y-14336484D01*
X8065301Y-14231722D02*
X8074824Y-14212674D01*
X8074824Y-14212674D02*
X8093872Y-14203150D01*
X8093872Y-14203150D02*
X8122443Y-14203150D01*
X8122443Y-14203150D02*
X8141491Y-14212674D01*
X8141491Y-14212674D02*
X8151015Y-14231722D01*
X8151015Y-14231722D02*
X8151015Y-14336484D01*
X8541491Y-14126960D02*
X8370063Y-14384103D01*
X8798634Y-14136484D02*
X8817682Y-14136484D01*
X8817682Y-14136484D02*
X8836729Y-14146008D01*
X8836729Y-14146008D02*
X8846253Y-14155531D01*
X8846253Y-14155531D02*
X8855777Y-14174579D01*
X8855777Y-14174579D02*
X8865301Y-14212674D01*
X8865301Y-14212674D02*
X8865301Y-14260293D01*
X8865301Y-14260293D02*
X8855777Y-14298388D01*
X8855777Y-14298388D02*
X8846253Y-14317436D01*
X8846253Y-14317436D02*
X8836729Y-14326960D01*
X8836729Y-14326960D02*
X8817682Y-14336484D01*
X8817682Y-14336484D02*
X8798634Y-14336484D01*
X8798634Y-14336484D02*
X8779587Y-14326960D01*
X8779587Y-14326960D02*
X8770063Y-14317436D01*
X8770063Y-14317436D02*
X8760539Y-14298388D01*
X8760539Y-14298388D02*
X8751015Y-14260293D01*
X8751015Y-14260293D02*
X8751015Y-14212674D01*
X8751015Y-14212674D02*
X8760539Y-14174579D01*
X8760539Y-14174579D02*
X8770063Y-14155531D01*
X8770063Y-14155531D02*
X8779587Y-14146008D01*
X8779587Y-14146008D02*
X8798634Y-14136484D01*
X8951015Y-14317436D02*
X8960539Y-14326960D01*
X8960539Y-14326960D02*
X8951015Y-14336484D01*
X8951015Y-14336484D02*
X8941491Y-14326960D01*
X8941491Y-14326960D02*
X8951015Y-14317436D01*
X8951015Y-14317436D02*
X8951015Y-14336484D01*
X9084348Y-14136484D02*
X9103396Y-14136484D01*
X9103396Y-14136484D02*
X9122444Y-14146008D01*
X9122444Y-14146008D02*
X9131968Y-14155531D01*
X9131968Y-14155531D02*
X9141491Y-14174579D01*
X9141491Y-14174579D02*
X9151015Y-14212674D01*
X9151015Y-14212674D02*
X9151015Y-14260293D01*
X9151015Y-14260293D02*
X9141491Y-14298388D01*
X9141491Y-14298388D02*
X9131968Y-14317436D01*
X9131968Y-14317436D02*
X9122444Y-14326960D01*
X9122444Y-14326960D02*
X9103396Y-14336484D01*
X9103396Y-14336484D02*
X9084348Y-14336484D01*
X9084348Y-14336484D02*
X9065301Y-14326960D01*
X9065301Y-14326960D02*
X9055777Y-14317436D01*
X9055777Y-14317436D02*
X9046253Y-14298388D01*
X9046253Y-14298388D02*
X9036729Y-14260293D01*
X9036729Y-14260293D02*
X9036729Y-14212674D01*
X9036729Y-14212674D02*
X9046253Y-14174579D01*
X9046253Y-14174579D02*
X9055777Y-14155531D01*
X9055777Y-14155531D02*
X9065301Y-14146008D01*
X9065301Y-14146008D02*
X9084348Y-14136484D01*
X9265301Y-14222198D02*
X9246253Y-14212674D01*
X9246253Y-14212674D02*
X9236729Y-14203150D01*
X9236729Y-14203150D02*
X9227206Y-14184103D01*
X9227206Y-14184103D02*
X9227206Y-14174579D01*
X9227206Y-14174579D02*
X9236729Y-14155531D01*
X9236729Y-14155531D02*
X9246253Y-14146008D01*
X9246253Y-14146008D02*
X9265301Y-14136484D01*
X9265301Y-14136484D02*
X9303396Y-14136484D01*
X9303396Y-14136484D02*
X9322444Y-14146008D01*
X9322444Y-14146008D02*
X9331968Y-14155531D01*
X9331968Y-14155531D02*
X9341491Y-14174579D01*
X9341491Y-14174579D02*
X9341491Y-14184103D01*
X9341491Y-14184103D02*
X9331968Y-14203150D01*
X9331968Y-14203150D02*
X9322444Y-14212674D01*
X9322444Y-14212674D02*
X9303396Y-14222198D01*
X9303396Y-14222198D02*
X9265301Y-14222198D01*
X9265301Y-14222198D02*
X9246253Y-14231722D01*
X9246253Y-14231722D02*
X9236729Y-14241246D01*
X9236729Y-14241246D02*
X9227206Y-14260293D01*
X9227206Y-14260293D02*
X9227206Y-14298388D01*
X9227206Y-14298388D02*
X9236729Y-14317436D01*
X9236729Y-14317436D02*
X9246253Y-14326960D01*
X9246253Y-14326960D02*
X9265301Y-14336484D01*
X9265301Y-14336484D02*
X9303396Y-14336484D01*
X9303396Y-14336484D02*
X9322444Y-14326960D01*
X9322444Y-14326960D02*
X9331968Y-14317436D01*
X9331968Y-14317436D02*
X9341491Y-14298388D01*
X9341491Y-14298388D02*
X9341491Y-14260293D01*
X9341491Y-14260293D02*
X9331968Y-14241246D01*
X9331968Y-14241246D02*
X9322444Y-14231722D01*
X9322444Y-14231722D02*
X9303396Y-14222198D01*
X9522444Y-14136484D02*
X9427206Y-14136484D01*
X9427206Y-14136484D02*
X9417682Y-14231722D01*
X9417682Y-14231722D02*
X9427206Y-14222198D01*
X9427206Y-14222198D02*
X9446253Y-14212674D01*
X9446253Y-14212674D02*
X9493872Y-14212674D01*
X9493872Y-14212674D02*
X9512920Y-14222198D01*
X9512920Y-14222198D02*
X9522444Y-14231722D01*
X9522444Y-14231722D02*
X9531968Y-14250769D01*
X9531968Y-14250769D02*
X9531968Y-14298388D01*
X9531968Y-14298388D02*
X9522444Y-14317436D01*
X9522444Y-14317436D02*
X9512920Y-14326960D01*
X9512920Y-14326960D02*
X9493872Y-14336484D01*
X9493872Y-14336484D02*
X9446253Y-14336484D01*
X9446253Y-14336484D02*
X9427206Y-14326960D01*
X9427206Y-14326960D02*
X9417682Y-14317436D01*
X9646253Y-14222198D02*
X9627206Y-14212674D01*
X9627206Y-14212674D02*
X9617682Y-14203150D01*
X9617682Y-14203150D02*
X9608158Y-14184103D01*
X9608158Y-14184103D02*
X9608158Y-14174579D01*
X9608158Y-14174579D02*
X9617682Y-14155531D01*
X9617682Y-14155531D02*
X9627206Y-14146008D01*
X9627206Y-14146008D02*
X9646253Y-14136484D01*
X9646253Y-14136484D02*
X9684349Y-14136484D01*
X9684349Y-14136484D02*
X9703396Y-14146008D01*
X9703396Y-14146008D02*
X9712920Y-14155531D01*
X9712920Y-14155531D02*
X9722444Y-14174579D01*
X9722444Y-14174579D02*
X9722444Y-14184103D01*
X9722444Y-14184103D02*
X9712920Y-14203150D01*
X9712920Y-14203150D02*
X9703396Y-14212674D01*
X9703396Y-14212674D02*
X9684349Y-14222198D01*
X9684349Y-14222198D02*
X9646253Y-14222198D01*
X9646253Y-14222198D02*
X9627206Y-14231722D01*
X9627206Y-14231722D02*
X9617682Y-14241246D01*
X9617682Y-14241246D02*
X9608158Y-14260293D01*
X9608158Y-14260293D02*
X9608158Y-14298388D01*
X9608158Y-14298388D02*
X9617682Y-14317436D01*
X9617682Y-14317436D02*
X9627206Y-14326960D01*
X9627206Y-14326960D02*
X9646253Y-14336484D01*
X9646253Y-14336484D02*
X9684349Y-14336484D01*
X9684349Y-14336484D02*
X9703396Y-14326960D01*
X9703396Y-14326960D02*
X9712920Y-14317436D01*
X9712920Y-14317436D02*
X9722444Y-14298388D01*
X9722444Y-14298388D02*
X9722444Y-14260293D01*
X9722444Y-14260293D02*
X9712920Y-14241246D01*
X9712920Y-14241246D02*
X9703396Y-14231722D01*
X9703396Y-14231722D02*
X9684349Y-14222198D01*
X9798634Y-14136484D02*
X9798634Y-14174579D01*
X9874825Y-14136484D02*
X9874825Y-14174579D01*
X10170063Y-14412674D02*
X10160539Y-14403150D01*
X10160539Y-14403150D02*
X10141491Y-14374579D01*
X10141491Y-14374579D02*
X10131968Y-14355531D01*
X10131968Y-14355531D02*
X10122444Y-14326960D01*
X10122444Y-14326960D02*
X10112920Y-14279341D01*
X10112920Y-14279341D02*
X10112920Y-14241246D01*
X10112920Y-14241246D02*
X10122444Y-14193627D01*
X10122444Y-14193627D02*
X10131968Y-14165055D01*
X10131968Y-14165055D02*
X10141491Y-14146008D01*
X10141491Y-14146008D02*
X10160539Y-14117436D01*
X10160539Y-14117436D02*
X10170063Y-14107912D01*
X10236730Y-14155531D02*
X10246253Y-14146008D01*
X10246253Y-14146008D02*
X10265301Y-14136484D01*
X10265301Y-14136484D02*
X10312920Y-14136484D01*
X10312920Y-14136484D02*
X10331968Y-14146008D01*
X10331968Y-14146008D02*
X10341491Y-14155531D01*
X10341491Y-14155531D02*
X10351015Y-14174579D01*
X10351015Y-14174579D02*
X10351015Y-14193627D01*
X10351015Y-14193627D02*
X10341491Y-14222198D01*
X10341491Y-14222198D02*
X10227206Y-14336484D01*
X10227206Y-14336484D02*
X10351015Y-14336484D01*
X10589111Y-14336484D02*
X10589111Y-14136484D01*
X10674825Y-14336484D02*
X10674825Y-14231722D01*
X10674825Y-14231722D02*
X10665301Y-14212674D01*
X10665301Y-14212674D02*
X10646253Y-14203150D01*
X10646253Y-14203150D02*
X10617682Y-14203150D01*
X10617682Y-14203150D02*
X10598634Y-14212674D01*
X10598634Y-14212674D02*
X10589111Y-14222198D01*
X10798634Y-14336484D02*
X10779587Y-14326960D01*
X10779587Y-14326960D02*
X10770063Y-14317436D01*
X10770063Y-14317436D02*
X10760539Y-14298388D01*
X10760539Y-14298388D02*
X10760539Y-14241246D01*
X10760539Y-14241246D02*
X10770063Y-14222198D01*
X10770063Y-14222198D02*
X10779587Y-14212674D01*
X10779587Y-14212674D02*
X10798634Y-14203150D01*
X10798634Y-14203150D02*
X10827206Y-14203150D01*
X10827206Y-14203150D02*
X10846253Y-14212674D01*
X10846253Y-14212674D02*
X10855777Y-14222198D01*
X10855777Y-14222198D02*
X10865301Y-14241246D01*
X10865301Y-14241246D02*
X10865301Y-14298388D01*
X10865301Y-14298388D02*
X10855777Y-14317436D01*
X10855777Y-14317436D02*
X10846253Y-14326960D01*
X10846253Y-14326960D02*
X10827206Y-14336484D01*
X10827206Y-14336484D02*
X10798634Y-14336484D01*
X10979587Y-14336484D02*
X10960539Y-14326960D01*
X10960539Y-14326960D02*
X10951015Y-14307912D01*
X10951015Y-14307912D02*
X10951015Y-14136484D01*
X11131968Y-14326960D02*
X11112920Y-14336484D01*
X11112920Y-14336484D02*
X11074825Y-14336484D01*
X11074825Y-14336484D02*
X11055777Y-14326960D01*
X11055777Y-14326960D02*
X11046253Y-14307912D01*
X11046253Y-14307912D02*
X11046253Y-14231722D01*
X11046253Y-14231722D02*
X11055777Y-14212674D01*
X11055777Y-14212674D02*
X11074825Y-14203150D01*
X11074825Y-14203150D02*
X11112920Y-14203150D01*
X11112920Y-14203150D02*
X11131968Y-14212674D01*
X11131968Y-14212674D02*
X11141492Y-14231722D01*
X11141492Y-14231722D02*
X11141492Y-14250769D01*
X11141492Y-14250769D02*
X11046253Y-14269817D01*
X11217682Y-14326960D02*
X11236730Y-14336484D01*
X11236730Y-14336484D02*
X11274825Y-14336484D01*
X11274825Y-14336484D02*
X11293872Y-14326960D01*
X11293872Y-14326960D02*
X11303396Y-14307912D01*
X11303396Y-14307912D02*
X11303396Y-14298388D01*
X11303396Y-14298388D02*
X11293872Y-14279341D01*
X11293872Y-14279341D02*
X11274825Y-14269817D01*
X11274825Y-14269817D02*
X11246253Y-14269817D01*
X11246253Y-14269817D02*
X11227206Y-14260293D01*
X11227206Y-14260293D02*
X11217682Y-14241246D01*
X11217682Y-14241246D02*
X11217682Y-14231722D01*
X11217682Y-14231722D02*
X11227206Y-14212674D01*
X11227206Y-14212674D02*
X11246253Y-14203150D01*
X11246253Y-14203150D02*
X11274825Y-14203150D01*
X11274825Y-14203150D02*
X11293872Y-14212674D01*
X11370063Y-14412674D02*
X11379587Y-14403150D01*
X11379587Y-14403150D02*
X11398634Y-14374579D01*
X11398634Y-14374579D02*
X11408158Y-14355531D01*
X11408158Y-14355531D02*
X11417682Y-14326960D01*
X11417682Y-14326960D02*
X11427206Y-14279341D01*
X11427206Y-14279341D02*
X11427206Y-14241246D01*
X11427206Y-14241246D02*
X11417682Y-14193627D01*
X11417682Y-14193627D02*
X11408158Y-14165055D01*
X11408158Y-14165055D02*
X11398634Y-14146008D01*
X11398634Y-14146008D02*
X11379587Y-14117436D01*
X11379587Y-14117436D02*
X11370063Y-14107912D01*
X11731968Y-14412674D02*
X11722444Y-14403150D01*
X11722444Y-14403150D02*
X11703396Y-14374579D01*
X11703396Y-14374579D02*
X11693872Y-14355531D01*
X11693872Y-14355531D02*
X11684349Y-14326960D01*
X11684349Y-14326960D02*
X11674825Y-14279341D01*
X11674825Y-14279341D02*
X11674825Y-14241246D01*
X11674825Y-14241246D02*
X11684349Y-14193627D01*
X11684349Y-14193627D02*
X11693872Y-14165055D01*
X11693872Y-14165055D02*
X11703396Y-14146008D01*
X11703396Y-14146008D02*
X11722444Y-14117436D01*
X11722444Y-14117436D02*
X11731968Y-14107912D01*
X11808158Y-14203150D02*
X11808158Y-14336484D01*
X11808158Y-14222198D02*
X11817682Y-14212674D01*
X11817682Y-14212674D02*
X11836730Y-14203150D01*
X11836730Y-14203150D02*
X11865301Y-14203150D01*
X11865301Y-14203150D02*
X11884349Y-14212674D01*
X11884349Y-14212674D02*
X11893872Y-14231722D01*
X11893872Y-14231722D02*
X11893872Y-14336484D01*
X12017682Y-14336484D02*
X11998634Y-14326960D01*
X11998634Y-14326960D02*
X11989111Y-14317436D01*
X11989111Y-14317436D02*
X11979587Y-14298388D01*
X11979587Y-14298388D02*
X11979587Y-14241246D01*
X11979587Y-14241246D02*
X11989111Y-14222198D01*
X11989111Y-14222198D02*
X11998634Y-14212674D01*
X11998634Y-14212674D02*
X12017682Y-14203150D01*
X12017682Y-14203150D02*
X12046253Y-14203150D01*
X12046253Y-14203150D02*
X12065301Y-14212674D01*
X12065301Y-14212674D02*
X12074825Y-14222198D01*
X12074825Y-14222198D02*
X12084349Y-14241246D01*
X12084349Y-14241246D02*
X12084349Y-14298388D01*
X12084349Y-14298388D02*
X12074825Y-14317436D01*
X12074825Y-14317436D02*
X12065301Y-14326960D01*
X12065301Y-14326960D02*
X12046253Y-14336484D01*
X12046253Y-14336484D02*
X12017682Y-14336484D01*
X12141492Y-14203150D02*
X12217682Y-14203150D01*
X12170063Y-14136484D02*
X12170063Y-14307912D01*
X12170063Y-14307912D02*
X12179587Y-14326960D01*
X12179587Y-14326960D02*
X12198634Y-14336484D01*
X12198634Y-14336484D02*
X12217682Y-14336484D01*
X12436730Y-14203150D02*
X12436730Y-14403150D01*
X12436730Y-14212674D02*
X12455777Y-14203150D01*
X12455777Y-14203150D02*
X12493873Y-14203150D01*
X12493873Y-14203150D02*
X12512920Y-14212674D01*
X12512920Y-14212674D02*
X12522444Y-14222198D01*
X12522444Y-14222198D02*
X12531968Y-14241246D01*
X12531968Y-14241246D02*
X12531968Y-14298388D01*
X12531968Y-14298388D02*
X12522444Y-14317436D01*
X12522444Y-14317436D02*
X12512920Y-14326960D01*
X12512920Y-14326960D02*
X12493873Y-14336484D01*
X12493873Y-14336484D02*
X12455777Y-14336484D01*
X12455777Y-14336484D02*
X12436730Y-14326960D01*
X12646253Y-14336484D02*
X12627206Y-14326960D01*
X12627206Y-14326960D02*
X12617682Y-14307912D01*
X12617682Y-14307912D02*
X12617682Y-14136484D01*
X12808158Y-14336484D02*
X12808158Y-14231722D01*
X12808158Y-14231722D02*
X12798634Y-14212674D01*
X12798634Y-14212674D02*
X12779587Y-14203150D01*
X12779587Y-14203150D02*
X12741492Y-14203150D01*
X12741492Y-14203150D02*
X12722444Y-14212674D01*
X12808158Y-14326960D02*
X12789111Y-14336484D01*
X12789111Y-14336484D02*
X12741492Y-14336484D01*
X12741492Y-14336484D02*
X12722444Y-14326960D01*
X12722444Y-14326960D02*
X12712920Y-14307912D01*
X12712920Y-14307912D02*
X12712920Y-14288865D01*
X12712920Y-14288865D02*
X12722444Y-14269817D01*
X12722444Y-14269817D02*
X12741492Y-14260293D01*
X12741492Y-14260293D02*
X12789111Y-14260293D01*
X12789111Y-14260293D02*
X12808158Y-14250769D01*
X12874825Y-14203150D02*
X12951015Y-14203150D01*
X12903396Y-14136484D02*
X12903396Y-14307912D01*
X12903396Y-14307912D02*
X12912920Y-14326960D01*
X12912920Y-14326960D02*
X12931968Y-14336484D01*
X12931968Y-14336484D02*
X12951015Y-14336484D01*
X13093873Y-14326960D02*
X13074825Y-14336484D01*
X13074825Y-14336484D02*
X13036730Y-14336484D01*
X13036730Y-14336484D02*
X13017682Y-14326960D01*
X13017682Y-14326960D02*
X13008158Y-14307912D01*
X13008158Y-14307912D02*
X13008158Y-14231722D01*
X13008158Y-14231722D02*
X13017682Y-14212674D01*
X13017682Y-14212674D02*
X13036730Y-14203150D01*
X13036730Y-14203150D02*
X13074825Y-14203150D01*
X13074825Y-14203150D02*
X13093873Y-14212674D01*
X13093873Y-14212674D02*
X13103396Y-14231722D01*
X13103396Y-14231722D02*
X13103396Y-14250769D01*
X13103396Y-14250769D02*
X13008158Y-14269817D01*
X13274825Y-14336484D02*
X13274825Y-14136484D01*
X13274825Y-14326960D02*
X13255777Y-14336484D01*
X13255777Y-14336484D02*
X13217682Y-14336484D01*
X13217682Y-14336484D02*
X13198634Y-14326960D01*
X13198634Y-14326960D02*
X13189111Y-14317436D01*
X13189111Y-14317436D02*
X13179587Y-14298388D01*
X13179587Y-14298388D02*
X13179587Y-14241246D01*
X13179587Y-14241246D02*
X13189111Y-14222198D01*
X13189111Y-14222198D02*
X13198634Y-14212674D01*
X13198634Y-14212674D02*
X13217682Y-14203150D01*
X13217682Y-14203150D02*
X13255777Y-14203150D01*
X13255777Y-14203150D02*
X13274825Y-14212674D01*
X13351015Y-14412674D02*
X13360539Y-14403150D01*
X13360539Y-14403150D02*
X13379587Y-14374579D01*
X13379587Y-14374579D02*
X13389111Y-14355531D01*
X13389111Y-14355531D02*
X13398634Y-14326960D01*
X13398634Y-14326960D02*
X13408158Y-14279341D01*
X13408158Y-14279341D02*
X13408158Y-14241246D01*
X13408158Y-14241246D02*
X13398634Y-14193627D01*
X13398634Y-14193627D02*
X13389111Y-14165055D01*
X13389111Y-14165055D02*
X13379587Y-14146008D01*
X13379587Y-14146008D02*
X13360539Y-14117436D01*
X13360539Y-14117436D02*
X13351015Y-14107912D01*
X6595000Y-14565000D02*
G75*
G02*
X6395000Y-14565000I-100000J0D01*
G01*
X6395000Y-14565000D02*
G75*
G02*
X6595000Y-14565000I100000J0D01*
G01*
X6846253Y-14475531D02*
X6855777Y-14466008D01*
X6855777Y-14466008D02*
X6874824Y-14456484D01*
X6874824Y-14456484D02*
X6922443Y-14456484D01*
X6922443Y-14456484D02*
X6941491Y-14466008D01*
X6941491Y-14466008D02*
X6951015Y-14475531D01*
X6951015Y-14475531D02*
X6960539Y-14494579D01*
X6960539Y-14494579D02*
X6960539Y-14513627D01*
X6960539Y-14513627D02*
X6951015Y-14542198D01*
X6951015Y-14542198D02*
X6836729Y-14656484D01*
X6836729Y-14656484D02*
X6960539Y-14656484D01*
X7046253Y-14637436D02*
X7055777Y-14646960D01*
X7055777Y-14646960D02*
X7046253Y-14656484D01*
X7046253Y-14656484D02*
X7036729Y-14646960D01*
X7036729Y-14646960D02*
X7046253Y-14637436D01*
X7046253Y-14637436D02*
X7046253Y-14656484D01*
X7131967Y-14475531D02*
X7141491Y-14466008D01*
X7141491Y-14466008D02*
X7160539Y-14456484D01*
X7160539Y-14456484D02*
X7208158Y-14456484D01*
X7208158Y-14456484D02*
X7227205Y-14466008D01*
X7227205Y-14466008D02*
X7236729Y-14475531D01*
X7236729Y-14475531D02*
X7246253Y-14494579D01*
X7246253Y-14494579D02*
X7246253Y-14513627D01*
X7246253Y-14513627D02*
X7236729Y-14542198D01*
X7236729Y-14542198D02*
X7122443Y-14656484D01*
X7122443Y-14656484D02*
X7246253Y-14656484D01*
X7370062Y-14456484D02*
X7389110Y-14456484D01*
X7389110Y-14456484D02*
X7408158Y-14466008D01*
X7408158Y-14466008D02*
X7417682Y-14475531D01*
X7417682Y-14475531D02*
X7427205Y-14494579D01*
X7427205Y-14494579D02*
X7436729Y-14532674D01*
X7436729Y-14532674D02*
X7436729Y-14580293D01*
X7436729Y-14580293D02*
X7427205Y-14618388D01*
X7427205Y-14618388D02*
X7417682Y-14637436D01*
X7417682Y-14637436D02*
X7408158Y-14646960D01*
X7408158Y-14646960D02*
X7389110Y-14656484D01*
X7389110Y-14656484D02*
X7370062Y-14656484D01*
X7370062Y-14656484D02*
X7351015Y-14646960D01*
X7351015Y-14646960D02*
X7341491Y-14637436D01*
X7341491Y-14637436D02*
X7331967Y-14618388D01*
X7331967Y-14618388D02*
X7322443Y-14580293D01*
X7322443Y-14580293D02*
X7322443Y-14532674D01*
X7322443Y-14532674D02*
X7331967Y-14494579D01*
X7331967Y-14494579D02*
X7341491Y-14475531D01*
X7341491Y-14475531D02*
X7351015Y-14466008D01*
X7351015Y-14466008D02*
X7370062Y-14456484D01*
X7560539Y-14456484D02*
X7579586Y-14456484D01*
X7579586Y-14456484D02*
X7598634Y-14466008D01*
X7598634Y-14466008D02*
X7608158Y-14475531D01*
X7608158Y-14475531D02*
X7617682Y-14494579D01*
X7617682Y-14494579D02*
X7627205Y-14532674D01*
X7627205Y-14532674D02*
X7627205Y-14580293D01*
X7627205Y-14580293D02*
X7617682Y-14618388D01*
X7617682Y-14618388D02*
X7608158Y-14637436D01*
X7608158Y-14637436D02*
X7598634Y-14646960D01*
X7598634Y-14646960D02*
X7579586Y-14656484D01*
X7579586Y-14656484D02*
X7560539Y-14656484D01*
X7560539Y-14656484D02*
X7541491Y-14646960D01*
X7541491Y-14646960D02*
X7531967Y-14637436D01*
X7531967Y-14637436D02*
X7522443Y-14618388D01*
X7522443Y-14618388D02*
X7512920Y-14580293D01*
X7512920Y-14580293D02*
X7512920Y-14532674D01*
X7512920Y-14532674D02*
X7522443Y-14494579D01*
X7522443Y-14494579D02*
X7531967Y-14475531D01*
X7531967Y-14475531D02*
X7541491Y-14466008D01*
X7541491Y-14466008D02*
X7560539Y-14456484D01*
X7712920Y-14656484D02*
X7712920Y-14523150D01*
X7712920Y-14542198D02*
X7722443Y-14532674D01*
X7722443Y-14532674D02*
X7741491Y-14523150D01*
X7741491Y-14523150D02*
X7770063Y-14523150D01*
X7770063Y-14523150D02*
X7789110Y-14532674D01*
X7789110Y-14532674D02*
X7798634Y-14551722D01*
X7798634Y-14551722D02*
X7798634Y-14656484D01*
X7798634Y-14551722D02*
X7808158Y-14532674D01*
X7808158Y-14532674D02*
X7827205Y-14523150D01*
X7827205Y-14523150D02*
X7855777Y-14523150D01*
X7855777Y-14523150D02*
X7874824Y-14532674D01*
X7874824Y-14532674D02*
X7884348Y-14551722D01*
X7884348Y-14551722D02*
X7884348Y-14656484D01*
X7979586Y-14656484D02*
X7979586Y-14523150D01*
X7979586Y-14542198D02*
X7989110Y-14532674D01*
X7989110Y-14532674D02*
X8008158Y-14523150D01*
X8008158Y-14523150D02*
X8036729Y-14523150D01*
X8036729Y-14523150D02*
X8055777Y-14532674D01*
X8055777Y-14532674D02*
X8065301Y-14551722D01*
X8065301Y-14551722D02*
X8065301Y-14656484D01*
X8065301Y-14551722D02*
X8074824Y-14532674D01*
X8074824Y-14532674D02*
X8093872Y-14523150D01*
X8093872Y-14523150D02*
X8122443Y-14523150D01*
X8122443Y-14523150D02*
X8141491Y-14532674D01*
X8141491Y-14532674D02*
X8151015Y-14551722D01*
X8151015Y-14551722D02*
X8151015Y-14656484D01*
X8541491Y-14446960D02*
X8370063Y-14704103D01*
X8798634Y-14456484D02*
X8817682Y-14456484D01*
X8817682Y-14456484D02*
X8836729Y-14466008D01*
X8836729Y-14466008D02*
X8846253Y-14475531D01*
X8846253Y-14475531D02*
X8855777Y-14494579D01*
X8855777Y-14494579D02*
X8865301Y-14532674D01*
X8865301Y-14532674D02*
X8865301Y-14580293D01*
X8865301Y-14580293D02*
X8855777Y-14618388D01*
X8855777Y-14618388D02*
X8846253Y-14637436D01*
X8846253Y-14637436D02*
X8836729Y-14646960D01*
X8836729Y-14646960D02*
X8817682Y-14656484D01*
X8817682Y-14656484D02*
X8798634Y-14656484D01*
X8798634Y-14656484D02*
X8779587Y-14646960D01*
X8779587Y-14646960D02*
X8770063Y-14637436D01*
X8770063Y-14637436D02*
X8760539Y-14618388D01*
X8760539Y-14618388D02*
X8751015Y-14580293D01*
X8751015Y-14580293D02*
X8751015Y-14532674D01*
X8751015Y-14532674D02*
X8760539Y-14494579D01*
X8760539Y-14494579D02*
X8770063Y-14475531D01*
X8770063Y-14475531D02*
X8779587Y-14466008D01*
X8779587Y-14466008D02*
X8798634Y-14456484D01*
X8951015Y-14637436D02*
X8960539Y-14646960D01*
X8960539Y-14646960D02*
X8951015Y-14656484D01*
X8951015Y-14656484D02*
X8941491Y-14646960D01*
X8941491Y-14646960D02*
X8951015Y-14637436D01*
X8951015Y-14637436D02*
X8951015Y-14656484D01*
X9084348Y-14456484D02*
X9103396Y-14456484D01*
X9103396Y-14456484D02*
X9122444Y-14466008D01*
X9122444Y-14466008D02*
X9131968Y-14475531D01*
X9131968Y-14475531D02*
X9141491Y-14494579D01*
X9141491Y-14494579D02*
X9151015Y-14532674D01*
X9151015Y-14532674D02*
X9151015Y-14580293D01*
X9151015Y-14580293D02*
X9141491Y-14618388D01*
X9141491Y-14618388D02*
X9131968Y-14637436D01*
X9131968Y-14637436D02*
X9122444Y-14646960D01*
X9122444Y-14646960D02*
X9103396Y-14656484D01*
X9103396Y-14656484D02*
X9084348Y-14656484D01*
X9084348Y-14656484D02*
X9065301Y-14646960D01*
X9065301Y-14646960D02*
X9055777Y-14637436D01*
X9055777Y-14637436D02*
X9046253Y-14618388D01*
X9046253Y-14618388D02*
X9036729Y-14580293D01*
X9036729Y-14580293D02*
X9036729Y-14532674D01*
X9036729Y-14532674D02*
X9046253Y-14494579D01*
X9046253Y-14494579D02*
X9055777Y-14475531D01*
X9055777Y-14475531D02*
X9065301Y-14466008D01*
X9065301Y-14466008D02*
X9084348Y-14456484D01*
X9265301Y-14542198D02*
X9246253Y-14532674D01*
X9246253Y-14532674D02*
X9236729Y-14523150D01*
X9236729Y-14523150D02*
X9227206Y-14504103D01*
X9227206Y-14504103D02*
X9227206Y-14494579D01*
X9227206Y-14494579D02*
X9236729Y-14475531D01*
X9236729Y-14475531D02*
X9246253Y-14466008D01*
X9246253Y-14466008D02*
X9265301Y-14456484D01*
X9265301Y-14456484D02*
X9303396Y-14456484D01*
X9303396Y-14456484D02*
X9322444Y-14466008D01*
X9322444Y-14466008D02*
X9331968Y-14475531D01*
X9331968Y-14475531D02*
X9341491Y-14494579D01*
X9341491Y-14494579D02*
X9341491Y-14504103D01*
X9341491Y-14504103D02*
X9331968Y-14523150D01*
X9331968Y-14523150D02*
X9322444Y-14532674D01*
X9322444Y-14532674D02*
X9303396Y-14542198D01*
X9303396Y-14542198D02*
X9265301Y-14542198D01*
X9265301Y-14542198D02*
X9246253Y-14551722D01*
X9246253Y-14551722D02*
X9236729Y-14561246D01*
X9236729Y-14561246D02*
X9227206Y-14580293D01*
X9227206Y-14580293D02*
X9227206Y-14618388D01*
X9227206Y-14618388D02*
X9236729Y-14637436D01*
X9236729Y-14637436D02*
X9246253Y-14646960D01*
X9246253Y-14646960D02*
X9265301Y-14656484D01*
X9265301Y-14656484D02*
X9303396Y-14656484D01*
X9303396Y-14656484D02*
X9322444Y-14646960D01*
X9322444Y-14646960D02*
X9331968Y-14637436D01*
X9331968Y-14637436D02*
X9341491Y-14618388D01*
X9341491Y-14618388D02*
X9341491Y-14580293D01*
X9341491Y-14580293D02*
X9331968Y-14561246D01*
X9331968Y-14561246D02*
X9322444Y-14551722D01*
X9322444Y-14551722D02*
X9303396Y-14542198D01*
X9512920Y-14456484D02*
X9474825Y-14456484D01*
X9474825Y-14456484D02*
X9455777Y-14466008D01*
X9455777Y-14466008D02*
X9446253Y-14475531D01*
X9446253Y-14475531D02*
X9427206Y-14504103D01*
X9427206Y-14504103D02*
X9417682Y-14542198D01*
X9417682Y-14542198D02*
X9417682Y-14618388D01*
X9417682Y-14618388D02*
X9427206Y-14637436D01*
X9427206Y-14637436D02*
X9436729Y-14646960D01*
X9436729Y-14646960D02*
X9455777Y-14656484D01*
X9455777Y-14656484D02*
X9493872Y-14656484D01*
X9493872Y-14656484D02*
X9512920Y-14646960D01*
X9512920Y-14646960D02*
X9522444Y-14637436D01*
X9522444Y-14637436D02*
X9531968Y-14618388D01*
X9531968Y-14618388D02*
X9531968Y-14570769D01*
X9531968Y-14570769D02*
X9522444Y-14551722D01*
X9522444Y-14551722D02*
X9512920Y-14542198D01*
X9512920Y-14542198D02*
X9493872Y-14532674D01*
X9493872Y-14532674D02*
X9455777Y-14532674D01*
X9455777Y-14532674D02*
X9436729Y-14542198D01*
X9436729Y-14542198D02*
X9427206Y-14551722D01*
X9427206Y-14551722D02*
X9417682Y-14570769D01*
X9703396Y-14456484D02*
X9665301Y-14456484D01*
X9665301Y-14456484D02*
X9646253Y-14466008D01*
X9646253Y-14466008D02*
X9636729Y-14475531D01*
X9636729Y-14475531D02*
X9617682Y-14504103D01*
X9617682Y-14504103D02*
X9608158Y-14542198D01*
X9608158Y-14542198D02*
X9608158Y-14618388D01*
X9608158Y-14618388D02*
X9617682Y-14637436D01*
X9617682Y-14637436D02*
X9627206Y-14646960D01*
X9627206Y-14646960D02*
X9646253Y-14656484D01*
X9646253Y-14656484D02*
X9684349Y-14656484D01*
X9684349Y-14656484D02*
X9703396Y-14646960D01*
X9703396Y-14646960D02*
X9712920Y-14637436D01*
X9712920Y-14637436D02*
X9722444Y-14618388D01*
X9722444Y-14618388D02*
X9722444Y-14570769D01*
X9722444Y-14570769D02*
X9712920Y-14551722D01*
X9712920Y-14551722D02*
X9703396Y-14542198D01*
X9703396Y-14542198D02*
X9684349Y-14532674D01*
X9684349Y-14532674D02*
X9646253Y-14532674D01*
X9646253Y-14532674D02*
X9627206Y-14542198D01*
X9627206Y-14542198D02*
X9617682Y-14551722D01*
X9617682Y-14551722D02*
X9608158Y-14570769D01*
X9798634Y-14456484D02*
X9798634Y-14494579D01*
X9874825Y-14456484D02*
X9874825Y-14494579D01*
X10170063Y-14732674D02*
X10160539Y-14723150D01*
X10160539Y-14723150D02*
X10141491Y-14694579D01*
X10141491Y-14694579D02*
X10131968Y-14675531D01*
X10131968Y-14675531D02*
X10122444Y-14646960D01*
X10122444Y-14646960D02*
X10112920Y-14599341D01*
X10112920Y-14599341D02*
X10112920Y-14561246D01*
X10112920Y-14561246D02*
X10122444Y-14513627D01*
X10122444Y-14513627D02*
X10131968Y-14485055D01*
X10131968Y-14485055D02*
X10141491Y-14466008D01*
X10141491Y-14466008D02*
X10160539Y-14437436D01*
X10160539Y-14437436D02*
X10170063Y-14427912D01*
X10331968Y-14523150D02*
X10331968Y-14656484D01*
X10284349Y-14446960D02*
X10236730Y-14589817D01*
X10236730Y-14589817D02*
X10360539Y-14589817D01*
X10589111Y-14656484D02*
X10589111Y-14456484D01*
X10674825Y-14656484D02*
X10674825Y-14551722D01*
X10674825Y-14551722D02*
X10665301Y-14532674D01*
X10665301Y-14532674D02*
X10646253Y-14523150D01*
X10646253Y-14523150D02*
X10617682Y-14523150D01*
X10617682Y-14523150D02*
X10598634Y-14532674D01*
X10598634Y-14532674D02*
X10589111Y-14542198D01*
X10798634Y-14656484D02*
X10779587Y-14646960D01*
X10779587Y-14646960D02*
X10770063Y-14637436D01*
X10770063Y-14637436D02*
X10760539Y-14618388D01*
X10760539Y-14618388D02*
X10760539Y-14561246D01*
X10760539Y-14561246D02*
X10770063Y-14542198D01*
X10770063Y-14542198D02*
X10779587Y-14532674D01*
X10779587Y-14532674D02*
X10798634Y-14523150D01*
X10798634Y-14523150D02*
X10827206Y-14523150D01*
X10827206Y-14523150D02*
X10846253Y-14532674D01*
X10846253Y-14532674D02*
X10855777Y-14542198D01*
X10855777Y-14542198D02*
X10865301Y-14561246D01*
X10865301Y-14561246D02*
X10865301Y-14618388D01*
X10865301Y-14618388D02*
X10855777Y-14637436D01*
X10855777Y-14637436D02*
X10846253Y-14646960D01*
X10846253Y-14646960D02*
X10827206Y-14656484D01*
X10827206Y-14656484D02*
X10798634Y-14656484D01*
X10979587Y-14656484D02*
X10960539Y-14646960D01*
X10960539Y-14646960D02*
X10951015Y-14627912D01*
X10951015Y-14627912D02*
X10951015Y-14456484D01*
X11131968Y-14646960D02*
X11112920Y-14656484D01*
X11112920Y-14656484D02*
X11074825Y-14656484D01*
X11074825Y-14656484D02*
X11055777Y-14646960D01*
X11055777Y-14646960D02*
X11046253Y-14627912D01*
X11046253Y-14627912D02*
X11046253Y-14551722D01*
X11046253Y-14551722D02*
X11055777Y-14532674D01*
X11055777Y-14532674D02*
X11074825Y-14523150D01*
X11074825Y-14523150D02*
X11112920Y-14523150D01*
X11112920Y-14523150D02*
X11131968Y-14532674D01*
X11131968Y-14532674D02*
X11141492Y-14551722D01*
X11141492Y-14551722D02*
X11141492Y-14570769D01*
X11141492Y-14570769D02*
X11046253Y-14589817D01*
X11217682Y-14646960D02*
X11236730Y-14656484D01*
X11236730Y-14656484D02*
X11274825Y-14656484D01*
X11274825Y-14656484D02*
X11293872Y-14646960D01*
X11293872Y-14646960D02*
X11303396Y-14627912D01*
X11303396Y-14627912D02*
X11303396Y-14618388D01*
X11303396Y-14618388D02*
X11293872Y-14599341D01*
X11293872Y-14599341D02*
X11274825Y-14589817D01*
X11274825Y-14589817D02*
X11246253Y-14589817D01*
X11246253Y-14589817D02*
X11227206Y-14580293D01*
X11227206Y-14580293D02*
X11217682Y-14561246D01*
X11217682Y-14561246D02*
X11217682Y-14551722D01*
X11217682Y-14551722D02*
X11227206Y-14532674D01*
X11227206Y-14532674D02*
X11246253Y-14523150D01*
X11246253Y-14523150D02*
X11274825Y-14523150D01*
X11274825Y-14523150D02*
X11293872Y-14532674D01*
X11370063Y-14732674D02*
X11379587Y-14723150D01*
X11379587Y-14723150D02*
X11398634Y-14694579D01*
X11398634Y-14694579D02*
X11408158Y-14675531D01*
X11408158Y-14675531D02*
X11417682Y-14646960D01*
X11417682Y-14646960D02*
X11427206Y-14599341D01*
X11427206Y-14599341D02*
X11427206Y-14561246D01*
X11427206Y-14561246D02*
X11417682Y-14513627D01*
X11417682Y-14513627D02*
X11408158Y-14485055D01*
X11408158Y-14485055D02*
X11398634Y-14466008D01*
X11398634Y-14466008D02*
X11379587Y-14437436D01*
X11379587Y-14437436D02*
X11370063Y-14427912D01*
X11731968Y-14732674D02*
X11722444Y-14723150D01*
X11722444Y-14723150D02*
X11703396Y-14694579D01*
X11703396Y-14694579D02*
X11693872Y-14675531D01*
X11693872Y-14675531D02*
X11684349Y-14646960D01*
X11684349Y-14646960D02*
X11674825Y-14599341D01*
X11674825Y-14599341D02*
X11674825Y-14561246D01*
X11674825Y-14561246D02*
X11684349Y-14513627D01*
X11684349Y-14513627D02*
X11693872Y-14485055D01*
X11693872Y-14485055D02*
X11703396Y-14466008D01*
X11703396Y-14466008D02*
X11722444Y-14437436D01*
X11722444Y-14437436D02*
X11731968Y-14427912D01*
X11808158Y-14523150D02*
X11808158Y-14656484D01*
X11808158Y-14542198D02*
X11817682Y-14532674D01*
X11817682Y-14532674D02*
X11836730Y-14523150D01*
X11836730Y-14523150D02*
X11865301Y-14523150D01*
X11865301Y-14523150D02*
X11884349Y-14532674D01*
X11884349Y-14532674D02*
X11893872Y-14551722D01*
X11893872Y-14551722D02*
X11893872Y-14656484D01*
X12017682Y-14656484D02*
X11998634Y-14646960D01*
X11998634Y-14646960D02*
X11989111Y-14637436D01*
X11989111Y-14637436D02*
X11979587Y-14618388D01*
X11979587Y-14618388D02*
X11979587Y-14561246D01*
X11979587Y-14561246D02*
X11989111Y-14542198D01*
X11989111Y-14542198D02*
X11998634Y-14532674D01*
X11998634Y-14532674D02*
X12017682Y-14523150D01*
X12017682Y-14523150D02*
X12046253Y-14523150D01*
X12046253Y-14523150D02*
X12065301Y-14532674D01*
X12065301Y-14532674D02*
X12074825Y-14542198D01*
X12074825Y-14542198D02*
X12084349Y-14561246D01*
X12084349Y-14561246D02*
X12084349Y-14618388D01*
X12084349Y-14618388D02*
X12074825Y-14637436D01*
X12074825Y-14637436D02*
X12065301Y-14646960D01*
X12065301Y-14646960D02*
X12046253Y-14656484D01*
X12046253Y-14656484D02*
X12017682Y-14656484D01*
X12141492Y-14523150D02*
X12217682Y-14523150D01*
X12170063Y-14456484D02*
X12170063Y-14627912D01*
X12170063Y-14627912D02*
X12179587Y-14646960D01*
X12179587Y-14646960D02*
X12198634Y-14656484D01*
X12198634Y-14656484D02*
X12217682Y-14656484D01*
X12436730Y-14523150D02*
X12436730Y-14723150D01*
X12436730Y-14532674D02*
X12455777Y-14523150D01*
X12455777Y-14523150D02*
X12493873Y-14523150D01*
X12493873Y-14523150D02*
X12512920Y-14532674D01*
X12512920Y-14532674D02*
X12522444Y-14542198D01*
X12522444Y-14542198D02*
X12531968Y-14561246D01*
X12531968Y-14561246D02*
X12531968Y-14618388D01*
X12531968Y-14618388D02*
X12522444Y-14637436D01*
X12522444Y-14637436D02*
X12512920Y-14646960D01*
X12512920Y-14646960D02*
X12493873Y-14656484D01*
X12493873Y-14656484D02*
X12455777Y-14656484D01*
X12455777Y-14656484D02*
X12436730Y-14646960D01*
X12646253Y-14656484D02*
X12627206Y-14646960D01*
X12627206Y-14646960D02*
X12617682Y-14627912D01*
X12617682Y-14627912D02*
X12617682Y-14456484D01*
X12808158Y-14656484D02*
X12808158Y-14551722D01*
X12808158Y-14551722D02*
X12798634Y-14532674D01*
X12798634Y-14532674D02*
X12779587Y-14523150D01*
X12779587Y-14523150D02*
X12741492Y-14523150D01*
X12741492Y-14523150D02*
X12722444Y-14532674D01*
X12808158Y-14646960D02*
X12789111Y-14656484D01*
X12789111Y-14656484D02*
X12741492Y-14656484D01*
X12741492Y-14656484D02*
X12722444Y-14646960D01*
X12722444Y-14646960D02*
X12712920Y-14627912D01*
X12712920Y-14627912D02*
X12712920Y-14608865D01*
X12712920Y-14608865D02*
X12722444Y-14589817D01*
X12722444Y-14589817D02*
X12741492Y-14580293D01*
X12741492Y-14580293D02*
X12789111Y-14580293D01*
X12789111Y-14580293D02*
X12808158Y-14570769D01*
X12874825Y-14523150D02*
X12951015Y-14523150D01*
X12903396Y-14456484D02*
X12903396Y-14627912D01*
X12903396Y-14627912D02*
X12912920Y-14646960D01*
X12912920Y-14646960D02*
X12931968Y-14656484D01*
X12931968Y-14656484D02*
X12951015Y-14656484D01*
X13093873Y-14646960D02*
X13074825Y-14656484D01*
X13074825Y-14656484D02*
X13036730Y-14656484D01*
X13036730Y-14656484D02*
X13017682Y-14646960D01*
X13017682Y-14646960D02*
X13008158Y-14627912D01*
X13008158Y-14627912D02*
X13008158Y-14551722D01*
X13008158Y-14551722D02*
X13017682Y-14532674D01*
X13017682Y-14532674D02*
X13036730Y-14523150D01*
X13036730Y-14523150D02*
X13074825Y-14523150D01*
X13074825Y-14523150D02*
X13093873Y-14532674D01*
X13093873Y-14532674D02*
X13103396Y-14551722D01*
X13103396Y-14551722D02*
X13103396Y-14570769D01*
X13103396Y-14570769D02*
X13008158Y-14589817D01*
X13274825Y-14656484D02*
X13274825Y-14456484D01*
X13274825Y-14646960D02*
X13255777Y-14656484D01*
X13255777Y-14656484D02*
X13217682Y-14656484D01*
X13217682Y-14656484D02*
X13198634Y-14646960D01*
X13198634Y-14646960D02*
X13189111Y-14637436D01*
X13189111Y-14637436D02*
X13179587Y-14618388D01*
X13179587Y-14618388D02*
X13179587Y-14561246D01*
X13179587Y-14561246D02*
X13189111Y-14542198D01*
X13189111Y-14542198D02*
X13198634Y-14532674D01*
X13198634Y-14532674D02*
X13217682Y-14523150D01*
X13217682Y-14523150D02*
X13255777Y-14523150D01*
X13255777Y-14523150D02*
X13274825Y-14532674D01*
X13351015Y-14732674D02*
X13360539Y-14723150D01*
X13360539Y-14723150D02*
X13379587Y-14694579D01*
X13379587Y-14694579D02*
X13389111Y-14675531D01*
X13389111Y-14675531D02*
X13398634Y-14646960D01*
X13398634Y-14646960D02*
X13408158Y-14599341D01*
X13408158Y-14599341D02*
X13408158Y-14561246D01*
X13408158Y-14561246D02*
X13398634Y-14513627D01*
X13398634Y-14513627D02*
X13389111Y-14485055D01*
X13389111Y-14485055D02*
X13379587Y-14466008D01*
X13379587Y-14466008D02*
X13360539Y-14437436D01*
X13360539Y-14437436D02*
X13351015Y-14427912D01*
X6495000Y-14785000D02*
X6495000Y-14985000D01*
X6395000Y-14885000D02*
X6595000Y-14885000D01*
X6846253Y-14795531D02*
X6855777Y-14786008D01*
X6855777Y-14786008D02*
X6874824Y-14776484D01*
X6874824Y-14776484D02*
X6922443Y-14776484D01*
X6922443Y-14776484D02*
X6941491Y-14786008D01*
X6941491Y-14786008D02*
X6951015Y-14795531D01*
X6951015Y-14795531D02*
X6960539Y-14814579D01*
X6960539Y-14814579D02*
X6960539Y-14833627D01*
X6960539Y-14833627D02*
X6951015Y-14862198D01*
X6951015Y-14862198D02*
X6836729Y-14976484D01*
X6836729Y-14976484D02*
X6960539Y-14976484D01*
X7046253Y-14957436D02*
X7055777Y-14966960D01*
X7055777Y-14966960D02*
X7046253Y-14976484D01*
X7046253Y-14976484D02*
X7036729Y-14966960D01*
X7036729Y-14966960D02*
X7046253Y-14957436D01*
X7046253Y-14957436D02*
X7046253Y-14976484D01*
X7236729Y-14776484D02*
X7141491Y-14776484D01*
X7141491Y-14776484D02*
X7131967Y-14871722D01*
X7131967Y-14871722D02*
X7141491Y-14862198D01*
X7141491Y-14862198D02*
X7160539Y-14852674D01*
X7160539Y-14852674D02*
X7208158Y-14852674D01*
X7208158Y-14852674D02*
X7227205Y-14862198D01*
X7227205Y-14862198D02*
X7236729Y-14871722D01*
X7236729Y-14871722D02*
X7246253Y-14890769D01*
X7246253Y-14890769D02*
X7246253Y-14938388D01*
X7246253Y-14938388D02*
X7236729Y-14957436D01*
X7236729Y-14957436D02*
X7227205Y-14966960D01*
X7227205Y-14966960D02*
X7208158Y-14976484D01*
X7208158Y-14976484D02*
X7160539Y-14976484D01*
X7160539Y-14976484D02*
X7141491Y-14966960D01*
X7141491Y-14966960D02*
X7131967Y-14957436D01*
X7417682Y-14843150D02*
X7417682Y-14976484D01*
X7370062Y-14766960D02*
X7322443Y-14909817D01*
X7322443Y-14909817D02*
X7446253Y-14909817D01*
X7560539Y-14776484D02*
X7579586Y-14776484D01*
X7579586Y-14776484D02*
X7598634Y-14786008D01*
X7598634Y-14786008D02*
X7608158Y-14795531D01*
X7608158Y-14795531D02*
X7617682Y-14814579D01*
X7617682Y-14814579D02*
X7627205Y-14852674D01*
X7627205Y-14852674D02*
X7627205Y-14900293D01*
X7627205Y-14900293D02*
X7617682Y-14938388D01*
X7617682Y-14938388D02*
X7608158Y-14957436D01*
X7608158Y-14957436D02*
X7598634Y-14966960D01*
X7598634Y-14966960D02*
X7579586Y-14976484D01*
X7579586Y-14976484D02*
X7560539Y-14976484D01*
X7560539Y-14976484D02*
X7541491Y-14966960D01*
X7541491Y-14966960D02*
X7531967Y-14957436D01*
X7531967Y-14957436D02*
X7522443Y-14938388D01*
X7522443Y-14938388D02*
X7512920Y-14900293D01*
X7512920Y-14900293D02*
X7512920Y-14852674D01*
X7512920Y-14852674D02*
X7522443Y-14814579D01*
X7522443Y-14814579D02*
X7531967Y-14795531D01*
X7531967Y-14795531D02*
X7541491Y-14786008D01*
X7541491Y-14786008D02*
X7560539Y-14776484D01*
X7712920Y-14976484D02*
X7712920Y-14843150D01*
X7712920Y-14862198D02*
X7722443Y-14852674D01*
X7722443Y-14852674D02*
X7741491Y-14843150D01*
X7741491Y-14843150D02*
X7770063Y-14843150D01*
X7770063Y-14843150D02*
X7789110Y-14852674D01*
X7789110Y-14852674D02*
X7798634Y-14871722D01*
X7798634Y-14871722D02*
X7798634Y-14976484D01*
X7798634Y-14871722D02*
X7808158Y-14852674D01*
X7808158Y-14852674D02*
X7827205Y-14843150D01*
X7827205Y-14843150D02*
X7855777Y-14843150D01*
X7855777Y-14843150D02*
X7874824Y-14852674D01*
X7874824Y-14852674D02*
X7884348Y-14871722D01*
X7884348Y-14871722D02*
X7884348Y-14976484D01*
X7979586Y-14976484D02*
X7979586Y-14843150D01*
X7979586Y-14862198D02*
X7989110Y-14852674D01*
X7989110Y-14852674D02*
X8008158Y-14843150D01*
X8008158Y-14843150D02*
X8036729Y-14843150D01*
X8036729Y-14843150D02*
X8055777Y-14852674D01*
X8055777Y-14852674D02*
X8065301Y-14871722D01*
X8065301Y-14871722D02*
X8065301Y-14976484D01*
X8065301Y-14871722D02*
X8074824Y-14852674D01*
X8074824Y-14852674D02*
X8093872Y-14843150D01*
X8093872Y-14843150D02*
X8122443Y-14843150D01*
X8122443Y-14843150D02*
X8141491Y-14852674D01*
X8141491Y-14852674D02*
X8151015Y-14871722D01*
X8151015Y-14871722D02*
X8151015Y-14976484D01*
X8541491Y-14766960D02*
X8370063Y-15024103D01*
X8798634Y-14776484D02*
X8817682Y-14776484D01*
X8817682Y-14776484D02*
X8836729Y-14786008D01*
X8836729Y-14786008D02*
X8846253Y-14795531D01*
X8846253Y-14795531D02*
X8855777Y-14814579D01*
X8855777Y-14814579D02*
X8865301Y-14852674D01*
X8865301Y-14852674D02*
X8865301Y-14900293D01*
X8865301Y-14900293D02*
X8855777Y-14938388D01*
X8855777Y-14938388D02*
X8846253Y-14957436D01*
X8846253Y-14957436D02*
X8836729Y-14966960D01*
X8836729Y-14966960D02*
X8817682Y-14976484D01*
X8817682Y-14976484D02*
X8798634Y-14976484D01*
X8798634Y-14976484D02*
X8779587Y-14966960D01*
X8779587Y-14966960D02*
X8770063Y-14957436D01*
X8770063Y-14957436D02*
X8760539Y-14938388D01*
X8760539Y-14938388D02*
X8751015Y-14900293D01*
X8751015Y-14900293D02*
X8751015Y-14852674D01*
X8751015Y-14852674D02*
X8760539Y-14814579D01*
X8760539Y-14814579D02*
X8770063Y-14795531D01*
X8770063Y-14795531D02*
X8779587Y-14786008D01*
X8779587Y-14786008D02*
X8798634Y-14776484D01*
X8951015Y-14957436D02*
X8960539Y-14966960D01*
X8960539Y-14966960D02*
X8951015Y-14976484D01*
X8951015Y-14976484D02*
X8941491Y-14966960D01*
X8941491Y-14966960D02*
X8951015Y-14957436D01*
X8951015Y-14957436D02*
X8951015Y-14976484D01*
X9151015Y-14976484D02*
X9036729Y-14976484D01*
X9093872Y-14976484D02*
X9093872Y-14776484D01*
X9093872Y-14776484D02*
X9074825Y-14805055D01*
X9074825Y-14805055D02*
X9055777Y-14824103D01*
X9055777Y-14824103D02*
X9036729Y-14833627D01*
X9274825Y-14776484D02*
X9293872Y-14776484D01*
X9293872Y-14776484D02*
X9312920Y-14786008D01*
X9312920Y-14786008D02*
X9322444Y-14795531D01*
X9322444Y-14795531D02*
X9331968Y-14814579D01*
X9331968Y-14814579D02*
X9341491Y-14852674D01*
X9341491Y-14852674D02*
X9341491Y-14900293D01*
X9341491Y-14900293D02*
X9331968Y-14938388D01*
X9331968Y-14938388D02*
X9322444Y-14957436D01*
X9322444Y-14957436D02*
X9312920Y-14966960D01*
X9312920Y-14966960D02*
X9293872Y-14976484D01*
X9293872Y-14976484D02*
X9274825Y-14976484D01*
X9274825Y-14976484D02*
X9255777Y-14966960D01*
X9255777Y-14966960D02*
X9246253Y-14957436D01*
X9246253Y-14957436D02*
X9236729Y-14938388D01*
X9236729Y-14938388D02*
X9227206Y-14900293D01*
X9227206Y-14900293D02*
X9227206Y-14852674D01*
X9227206Y-14852674D02*
X9236729Y-14814579D01*
X9236729Y-14814579D02*
X9246253Y-14795531D01*
X9246253Y-14795531D02*
X9255777Y-14786008D01*
X9255777Y-14786008D02*
X9274825Y-14776484D01*
X9465301Y-14776484D02*
X9484349Y-14776484D01*
X9484349Y-14776484D02*
X9503396Y-14786008D01*
X9503396Y-14786008D02*
X9512920Y-14795531D01*
X9512920Y-14795531D02*
X9522444Y-14814579D01*
X9522444Y-14814579D02*
X9531968Y-14852674D01*
X9531968Y-14852674D02*
X9531968Y-14900293D01*
X9531968Y-14900293D02*
X9522444Y-14938388D01*
X9522444Y-14938388D02*
X9512920Y-14957436D01*
X9512920Y-14957436D02*
X9503396Y-14966960D01*
X9503396Y-14966960D02*
X9484349Y-14976484D01*
X9484349Y-14976484D02*
X9465301Y-14976484D01*
X9465301Y-14976484D02*
X9446253Y-14966960D01*
X9446253Y-14966960D02*
X9436729Y-14957436D01*
X9436729Y-14957436D02*
X9427206Y-14938388D01*
X9427206Y-14938388D02*
X9417682Y-14900293D01*
X9417682Y-14900293D02*
X9417682Y-14852674D01*
X9417682Y-14852674D02*
X9427206Y-14814579D01*
X9427206Y-14814579D02*
X9436729Y-14795531D01*
X9436729Y-14795531D02*
X9446253Y-14786008D01*
X9446253Y-14786008D02*
X9465301Y-14776484D01*
X9655777Y-14776484D02*
X9674825Y-14776484D01*
X9674825Y-14776484D02*
X9693872Y-14786008D01*
X9693872Y-14786008D02*
X9703396Y-14795531D01*
X9703396Y-14795531D02*
X9712920Y-14814579D01*
X9712920Y-14814579D02*
X9722444Y-14852674D01*
X9722444Y-14852674D02*
X9722444Y-14900293D01*
X9722444Y-14900293D02*
X9712920Y-14938388D01*
X9712920Y-14938388D02*
X9703396Y-14957436D01*
X9703396Y-14957436D02*
X9693872Y-14966960D01*
X9693872Y-14966960D02*
X9674825Y-14976484D01*
X9674825Y-14976484D02*
X9655777Y-14976484D01*
X9655777Y-14976484D02*
X9636729Y-14966960D01*
X9636729Y-14966960D02*
X9627206Y-14957436D01*
X9627206Y-14957436D02*
X9617682Y-14938388D01*
X9617682Y-14938388D02*
X9608158Y-14900293D01*
X9608158Y-14900293D02*
X9608158Y-14852674D01*
X9608158Y-14852674D02*
X9617682Y-14814579D01*
X9617682Y-14814579D02*
X9627206Y-14795531D01*
X9627206Y-14795531D02*
X9636729Y-14786008D01*
X9636729Y-14786008D02*
X9655777Y-14776484D01*
X9798634Y-14776484D02*
X9798634Y-14814579D01*
X9874825Y-14776484D02*
X9874825Y-14814579D01*
X10170063Y-15052674D02*
X10160539Y-15043150D01*
X10160539Y-15043150D02*
X10141491Y-15014579D01*
X10141491Y-15014579D02*
X10131968Y-14995531D01*
X10131968Y-14995531D02*
X10122444Y-14966960D01*
X10122444Y-14966960D02*
X10112920Y-14919341D01*
X10112920Y-14919341D02*
X10112920Y-14881246D01*
X10112920Y-14881246D02*
X10122444Y-14833627D01*
X10122444Y-14833627D02*
X10131968Y-14805055D01*
X10131968Y-14805055D02*
X10141491Y-14786008D01*
X10141491Y-14786008D02*
X10160539Y-14757436D01*
X10160539Y-14757436D02*
X10170063Y-14747912D01*
X10236730Y-14795531D02*
X10246253Y-14786008D01*
X10246253Y-14786008D02*
X10265301Y-14776484D01*
X10265301Y-14776484D02*
X10312920Y-14776484D01*
X10312920Y-14776484D02*
X10331968Y-14786008D01*
X10331968Y-14786008D02*
X10341491Y-14795531D01*
X10341491Y-14795531D02*
X10351015Y-14814579D01*
X10351015Y-14814579D02*
X10351015Y-14833627D01*
X10351015Y-14833627D02*
X10341491Y-14862198D01*
X10341491Y-14862198D02*
X10227206Y-14976484D01*
X10227206Y-14976484D02*
X10351015Y-14976484D01*
X10589111Y-14976484D02*
X10589111Y-14776484D01*
X10674825Y-14976484D02*
X10674825Y-14871722D01*
X10674825Y-14871722D02*
X10665301Y-14852674D01*
X10665301Y-14852674D02*
X10646253Y-14843150D01*
X10646253Y-14843150D02*
X10617682Y-14843150D01*
X10617682Y-14843150D02*
X10598634Y-14852674D01*
X10598634Y-14852674D02*
X10589111Y-14862198D01*
X10798634Y-14976484D02*
X10779587Y-14966960D01*
X10779587Y-14966960D02*
X10770063Y-14957436D01*
X10770063Y-14957436D02*
X10760539Y-14938388D01*
X10760539Y-14938388D02*
X10760539Y-14881246D01*
X10760539Y-14881246D02*
X10770063Y-14862198D01*
X10770063Y-14862198D02*
X10779587Y-14852674D01*
X10779587Y-14852674D02*
X10798634Y-14843150D01*
X10798634Y-14843150D02*
X10827206Y-14843150D01*
X10827206Y-14843150D02*
X10846253Y-14852674D01*
X10846253Y-14852674D02*
X10855777Y-14862198D01*
X10855777Y-14862198D02*
X10865301Y-14881246D01*
X10865301Y-14881246D02*
X10865301Y-14938388D01*
X10865301Y-14938388D02*
X10855777Y-14957436D01*
X10855777Y-14957436D02*
X10846253Y-14966960D01*
X10846253Y-14966960D02*
X10827206Y-14976484D01*
X10827206Y-14976484D02*
X10798634Y-14976484D01*
X10979587Y-14976484D02*
X10960539Y-14966960D01*
X10960539Y-14966960D02*
X10951015Y-14947912D01*
X10951015Y-14947912D02*
X10951015Y-14776484D01*
X11131968Y-14966960D02*
X11112920Y-14976484D01*
X11112920Y-14976484D02*
X11074825Y-14976484D01*
X11074825Y-14976484D02*
X11055777Y-14966960D01*
X11055777Y-14966960D02*
X11046253Y-14947912D01*
X11046253Y-14947912D02*
X11046253Y-14871722D01*
X11046253Y-14871722D02*
X11055777Y-14852674D01*
X11055777Y-14852674D02*
X11074825Y-14843150D01*
X11074825Y-14843150D02*
X11112920Y-14843150D01*
X11112920Y-14843150D02*
X11131968Y-14852674D01*
X11131968Y-14852674D02*
X11141492Y-14871722D01*
X11141492Y-14871722D02*
X11141492Y-14890769D01*
X11141492Y-14890769D02*
X11046253Y-14909817D01*
X11217682Y-14966960D02*
X11236730Y-14976484D01*
X11236730Y-14976484D02*
X11274825Y-14976484D01*
X11274825Y-14976484D02*
X11293872Y-14966960D01*
X11293872Y-14966960D02*
X11303396Y-14947912D01*
X11303396Y-14947912D02*
X11303396Y-14938388D01*
X11303396Y-14938388D02*
X11293872Y-14919341D01*
X11293872Y-14919341D02*
X11274825Y-14909817D01*
X11274825Y-14909817D02*
X11246253Y-14909817D01*
X11246253Y-14909817D02*
X11227206Y-14900293D01*
X11227206Y-14900293D02*
X11217682Y-14881246D01*
X11217682Y-14881246D02*
X11217682Y-14871722D01*
X11217682Y-14871722D02*
X11227206Y-14852674D01*
X11227206Y-14852674D02*
X11246253Y-14843150D01*
X11246253Y-14843150D02*
X11274825Y-14843150D01*
X11274825Y-14843150D02*
X11293872Y-14852674D01*
X11370063Y-15052674D02*
X11379587Y-15043150D01*
X11379587Y-15043150D02*
X11398634Y-15014579D01*
X11398634Y-15014579D02*
X11408158Y-14995531D01*
X11408158Y-14995531D02*
X11417682Y-14966960D01*
X11417682Y-14966960D02*
X11427206Y-14919341D01*
X11427206Y-14919341D02*
X11427206Y-14881246D01*
X11427206Y-14881246D02*
X11417682Y-14833627D01*
X11417682Y-14833627D02*
X11408158Y-14805055D01*
X11408158Y-14805055D02*
X11398634Y-14786008D01*
X11398634Y-14786008D02*
X11379587Y-14757436D01*
X11379587Y-14757436D02*
X11370063Y-14747912D01*
X11731968Y-15052674D02*
X11722444Y-15043150D01*
X11722444Y-15043150D02*
X11703396Y-15014579D01*
X11703396Y-15014579D02*
X11693872Y-14995531D01*
X11693872Y-14995531D02*
X11684349Y-14966960D01*
X11684349Y-14966960D02*
X11674825Y-14919341D01*
X11674825Y-14919341D02*
X11674825Y-14881246D01*
X11674825Y-14881246D02*
X11684349Y-14833627D01*
X11684349Y-14833627D02*
X11693872Y-14805055D01*
X11693872Y-14805055D02*
X11703396Y-14786008D01*
X11703396Y-14786008D02*
X11722444Y-14757436D01*
X11722444Y-14757436D02*
X11731968Y-14747912D01*
X11808158Y-14843150D02*
X11808158Y-14976484D01*
X11808158Y-14862198D02*
X11817682Y-14852674D01*
X11817682Y-14852674D02*
X11836730Y-14843150D01*
X11836730Y-14843150D02*
X11865301Y-14843150D01*
X11865301Y-14843150D02*
X11884349Y-14852674D01*
X11884349Y-14852674D02*
X11893872Y-14871722D01*
X11893872Y-14871722D02*
X11893872Y-14976484D01*
X12017682Y-14976484D02*
X11998634Y-14966960D01*
X11998634Y-14966960D02*
X11989111Y-14957436D01*
X11989111Y-14957436D02*
X11979587Y-14938388D01*
X11979587Y-14938388D02*
X11979587Y-14881246D01*
X11979587Y-14881246D02*
X11989111Y-14862198D01*
X11989111Y-14862198D02*
X11998634Y-14852674D01*
X11998634Y-14852674D02*
X12017682Y-14843150D01*
X12017682Y-14843150D02*
X12046253Y-14843150D01*
X12046253Y-14843150D02*
X12065301Y-14852674D01*
X12065301Y-14852674D02*
X12074825Y-14862198D01*
X12074825Y-14862198D02*
X12084349Y-14881246D01*
X12084349Y-14881246D02*
X12084349Y-14938388D01*
X12084349Y-14938388D02*
X12074825Y-14957436D01*
X12074825Y-14957436D02*
X12065301Y-14966960D01*
X12065301Y-14966960D02*
X12046253Y-14976484D01*
X12046253Y-14976484D02*
X12017682Y-14976484D01*
X12141492Y-14843150D02*
X12217682Y-14843150D01*
X12170063Y-14776484D02*
X12170063Y-14947912D01*
X12170063Y-14947912D02*
X12179587Y-14966960D01*
X12179587Y-14966960D02*
X12198634Y-14976484D01*
X12198634Y-14976484D02*
X12217682Y-14976484D01*
X12436730Y-14843150D02*
X12436730Y-15043150D01*
X12436730Y-14852674D02*
X12455777Y-14843150D01*
X12455777Y-14843150D02*
X12493873Y-14843150D01*
X12493873Y-14843150D02*
X12512920Y-14852674D01*
X12512920Y-14852674D02*
X12522444Y-14862198D01*
X12522444Y-14862198D02*
X12531968Y-14881246D01*
X12531968Y-14881246D02*
X12531968Y-14938388D01*
X12531968Y-14938388D02*
X12522444Y-14957436D01*
X12522444Y-14957436D02*
X12512920Y-14966960D01*
X12512920Y-14966960D02*
X12493873Y-14976484D01*
X12493873Y-14976484D02*
X12455777Y-14976484D01*
X12455777Y-14976484D02*
X12436730Y-14966960D01*
X12646253Y-14976484D02*
X12627206Y-14966960D01*
X12627206Y-14966960D02*
X12617682Y-14947912D01*
X12617682Y-14947912D02*
X12617682Y-14776484D01*
X12808158Y-14976484D02*
X12808158Y-14871722D01*
X12808158Y-14871722D02*
X12798634Y-14852674D01*
X12798634Y-14852674D02*
X12779587Y-14843150D01*
X12779587Y-14843150D02*
X12741492Y-14843150D01*
X12741492Y-14843150D02*
X12722444Y-14852674D01*
X12808158Y-14966960D02*
X12789111Y-14976484D01*
X12789111Y-14976484D02*
X12741492Y-14976484D01*
X12741492Y-14976484D02*
X12722444Y-14966960D01*
X12722444Y-14966960D02*
X12712920Y-14947912D01*
X12712920Y-14947912D02*
X12712920Y-14928865D01*
X12712920Y-14928865D02*
X12722444Y-14909817D01*
X12722444Y-14909817D02*
X12741492Y-14900293D01*
X12741492Y-14900293D02*
X12789111Y-14900293D01*
X12789111Y-14900293D02*
X12808158Y-14890769D01*
X12874825Y-14843150D02*
X12951015Y-14843150D01*
X12903396Y-14776484D02*
X12903396Y-14947912D01*
X12903396Y-14947912D02*
X12912920Y-14966960D01*
X12912920Y-14966960D02*
X12931968Y-14976484D01*
X12931968Y-14976484D02*
X12951015Y-14976484D01*
X13093873Y-14966960D02*
X13074825Y-14976484D01*
X13074825Y-14976484D02*
X13036730Y-14976484D01*
X13036730Y-14976484D02*
X13017682Y-14966960D01*
X13017682Y-14966960D02*
X13008158Y-14947912D01*
X13008158Y-14947912D02*
X13008158Y-14871722D01*
X13008158Y-14871722D02*
X13017682Y-14852674D01*
X13017682Y-14852674D02*
X13036730Y-14843150D01*
X13036730Y-14843150D02*
X13074825Y-14843150D01*
X13074825Y-14843150D02*
X13093873Y-14852674D01*
X13093873Y-14852674D02*
X13103396Y-14871722D01*
X13103396Y-14871722D02*
X13103396Y-14890769D01*
X13103396Y-14890769D02*
X13008158Y-14909817D01*
X13274825Y-14976484D02*
X13274825Y-14776484D01*
X13274825Y-14966960D02*
X13255777Y-14976484D01*
X13255777Y-14976484D02*
X13217682Y-14976484D01*
X13217682Y-14976484D02*
X13198634Y-14966960D01*
X13198634Y-14966960D02*
X13189111Y-14957436D01*
X13189111Y-14957436D02*
X13179587Y-14938388D01*
X13179587Y-14938388D02*
X13179587Y-14881246D01*
X13179587Y-14881246D02*
X13189111Y-14862198D01*
X13189111Y-14862198D02*
X13198634Y-14852674D01*
X13198634Y-14852674D02*
X13217682Y-14843150D01*
X13217682Y-14843150D02*
X13255777Y-14843150D01*
X13255777Y-14843150D02*
X13274825Y-14852674D01*
X13351015Y-15052674D02*
X13360539Y-15043150D01*
X13360539Y-15043150D02*
X13379587Y-15014579D01*
X13379587Y-15014579D02*
X13389111Y-14995531D01*
X13389111Y-14995531D02*
X13398634Y-14966960D01*
X13398634Y-14966960D02*
X13408158Y-14919341D01*
X13408158Y-14919341D02*
X13408158Y-14881246D01*
X13408158Y-14881246D02*
X13398634Y-14833627D01*
X13398634Y-14833627D02*
X13389111Y-14805055D01*
X13389111Y-14805055D02*
X13379587Y-14786008D01*
X13379587Y-14786008D02*
X13360539Y-14757436D01*
X13360539Y-14757436D02*
X13351015Y-14747912D01*
X6565711Y-15275711D02*
X6565711Y-15134289D01*
X6424289Y-15134289D01*
X6424289Y-15275711D01*
X6565711Y-15275711D01*
X6836729Y-15096484D02*
X6960539Y-15096484D01*
X6960539Y-15096484D02*
X6893872Y-15172674D01*
X6893872Y-15172674D02*
X6922443Y-15172674D01*
X6922443Y-15172674D02*
X6941491Y-15182198D01*
X6941491Y-15182198D02*
X6951015Y-15191722D01*
X6951015Y-15191722D02*
X6960539Y-15210769D01*
X6960539Y-15210769D02*
X6960539Y-15258388D01*
X6960539Y-15258388D02*
X6951015Y-15277436D01*
X6951015Y-15277436D02*
X6941491Y-15286960D01*
X6941491Y-15286960D02*
X6922443Y-15296484D01*
X6922443Y-15296484D02*
X6865301Y-15296484D01*
X6865301Y-15296484D02*
X6846253Y-15286960D01*
X6846253Y-15286960D02*
X6836729Y-15277436D01*
X7046253Y-15277436D02*
X7055777Y-15286960D01*
X7055777Y-15286960D02*
X7046253Y-15296484D01*
X7046253Y-15296484D02*
X7036729Y-15286960D01*
X7036729Y-15286960D02*
X7046253Y-15277436D01*
X7046253Y-15277436D02*
X7046253Y-15296484D01*
X7131967Y-15115531D02*
X7141491Y-15106008D01*
X7141491Y-15106008D02*
X7160539Y-15096484D01*
X7160539Y-15096484D02*
X7208158Y-15096484D01*
X7208158Y-15096484D02*
X7227205Y-15106008D01*
X7227205Y-15106008D02*
X7236729Y-15115531D01*
X7236729Y-15115531D02*
X7246253Y-15134579D01*
X7246253Y-15134579D02*
X7246253Y-15153627D01*
X7246253Y-15153627D02*
X7236729Y-15182198D01*
X7236729Y-15182198D02*
X7122443Y-15296484D01*
X7122443Y-15296484D02*
X7246253Y-15296484D01*
X7370062Y-15096484D02*
X7389110Y-15096484D01*
X7389110Y-15096484D02*
X7408158Y-15106008D01*
X7408158Y-15106008D02*
X7417682Y-15115531D01*
X7417682Y-15115531D02*
X7427205Y-15134579D01*
X7427205Y-15134579D02*
X7436729Y-15172674D01*
X7436729Y-15172674D02*
X7436729Y-15220293D01*
X7436729Y-15220293D02*
X7427205Y-15258388D01*
X7427205Y-15258388D02*
X7417682Y-15277436D01*
X7417682Y-15277436D02*
X7408158Y-15286960D01*
X7408158Y-15286960D02*
X7389110Y-15296484D01*
X7389110Y-15296484D02*
X7370062Y-15296484D01*
X7370062Y-15296484D02*
X7351015Y-15286960D01*
X7351015Y-15286960D02*
X7341491Y-15277436D01*
X7341491Y-15277436D02*
X7331967Y-15258388D01*
X7331967Y-15258388D02*
X7322443Y-15220293D01*
X7322443Y-15220293D02*
X7322443Y-15172674D01*
X7322443Y-15172674D02*
X7331967Y-15134579D01*
X7331967Y-15134579D02*
X7341491Y-15115531D01*
X7341491Y-15115531D02*
X7351015Y-15106008D01*
X7351015Y-15106008D02*
X7370062Y-15096484D01*
X7560539Y-15096484D02*
X7579586Y-15096484D01*
X7579586Y-15096484D02*
X7598634Y-15106008D01*
X7598634Y-15106008D02*
X7608158Y-15115531D01*
X7608158Y-15115531D02*
X7617682Y-15134579D01*
X7617682Y-15134579D02*
X7627205Y-15172674D01*
X7627205Y-15172674D02*
X7627205Y-15220293D01*
X7627205Y-15220293D02*
X7617682Y-15258388D01*
X7617682Y-15258388D02*
X7608158Y-15277436D01*
X7608158Y-15277436D02*
X7598634Y-15286960D01*
X7598634Y-15286960D02*
X7579586Y-15296484D01*
X7579586Y-15296484D02*
X7560539Y-15296484D01*
X7560539Y-15296484D02*
X7541491Y-15286960D01*
X7541491Y-15286960D02*
X7531967Y-15277436D01*
X7531967Y-15277436D02*
X7522443Y-15258388D01*
X7522443Y-15258388D02*
X7512920Y-15220293D01*
X7512920Y-15220293D02*
X7512920Y-15172674D01*
X7512920Y-15172674D02*
X7522443Y-15134579D01*
X7522443Y-15134579D02*
X7531967Y-15115531D01*
X7531967Y-15115531D02*
X7541491Y-15106008D01*
X7541491Y-15106008D02*
X7560539Y-15096484D01*
X7712920Y-15296484D02*
X7712920Y-15163150D01*
X7712920Y-15182198D02*
X7722443Y-15172674D01*
X7722443Y-15172674D02*
X7741491Y-15163150D01*
X7741491Y-15163150D02*
X7770063Y-15163150D01*
X7770063Y-15163150D02*
X7789110Y-15172674D01*
X7789110Y-15172674D02*
X7798634Y-15191722D01*
X7798634Y-15191722D02*
X7798634Y-15296484D01*
X7798634Y-15191722D02*
X7808158Y-15172674D01*
X7808158Y-15172674D02*
X7827205Y-15163150D01*
X7827205Y-15163150D02*
X7855777Y-15163150D01*
X7855777Y-15163150D02*
X7874824Y-15172674D01*
X7874824Y-15172674D02*
X7884348Y-15191722D01*
X7884348Y-15191722D02*
X7884348Y-15296484D01*
X7979586Y-15296484D02*
X7979586Y-15163150D01*
X7979586Y-15182198D02*
X7989110Y-15172674D01*
X7989110Y-15172674D02*
X8008158Y-15163150D01*
X8008158Y-15163150D02*
X8036729Y-15163150D01*
X8036729Y-15163150D02*
X8055777Y-15172674D01*
X8055777Y-15172674D02*
X8065301Y-15191722D01*
X8065301Y-15191722D02*
X8065301Y-15296484D01*
X8065301Y-15191722D02*
X8074824Y-15172674D01*
X8074824Y-15172674D02*
X8093872Y-15163150D01*
X8093872Y-15163150D02*
X8122443Y-15163150D01*
X8122443Y-15163150D02*
X8141491Y-15172674D01*
X8141491Y-15172674D02*
X8151015Y-15191722D01*
X8151015Y-15191722D02*
X8151015Y-15296484D01*
X8541491Y-15086960D02*
X8370063Y-15344103D01*
X8798634Y-15096484D02*
X8817682Y-15096484D01*
X8817682Y-15096484D02*
X8836729Y-15106008D01*
X8836729Y-15106008D02*
X8846253Y-15115531D01*
X8846253Y-15115531D02*
X8855777Y-15134579D01*
X8855777Y-15134579D02*
X8865301Y-15172674D01*
X8865301Y-15172674D02*
X8865301Y-15220293D01*
X8865301Y-15220293D02*
X8855777Y-15258388D01*
X8855777Y-15258388D02*
X8846253Y-15277436D01*
X8846253Y-15277436D02*
X8836729Y-15286960D01*
X8836729Y-15286960D02*
X8817682Y-15296484D01*
X8817682Y-15296484D02*
X8798634Y-15296484D01*
X8798634Y-15296484D02*
X8779587Y-15286960D01*
X8779587Y-15286960D02*
X8770063Y-15277436D01*
X8770063Y-15277436D02*
X8760539Y-15258388D01*
X8760539Y-15258388D02*
X8751015Y-15220293D01*
X8751015Y-15220293D02*
X8751015Y-15172674D01*
X8751015Y-15172674D02*
X8760539Y-15134579D01*
X8760539Y-15134579D02*
X8770063Y-15115531D01*
X8770063Y-15115531D02*
X8779587Y-15106008D01*
X8779587Y-15106008D02*
X8798634Y-15096484D01*
X8951015Y-15277436D02*
X8960539Y-15286960D01*
X8960539Y-15286960D02*
X8951015Y-15296484D01*
X8951015Y-15296484D02*
X8941491Y-15286960D01*
X8941491Y-15286960D02*
X8951015Y-15277436D01*
X8951015Y-15277436D02*
X8951015Y-15296484D01*
X9151015Y-15296484D02*
X9036729Y-15296484D01*
X9093872Y-15296484D02*
X9093872Y-15096484D01*
X9093872Y-15096484D02*
X9074825Y-15125055D01*
X9074825Y-15125055D02*
X9055777Y-15144103D01*
X9055777Y-15144103D02*
X9036729Y-15153627D01*
X9227206Y-15115531D02*
X9236729Y-15106008D01*
X9236729Y-15106008D02*
X9255777Y-15096484D01*
X9255777Y-15096484D02*
X9303396Y-15096484D01*
X9303396Y-15096484D02*
X9322444Y-15106008D01*
X9322444Y-15106008D02*
X9331968Y-15115531D01*
X9331968Y-15115531D02*
X9341491Y-15134579D01*
X9341491Y-15134579D02*
X9341491Y-15153627D01*
X9341491Y-15153627D02*
X9331968Y-15182198D01*
X9331968Y-15182198D02*
X9217682Y-15296484D01*
X9217682Y-15296484D02*
X9341491Y-15296484D01*
X9512920Y-15096484D02*
X9474825Y-15096484D01*
X9474825Y-15096484D02*
X9455777Y-15106008D01*
X9455777Y-15106008D02*
X9446253Y-15115531D01*
X9446253Y-15115531D02*
X9427206Y-15144103D01*
X9427206Y-15144103D02*
X9417682Y-15182198D01*
X9417682Y-15182198D02*
X9417682Y-15258388D01*
X9417682Y-15258388D02*
X9427206Y-15277436D01*
X9427206Y-15277436D02*
X9436729Y-15286960D01*
X9436729Y-15286960D02*
X9455777Y-15296484D01*
X9455777Y-15296484D02*
X9493872Y-15296484D01*
X9493872Y-15296484D02*
X9512920Y-15286960D01*
X9512920Y-15286960D02*
X9522444Y-15277436D01*
X9522444Y-15277436D02*
X9531968Y-15258388D01*
X9531968Y-15258388D02*
X9531968Y-15210769D01*
X9531968Y-15210769D02*
X9522444Y-15191722D01*
X9522444Y-15191722D02*
X9512920Y-15182198D01*
X9512920Y-15182198D02*
X9493872Y-15172674D01*
X9493872Y-15172674D02*
X9455777Y-15172674D01*
X9455777Y-15172674D02*
X9436729Y-15182198D01*
X9436729Y-15182198D02*
X9427206Y-15191722D01*
X9427206Y-15191722D02*
X9417682Y-15210769D01*
X9655777Y-15096484D02*
X9674825Y-15096484D01*
X9674825Y-15096484D02*
X9693872Y-15106008D01*
X9693872Y-15106008D02*
X9703396Y-15115531D01*
X9703396Y-15115531D02*
X9712920Y-15134579D01*
X9712920Y-15134579D02*
X9722444Y-15172674D01*
X9722444Y-15172674D02*
X9722444Y-15220293D01*
X9722444Y-15220293D02*
X9712920Y-15258388D01*
X9712920Y-15258388D02*
X9703396Y-15277436D01*
X9703396Y-15277436D02*
X9693872Y-15286960D01*
X9693872Y-15286960D02*
X9674825Y-15296484D01*
X9674825Y-15296484D02*
X9655777Y-15296484D01*
X9655777Y-15296484D02*
X9636729Y-15286960D01*
X9636729Y-15286960D02*
X9627206Y-15277436D01*
X9627206Y-15277436D02*
X9617682Y-15258388D01*
X9617682Y-15258388D02*
X9608158Y-15220293D01*
X9608158Y-15220293D02*
X9608158Y-15172674D01*
X9608158Y-15172674D02*
X9617682Y-15134579D01*
X9617682Y-15134579D02*
X9627206Y-15115531D01*
X9627206Y-15115531D02*
X9636729Y-15106008D01*
X9636729Y-15106008D02*
X9655777Y-15096484D01*
X9798634Y-15096484D02*
X9798634Y-15134579D01*
X9874825Y-15096484D02*
X9874825Y-15134579D01*
X10170063Y-15372674D02*
X10160539Y-15363150D01*
X10160539Y-15363150D02*
X10141491Y-15334579D01*
X10141491Y-15334579D02*
X10131968Y-15315531D01*
X10131968Y-15315531D02*
X10122444Y-15286960D01*
X10122444Y-15286960D02*
X10112920Y-15239341D01*
X10112920Y-15239341D02*
X10112920Y-15201246D01*
X10112920Y-15201246D02*
X10122444Y-15153627D01*
X10122444Y-15153627D02*
X10131968Y-15125055D01*
X10131968Y-15125055D02*
X10141491Y-15106008D01*
X10141491Y-15106008D02*
X10160539Y-15077436D01*
X10160539Y-15077436D02*
X10170063Y-15067912D01*
X10331968Y-15163150D02*
X10331968Y-15296484D01*
X10284349Y-15086960D02*
X10236730Y-15229817D01*
X10236730Y-15229817D02*
X10360539Y-15229817D01*
X10589111Y-15296484D02*
X10589111Y-15096484D01*
X10674825Y-15296484D02*
X10674825Y-15191722D01*
X10674825Y-15191722D02*
X10665301Y-15172674D01*
X10665301Y-15172674D02*
X10646253Y-15163150D01*
X10646253Y-15163150D02*
X10617682Y-15163150D01*
X10617682Y-15163150D02*
X10598634Y-15172674D01*
X10598634Y-15172674D02*
X10589111Y-15182198D01*
X10798634Y-15296484D02*
X10779587Y-15286960D01*
X10779587Y-15286960D02*
X10770063Y-15277436D01*
X10770063Y-15277436D02*
X10760539Y-15258388D01*
X10760539Y-15258388D02*
X10760539Y-15201246D01*
X10760539Y-15201246D02*
X10770063Y-15182198D01*
X10770063Y-15182198D02*
X10779587Y-15172674D01*
X10779587Y-15172674D02*
X10798634Y-15163150D01*
X10798634Y-15163150D02*
X10827206Y-15163150D01*
X10827206Y-15163150D02*
X10846253Y-15172674D01*
X10846253Y-15172674D02*
X10855777Y-15182198D01*
X10855777Y-15182198D02*
X10865301Y-15201246D01*
X10865301Y-15201246D02*
X10865301Y-15258388D01*
X10865301Y-15258388D02*
X10855777Y-15277436D01*
X10855777Y-15277436D02*
X10846253Y-15286960D01*
X10846253Y-15286960D02*
X10827206Y-15296484D01*
X10827206Y-15296484D02*
X10798634Y-15296484D01*
X10979587Y-15296484D02*
X10960539Y-15286960D01*
X10960539Y-15286960D02*
X10951015Y-15267912D01*
X10951015Y-15267912D02*
X10951015Y-15096484D01*
X11131968Y-15286960D02*
X11112920Y-15296484D01*
X11112920Y-15296484D02*
X11074825Y-15296484D01*
X11074825Y-15296484D02*
X11055777Y-15286960D01*
X11055777Y-15286960D02*
X11046253Y-15267912D01*
X11046253Y-15267912D02*
X11046253Y-15191722D01*
X11046253Y-15191722D02*
X11055777Y-15172674D01*
X11055777Y-15172674D02*
X11074825Y-15163150D01*
X11074825Y-15163150D02*
X11112920Y-15163150D01*
X11112920Y-15163150D02*
X11131968Y-15172674D01*
X11131968Y-15172674D02*
X11141492Y-15191722D01*
X11141492Y-15191722D02*
X11141492Y-15210769D01*
X11141492Y-15210769D02*
X11046253Y-15229817D01*
X11217682Y-15286960D02*
X11236730Y-15296484D01*
X11236730Y-15296484D02*
X11274825Y-15296484D01*
X11274825Y-15296484D02*
X11293872Y-15286960D01*
X11293872Y-15286960D02*
X11303396Y-15267912D01*
X11303396Y-15267912D02*
X11303396Y-15258388D01*
X11303396Y-15258388D02*
X11293872Y-15239341D01*
X11293872Y-15239341D02*
X11274825Y-15229817D01*
X11274825Y-15229817D02*
X11246253Y-15229817D01*
X11246253Y-15229817D02*
X11227206Y-15220293D01*
X11227206Y-15220293D02*
X11217682Y-15201246D01*
X11217682Y-15201246D02*
X11217682Y-15191722D01*
X11217682Y-15191722D02*
X11227206Y-15172674D01*
X11227206Y-15172674D02*
X11246253Y-15163150D01*
X11246253Y-15163150D02*
X11274825Y-15163150D01*
X11274825Y-15163150D02*
X11293872Y-15172674D01*
X11370063Y-15372674D02*
X11379587Y-15363150D01*
X11379587Y-15363150D02*
X11398634Y-15334579D01*
X11398634Y-15334579D02*
X11408158Y-15315531D01*
X11408158Y-15315531D02*
X11417682Y-15286960D01*
X11417682Y-15286960D02*
X11427206Y-15239341D01*
X11427206Y-15239341D02*
X11427206Y-15201246D01*
X11427206Y-15201246D02*
X11417682Y-15153627D01*
X11417682Y-15153627D02*
X11408158Y-15125055D01*
X11408158Y-15125055D02*
X11398634Y-15106008D01*
X11398634Y-15106008D02*
X11379587Y-15077436D01*
X11379587Y-15077436D02*
X11370063Y-15067912D01*
X11731968Y-15372674D02*
X11722444Y-15363150D01*
X11722444Y-15363150D02*
X11703396Y-15334579D01*
X11703396Y-15334579D02*
X11693872Y-15315531D01*
X11693872Y-15315531D02*
X11684349Y-15286960D01*
X11684349Y-15286960D02*
X11674825Y-15239341D01*
X11674825Y-15239341D02*
X11674825Y-15201246D01*
X11674825Y-15201246D02*
X11684349Y-15153627D01*
X11684349Y-15153627D02*
X11693872Y-15125055D01*
X11693872Y-15125055D02*
X11703396Y-15106008D01*
X11703396Y-15106008D02*
X11722444Y-15077436D01*
X11722444Y-15077436D02*
X11731968Y-15067912D01*
X11808158Y-15163150D02*
X11808158Y-15296484D01*
X11808158Y-15182198D02*
X11817682Y-15172674D01*
X11817682Y-15172674D02*
X11836730Y-15163150D01*
X11836730Y-15163150D02*
X11865301Y-15163150D01*
X11865301Y-15163150D02*
X11884349Y-15172674D01*
X11884349Y-15172674D02*
X11893872Y-15191722D01*
X11893872Y-15191722D02*
X11893872Y-15296484D01*
X12017682Y-15296484D02*
X11998634Y-15286960D01*
X11998634Y-15286960D02*
X11989111Y-15277436D01*
X11989111Y-15277436D02*
X11979587Y-15258388D01*
X11979587Y-15258388D02*
X11979587Y-15201246D01*
X11979587Y-15201246D02*
X11989111Y-15182198D01*
X11989111Y-15182198D02*
X11998634Y-15172674D01*
X11998634Y-15172674D02*
X12017682Y-15163150D01*
X12017682Y-15163150D02*
X12046253Y-15163150D01*
X12046253Y-15163150D02*
X12065301Y-15172674D01*
X12065301Y-15172674D02*
X12074825Y-15182198D01*
X12074825Y-15182198D02*
X12084349Y-15201246D01*
X12084349Y-15201246D02*
X12084349Y-15258388D01*
X12084349Y-15258388D02*
X12074825Y-15277436D01*
X12074825Y-15277436D02*
X12065301Y-15286960D01*
X12065301Y-15286960D02*
X12046253Y-15296484D01*
X12046253Y-15296484D02*
X12017682Y-15296484D01*
X12141492Y-15163150D02*
X12217682Y-15163150D01*
X12170063Y-15096484D02*
X12170063Y-15267912D01*
X12170063Y-15267912D02*
X12179587Y-15286960D01*
X12179587Y-15286960D02*
X12198634Y-15296484D01*
X12198634Y-15296484D02*
X12217682Y-15296484D01*
X12436730Y-15163150D02*
X12436730Y-15363150D01*
X12436730Y-15172674D02*
X12455777Y-15163150D01*
X12455777Y-15163150D02*
X12493873Y-15163150D01*
X12493873Y-15163150D02*
X12512920Y-15172674D01*
X12512920Y-15172674D02*
X12522444Y-15182198D01*
X12522444Y-15182198D02*
X12531968Y-15201246D01*
X12531968Y-15201246D02*
X12531968Y-15258388D01*
X12531968Y-15258388D02*
X12522444Y-15277436D01*
X12522444Y-15277436D02*
X12512920Y-15286960D01*
X12512920Y-15286960D02*
X12493873Y-15296484D01*
X12493873Y-15296484D02*
X12455777Y-15296484D01*
X12455777Y-15296484D02*
X12436730Y-15286960D01*
X12646253Y-15296484D02*
X12627206Y-15286960D01*
X12627206Y-15286960D02*
X12617682Y-15267912D01*
X12617682Y-15267912D02*
X12617682Y-15096484D01*
X12808158Y-15296484D02*
X12808158Y-15191722D01*
X12808158Y-15191722D02*
X12798634Y-15172674D01*
X12798634Y-15172674D02*
X12779587Y-15163150D01*
X12779587Y-15163150D02*
X12741492Y-15163150D01*
X12741492Y-15163150D02*
X12722444Y-15172674D01*
X12808158Y-15286960D02*
X12789111Y-15296484D01*
X12789111Y-15296484D02*
X12741492Y-15296484D01*
X12741492Y-15296484D02*
X12722444Y-15286960D01*
X12722444Y-15286960D02*
X12712920Y-15267912D01*
X12712920Y-15267912D02*
X12712920Y-15248865D01*
X12712920Y-15248865D02*
X12722444Y-15229817D01*
X12722444Y-15229817D02*
X12741492Y-15220293D01*
X12741492Y-15220293D02*
X12789111Y-15220293D01*
X12789111Y-15220293D02*
X12808158Y-15210769D01*
X12874825Y-15163150D02*
X12951015Y-15163150D01*
X12903396Y-15096484D02*
X12903396Y-15267912D01*
X12903396Y-15267912D02*
X12912920Y-15286960D01*
X12912920Y-15286960D02*
X12931968Y-15296484D01*
X12931968Y-15296484D02*
X12951015Y-15296484D01*
X13093873Y-15286960D02*
X13074825Y-15296484D01*
X13074825Y-15296484D02*
X13036730Y-15296484D01*
X13036730Y-15296484D02*
X13017682Y-15286960D01*
X13017682Y-15286960D02*
X13008158Y-15267912D01*
X13008158Y-15267912D02*
X13008158Y-15191722D01*
X13008158Y-15191722D02*
X13017682Y-15172674D01*
X13017682Y-15172674D02*
X13036730Y-15163150D01*
X13036730Y-15163150D02*
X13074825Y-15163150D01*
X13074825Y-15163150D02*
X13093873Y-15172674D01*
X13093873Y-15172674D02*
X13103396Y-15191722D01*
X13103396Y-15191722D02*
X13103396Y-15210769D01*
X13103396Y-15210769D02*
X13008158Y-15229817D01*
X13274825Y-15296484D02*
X13274825Y-15096484D01*
X13274825Y-15286960D02*
X13255777Y-15296484D01*
X13255777Y-15296484D02*
X13217682Y-15296484D01*
X13217682Y-15296484D02*
X13198634Y-15286960D01*
X13198634Y-15286960D02*
X13189111Y-15277436D01*
X13189111Y-15277436D02*
X13179587Y-15258388D01*
X13179587Y-15258388D02*
X13179587Y-15201246D01*
X13179587Y-15201246D02*
X13189111Y-15182198D01*
X13189111Y-15182198D02*
X13198634Y-15172674D01*
X13198634Y-15172674D02*
X13217682Y-15163150D01*
X13217682Y-15163150D02*
X13255777Y-15163150D01*
X13255777Y-15163150D02*
X13274825Y-15172674D01*
X13351015Y-15372674D02*
X13360539Y-15363150D01*
X13360539Y-15363150D02*
X13379587Y-15334579D01*
X13379587Y-15334579D02*
X13389111Y-15315531D01*
X13389111Y-15315531D02*
X13398634Y-15286960D01*
X13398634Y-15286960D02*
X13408158Y-15239341D01*
X13408158Y-15239341D02*
X13408158Y-15201246D01*
X13408158Y-15201246D02*
X13398634Y-15153627D01*
X13398634Y-15153627D02*
X13389111Y-15125055D01*
X13389111Y-15125055D02*
X13379587Y-15106008D01*
X13379587Y-15106008D02*
X13360539Y-15077436D01*
X13360539Y-15077436D02*
X13351015Y-15067912D01*
M02*
