M48
; DRILL file {KiCad (6.0.0)} date Thu Jun  2 21:19:17 2022
; FORMAT={-:-/ absolute / metric / decimal}
; #@! TF.CreationDate,2022-06-02T21:19:17-07:00
; #@! TF.GenerationSoftware,Kicad,Pcbnew,(6.0.0)
; #@! TF.FileFunction,Plated,1,2,PTH
FMAT,2
METRIC
; #@! TA.AperFunction,Plated,PTH,ViaDrill
T1C0.400
; #@! TA.AperFunction,Plated,PTH,ComponentDrill
T2C0.762
; #@! TA.AperFunction,Plated,PTH,ComponentDrill
T3C0.800
; #@! TA.AperFunction,Plated,PTH,ComponentDrill
T4C0.914
; #@! TA.AperFunction,Plated,PTH,ComponentDrill
T5C1.000
; #@! TA.AperFunction,Plated,PTH,ComponentDrill
T6C1.020
%
G90
G05
T1
X78.9Y-88.8
X79.9Y-115.6
X89.075Y-117.05
X91.675Y-116.9
X99.2Y-110.0
X101.3Y-91.0
X101.8Y-116.225
X104.3Y-118.65
X106.8Y-114.775
X107.4Y-93.3
X113.2Y-98.4
X113.2Y-101.1
X115.9Y-103.124
X117.175Y-124.8
X117.9Y-96.1
X119.125Y-115.55
X121.8Y-120.75
X122.35Y-127.525
X124.625Y-129.225
X148.075Y-122.825
X148.125Y-78.875
X157.425Y-128.95
X170.391Y-120.624
X172.275Y-76.85
X172.4Y-83.9
X172.4Y-90.025
X173.0Y-114.65
X174.199Y-115.55
X174.72Y-116.5
X175.176Y-101.461
X175.425Y-96.475
X175.85Y-117.625
X176.3Y-98.7
X177.575Y-117.925
X180.625Y-122.875
X181.1Y-113.2
X181.2Y-94.5
X182.4Y-116.7
X182.599Y-99.399
X183.3Y-109.8
X185.5Y-90.5
X186.0Y-109.9
X188.4Y-116.7
X190.5Y-83.0
X192.075Y-79.0
T2
X183.34Y-86.075
X184.697Y-93.554
X184.697Y-96.094
X184.697Y-98.634
X184.697Y-101.174
X184.697Y-103.714
X184.697Y-106.254
X185.88Y-86.075
X188.42Y-86.075
X190.96Y-86.075
X193.5Y-86.075
T3
X73.9Y-83.29
X73.9Y-85.83
X73.9Y-88.37
X73.9Y-90.91
X73.9Y-93.45
X73.9Y-95.99
X73.9Y-98.53
X73.9Y-101.07
X73.9Y-103.61
X73.9Y-106.15
X73.9Y-108.69
X73.9Y-111.23
X73.9Y-113.77
X73.9Y-116.31
X177.94Y-95.99
X177.94Y-98.53
X177.94Y-101.07
X177.94Y-103.61
T4
X158.311Y-76.335
X158.311Y-78.875
X158.311Y-120.695
X158.311Y-123.235
X167.311Y-76.335
X167.311Y-78.875
X167.311Y-120.695
X167.311Y-123.235
T5
X151.195Y-120.255
X151.195Y-122.795
X151.195Y-125.335
T6
X88.755Y-87.1
X88.755Y-112.5
X91.295Y-87.1
X91.295Y-112.5
X93.835Y-87.1
X93.835Y-112.5
X96.375Y-87.1
X96.375Y-112.5
X98.915Y-87.1
X98.915Y-112.5
X101.455Y-87.1
X101.455Y-112.5
X103.995Y-87.1
X103.995Y-112.5
X106.535Y-87.1
X106.535Y-112.5
X109.075Y-87.1
X109.075Y-112.5
X111.615Y-87.1
X111.615Y-112.5
X114.155Y-87.1
X114.155Y-112.5
X116.695Y-87.1
X116.695Y-112.5
X119.235Y-87.1
X119.235Y-112.5
X121.775Y-87.1
X121.775Y-112.5
X124.315Y-87.1
X124.315Y-112.5
T0
M30
