M48
; DRILL file {KiCad 8.0.2} date 2024-10-19T21:23:13-0700
; FORMAT={-:-/ absolute / inch / decimal}
; #@! TF.CreationDate,2024-10-19T21:23:13-07:00
; #@! TF.GenerationSoftware,Kicad,Pcbnew,8.0.2
; #@! TF.FileFunction,Plated,1,2,PTH
FMAT,2
INCH
; #@! TA.AperFunction,Plated,PTH,ViaDrill
T1C0.0157
; #@! TA.AperFunction,Plated,PTH,ComponentDrill
T2C0.0300
; #@! TA.AperFunction,Plated,PTH,ComponentDrill
T3C0.0315
; #@! TA.AperFunction,Plated,PTH,ComponentDrill
T4C0.0394
; #@! TA.AperFunction,Plated,PTH,ComponentDrill
T5C0.0402
%
G90
G05
T1
X3.1063Y-3.4961
X3.122Y-4.2815
X3.5069Y-4.6083
X3.6093Y-4.6024
X3.9055Y-4.3307
X3.9882Y-3.5827
X4.0079Y-4.5758
X4.1063Y-4.6713
X4.2047Y-4.5187
X4.2283Y-3.6732
X4.4567Y-3.874
X4.4567Y-3.9803
X4.563Y-4.06
X4.6132Y-4.9134
X4.6417Y-3.7835
X4.6831Y-4.2953
X4.7943Y-4.753
X4.8169Y-5.0207
X4.9065Y-5.0876
X5.0Y-4.9606
X5.0679Y-3.1053
X5.0984Y-2.8346
X5.747Y-3.9911
X5.9055Y-3.0053
X5.9252Y-3.878
X6.7083Y-4.749
X6.7825Y-3.0256
X6.7874Y-3.3031
X6.7874Y-3.5443
X6.811Y-4.5138
X6.8787Y-4.5866
X6.8967Y-3.9945
X6.9065Y-3.7982
X6.9232Y-4.6309
X6.9409Y-3.8858
X6.9911Y-4.6427
X7.1112Y-4.8376
X7.1299Y-4.4567
X7.1339Y-3.7205
X7.1811Y-4.5945
X7.1889Y-3.9133
X7.2165Y-4.3228
X7.3031Y-3.563
X7.3228Y-4.3268
X7.4173Y-4.5945
X7.5Y-3.2677
X7.562Y-3.1102
T2
X5.4906Y-3.5236
X5.5906Y-2.8937
X5.5906Y-3.5236
X5.9055Y-2.8937
X5.9055Y-3.5236
X6.3524Y-3.987
X6.3528Y-3.887
X7.2181Y-3.3888
X7.2715Y-3.6832
X7.2715Y-3.7832
X7.2715Y-3.8832
X7.2715Y-3.9832
X7.2715Y-4.0832
X7.2715Y-4.1832
X7.3181Y-3.3888
X7.4181Y-3.3888
X7.5181Y-3.3888
X7.6181Y-3.3888
T3
X2.9518Y-3.2455
X2.9518Y-3.3455
X2.9518Y-3.4455
X2.9518Y-3.5455
X2.9518Y-3.6455
X2.9518Y-3.7455
X2.9518Y-3.8455
X2.9518Y-3.9455
X2.9518Y-4.0455
X2.9518Y-4.1455
X2.9518Y-4.2455
X2.9518Y-4.3455
X2.9518Y-4.4455
X2.9518Y-4.5455
X7.0478Y-3.7455
X7.0478Y-3.8455
X7.0478Y-3.9455
X7.0478Y-4.0455
T4
X5.5921Y-4.8827
X5.6921Y-4.8827
X5.7921Y-4.8827
T5
X3.4943Y-3.4291
X3.4943Y-4.4291
X3.5943Y-3.4291
X3.5943Y-4.4291
X3.6943Y-3.4291
X3.6943Y-4.4291
X3.7943Y-3.4291
X3.7943Y-4.4291
X3.8943Y-3.4291
X3.8943Y-4.4291
X3.9943Y-3.4291
X3.9943Y-4.4291
X4.0943Y-3.4291
X4.0943Y-4.4291
X4.1943Y-3.4291
X4.1943Y-4.4291
X4.2943Y-3.4291
X4.2943Y-4.4291
X4.3943Y-3.4291
X4.3943Y-4.4291
X4.4943Y-3.4291
X4.4943Y-4.4291
X4.5943Y-3.4291
X4.5943Y-4.4291
X4.6943Y-3.4291
X4.6943Y-4.4291
X4.7943Y-3.4291
X4.7943Y-4.4291
X4.8943Y-3.4291
X4.8943Y-4.4291
M30
