%TF.GenerationSoftware,KiCad,Pcbnew,8.0.2*%
%TF.CreationDate,2024-10-28T21:29:39-07:00*%
%TF.ProjectId,mini_weather_monitor,6d696e69-5f77-4656-9174-6865725f6d6f,rev?*%
%TF.SameCoordinates,Original*%
%TF.FileFunction,Soldermask,Top*%
%TF.FilePolarity,Negative*%
%FSLAX46Y46*%
G04 Gerber Fmt 4.6, Leading zero omitted, Abs format (unit mm)*
G04 Created by KiCad (PCBNEW 8.0.2) date 2024-10-28 21:29:39*
%MOMM*%
%LPD*%
G01*
G04 APERTURE LIST*
%ADD10C,3.250000*%
%ADD11C,1.524000*%
%ADD12C,3.000000*%
%ADD13C,4.000000*%
%ADD14R,1.400000X1.200000*%
%ADD15O,1.400000X1.200000*%
%ADD16R,2.000000X2.000000*%
%ADD17C,2.000000*%
G04 APERTURE END LIST*
D10*
%TO.C,U2_BME280*%
X192571000Y-94824000D03*
X192571000Y-105238000D03*
D11*
X184697000Y-93554000D03*
X184697000Y-96094000D03*
X184697000Y-98634000D03*
X184697000Y-101174000D03*
X184697000Y-103714000D03*
X184697000Y-106254000D03*
%TD*%
D12*
%TO.C,H1*%
X69000000Y-67000000D03*
%TD*%
%TO.C,H2*%
X198000000Y-67000000D03*
%TD*%
%TO.C,H4*%
X198000000Y-133000000D03*
%TD*%
%TO.C,U3_BH1750*%
X184102000Y-71851000D03*
X192738000Y-71851000D03*
D11*
X183340000Y-86075000D03*
X185880000Y-86075000D03*
X188420000Y-86075000D03*
X190960000Y-86075000D03*
X193500000Y-86075000D03*
%TD*%
D13*
%TO.C,U2*%
X74410000Y-128150000D03*
X74900000Y-72350000D03*
X176940000Y-71930000D03*
X176940000Y-127250000D03*
D14*
X73900000Y-83290000D03*
D15*
X73900000Y-85830000D03*
X73900000Y-88370000D03*
X73900000Y-90910000D03*
X73900000Y-93450000D03*
X73900000Y-95990000D03*
X73900000Y-98530000D03*
X73900000Y-101070000D03*
X73900000Y-103610000D03*
X73900000Y-106150000D03*
X73900000Y-108690000D03*
X73900000Y-111230000D03*
X73900000Y-113770000D03*
X73900000Y-116310000D03*
D14*
X177940000Y-95990000D03*
D15*
X177940000Y-98530000D03*
X177940000Y-101070000D03*
X177940000Y-103610000D03*
%TD*%
D12*
%TO.C,H3*%
X69000000Y-133000000D03*
%TD*%
D11*
%TO.C,5V_buck_boost1*%
X145850000Y-91950000D03*
X153850000Y-91950000D03*
X143310000Y-107950000D03*
X145850000Y-107950000D03*
X153850000Y-107950000D03*
%TD*%
D13*
%TO.C,USB_C_Input1*%
X162350000Y-106000000D03*
X162350000Y-94000000D03*
D11*
X161350000Y-101270000D03*
X161360000Y-98730000D03*
%TD*%
D16*
%TO.C,U_ESP32_DEVKIT_V1*%
X124315000Y-112500000D03*
D17*
X121775000Y-112500000D03*
X119235000Y-112500000D03*
X116695000Y-112500000D03*
X114155000Y-112500000D03*
X111615000Y-112500000D03*
X109075000Y-112500000D03*
X106535000Y-112500000D03*
X103995000Y-112500000D03*
X101455000Y-112500000D03*
X98915000Y-112500000D03*
X96375000Y-112500000D03*
X93835000Y-112500000D03*
X91295000Y-112500000D03*
X88755000Y-112500000D03*
X88755000Y-87100000D03*
X91295000Y-87100000D03*
X93835000Y-87100000D03*
X96375000Y-87100000D03*
X98915000Y-87100000D03*
X101455000Y-87100000D03*
X103995000Y-87100000D03*
X106535000Y-87100000D03*
X109075000Y-87100000D03*
X111615000Y-87100000D03*
X114155000Y-87100000D03*
X116695000Y-87100000D03*
X119235000Y-87100000D03*
X121775000Y-87100000D03*
X124315000Y-87100000D03*
%TD*%
M02*
