%TF.GenerationSoftware,KiCad,Pcbnew,8.0.2*%
%TF.CreationDate,2025-01-22T20:51:21-08:00*%
%TF.ProjectId,mini_weather_monitor,6d696e69-5f77-4656-9174-6865725f6d6f,rev?*%
%TF.SameCoordinates,Original*%
%TF.FileFunction,Drillmap*%
%TF.FilePolarity,Positive*%
%FSLAX45Y45*%
G04 Gerber Fmt 4.5, Leading zero omitted, Abs format (unit mm)*
G04 Created by KiCad (PCBNEW 8.0.2) date 2025-01-22 20:51:21*
%MOMM*%
%LPD*%
G01*
G04 APERTURE LIST*
%ADD10C,0.100000*%
%ADD11C,0.200000*%
%ADD12C,0.102000*%
%ADD13C,0.250000*%
G04 APERTURE END LIST*
D10*
X20000000Y-13600000D02*
X6700000Y-13600000D01*
X6700000Y-6400000D02*
X20000000Y-6400000D01*
X20000000Y-6400000D02*
G75*
G02*
X20100000Y-6500000I0J-100000D01*
G01*
X20100000Y-6500000D02*
X20100000Y-13500000D01*
X6600000Y-13500000D02*
X6600000Y-6500000D01*
X6600000Y-6500000D02*
G75*
G02*
X6700000Y-6400000I100000J0D01*
G01*
X20100000Y-13500000D02*
G75*
G02*
X20000000Y-13600000I-100000J0D01*
G01*
X6700000Y-13600000D02*
G75*
G02*
X6600000Y-13500000I0J100000D01*
G01*
D11*
D10*
X7645000Y-8840000D02*
X7685000Y-8880000D01*
X7685000Y-8840000D02*
X7645000Y-8880000D01*
X7645000Y-10725000D02*
X7685000Y-10765000D01*
X7685000Y-10725000D02*
X7645000Y-10765000D01*
X8535000Y-11700000D02*
X8575000Y-11740000D01*
X8575000Y-11700000D02*
X8535000Y-11740000D01*
X8795000Y-11915000D02*
X8835000Y-11955000D01*
X8835000Y-11915000D02*
X8795000Y-11955000D01*
X9560000Y-11030000D02*
X9600000Y-11070000D01*
X9600000Y-11030000D02*
X9560000Y-11070000D01*
X9805000Y-11610000D02*
X9845000Y-11650000D01*
X9845000Y-11610000D02*
X9805000Y-11650000D01*
X9815000Y-9071000D02*
X9855000Y-9111000D01*
X9855000Y-9071000D02*
X9815000Y-9111000D01*
X10135000Y-11850000D02*
X10175000Y-11890000D01*
X10175000Y-11850000D02*
X10135000Y-11890000D01*
X10325000Y-11530000D02*
X10365000Y-11570000D01*
X10365000Y-11530000D02*
X10325000Y-11570000D01*
X10560000Y-9300000D02*
X10600000Y-9340000D01*
X10600000Y-9300000D02*
X10560000Y-9340000D01*
X11055000Y-10087000D02*
X11095000Y-10127000D01*
X11095000Y-10087000D02*
X11055000Y-10127000D01*
X11080000Y-9833000D02*
X11120000Y-9873000D01*
X11120000Y-9833000D02*
X11080000Y-9873000D01*
X11345000Y-10280000D02*
X11385000Y-10320000D01*
X11385000Y-10280000D02*
X11345000Y-10320000D01*
X11595000Y-9579000D02*
X11635000Y-9619000D01*
X11635000Y-9579000D02*
X11595000Y-9619000D01*
X11595000Y-10750000D02*
X11635000Y-10790000D01*
X11635000Y-10750000D02*
X11595000Y-10790000D01*
X12090000Y-7920000D02*
X12130000Y-7960000D01*
X12130000Y-7920000D02*
X12090000Y-7960000D01*
X12115000Y-12155000D02*
X12155000Y-12195000D01*
X12155000Y-12155000D02*
X12115000Y-12195000D01*
X12150000Y-8975000D02*
X12190000Y-9015000D01*
X12190000Y-8975000D02*
X12150000Y-9015000D01*
X13474999Y-8977501D02*
X13514999Y-9017501D01*
X13514999Y-8977501D02*
X13474999Y-9017501D01*
X13565000Y-7440000D02*
X13605000Y-7480000D01*
X13605000Y-7440000D02*
X13565000Y-7480000D01*
X13925000Y-8240000D02*
X13965000Y-8280000D01*
X13965000Y-8240000D02*
X13925000Y-8280000D01*
X13925000Y-11940000D02*
X13965000Y-11980000D01*
X13965000Y-11940000D02*
X13925000Y-11980000D01*
X16205000Y-9355000D02*
X16245000Y-9395000D01*
X16245000Y-9355000D02*
X16205000Y-9395000D01*
X16395000Y-7415000D02*
X16435000Y-7455000D01*
X16435000Y-7415000D02*
X16395000Y-7455000D01*
X16405000Y-9355000D02*
X16445000Y-9395000D01*
X16445000Y-9355000D02*
X16405000Y-9395000D01*
X17010000Y-12005000D02*
X17050000Y-12045000D01*
X17050000Y-12005000D02*
X17010000Y-12045000D01*
X17266250Y-12270400D02*
X17306250Y-12310400D01*
X17306250Y-12270400D02*
X17266250Y-12310400D01*
X17430000Y-12270400D02*
X17470000Y-12310400D01*
X17470000Y-12270400D02*
X17430000Y-12310400D01*
X17497550Y-10126074D02*
X17537550Y-10166074D01*
X17537550Y-10126074D02*
X17497550Y-10166074D01*
X17522500Y-9627500D02*
X17562500Y-9667500D01*
X17562500Y-9627500D02*
X17522500Y-9667500D01*
X17570000Y-12275000D02*
X17610000Y-12315000D01*
X17610000Y-12275000D02*
X17570000Y-12315000D01*
X17610000Y-9850000D02*
X17650000Y-9890000D01*
X17650000Y-9850000D02*
X17610000Y-9890000D01*
X17740000Y-12365000D02*
X17780000Y-12405000D01*
X17780000Y-12365000D02*
X17740000Y-12405000D01*
X18055000Y-11900000D02*
X18095000Y-11940000D01*
X18095000Y-11900000D02*
X18055000Y-11940000D01*
X18310000Y-10960000D02*
X18350000Y-11000000D01*
X18350000Y-10960000D02*
X18310000Y-11000000D01*
X18320000Y-12185000D02*
X18360000Y-12225000D01*
X18360000Y-12185000D02*
X18320000Y-12225000D01*
X18580000Y-10970000D02*
X18620000Y-11010000D01*
X18620000Y-10970000D02*
X18580000Y-11010000D01*
X19195000Y-7945000D02*
X19235000Y-7985000D01*
X19235000Y-7945000D02*
X19195000Y-7985000D01*
X18372100Y-8607500D02*
G75*
G02*
X18295900Y-8607500I-38100J0D01*
G01*
X18295900Y-8607500D02*
G75*
G02*
X18372100Y-8607500I38100J0D01*
G01*
X18507800Y-9355400D02*
G75*
G02*
X18431600Y-9355400I-38100J0D01*
G01*
X18431600Y-9355400D02*
G75*
G02*
X18507800Y-9355400I38100J0D01*
G01*
X18507800Y-9609400D02*
G75*
G02*
X18431600Y-9609400I-38100J0D01*
G01*
X18431600Y-9609400D02*
G75*
G02*
X18507800Y-9609400I38100J0D01*
G01*
X18507800Y-9863400D02*
G75*
G02*
X18431600Y-9863400I-38100J0D01*
G01*
X18431600Y-9863400D02*
G75*
G02*
X18507800Y-9863400I38100J0D01*
G01*
X18507800Y-10117400D02*
G75*
G02*
X18431600Y-10117400I-38100J0D01*
G01*
X18431600Y-10117400D02*
G75*
G02*
X18507800Y-10117400I38100J0D01*
G01*
X18507800Y-10371400D02*
G75*
G02*
X18431600Y-10371400I-38100J0D01*
G01*
X18431600Y-10371400D02*
G75*
G02*
X18507800Y-10371400I38100J0D01*
G01*
X18507800Y-10625400D02*
G75*
G02*
X18431600Y-10625400I-38100J0D01*
G01*
X18431600Y-10625400D02*
G75*
G02*
X18507800Y-10625400I38100J0D01*
G01*
X18626100Y-8607500D02*
G75*
G02*
X18549900Y-8607500I-38100J0D01*
G01*
X18549900Y-8607500D02*
G75*
G02*
X18626100Y-8607500I38100J0D01*
G01*
X18880100Y-8607500D02*
G75*
G02*
X18803900Y-8607500I-38100J0D01*
G01*
X18803900Y-8607500D02*
G75*
G02*
X18880100Y-8607500I38100J0D01*
G01*
X19134100Y-8607500D02*
G75*
G02*
X19057900Y-8607500I-38100J0D01*
G01*
X19057900Y-8607500D02*
G75*
G02*
X19134100Y-8607500I38100J0D01*
G01*
X19388100Y-8607500D02*
G75*
G02*
X19311900Y-8607500I-38100J0D01*
G01*
X19311900Y-8607500D02*
G75*
G02*
X19388100Y-8607500I38100J0D01*
G01*
X7390000Y-8289000D02*
X7390000Y-8369000D01*
X7350000Y-8329000D02*
X7430000Y-8329000D01*
X7390000Y-8543000D02*
X7390000Y-8623000D01*
X7350000Y-8583000D02*
X7430000Y-8583000D01*
X7390000Y-8797000D02*
X7390000Y-8877000D01*
X7350000Y-8837000D02*
X7430000Y-8837000D01*
X7390000Y-9051000D02*
X7390000Y-9131000D01*
X7350000Y-9091000D02*
X7430000Y-9091000D01*
X7390000Y-9305000D02*
X7390000Y-9385000D01*
X7350000Y-9345000D02*
X7430000Y-9345000D01*
X7390000Y-9559000D02*
X7390000Y-9639000D01*
X7350000Y-9599000D02*
X7430000Y-9599000D01*
X7390000Y-9813000D02*
X7390000Y-9893000D01*
X7350000Y-9853000D02*
X7430000Y-9853000D01*
X7390000Y-10067000D02*
X7390000Y-10147000D01*
X7350000Y-10107000D02*
X7430000Y-10107000D01*
X7390000Y-10321000D02*
X7390000Y-10401000D01*
X7350000Y-10361000D02*
X7430000Y-10361000D01*
X7390000Y-10575000D02*
X7390000Y-10655000D01*
X7350000Y-10615000D02*
X7430000Y-10615000D01*
X7390000Y-10829000D02*
X7390000Y-10909000D01*
X7350000Y-10869000D02*
X7430000Y-10869000D01*
X7390000Y-11083000D02*
X7390000Y-11163000D01*
X7350000Y-11123000D02*
X7430000Y-11123000D01*
X7390000Y-11337000D02*
X7390000Y-11417000D01*
X7350000Y-11377000D02*
X7430000Y-11377000D01*
X7390000Y-11591000D02*
X7390000Y-11671000D01*
X7350000Y-11631000D02*
X7430000Y-11631000D01*
X13517550Y-7990050D02*
X13517550Y-8070050D01*
X13477550Y-8030050D02*
X13557550Y-8030050D01*
X13517550Y-11939750D02*
X13517550Y-12019750D01*
X13477550Y-11979750D02*
X13557550Y-11979750D01*
X15232350Y-7990050D02*
X15232350Y-8070050D01*
X15192350Y-8030050D02*
X15272350Y-8030050D01*
X15232350Y-11939750D02*
X15232350Y-12019750D01*
X15192350Y-11979750D02*
X15272350Y-11979750D01*
X17794000Y-9559000D02*
X17794000Y-9639000D01*
X17754000Y-9599000D02*
X17834000Y-9599000D01*
X17794000Y-9813000D02*
X17794000Y-9893000D01*
X17754000Y-9853000D02*
X17834000Y-9853000D01*
X17794000Y-10067000D02*
X17794000Y-10147000D01*
X17754000Y-10107000D02*
X17834000Y-10107000D01*
X17794000Y-10321000D02*
X17794000Y-10401000D01*
X17754000Y-10361000D02*
X17834000Y-10361000D01*
X9421356Y-12505356D02*
X9421356Y-12434644D01*
X9350644Y-12434644D01*
X9350644Y-12505356D01*
X9421356Y-12505356D01*
X9675356Y-12505356D02*
X9675356Y-12434644D01*
X9604644Y-12434644D01*
X9604644Y-12505356D01*
X9675356Y-12505356D01*
X15918356Y-9154356D02*
X15918356Y-9083644D01*
X15847644Y-9083644D01*
X15847644Y-9154356D01*
X15918356Y-9154356D01*
X15918356Y-9408356D02*
X15918356Y-9337644D01*
X15847644Y-9337644D01*
X15847644Y-9408356D01*
X15918356Y-9408356D01*
X15918356Y-9662356D02*
X15918356Y-9591644D01*
X15847644Y-9591644D01*
X15847644Y-9662356D01*
X15918356Y-9662356D01*
X15918356Y-9916356D02*
X15918356Y-9845644D01*
X15847644Y-9845644D01*
X15847644Y-9916356D01*
X15918356Y-9916356D01*
X15918356Y-10170356D02*
X15918356Y-10099644D01*
X15847644Y-10099644D01*
X15847644Y-10170356D01*
X15918356Y-10170356D01*
X15918356Y-10424356D02*
X15918356Y-10353644D01*
X15847644Y-10353644D01*
X15847644Y-10424356D01*
X15918356Y-10424356D01*
X15918356Y-10678356D02*
X15918356Y-10607644D01*
X15847644Y-10607644D01*
X15847644Y-10678356D01*
X15918356Y-10678356D01*
X15918356Y-10932356D02*
X15918356Y-10861644D01*
X15847644Y-10861644D01*
X15847644Y-10932356D01*
X15918356Y-10932356D01*
X16934356Y-9154356D02*
X16934356Y-9083644D01*
X16863644Y-9083644D01*
X16863644Y-9154356D01*
X16934356Y-9154356D01*
X16934356Y-9408356D02*
X16934356Y-9337644D01*
X16863644Y-9337644D01*
X16863644Y-9408356D01*
X16934356Y-9408356D01*
X16934356Y-9662356D02*
X16934356Y-9591644D01*
X16863644Y-9591644D01*
X16863644Y-9662356D01*
X16934356Y-9662356D01*
X16934356Y-9916356D02*
X16934356Y-9845644D01*
X16863644Y-9845644D01*
X16863644Y-9916356D01*
X16934356Y-9916356D01*
X16934356Y-10170356D02*
X16934356Y-10099644D01*
X16863644Y-10099644D01*
X16863644Y-10170356D01*
X16934356Y-10170356D01*
X16934356Y-10424356D02*
X16934356Y-10353644D01*
X16863644Y-10353644D01*
X16863644Y-10424356D01*
X16934356Y-10424356D01*
X16934356Y-10678356D02*
X16934356Y-10607644D01*
X16863644Y-10607644D01*
X16863644Y-10678356D01*
X16934356Y-10678356D01*
X16934356Y-10932356D02*
X16934356Y-10861644D01*
X16863644Y-10861644D01*
X16863644Y-10932356D01*
X16934356Y-10932356D01*
X18990356Y-11151356D02*
X18990356Y-11080644D01*
X18919644Y-11080644D01*
X18919644Y-11151356D01*
X18990356Y-11151356D01*
X18990356Y-11405356D02*
X18990356Y-11334644D01*
X18919644Y-11334644D01*
X18919644Y-11405356D01*
X18990356Y-11405356D01*
X18990356Y-11659356D02*
X18990356Y-11588644D01*
X18919644Y-11588644D01*
X18919644Y-11659356D01*
X18990356Y-11659356D01*
X18990356Y-11913356D02*
X18990356Y-11842644D01*
X18919644Y-11842644D01*
X18919644Y-11913356D01*
X18990356Y-11913356D01*
X18990356Y-12167356D02*
X18990356Y-12096644D01*
X18919644Y-12096644D01*
X18919644Y-12167356D01*
X18990356Y-12167356D01*
X18990356Y-12421356D02*
X18990356Y-12350644D01*
X18919644Y-12350644D01*
X18919644Y-12421356D01*
X18990356Y-12421356D01*
X18990356Y-12675356D02*
X18990356Y-12604644D01*
X18919644Y-12604644D01*
X18919644Y-12675356D01*
X18990356Y-12675356D01*
X18990356Y-12929356D02*
X18990356Y-12858644D01*
X18919644Y-12858644D01*
X18919644Y-12929356D01*
X18990356Y-12929356D01*
D12*
X8560500Y-8761000D02*
X8611500Y-8710000D01*
X8560500Y-8659000D01*
X8509500Y-8710000D01*
X8560500Y-8761000D01*
X8560500Y-11301000D02*
X8611500Y-11250000D01*
X8560500Y-11199000D01*
X8509500Y-11250000D01*
X8560500Y-11301000D01*
X8814500Y-8761000D02*
X8865500Y-8710000D01*
X8814500Y-8659000D01*
X8763500Y-8710000D01*
X8814500Y-8761000D01*
X8814500Y-11301000D02*
X8865500Y-11250000D01*
X8814500Y-11199000D01*
X8763500Y-11250000D01*
X8814500Y-11301000D01*
X9068500Y-8761000D02*
X9119500Y-8710000D01*
X9068500Y-8659000D01*
X9017500Y-8710000D01*
X9068500Y-8761000D01*
X9068500Y-11301000D02*
X9119500Y-11250000D01*
X9068500Y-11199000D01*
X9017500Y-11250000D01*
X9068500Y-11301000D01*
X9322500Y-8761000D02*
X9373500Y-8710000D01*
X9322500Y-8659000D01*
X9271500Y-8710000D01*
X9322500Y-8761000D01*
X9322500Y-11301000D02*
X9373500Y-11250000D01*
X9322500Y-11199000D01*
X9271500Y-11250000D01*
X9322500Y-11301000D01*
X9576500Y-8761000D02*
X9627500Y-8710000D01*
X9576500Y-8659000D01*
X9525500Y-8710000D01*
X9576500Y-8761000D01*
X9576500Y-11301000D02*
X9627500Y-11250000D01*
X9576500Y-11199000D01*
X9525500Y-11250000D01*
X9576500Y-11301000D01*
X9830500Y-8761000D02*
X9881500Y-8710000D01*
X9830500Y-8659000D01*
X9779500Y-8710000D01*
X9830500Y-8761000D01*
X9830500Y-11301000D02*
X9881500Y-11250000D01*
X9830500Y-11199000D01*
X9779500Y-11250000D01*
X9830500Y-11301000D01*
X10084500Y-8761000D02*
X10135500Y-8710000D01*
X10084500Y-8659000D01*
X10033500Y-8710000D01*
X10084500Y-8761000D01*
X10084500Y-11301000D02*
X10135500Y-11250000D01*
X10084500Y-11199000D01*
X10033500Y-11250000D01*
X10084500Y-11301000D01*
X10338500Y-8761000D02*
X10389500Y-8710000D01*
X10338500Y-8659000D01*
X10287500Y-8710000D01*
X10338500Y-8761000D01*
X10338500Y-11301000D02*
X10389500Y-11250000D01*
X10338500Y-11199000D01*
X10287500Y-11250000D01*
X10338500Y-11301000D01*
X10592500Y-8761000D02*
X10643500Y-8710000D01*
X10592500Y-8659000D01*
X10541500Y-8710000D01*
X10592500Y-8761000D01*
X10592500Y-11301000D02*
X10643500Y-11250000D01*
X10592500Y-11199000D01*
X10541500Y-11250000D01*
X10592500Y-11301000D01*
X10846500Y-8761000D02*
X10897500Y-8710000D01*
X10846500Y-8659000D01*
X10795500Y-8710000D01*
X10846500Y-8761000D01*
X10846500Y-11301000D02*
X10897500Y-11250000D01*
X10846500Y-11199000D01*
X10795500Y-11250000D01*
X10846500Y-11301000D01*
X11100500Y-8761000D02*
X11151500Y-8710000D01*
X11100500Y-8659000D01*
X11049500Y-8710000D01*
X11100500Y-8761000D01*
X11100500Y-11301000D02*
X11151500Y-11250000D01*
X11100500Y-11199000D01*
X11049500Y-11250000D01*
X11100500Y-11301000D01*
X11354500Y-8761000D02*
X11405500Y-8710000D01*
X11354500Y-8659000D01*
X11303500Y-8710000D01*
X11354500Y-8761000D01*
X11354500Y-11301000D02*
X11405500Y-11250000D01*
X11354500Y-11199000D01*
X11303500Y-11250000D01*
X11354500Y-11301000D01*
X11608500Y-8761000D02*
X11659500Y-8710000D01*
X11608500Y-8659000D01*
X11557500Y-8710000D01*
X11608500Y-8761000D01*
X11608500Y-11301000D02*
X11659500Y-11250000D01*
X11608500Y-11199000D01*
X11557500Y-11250000D01*
X11608500Y-11301000D01*
X11862500Y-8761000D02*
X11913500Y-8710000D01*
X11862500Y-8659000D01*
X11811500Y-8710000D01*
X11862500Y-8761000D01*
X11862500Y-11301000D02*
X11913500Y-11250000D01*
X11862500Y-11199000D01*
X11811500Y-11250000D01*
X11862500Y-11301000D01*
X12116500Y-8761000D02*
X12167500Y-8710000D01*
X12116500Y-8659000D01*
X12065500Y-8710000D01*
X12116500Y-8761000D01*
X12116500Y-11301000D02*
X12167500Y-11250000D01*
X12116500Y-11199000D01*
X12065500Y-11250000D01*
X12116500Y-11301000D01*
D13*
X13450000Y-8381300D02*
X13700000Y-8631300D01*
X13700000Y-8381300D02*
X13450000Y-8631300D01*
X13700000Y-8506300D02*
G75*
G02*
X13450000Y-8506300I-125000J0D01*
G01*
X13450000Y-8506300D02*
G75*
G02*
X13700000Y-8506300I125000J0D01*
G01*
X15050200Y-11378500D02*
X15300200Y-11628500D01*
X15300200Y-11378500D02*
X15050200Y-11628500D01*
X15300200Y-11503500D02*
G75*
G02*
X15050200Y-11503500I-125000J0D01*
G01*
X15050200Y-11503500D02*
G75*
G02*
X15300200Y-11503500I125000J0D01*
G01*
X15758000Y-8613000D02*
X16008000Y-8863000D01*
X16008000Y-8613000D02*
X15758000Y-8863000D01*
X16008000Y-8738000D02*
G75*
G02*
X15758000Y-8738000I-125000J0D01*
G01*
X15758000Y-8738000D02*
G75*
G02*
X16008000Y-8738000I125000J0D01*
G01*
X15758000Y-11153000D02*
X16008000Y-11403000D01*
X16008000Y-11153000D02*
X15758000Y-11403000D01*
X16008000Y-11278000D02*
G75*
G02*
X15758000Y-11278000I-125000J0D01*
G01*
X15758000Y-11278000D02*
G75*
G02*
X16008000Y-11278000I125000J0D01*
G01*
X16774000Y-8613000D02*
X17024000Y-8863000D01*
X17024000Y-8613000D02*
X16774000Y-8863000D01*
X17024000Y-8738000D02*
G75*
G02*
X16774000Y-8738000I-125000J0D01*
G01*
X16774000Y-8738000D02*
G75*
G02*
X17024000Y-8738000I125000J0D01*
G01*
X16774000Y-11153000D02*
X17024000Y-11403000D01*
X17024000Y-11153000D02*
X16774000Y-11403000D01*
X17024000Y-11278000D02*
G75*
G02*
X16774000Y-11278000I-125000J0D01*
G01*
X16774000Y-11278000D02*
G75*
G02*
X17024000Y-11278000I125000J0D01*
G01*
X19719000Y-11118000D02*
X19969000Y-11368000D01*
X19969000Y-11118000D02*
X19719000Y-11368000D01*
X19969000Y-11243000D02*
G75*
G02*
X19719000Y-11243000I-125000J0D01*
G01*
X19719000Y-11243000D02*
G75*
G02*
X19969000Y-11243000I125000J0D01*
G01*
X19719000Y-12642000D02*
X19969000Y-12892000D01*
X19969000Y-12642000D02*
X19719000Y-12892000D01*
X19969000Y-12767000D02*
G75*
G02*
X19719000Y-12767000I-125000J0D01*
G01*
X19719000Y-12767000D02*
G75*
G02*
X19969000Y-12767000I125000J0D01*
G01*
D11*
X6855777Y-13916484D02*
X6855777Y-13716484D01*
X6855777Y-13716484D02*
X6903396Y-13716484D01*
X6903396Y-13716484D02*
X6931967Y-13726008D01*
X6931967Y-13726008D02*
X6951015Y-13745055D01*
X6951015Y-13745055D02*
X6960539Y-13764103D01*
X6960539Y-13764103D02*
X6970062Y-13802198D01*
X6970062Y-13802198D02*
X6970062Y-13830769D01*
X6970062Y-13830769D02*
X6960539Y-13868865D01*
X6960539Y-13868865D02*
X6951015Y-13887912D01*
X6951015Y-13887912D02*
X6931967Y-13906960D01*
X6931967Y-13906960D02*
X6903396Y-13916484D01*
X6903396Y-13916484D02*
X6855777Y-13916484D01*
X7055777Y-13916484D02*
X7055777Y-13783150D01*
X7055777Y-13821246D02*
X7065301Y-13802198D01*
X7065301Y-13802198D02*
X7074824Y-13792674D01*
X7074824Y-13792674D02*
X7093872Y-13783150D01*
X7093872Y-13783150D02*
X7112920Y-13783150D01*
X7179586Y-13916484D02*
X7179586Y-13783150D01*
X7179586Y-13716484D02*
X7170062Y-13726008D01*
X7170062Y-13726008D02*
X7179586Y-13735531D01*
X7179586Y-13735531D02*
X7189110Y-13726008D01*
X7189110Y-13726008D02*
X7179586Y-13716484D01*
X7179586Y-13716484D02*
X7179586Y-13735531D01*
X7303396Y-13916484D02*
X7284348Y-13906960D01*
X7284348Y-13906960D02*
X7274824Y-13887912D01*
X7274824Y-13887912D02*
X7274824Y-13716484D01*
X7408158Y-13916484D02*
X7389110Y-13906960D01*
X7389110Y-13906960D02*
X7379586Y-13887912D01*
X7379586Y-13887912D02*
X7379586Y-13716484D01*
X7636729Y-13916484D02*
X7636729Y-13716484D01*
X7636729Y-13716484D02*
X7703396Y-13859341D01*
X7703396Y-13859341D02*
X7770062Y-13716484D01*
X7770062Y-13716484D02*
X7770062Y-13916484D01*
X7951015Y-13916484D02*
X7951015Y-13811722D01*
X7951015Y-13811722D02*
X7941491Y-13792674D01*
X7941491Y-13792674D02*
X7922443Y-13783150D01*
X7922443Y-13783150D02*
X7884348Y-13783150D01*
X7884348Y-13783150D02*
X7865301Y-13792674D01*
X7951015Y-13906960D02*
X7931967Y-13916484D01*
X7931967Y-13916484D02*
X7884348Y-13916484D01*
X7884348Y-13916484D02*
X7865301Y-13906960D01*
X7865301Y-13906960D02*
X7855777Y-13887912D01*
X7855777Y-13887912D02*
X7855777Y-13868865D01*
X7855777Y-13868865D02*
X7865301Y-13849817D01*
X7865301Y-13849817D02*
X7884348Y-13840293D01*
X7884348Y-13840293D02*
X7931967Y-13840293D01*
X7931967Y-13840293D02*
X7951015Y-13830769D01*
X8046253Y-13783150D02*
X8046253Y-13983150D01*
X8046253Y-13792674D02*
X8065301Y-13783150D01*
X8065301Y-13783150D02*
X8103396Y-13783150D01*
X8103396Y-13783150D02*
X8122443Y-13792674D01*
X8122443Y-13792674D02*
X8131967Y-13802198D01*
X8131967Y-13802198D02*
X8141491Y-13821246D01*
X8141491Y-13821246D02*
X8141491Y-13878388D01*
X8141491Y-13878388D02*
X8131967Y-13897436D01*
X8131967Y-13897436D02*
X8122443Y-13906960D01*
X8122443Y-13906960D02*
X8103396Y-13916484D01*
X8103396Y-13916484D02*
X8065301Y-13916484D01*
X8065301Y-13916484D02*
X8046253Y-13906960D01*
X8227205Y-13897436D02*
X8236729Y-13906960D01*
X8236729Y-13906960D02*
X8227205Y-13916484D01*
X8227205Y-13916484D02*
X8217682Y-13906960D01*
X8217682Y-13906960D02*
X8227205Y-13897436D01*
X8227205Y-13897436D02*
X8227205Y-13916484D01*
X8227205Y-13792674D02*
X8236729Y-13802198D01*
X8236729Y-13802198D02*
X8227205Y-13811722D01*
X8227205Y-13811722D02*
X8217682Y-13802198D01*
X8217682Y-13802198D02*
X8227205Y-13792674D01*
X8227205Y-13792674D02*
X8227205Y-13811722D01*
D10*
X6555000Y-14225000D02*
X6595000Y-14265000D01*
X6595000Y-14225000D02*
X6555000Y-14265000D01*
D11*
X6893872Y-14136484D02*
X6912920Y-14136484D01*
X6912920Y-14136484D02*
X6931967Y-14146008D01*
X6931967Y-14146008D02*
X6941491Y-14155531D01*
X6941491Y-14155531D02*
X6951015Y-14174579D01*
X6951015Y-14174579D02*
X6960539Y-14212674D01*
X6960539Y-14212674D02*
X6960539Y-14260293D01*
X6960539Y-14260293D02*
X6951015Y-14298388D01*
X6951015Y-14298388D02*
X6941491Y-14317436D01*
X6941491Y-14317436D02*
X6931967Y-14326960D01*
X6931967Y-14326960D02*
X6912920Y-14336484D01*
X6912920Y-14336484D02*
X6893872Y-14336484D01*
X6893872Y-14336484D02*
X6874824Y-14326960D01*
X6874824Y-14326960D02*
X6865301Y-14317436D01*
X6865301Y-14317436D02*
X6855777Y-14298388D01*
X6855777Y-14298388D02*
X6846253Y-14260293D01*
X6846253Y-14260293D02*
X6846253Y-14212674D01*
X6846253Y-14212674D02*
X6855777Y-14174579D01*
X6855777Y-14174579D02*
X6865301Y-14155531D01*
X6865301Y-14155531D02*
X6874824Y-14146008D01*
X6874824Y-14146008D02*
X6893872Y-14136484D01*
X7046253Y-14317436D02*
X7055777Y-14326960D01*
X7055777Y-14326960D02*
X7046253Y-14336484D01*
X7046253Y-14336484D02*
X7036729Y-14326960D01*
X7036729Y-14326960D02*
X7046253Y-14317436D01*
X7046253Y-14317436D02*
X7046253Y-14336484D01*
X7227205Y-14203150D02*
X7227205Y-14336484D01*
X7179586Y-14126960D02*
X7131967Y-14269817D01*
X7131967Y-14269817D02*
X7255777Y-14269817D01*
X7370062Y-14136484D02*
X7389110Y-14136484D01*
X7389110Y-14136484D02*
X7408158Y-14146008D01*
X7408158Y-14146008D02*
X7417682Y-14155531D01*
X7417682Y-14155531D02*
X7427205Y-14174579D01*
X7427205Y-14174579D02*
X7436729Y-14212674D01*
X7436729Y-14212674D02*
X7436729Y-14260293D01*
X7436729Y-14260293D02*
X7427205Y-14298388D01*
X7427205Y-14298388D02*
X7417682Y-14317436D01*
X7417682Y-14317436D02*
X7408158Y-14326960D01*
X7408158Y-14326960D02*
X7389110Y-14336484D01*
X7389110Y-14336484D02*
X7370062Y-14336484D01*
X7370062Y-14336484D02*
X7351015Y-14326960D01*
X7351015Y-14326960D02*
X7341491Y-14317436D01*
X7341491Y-14317436D02*
X7331967Y-14298388D01*
X7331967Y-14298388D02*
X7322443Y-14260293D01*
X7322443Y-14260293D02*
X7322443Y-14212674D01*
X7322443Y-14212674D02*
X7331967Y-14174579D01*
X7331967Y-14174579D02*
X7341491Y-14155531D01*
X7341491Y-14155531D02*
X7351015Y-14146008D01*
X7351015Y-14146008D02*
X7370062Y-14136484D01*
X7560539Y-14136484D02*
X7579586Y-14136484D01*
X7579586Y-14136484D02*
X7598634Y-14146008D01*
X7598634Y-14146008D02*
X7608158Y-14155531D01*
X7608158Y-14155531D02*
X7617682Y-14174579D01*
X7617682Y-14174579D02*
X7627205Y-14212674D01*
X7627205Y-14212674D02*
X7627205Y-14260293D01*
X7627205Y-14260293D02*
X7617682Y-14298388D01*
X7617682Y-14298388D02*
X7608158Y-14317436D01*
X7608158Y-14317436D02*
X7598634Y-14326960D01*
X7598634Y-14326960D02*
X7579586Y-14336484D01*
X7579586Y-14336484D02*
X7560539Y-14336484D01*
X7560539Y-14336484D02*
X7541491Y-14326960D01*
X7541491Y-14326960D02*
X7531967Y-14317436D01*
X7531967Y-14317436D02*
X7522443Y-14298388D01*
X7522443Y-14298388D02*
X7512920Y-14260293D01*
X7512920Y-14260293D02*
X7512920Y-14212674D01*
X7512920Y-14212674D02*
X7522443Y-14174579D01*
X7522443Y-14174579D02*
X7531967Y-14155531D01*
X7531967Y-14155531D02*
X7541491Y-14146008D01*
X7541491Y-14146008D02*
X7560539Y-14136484D01*
X7712920Y-14336484D02*
X7712920Y-14203150D01*
X7712920Y-14222198D02*
X7722443Y-14212674D01*
X7722443Y-14212674D02*
X7741491Y-14203150D01*
X7741491Y-14203150D02*
X7770063Y-14203150D01*
X7770063Y-14203150D02*
X7789110Y-14212674D01*
X7789110Y-14212674D02*
X7798634Y-14231722D01*
X7798634Y-14231722D02*
X7798634Y-14336484D01*
X7798634Y-14231722D02*
X7808158Y-14212674D01*
X7808158Y-14212674D02*
X7827205Y-14203150D01*
X7827205Y-14203150D02*
X7855777Y-14203150D01*
X7855777Y-14203150D02*
X7874824Y-14212674D01*
X7874824Y-14212674D02*
X7884348Y-14231722D01*
X7884348Y-14231722D02*
X7884348Y-14336484D01*
X7979586Y-14336484D02*
X7979586Y-14203150D01*
X7979586Y-14222198D02*
X7989110Y-14212674D01*
X7989110Y-14212674D02*
X8008158Y-14203150D01*
X8008158Y-14203150D02*
X8036729Y-14203150D01*
X8036729Y-14203150D02*
X8055777Y-14212674D01*
X8055777Y-14212674D02*
X8065301Y-14231722D01*
X8065301Y-14231722D02*
X8065301Y-14336484D01*
X8065301Y-14231722D02*
X8074824Y-14212674D01*
X8074824Y-14212674D02*
X8093872Y-14203150D01*
X8093872Y-14203150D02*
X8122443Y-14203150D01*
X8122443Y-14203150D02*
X8141491Y-14212674D01*
X8141491Y-14212674D02*
X8151015Y-14231722D01*
X8151015Y-14231722D02*
X8151015Y-14336484D01*
X8541491Y-14126960D02*
X8370063Y-14384103D01*
X8798634Y-14136484D02*
X8817682Y-14136484D01*
X8817682Y-14136484D02*
X8836729Y-14146008D01*
X8836729Y-14146008D02*
X8846253Y-14155531D01*
X8846253Y-14155531D02*
X8855777Y-14174579D01*
X8855777Y-14174579D02*
X8865301Y-14212674D01*
X8865301Y-14212674D02*
X8865301Y-14260293D01*
X8865301Y-14260293D02*
X8855777Y-14298388D01*
X8855777Y-14298388D02*
X8846253Y-14317436D01*
X8846253Y-14317436D02*
X8836729Y-14326960D01*
X8836729Y-14326960D02*
X8817682Y-14336484D01*
X8817682Y-14336484D02*
X8798634Y-14336484D01*
X8798634Y-14336484D02*
X8779587Y-14326960D01*
X8779587Y-14326960D02*
X8770063Y-14317436D01*
X8770063Y-14317436D02*
X8760539Y-14298388D01*
X8760539Y-14298388D02*
X8751015Y-14260293D01*
X8751015Y-14260293D02*
X8751015Y-14212674D01*
X8751015Y-14212674D02*
X8760539Y-14174579D01*
X8760539Y-14174579D02*
X8770063Y-14155531D01*
X8770063Y-14155531D02*
X8779587Y-14146008D01*
X8779587Y-14146008D02*
X8798634Y-14136484D01*
X8951015Y-14317436D02*
X8960539Y-14326960D01*
X8960539Y-14326960D02*
X8951015Y-14336484D01*
X8951015Y-14336484D02*
X8941491Y-14326960D01*
X8941491Y-14326960D02*
X8951015Y-14317436D01*
X8951015Y-14317436D02*
X8951015Y-14336484D01*
X9084348Y-14136484D02*
X9103396Y-14136484D01*
X9103396Y-14136484D02*
X9122444Y-14146008D01*
X9122444Y-14146008D02*
X9131968Y-14155531D01*
X9131968Y-14155531D02*
X9141491Y-14174579D01*
X9141491Y-14174579D02*
X9151015Y-14212674D01*
X9151015Y-14212674D02*
X9151015Y-14260293D01*
X9151015Y-14260293D02*
X9141491Y-14298388D01*
X9141491Y-14298388D02*
X9131968Y-14317436D01*
X9131968Y-14317436D02*
X9122444Y-14326960D01*
X9122444Y-14326960D02*
X9103396Y-14336484D01*
X9103396Y-14336484D02*
X9084348Y-14336484D01*
X9084348Y-14336484D02*
X9065301Y-14326960D01*
X9065301Y-14326960D02*
X9055777Y-14317436D01*
X9055777Y-14317436D02*
X9046253Y-14298388D01*
X9046253Y-14298388D02*
X9036729Y-14260293D01*
X9036729Y-14260293D02*
X9036729Y-14212674D01*
X9036729Y-14212674D02*
X9046253Y-14174579D01*
X9046253Y-14174579D02*
X9055777Y-14155531D01*
X9055777Y-14155531D02*
X9065301Y-14146008D01*
X9065301Y-14146008D02*
X9084348Y-14136484D01*
X9341491Y-14336484D02*
X9227206Y-14336484D01*
X9284348Y-14336484D02*
X9284348Y-14136484D01*
X9284348Y-14136484D02*
X9265301Y-14165055D01*
X9265301Y-14165055D02*
X9246253Y-14184103D01*
X9246253Y-14184103D02*
X9227206Y-14193627D01*
X9522444Y-14136484D02*
X9427206Y-14136484D01*
X9427206Y-14136484D02*
X9417682Y-14231722D01*
X9417682Y-14231722D02*
X9427206Y-14222198D01*
X9427206Y-14222198D02*
X9446253Y-14212674D01*
X9446253Y-14212674D02*
X9493872Y-14212674D01*
X9493872Y-14212674D02*
X9512920Y-14222198D01*
X9512920Y-14222198D02*
X9522444Y-14231722D01*
X9522444Y-14231722D02*
X9531968Y-14250769D01*
X9531968Y-14250769D02*
X9531968Y-14298388D01*
X9531968Y-14298388D02*
X9522444Y-14317436D01*
X9522444Y-14317436D02*
X9512920Y-14326960D01*
X9512920Y-14326960D02*
X9493872Y-14336484D01*
X9493872Y-14336484D02*
X9446253Y-14336484D01*
X9446253Y-14336484D02*
X9427206Y-14326960D01*
X9427206Y-14326960D02*
X9417682Y-14317436D01*
X9598634Y-14136484D02*
X9731968Y-14136484D01*
X9731968Y-14136484D02*
X9646253Y-14336484D01*
X9798634Y-14136484D02*
X9798634Y-14174579D01*
X9874825Y-14136484D02*
X9874825Y-14174579D01*
X10170063Y-14412674D02*
X10160539Y-14403150D01*
X10160539Y-14403150D02*
X10141491Y-14374579D01*
X10141491Y-14374579D02*
X10131968Y-14355531D01*
X10131968Y-14355531D02*
X10122444Y-14326960D01*
X10122444Y-14326960D02*
X10112920Y-14279341D01*
X10112920Y-14279341D02*
X10112920Y-14241246D01*
X10112920Y-14241246D02*
X10122444Y-14193627D01*
X10122444Y-14193627D02*
X10131968Y-14165055D01*
X10131968Y-14165055D02*
X10141491Y-14146008D01*
X10141491Y-14146008D02*
X10160539Y-14117436D01*
X10160539Y-14117436D02*
X10170063Y-14107912D01*
X10227206Y-14136484D02*
X10351015Y-14136484D01*
X10351015Y-14136484D02*
X10284349Y-14212674D01*
X10284349Y-14212674D02*
X10312920Y-14212674D01*
X10312920Y-14212674D02*
X10331968Y-14222198D01*
X10331968Y-14222198D02*
X10341491Y-14231722D01*
X10341491Y-14231722D02*
X10351015Y-14250769D01*
X10351015Y-14250769D02*
X10351015Y-14298388D01*
X10351015Y-14298388D02*
X10341491Y-14317436D01*
X10341491Y-14317436D02*
X10331968Y-14326960D01*
X10331968Y-14326960D02*
X10312920Y-14336484D01*
X10312920Y-14336484D02*
X10255777Y-14336484D01*
X10255777Y-14336484D02*
X10236730Y-14326960D01*
X10236730Y-14326960D02*
X10227206Y-14317436D01*
X10465301Y-14222198D02*
X10446253Y-14212674D01*
X10446253Y-14212674D02*
X10436730Y-14203150D01*
X10436730Y-14203150D02*
X10427206Y-14184103D01*
X10427206Y-14184103D02*
X10427206Y-14174579D01*
X10427206Y-14174579D02*
X10436730Y-14155531D01*
X10436730Y-14155531D02*
X10446253Y-14146008D01*
X10446253Y-14146008D02*
X10465301Y-14136484D01*
X10465301Y-14136484D02*
X10503396Y-14136484D01*
X10503396Y-14136484D02*
X10522444Y-14146008D01*
X10522444Y-14146008D02*
X10531968Y-14155531D01*
X10531968Y-14155531D02*
X10541491Y-14174579D01*
X10541491Y-14174579D02*
X10541491Y-14184103D01*
X10541491Y-14184103D02*
X10531968Y-14203150D01*
X10531968Y-14203150D02*
X10522444Y-14212674D01*
X10522444Y-14212674D02*
X10503396Y-14222198D01*
X10503396Y-14222198D02*
X10465301Y-14222198D01*
X10465301Y-14222198D02*
X10446253Y-14231722D01*
X10446253Y-14231722D02*
X10436730Y-14241246D01*
X10436730Y-14241246D02*
X10427206Y-14260293D01*
X10427206Y-14260293D02*
X10427206Y-14298388D01*
X10427206Y-14298388D02*
X10436730Y-14317436D01*
X10436730Y-14317436D02*
X10446253Y-14326960D01*
X10446253Y-14326960D02*
X10465301Y-14336484D01*
X10465301Y-14336484D02*
X10503396Y-14336484D01*
X10503396Y-14336484D02*
X10522444Y-14326960D01*
X10522444Y-14326960D02*
X10531968Y-14317436D01*
X10531968Y-14317436D02*
X10541491Y-14298388D01*
X10541491Y-14298388D02*
X10541491Y-14260293D01*
X10541491Y-14260293D02*
X10531968Y-14241246D01*
X10531968Y-14241246D02*
X10522444Y-14231722D01*
X10522444Y-14231722D02*
X10503396Y-14222198D01*
X10779587Y-14336484D02*
X10779587Y-14136484D01*
X10865301Y-14336484D02*
X10865301Y-14231722D01*
X10865301Y-14231722D02*
X10855777Y-14212674D01*
X10855777Y-14212674D02*
X10836730Y-14203150D01*
X10836730Y-14203150D02*
X10808158Y-14203150D01*
X10808158Y-14203150D02*
X10789111Y-14212674D01*
X10789111Y-14212674D02*
X10779587Y-14222198D01*
X10989111Y-14336484D02*
X10970063Y-14326960D01*
X10970063Y-14326960D02*
X10960539Y-14317436D01*
X10960539Y-14317436D02*
X10951015Y-14298388D01*
X10951015Y-14298388D02*
X10951015Y-14241246D01*
X10951015Y-14241246D02*
X10960539Y-14222198D01*
X10960539Y-14222198D02*
X10970063Y-14212674D01*
X10970063Y-14212674D02*
X10989111Y-14203150D01*
X10989111Y-14203150D02*
X11017682Y-14203150D01*
X11017682Y-14203150D02*
X11036730Y-14212674D01*
X11036730Y-14212674D02*
X11046253Y-14222198D01*
X11046253Y-14222198D02*
X11055777Y-14241246D01*
X11055777Y-14241246D02*
X11055777Y-14298388D01*
X11055777Y-14298388D02*
X11046253Y-14317436D01*
X11046253Y-14317436D02*
X11036730Y-14326960D01*
X11036730Y-14326960D02*
X11017682Y-14336484D01*
X11017682Y-14336484D02*
X10989111Y-14336484D01*
X11170063Y-14336484D02*
X11151015Y-14326960D01*
X11151015Y-14326960D02*
X11141492Y-14307912D01*
X11141492Y-14307912D02*
X11141492Y-14136484D01*
X11322444Y-14326960D02*
X11303396Y-14336484D01*
X11303396Y-14336484D02*
X11265301Y-14336484D01*
X11265301Y-14336484D02*
X11246253Y-14326960D01*
X11246253Y-14326960D02*
X11236730Y-14307912D01*
X11236730Y-14307912D02*
X11236730Y-14231722D01*
X11236730Y-14231722D02*
X11246253Y-14212674D01*
X11246253Y-14212674D02*
X11265301Y-14203150D01*
X11265301Y-14203150D02*
X11303396Y-14203150D01*
X11303396Y-14203150D02*
X11322444Y-14212674D01*
X11322444Y-14212674D02*
X11331968Y-14231722D01*
X11331968Y-14231722D02*
X11331968Y-14250769D01*
X11331968Y-14250769D02*
X11236730Y-14269817D01*
X11408158Y-14326960D02*
X11427206Y-14336484D01*
X11427206Y-14336484D02*
X11465301Y-14336484D01*
X11465301Y-14336484D02*
X11484349Y-14326960D01*
X11484349Y-14326960D02*
X11493872Y-14307912D01*
X11493872Y-14307912D02*
X11493872Y-14298388D01*
X11493872Y-14298388D02*
X11484349Y-14279341D01*
X11484349Y-14279341D02*
X11465301Y-14269817D01*
X11465301Y-14269817D02*
X11436730Y-14269817D01*
X11436730Y-14269817D02*
X11417682Y-14260293D01*
X11417682Y-14260293D02*
X11408158Y-14241246D01*
X11408158Y-14241246D02*
X11408158Y-14231722D01*
X11408158Y-14231722D02*
X11417682Y-14212674D01*
X11417682Y-14212674D02*
X11436730Y-14203150D01*
X11436730Y-14203150D02*
X11465301Y-14203150D01*
X11465301Y-14203150D02*
X11484349Y-14212674D01*
X11560539Y-14412674D02*
X11570063Y-14403150D01*
X11570063Y-14403150D02*
X11589111Y-14374579D01*
X11589111Y-14374579D02*
X11598634Y-14355531D01*
X11598634Y-14355531D02*
X11608158Y-14326960D01*
X11608158Y-14326960D02*
X11617682Y-14279341D01*
X11617682Y-14279341D02*
X11617682Y-14241246D01*
X11617682Y-14241246D02*
X11608158Y-14193627D01*
X11608158Y-14193627D02*
X11598634Y-14165055D01*
X11598634Y-14165055D02*
X11589111Y-14146008D01*
X11589111Y-14146008D02*
X11570063Y-14117436D01*
X11570063Y-14117436D02*
X11560539Y-14107912D01*
D10*
X6595000Y-14509000D02*
G75*
G02*
X6518800Y-14509000I-38100J0D01*
G01*
X6518800Y-14509000D02*
G75*
G02*
X6595000Y-14509000I38100J0D01*
G01*
D11*
X6893872Y-14400484D02*
X6912920Y-14400484D01*
X6912920Y-14400484D02*
X6931967Y-14410008D01*
X6931967Y-14410008D02*
X6941491Y-14419531D01*
X6941491Y-14419531D02*
X6951015Y-14438579D01*
X6951015Y-14438579D02*
X6960539Y-14476674D01*
X6960539Y-14476674D02*
X6960539Y-14524293D01*
X6960539Y-14524293D02*
X6951015Y-14562388D01*
X6951015Y-14562388D02*
X6941491Y-14581436D01*
X6941491Y-14581436D02*
X6931967Y-14590960D01*
X6931967Y-14590960D02*
X6912920Y-14600484D01*
X6912920Y-14600484D02*
X6893872Y-14600484D01*
X6893872Y-14600484D02*
X6874824Y-14590960D01*
X6874824Y-14590960D02*
X6865301Y-14581436D01*
X6865301Y-14581436D02*
X6855777Y-14562388D01*
X6855777Y-14562388D02*
X6846253Y-14524293D01*
X6846253Y-14524293D02*
X6846253Y-14476674D01*
X6846253Y-14476674D02*
X6855777Y-14438579D01*
X6855777Y-14438579D02*
X6865301Y-14419531D01*
X6865301Y-14419531D02*
X6874824Y-14410008D01*
X6874824Y-14410008D02*
X6893872Y-14400484D01*
X7046253Y-14581436D02*
X7055777Y-14590960D01*
X7055777Y-14590960D02*
X7046253Y-14600484D01*
X7046253Y-14600484D02*
X7036729Y-14590960D01*
X7036729Y-14590960D02*
X7046253Y-14581436D01*
X7046253Y-14581436D02*
X7046253Y-14600484D01*
X7122443Y-14400484D02*
X7255777Y-14400484D01*
X7255777Y-14400484D02*
X7170062Y-14600484D01*
X7417682Y-14400484D02*
X7379586Y-14400484D01*
X7379586Y-14400484D02*
X7360539Y-14410008D01*
X7360539Y-14410008D02*
X7351015Y-14419531D01*
X7351015Y-14419531D02*
X7331967Y-14448103D01*
X7331967Y-14448103D02*
X7322443Y-14486198D01*
X7322443Y-14486198D02*
X7322443Y-14562388D01*
X7322443Y-14562388D02*
X7331967Y-14581436D01*
X7331967Y-14581436D02*
X7341491Y-14590960D01*
X7341491Y-14590960D02*
X7360539Y-14600484D01*
X7360539Y-14600484D02*
X7398634Y-14600484D01*
X7398634Y-14600484D02*
X7417682Y-14590960D01*
X7417682Y-14590960D02*
X7427205Y-14581436D01*
X7427205Y-14581436D02*
X7436729Y-14562388D01*
X7436729Y-14562388D02*
X7436729Y-14514769D01*
X7436729Y-14514769D02*
X7427205Y-14495722D01*
X7427205Y-14495722D02*
X7417682Y-14486198D01*
X7417682Y-14486198D02*
X7398634Y-14476674D01*
X7398634Y-14476674D02*
X7360539Y-14476674D01*
X7360539Y-14476674D02*
X7341491Y-14486198D01*
X7341491Y-14486198D02*
X7331967Y-14495722D01*
X7331967Y-14495722D02*
X7322443Y-14514769D01*
X7512920Y-14419531D02*
X7522443Y-14410008D01*
X7522443Y-14410008D02*
X7541491Y-14400484D01*
X7541491Y-14400484D02*
X7589110Y-14400484D01*
X7589110Y-14400484D02*
X7608158Y-14410008D01*
X7608158Y-14410008D02*
X7617682Y-14419531D01*
X7617682Y-14419531D02*
X7627205Y-14438579D01*
X7627205Y-14438579D02*
X7627205Y-14457627D01*
X7627205Y-14457627D02*
X7617682Y-14486198D01*
X7617682Y-14486198D02*
X7503396Y-14600484D01*
X7503396Y-14600484D02*
X7627205Y-14600484D01*
X7712920Y-14600484D02*
X7712920Y-14467150D01*
X7712920Y-14486198D02*
X7722443Y-14476674D01*
X7722443Y-14476674D02*
X7741491Y-14467150D01*
X7741491Y-14467150D02*
X7770063Y-14467150D01*
X7770063Y-14467150D02*
X7789110Y-14476674D01*
X7789110Y-14476674D02*
X7798634Y-14495722D01*
X7798634Y-14495722D02*
X7798634Y-14600484D01*
X7798634Y-14495722D02*
X7808158Y-14476674D01*
X7808158Y-14476674D02*
X7827205Y-14467150D01*
X7827205Y-14467150D02*
X7855777Y-14467150D01*
X7855777Y-14467150D02*
X7874824Y-14476674D01*
X7874824Y-14476674D02*
X7884348Y-14495722D01*
X7884348Y-14495722D02*
X7884348Y-14600484D01*
X7979586Y-14600484D02*
X7979586Y-14467150D01*
X7979586Y-14486198D02*
X7989110Y-14476674D01*
X7989110Y-14476674D02*
X8008158Y-14467150D01*
X8008158Y-14467150D02*
X8036729Y-14467150D01*
X8036729Y-14467150D02*
X8055777Y-14476674D01*
X8055777Y-14476674D02*
X8065301Y-14495722D01*
X8065301Y-14495722D02*
X8065301Y-14600484D01*
X8065301Y-14495722D02*
X8074824Y-14476674D01*
X8074824Y-14476674D02*
X8093872Y-14467150D01*
X8093872Y-14467150D02*
X8122443Y-14467150D01*
X8122443Y-14467150D02*
X8141491Y-14476674D01*
X8141491Y-14476674D02*
X8151015Y-14495722D01*
X8151015Y-14495722D02*
X8151015Y-14600484D01*
X8541491Y-14390960D02*
X8370063Y-14648103D01*
X8798634Y-14400484D02*
X8817682Y-14400484D01*
X8817682Y-14400484D02*
X8836729Y-14410008D01*
X8836729Y-14410008D02*
X8846253Y-14419531D01*
X8846253Y-14419531D02*
X8855777Y-14438579D01*
X8855777Y-14438579D02*
X8865301Y-14476674D01*
X8865301Y-14476674D02*
X8865301Y-14524293D01*
X8865301Y-14524293D02*
X8855777Y-14562388D01*
X8855777Y-14562388D02*
X8846253Y-14581436D01*
X8846253Y-14581436D02*
X8836729Y-14590960D01*
X8836729Y-14590960D02*
X8817682Y-14600484D01*
X8817682Y-14600484D02*
X8798634Y-14600484D01*
X8798634Y-14600484D02*
X8779587Y-14590960D01*
X8779587Y-14590960D02*
X8770063Y-14581436D01*
X8770063Y-14581436D02*
X8760539Y-14562388D01*
X8760539Y-14562388D02*
X8751015Y-14524293D01*
X8751015Y-14524293D02*
X8751015Y-14476674D01*
X8751015Y-14476674D02*
X8760539Y-14438579D01*
X8760539Y-14438579D02*
X8770063Y-14419531D01*
X8770063Y-14419531D02*
X8779587Y-14410008D01*
X8779587Y-14410008D02*
X8798634Y-14400484D01*
X8951015Y-14581436D02*
X8960539Y-14590960D01*
X8960539Y-14590960D02*
X8951015Y-14600484D01*
X8951015Y-14600484D02*
X8941491Y-14590960D01*
X8941491Y-14590960D02*
X8951015Y-14581436D01*
X8951015Y-14581436D02*
X8951015Y-14600484D01*
X9084348Y-14400484D02*
X9103396Y-14400484D01*
X9103396Y-14400484D02*
X9122444Y-14410008D01*
X9122444Y-14410008D02*
X9131968Y-14419531D01*
X9131968Y-14419531D02*
X9141491Y-14438579D01*
X9141491Y-14438579D02*
X9151015Y-14476674D01*
X9151015Y-14476674D02*
X9151015Y-14524293D01*
X9151015Y-14524293D02*
X9141491Y-14562388D01*
X9141491Y-14562388D02*
X9131968Y-14581436D01*
X9131968Y-14581436D02*
X9122444Y-14590960D01*
X9122444Y-14590960D02*
X9103396Y-14600484D01*
X9103396Y-14600484D02*
X9084348Y-14600484D01*
X9084348Y-14600484D02*
X9065301Y-14590960D01*
X9065301Y-14590960D02*
X9055777Y-14581436D01*
X9055777Y-14581436D02*
X9046253Y-14562388D01*
X9046253Y-14562388D02*
X9036729Y-14524293D01*
X9036729Y-14524293D02*
X9036729Y-14476674D01*
X9036729Y-14476674D02*
X9046253Y-14438579D01*
X9046253Y-14438579D02*
X9055777Y-14419531D01*
X9055777Y-14419531D02*
X9065301Y-14410008D01*
X9065301Y-14410008D02*
X9084348Y-14400484D01*
X9217682Y-14400484D02*
X9341491Y-14400484D01*
X9341491Y-14400484D02*
X9274825Y-14476674D01*
X9274825Y-14476674D02*
X9303396Y-14476674D01*
X9303396Y-14476674D02*
X9322444Y-14486198D01*
X9322444Y-14486198D02*
X9331968Y-14495722D01*
X9331968Y-14495722D02*
X9341491Y-14514769D01*
X9341491Y-14514769D02*
X9341491Y-14562388D01*
X9341491Y-14562388D02*
X9331968Y-14581436D01*
X9331968Y-14581436D02*
X9322444Y-14590960D01*
X9322444Y-14590960D02*
X9303396Y-14600484D01*
X9303396Y-14600484D02*
X9246253Y-14600484D01*
X9246253Y-14600484D02*
X9227206Y-14590960D01*
X9227206Y-14590960D02*
X9217682Y-14581436D01*
X9465301Y-14400484D02*
X9484349Y-14400484D01*
X9484349Y-14400484D02*
X9503396Y-14410008D01*
X9503396Y-14410008D02*
X9512920Y-14419531D01*
X9512920Y-14419531D02*
X9522444Y-14438579D01*
X9522444Y-14438579D02*
X9531968Y-14476674D01*
X9531968Y-14476674D02*
X9531968Y-14524293D01*
X9531968Y-14524293D02*
X9522444Y-14562388D01*
X9522444Y-14562388D02*
X9512920Y-14581436D01*
X9512920Y-14581436D02*
X9503396Y-14590960D01*
X9503396Y-14590960D02*
X9484349Y-14600484D01*
X9484349Y-14600484D02*
X9465301Y-14600484D01*
X9465301Y-14600484D02*
X9446253Y-14590960D01*
X9446253Y-14590960D02*
X9436729Y-14581436D01*
X9436729Y-14581436D02*
X9427206Y-14562388D01*
X9427206Y-14562388D02*
X9417682Y-14524293D01*
X9417682Y-14524293D02*
X9417682Y-14476674D01*
X9417682Y-14476674D02*
X9427206Y-14438579D01*
X9427206Y-14438579D02*
X9436729Y-14419531D01*
X9436729Y-14419531D02*
X9446253Y-14410008D01*
X9446253Y-14410008D02*
X9465301Y-14400484D01*
X9655777Y-14400484D02*
X9674825Y-14400484D01*
X9674825Y-14400484D02*
X9693872Y-14410008D01*
X9693872Y-14410008D02*
X9703396Y-14419531D01*
X9703396Y-14419531D02*
X9712920Y-14438579D01*
X9712920Y-14438579D02*
X9722444Y-14476674D01*
X9722444Y-14476674D02*
X9722444Y-14524293D01*
X9722444Y-14524293D02*
X9712920Y-14562388D01*
X9712920Y-14562388D02*
X9703396Y-14581436D01*
X9703396Y-14581436D02*
X9693872Y-14590960D01*
X9693872Y-14590960D02*
X9674825Y-14600484D01*
X9674825Y-14600484D02*
X9655777Y-14600484D01*
X9655777Y-14600484D02*
X9636729Y-14590960D01*
X9636729Y-14590960D02*
X9627206Y-14581436D01*
X9627206Y-14581436D02*
X9617682Y-14562388D01*
X9617682Y-14562388D02*
X9608158Y-14524293D01*
X9608158Y-14524293D02*
X9608158Y-14476674D01*
X9608158Y-14476674D02*
X9617682Y-14438579D01*
X9617682Y-14438579D02*
X9627206Y-14419531D01*
X9627206Y-14419531D02*
X9636729Y-14410008D01*
X9636729Y-14410008D02*
X9655777Y-14400484D01*
X9798634Y-14400484D02*
X9798634Y-14438579D01*
X9874825Y-14400484D02*
X9874825Y-14438579D01*
X10170063Y-14676674D02*
X10160539Y-14667150D01*
X10160539Y-14667150D02*
X10141491Y-14638579D01*
X10141491Y-14638579D02*
X10131968Y-14619531D01*
X10131968Y-14619531D02*
X10122444Y-14590960D01*
X10122444Y-14590960D02*
X10112920Y-14543341D01*
X10112920Y-14543341D02*
X10112920Y-14505246D01*
X10112920Y-14505246D02*
X10122444Y-14457627D01*
X10122444Y-14457627D02*
X10131968Y-14429055D01*
X10131968Y-14429055D02*
X10141491Y-14410008D01*
X10141491Y-14410008D02*
X10160539Y-14381436D01*
X10160539Y-14381436D02*
X10170063Y-14371912D01*
X10351015Y-14600484D02*
X10236730Y-14600484D01*
X10293872Y-14600484D02*
X10293872Y-14400484D01*
X10293872Y-14400484D02*
X10274825Y-14429055D01*
X10274825Y-14429055D02*
X10255777Y-14448103D01*
X10255777Y-14448103D02*
X10236730Y-14457627D01*
X10541491Y-14600484D02*
X10427206Y-14600484D01*
X10484349Y-14600484D02*
X10484349Y-14400484D01*
X10484349Y-14400484D02*
X10465301Y-14429055D01*
X10465301Y-14429055D02*
X10446253Y-14448103D01*
X10446253Y-14448103D02*
X10427206Y-14457627D01*
X10779587Y-14600484D02*
X10779587Y-14400484D01*
X10865301Y-14600484D02*
X10865301Y-14495722D01*
X10865301Y-14495722D02*
X10855777Y-14476674D01*
X10855777Y-14476674D02*
X10836730Y-14467150D01*
X10836730Y-14467150D02*
X10808158Y-14467150D01*
X10808158Y-14467150D02*
X10789111Y-14476674D01*
X10789111Y-14476674D02*
X10779587Y-14486198D01*
X10989111Y-14600484D02*
X10970063Y-14590960D01*
X10970063Y-14590960D02*
X10960539Y-14581436D01*
X10960539Y-14581436D02*
X10951015Y-14562388D01*
X10951015Y-14562388D02*
X10951015Y-14505246D01*
X10951015Y-14505246D02*
X10960539Y-14486198D01*
X10960539Y-14486198D02*
X10970063Y-14476674D01*
X10970063Y-14476674D02*
X10989111Y-14467150D01*
X10989111Y-14467150D02*
X11017682Y-14467150D01*
X11017682Y-14467150D02*
X11036730Y-14476674D01*
X11036730Y-14476674D02*
X11046253Y-14486198D01*
X11046253Y-14486198D02*
X11055777Y-14505246D01*
X11055777Y-14505246D02*
X11055777Y-14562388D01*
X11055777Y-14562388D02*
X11046253Y-14581436D01*
X11046253Y-14581436D02*
X11036730Y-14590960D01*
X11036730Y-14590960D02*
X11017682Y-14600484D01*
X11017682Y-14600484D02*
X10989111Y-14600484D01*
X11170063Y-14600484D02*
X11151015Y-14590960D01*
X11151015Y-14590960D02*
X11141492Y-14571912D01*
X11141492Y-14571912D02*
X11141492Y-14400484D01*
X11322444Y-14590960D02*
X11303396Y-14600484D01*
X11303396Y-14600484D02*
X11265301Y-14600484D01*
X11265301Y-14600484D02*
X11246253Y-14590960D01*
X11246253Y-14590960D02*
X11236730Y-14571912D01*
X11236730Y-14571912D02*
X11236730Y-14495722D01*
X11236730Y-14495722D02*
X11246253Y-14476674D01*
X11246253Y-14476674D02*
X11265301Y-14467150D01*
X11265301Y-14467150D02*
X11303396Y-14467150D01*
X11303396Y-14467150D02*
X11322444Y-14476674D01*
X11322444Y-14476674D02*
X11331968Y-14495722D01*
X11331968Y-14495722D02*
X11331968Y-14514769D01*
X11331968Y-14514769D02*
X11236730Y-14533817D01*
X11408158Y-14590960D02*
X11427206Y-14600484D01*
X11427206Y-14600484D02*
X11465301Y-14600484D01*
X11465301Y-14600484D02*
X11484349Y-14590960D01*
X11484349Y-14590960D02*
X11493872Y-14571912D01*
X11493872Y-14571912D02*
X11493872Y-14562388D01*
X11493872Y-14562388D02*
X11484349Y-14543341D01*
X11484349Y-14543341D02*
X11465301Y-14533817D01*
X11465301Y-14533817D02*
X11436730Y-14533817D01*
X11436730Y-14533817D02*
X11417682Y-14524293D01*
X11417682Y-14524293D02*
X11408158Y-14505246D01*
X11408158Y-14505246D02*
X11408158Y-14495722D01*
X11408158Y-14495722D02*
X11417682Y-14476674D01*
X11417682Y-14476674D02*
X11436730Y-14467150D01*
X11436730Y-14467150D02*
X11465301Y-14467150D01*
X11465301Y-14467150D02*
X11484349Y-14476674D01*
X11560539Y-14676674D02*
X11570063Y-14667150D01*
X11570063Y-14667150D02*
X11589111Y-14638579D01*
X11589111Y-14638579D02*
X11598634Y-14619531D01*
X11598634Y-14619531D02*
X11608158Y-14590960D01*
X11608158Y-14590960D02*
X11617682Y-14543341D01*
X11617682Y-14543341D02*
X11617682Y-14505246D01*
X11617682Y-14505246D02*
X11608158Y-14457627D01*
X11608158Y-14457627D02*
X11598634Y-14429055D01*
X11598634Y-14429055D02*
X11589111Y-14410008D01*
X11589111Y-14410008D02*
X11570063Y-14381436D01*
X11570063Y-14381436D02*
X11560539Y-14371912D01*
D10*
X6555000Y-14733000D02*
X6555000Y-14813000D01*
X6515000Y-14773000D02*
X6595000Y-14773000D01*
D11*
X6893872Y-14664484D02*
X6912920Y-14664484D01*
X6912920Y-14664484D02*
X6931967Y-14674008D01*
X6931967Y-14674008D02*
X6941491Y-14683531D01*
X6941491Y-14683531D02*
X6951015Y-14702579D01*
X6951015Y-14702579D02*
X6960539Y-14740674D01*
X6960539Y-14740674D02*
X6960539Y-14788293D01*
X6960539Y-14788293D02*
X6951015Y-14826388D01*
X6951015Y-14826388D02*
X6941491Y-14845436D01*
X6941491Y-14845436D02*
X6931967Y-14854960D01*
X6931967Y-14854960D02*
X6912920Y-14864484D01*
X6912920Y-14864484D02*
X6893872Y-14864484D01*
X6893872Y-14864484D02*
X6874824Y-14854960D01*
X6874824Y-14854960D02*
X6865301Y-14845436D01*
X6865301Y-14845436D02*
X6855777Y-14826388D01*
X6855777Y-14826388D02*
X6846253Y-14788293D01*
X6846253Y-14788293D02*
X6846253Y-14740674D01*
X6846253Y-14740674D02*
X6855777Y-14702579D01*
X6855777Y-14702579D02*
X6865301Y-14683531D01*
X6865301Y-14683531D02*
X6874824Y-14674008D01*
X6874824Y-14674008D02*
X6893872Y-14664484D01*
X7046253Y-14845436D02*
X7055777Y-14854960D01*
X7055777Y-14854960D02*
X7046253Y-14864484D01*
X7046253Y-14864484D02*
X7036729Y-14854960D01*
X7036729Y-14854960D02*
X7046253Y-14845436D01*
X7046253Y-14845436D02*
X7046253Y-14864484D01*
X7170062Y-14750198D02*
X7151015Y-14740674D01*
X7151015Y-14740674D02*
X7141491Y-14731150D01*
X7141491Y-14731150D02*
X7131967Y-14712103D01*
X7131967Y-14712103D02*
X7131967Y-14702579D01*
X7131967Y-14702579D02*
X7141491Y-14683531D01*
X7141491Y-14683531D02*
X7151015Y-14674008D01*
X7151015Y-14674008D02*
X7170062Y-14664484D01*
X7170062Y-14664484D02*
X7208158Y-14664484D01*
X7208158Y-14664484D02*
X7227205Y-14674008D01*
X7227205Y-14674008D02*
X7236729Y-14683531D01*
X7236729Y-14683531D02*
X7246253Y-14702579D01*
X7246253Y-14702579D02*
X7246253Y-14712103D01*
X7246253Y-14712103D02*
X7236729Y-14731150D01*
X7236729Y-14731150D02*
X7227205Y-14740674D01*
X7227205Y-14740674D02*
X7208158Y-14750198D01*
X7208158Y-14750198D02*
X7170062Y-14750198D01*
X7170062Y-14750198D02*
X7151015Y-14759722D01*
X7151015Y-14759722D02*
X7141491Y-14769246D01*
X7141491Y-14769246D02*
X7131967Y-14788293D01*
X7131967Y-14788293D02*
X7131967Y-14826388D01*
X7131967Y-14826388D02*
X7141491Y-14845436D01*
X7141491Y-14845436D02*
X7151015Y-14854960D01*
X7151015Y-14854960D02*
X7170062Y-14864484D01*
X7170062Y-14864484D02*
X7208158Y-14864484D01*
X7208158Y-14864484D02*
X7227205Y-14854960D01*
X7227205Y-14854960D02*
X7236729Y-14845436D01*
X7236729Y-14845436D02*
X7246253Y-14826388D01*
X7246253Y-14826388D02*
X7246253Y-14788293D01*
X7246253Y-14788293D02*
X7236729Y-14769246D01*
X7236729Y-14769246D02*
X7227205Y-14759722D01*
X7227205Y-14759722D02*
X7208158Y-14750198D01*
X7370062Y-14664484D02*
X7389110Y-14664484D01*
X7389110Y-14664484D02*
X7408158Y-14674008D01*
X7408158Y-14674008D02*
X7417682Y-14683531D01*
X7417682Y-14683531D02*
X7427205Y-14702579D01*
X7427205Y-14702579D02*
X7436729Y-14740674D01*
X7436729Y-14740674D02*
X7436729Y-14788293D01*
X7436729Y-14788293D02*
X7427205Y-14826388D01*
X7427205Y-14826388D02*
X7417682Y-14845436D01*
X7417682Y-14845436D02*
X7408158Y-14854960D01*
X7408158Y-14854960D02*
X7389110Y-14864484D01*
X7389110Y-14864484D02*
X7370062Y-14864484D01*
X7370062Y-14864484D02*
X7351015Y-14854960D01*
X7351015Y-14854960D02*
X7341491Y-14845436D01*
X7341491Y-14845436D02*
X7331967Y-14826388D01*
X7331967Y-14826388D02*
X7322443Y-14788293D01*
X7322443Y-14788293D02*
X7322443Y-14740674D01*
X7322443Y-14740674D02*
X7331967Y-14702579D01*
X7331967Y-14702579D02*
X7341491Y-14683531D01*
X7341491Y-14683531D02*
X7351015Y-14674008D01*
X7351015Y-14674008D02*
X7370062Y-14664484D01*
X7560539Y-14664484D02*
X7579586Y-14664484D01*
X7579586Y-14664484D02*
X7598634Y-14674008D01*
X7598634Y-14674008D02*
X7608158Y-14683531D01*
X7608158Y-14683531D02*
X7617682Y-14702579D01*
X7617682Y-14702579D02*
X7627205Y-14740674D01*
X7627205Y-14740674D02*
X7627205Y-14788293D01*
X7627205Y-14788293D02*
X7617682Y-14826388D01*
X7617682Y-14826388D02*
X7608158Y-14845436D01*
X7608158Y-14845436D02*
X7598634Y-14854960D01*
X7598634Y-14854960D02*
X7579586Y-14864484D01*
X7579586Y-14864484D02*
X7560539Y-14864484D01*
X7560539Y-14864484D02*
X7541491Y-14854960D01*
X7541491Y-14854960D02*
X7531967Y-14845436D01*
X7531967Y-14845436D02*
X7522443Y-14826388D01*
X7522443Y-14826388D02*
X7512920Y-14788293D01*
X7512920Y-14788293D02*
X7512920Y-14740674D01*
X7512920Y-14740674D02*
X7522443Y-14702579D01*
X7522443Y-14702579D02*
X7531967Y-14683531D01*
X7531967Y-14683531D02*
X7541491Y-14674008D01*
X7541491Y-14674008D02*
X7560539Y-14664484D01*
X7712920Y-14864484D02*
X7712920Y-14731150D01*
X7712920Y-14750198D02*
X7722443Y-14740674D01*
X7722443Y-14740674D02*
X7741491Y-14731150D01*
X7741491Y-14731150D02*
X7770063Y-14731150D01*
X7770063Y-14731150D02*
X7789110Y-14740674D01*
X7789110Y-14740674D02*
X7798634Y-14759722D01*
X7798634Y-14759722D02*
X7798634Y-14864484D01*
X7798634Y-14759722D02*
X7808158Y-14740674D01*
X7808158Y-14740674D02*
X7827205Y-14731150D01*
X7827205Y-14731150D02*
X7855777Y-14731150D01*
X7855777Y-14731150D02*
X7874824Y-14740674D01*
X7874824Y-14740674D02*
X7884348Y-14759722D01*
X7884348Y-14759722D02*
X7884348Y-14864484D01*
X7979586Y-14864484D02*
X7979586Y-14731150D01*
X7979586Y-14750198D02*
X7989110Y-14740674D01*
X7989110Y-14740674D02*
X8008158Y-14731150D01*
X8008158Y-14731150D02*
X8036729Y-14731150D01*
X8036729Y-14731150D02*
X8055777Y-14740674D01*
X8055777Y-14740674D02*
X8065301Y-14759722D01*
X8065301Y-14759722D02*
X8065301Y-14864484D01*
X8065301Y-14759722D02*
X8074824Y-14740674D01*
X8074824Y-14740674D02*
X8093872Y-14731150D01*
X8093872Y-14731150D02*
X8122443Y-14731150D01*
X8122443Y-14731150D02*
X8141491Y-14740674D01*
X8141491Y-14740674D02*
X8151015Y-14759722D01*
X8151015Y-14759722D02*
X8151015Y-14864484D01*
X8541491Y-14654960D02*
X8370063Y-14912103D01*
X8798634Y-14664484D02*
X8817682Y-14664484D01*
X8817682Y-14664484D02*
X8836729Y-14674008D01*
X8836729Y-14674008D02*
X8846253Y-14683531D01*
X8846253Y-14683531D02*
X8855777Y-14702579D01*
X8855777Y-14702579D02*
X8865301Y-14740674D01*
X8865301Y-14740674D02*
X8865301Y-14788293D01*
X8865301Y-14788293D02*
X8855777Y-14826388D01*
X8855777Y-14826388D02*
X8846253Y-14845436D01*
X8846253Y-14845436D02*
X8836729Y-14854960D01*
X8836729Y-14854960D02*
X8817682Y-14864484D01*
X8817682Y-14864484D02*
X8798634Y-14864484D01*
X8798634Y-14864484D02*
X8779587Y-14854960D01*
X8779587Y-14854960D02*
X8770063Y-14845436D01*
X8770063Y-14845436D02*
X8760539Y-14826388D01*
X8760539Y-14826388D02*
X8751015Y-14788293D01*
X8751015Y-14788293D02*
X8751015Y-14740674D01*
X8751015Y-14740674D02*
X8760539Y-14702579D01*
X8760539Y-14702579D02*
X8770063Y-14683531D01*
X8770063Y-14683531D02*
X8779587Y-14674008D01*
X8779587Y-14674008D02*
X8798634Y-14664484D01*
X8951015Y-14845436D02*
X8960539Y-14854960D01*
X8960539Y-14854960D02*
X8951015Y-14864484D01*
X8951015Y-14864484D02*
X8941491Y-14854960D01*
X8941491Y-14854960D02*
X8951015Y-14845436D01*
X8951015Y-14845436D02*
X8951015Y-14864484D01*
X9084348Y-14664484D02*
X9103396Y-14664484D01*
X9103396Y-14664484D02*
X9122444Y-14674008D01*
X9122444Y-14674008D02*
X9131968Y-14683531D01*
X9131968Y-14683531D02*
X9141491Y-14702579D01*
X9141491Y-14702579D02*
X9151015Y-14740674D01*
X9151015Y-14740674D02*
X9151015Y-14788293D01*
X9151015Y-14788293D02*
X9141491Y-14826388D01*
X9141491Y-14826388D02*
X9131968Y-14845436D01*
X9131968Y-14845436D02*
X9122444Y-14854960D01*
X9122444Y-14854960D02*
X9103396Y-14864484D01*
X9103396Y-14864484D02*
X9084348Y-14864484D01*
X9084348Y-14864484D02*
X9065301Y-14854960D01*
X9065301Y-14854960D02*
X9055777Y-14845436D01*
X9055777Y-14845436D02*
X9046253Y-14826388D01*
X9046253Y-14826388D02*
X9036729Y-14788293D01*
X9036729Y-14788293D02*
X9036729Y-14740674D01*
X9036729Y-14740674D02*
X9046253Y-14702579D01*
X9046253Y-14702579D02*
X9055777Y-14683531D01*
X9055777Y-14683531D02*
X9065301Y-14674008D01*
X9065301Y-14674008D02*
X9084348Y-14664484D01*
X9217682Y-14664484D02*
X9341491Y-14664484D01*
X9341491Y-14664484D02*
X9274825Y-14740674D01*
X9274825Y-14740674D02*
X9303396Y-14740674D01*
X9303396Y-14740674D02*
X9322444Y-14750198D01*
X9322444Y-14750198D02*
X9331968Y-14759722D01*
X9331968Y-14759722D02*
X9341491Y-14778769D01*
X9341491Y-14778769D02*
X9341491Y-14826388D01*
X9341491Y-14826388D02*
X9331968Y-14845436D01*
X9331968Y-14845436D02*
X9322444Y-14854960D01*
X9322444Y-14854960D02*
X9303396Y-14864484D01*
X9303396Y-14864484D02*
X9246253Y-14864484D01*
X9246253Y-14864484D02*
X9227206Y-14854960D01*
X9227206Y-14854960D02*
X9217682Y-14845436D01*
X9531968Y-14864484D02*
X9417682Y-14864484D01*
X9474825Y-14864484D02*
X9474825Y-14664484D01*
X9474825Y-14664484D02*
X9455777Y-14693055D01*
X9455777Y-14693055D02*
X9436729Y-14712103D01*
X9436729Y-14712103D02*
X9417682Y-14721627D01*
X9712920Y-14664484D02*
X9617682Y-14664484D01*
X9617682Y-14664484D02*
X9608158Y-14759722D01*
X9608158Y-14759722D02*
X9617682Y-14750198D01*
X9617682Y-14750198D02*
X9636729Y-14740674D01*
X9636729Y-14740674D02*
X9684349Y-14740674D01*
X9684349Y-14740674D02*
X9703396Y-14750198D01*
X9703396Y-14750198D02*
X9712920Y-14759722D01*
X9712920Y-14759722D02*
X9722444Y-14778769D01*
X9722444Y-14778769D02*
X9722444Y-14826388D01*
X9722444Y-14826388D02*
X9712920Y-14845436D01*
X9712920Y-14845436D02*
X9703396Y-14854960D01*
X9703396Y-14854960D02*
X9684349Y-14864484D01*
X9684349Y-14864484D02*
X9636729Y-14864484D01*
X9636729Y-14864484D02*
X9617682Y-14854960D01*
X9617682Y-14854960D02*
X9608158Y-14845436D01*
X9798634Y-14664484D02*
X9798634Y-14702579D01*
X9874825Y-14664484D02*
X9874825Y-14702579D01*
X10170063Y-14940674D02*
X10160539Y-14931150D01*
X10160539Y-14931150D02*
X10141491Y-14902579D01*
X10141491Y-14902579D02*
X10131968Y-14883531D01*
X10131968Y-14883531D02*
X10122444Y-14854960D01*
X10122444Y-14854960D02*
X10112920Y-14807341D01*
X10112920Y-14807341D02*
X10112920Y-14769246D01*
X10112920Y-14769246D02*
X10122444Y-14721627D01*
X10122444Y-14721627D02*
X10131968Y-14693055D01*
X10131968Y-14693055D02*
X10141491Y-14674008D01*
X10141491Y-14674008D02*
X10160539Y-14645436D01*
X10160539Y-14645436D02*
X10170063Y-14635912D01*
X10236730Y-14683531D02*
X10246253Y-14674008D01*
X10246253Y-14674008D02*
X10265301Y-14664484D01*
X10265301Y-14664484D02*
X10312920Y-14664484D01*
X10312920Y-14664484D02*
X10331968Y-14674008D01*
X10331968Y-14674008D02*
X10341491Y-14683531D01*
X10341491Y-14683531D02*
X10351015Y-14702579D01*
X10351015Y-14702579D02*
X10351015Y-14721627D01*
X10351015Y-14721627D02*
X10341491Y-14750198D01*
X10341491Y-14750198D02*
X10227206Y-14864484D01*
X10227206Y-14864484D02*
X10351015Y-14864484D01*
X10427206Y-14683531D02*
X10436730Y-14674008D01*
X10436730Y-14674008D02*
X10455777Y-14664484D01*
X10455777Y-14664484D02*
X10503396Y-14664484D01*
X10503396Y-14664484D02*
X10522444Y-14674008D01*
X10522444Y-14674008D02*
X10531968Y-14683531D01*
X10531968Y-14683531D02*
X10541491Y-14702579D01*
X10541491Y-14702579D02*
X10541491Y-14721627D01*
X10541491Y-14721627D02*
X10531968Y-14750198D01*
X10531968Y-14750198D02*
X10417682Y-14864484D01*
X10417682Y-14864484D02*
X10541491Y-14864484D01*
X10779587Y-14864484D02*
X10779587Y-14664484D01*
X10865301Y-14864484D02*
X10865301Y-14759722D01*
X10865301Y-14759722D02*
X10855777Y-14740674D01*
X10855777Y-14740674D02*
X10836730Y-14731150D01*
X10836730Y-14731150D02*
X10808158Y-14731150D01*
X10808158Y-14731150D02*
X10789111Y-14740674D01*
X10789111Y-14740674D02*
X10779587Y-14750198D01*
X10989111Y-14864484D02*
X10970063Y-14854960D01*
X10970063Y-14854960D02*
X10960539Y-14845436D01*
X10960539Y-14845436D02*
X10951015Y-14826388D01*
X10951015Y-14826388D02*
X10951015Y-14769246D01*
X10951015Y-14769246D02*
X10960539Y-14750198D01*
X10960539Y-14750198D02*
X10970063Y-14740674D01*
X10970063Y-14740674D02*
X10989111Y-14731150D01*
X10989111Y-14731150D02*
X11017682Y-14731150D01*
X11017682Y-14731150D02*
X11036730Y-14740674D01*
X11036730Y-14740674D02*
X11046253Y-14750198D01*
X11046253Y-14750198D02*
X11055777Y-14769246D01*
X11055777Y-14769246D02*
X11055777Y-14826388D01*
X11055777Y-14826388D02*
X11046253Y-14845436D01*
X11046253Y-14845436D02*
X11036730Y-14854960D01*
X11036730Y-14854960D02*
X11017682Y-14864484D01*
X11017682Y-14864484D02*
X10989111Y-14864484D01*
X11170063Y-14864484D02*
X11151015Y-14854960D01*
X11151015Y-14854960D02*
X11141492Y-14835912D01*
X11141492Y-14835912D02*
X11141492Y-14664484D01*
X11322444Y-14854960D02*
X11303396Y-14864484D01*
X11303396Y-14864484D02*
X11265301Y-14864484D01*
X11265301Y-14864484D02*
X11246253Y-14854960D01*
X11246253Y-14854960D02*
X11236730Y-14835912D01*
X11236730Y-14835912D02*
X11236730Y-14759722D01*
X11236730Y-14759722D02*
X11246253Y-14740674D01*
X11246253Y-14740674D02*
X11265301Y-14731150D01*
X11265301Y-14731150D02*
X11303396Y-14731150D01*
X11303396Y-14731150D02*
X11322444Y-14740674D01*
X11322444Y-14740674D02*
X11331968Y-14759722D01*
X11331968Y-14759722D02*
X11331968Y-14778769D01*
X11331968Y-14778769D02*
X11236730Y-14797817D01*
X11408158Y-14854960D02*
X11427206Y-14864484D01*
X11427206Y-14864484D02*
X11465301Y-14864484D01*
X11465301Y-14864484D02*
X11484349Y-14854960D01*
X11484349Y-14854960D02*
X11493872Y-14835912D01*
X11493872Y-14835912D02*
X11493872Y-14826388D01*
X11493872Y-14826388D02*
X11484349Y-14807341D01*
X11484349Y-14807341D02*
X11465301Y-14797817D01*
X11465301Y-14797817D02*
X11436730Y-14797817D01*
X11436730Y-14797817D02*
X11417682Y-14788293D01*
X11417682Y-14788293D02*
X11408158Y-14769246D01*
X11408158Y-14769246D02*
X11408158Y-14759722D01*
X11408158Y-14759722D02*
X11417682Y-14740674D01*
X11417682Y-14740674D02*
X11436730Y-14731150D01*
X11436730Y-14731150D02*
X11465301Y-14731150D01*
X11465301Y-14731150D02*
X11484349Y-14740674D01*
X11560539Y-14940674D02*
X11570063Y-14931150D01*
X11570063Y-14931150D02*
X11589111Y-14902579D01*
X11589111Y-14902579D02*
X11598634Y-14883531D01*
X11598634Y-14883531D02*
X11608158Y-14854960D01*
X11608158Y-14854960D02*
X11617682Y-14807341D01*
X11617682Y-14807341D02*
X11617682Y-14769246D01*
X11617682Y-14769246D02*
X11608158Y-14721627D01*
X11608158Y-14721627D02*
X11598634Y-14693055D01*
X11598634Y-14693055D02*
X11589111Y-14674008D01*
X11589111Y-14674008D02*
X11570063Y-14645436D01*
X11570063Y-14645436D02*
X11560539Y-14635912D01*
D10*
X6580356Y-15072356D02*
X6580356Y-15001644D01*
X6509644Y-15001644D01*
X6509644Y-15072356D01*
X6580356Y-15072356D01*
D11*
X6960539Y-15128484D02*
X6846253Y-15128484D01*
X6903396Y-15128484D02*
X6903396Y-14928484D01*
X6903396Y-14928484D02*
X6884348Y-14957055D01*
X6884348Y-14957055D02*
X6865301Y-14976103D01*
X6865301Y-14976103D02*
X6846253Y-14985627D01*
X7046253Y-15109436D02*
X7055777Y-15118960D01*
X7055777Y-15118960D02*
X7046253Y-15128484D01*
X7046253Y-15128484D02*
X7036729Y-15118960D01*
X7036729Y-15118960D02*
X7046253Y-15109436D01*
X7046253Y-15109436D02*
X7046253Y-15128484D01*
X7179586Y-14928484D02*
X7198634Y-14928484D01*
X7198634Y-14928484D02*
X7217682Y-14938008D01*
X7217682Y-14938008D02*
X7227205Y-14947531D01*
X7227205Y-14947531D02*
X7236729Y-14966579D01*
X7236729Y-14966579D02*
X7246253Y-15004674D01*
X7246253Y-15004674D02*
X7246253Y-15052293D01*
X7246253Y-15052293D02*
X7236729Y-15090388D01*
X7236729Y-15090388D02*
X7227205Y-15109436D01*
X7227205Y-15109436D02*
X7217682Y-15118960D01*
X7217682Y-15118960D02*
X7198634Y-15128484D01*
X7198634Y-15128484D02*
X7179586Y-15128484D01*
X7179586Y-15128484D02*
X7160539Y-15118960D01*
X7160539Y-15118960D02*
X7151015Y-15109436D01*
X7151015Y-15109436D02*
X7141491Y-15090388D01*
X7141491Y-15090388D02*
X7131967Y-15052293D01*
X7131967Y-15052293D02*
X7131967Y-15004674D01*
X7131967Y-15004674D02*
X7141491Y-14966579D01*
X7141491Y-14966579D02*
X7151015Y-14947531D01*
X7151015Y-14947531D02*
X7160539Y-14938008D01*
X7160539Y-14938008D02*
X7179586Y-14928484D01*
X7370062Y-14928484D02*
X7389110Y-14928484D01*
X7389110Y-14928484D02*
X7408158Y-14938008D01*
X7408158Y-14938008D02*
X7417682Y-14947531D01*
X7417682Y-14947531D02*
X7427205Y-14966579D01*
X7427205Y-14966579D02*
X7436729Y-15004674D01*
X7436729Y-15004674D02*
X7436729Y-15052293D01*
X7436729Y-15052293D02*
X7427205Y-15090388D01*
X7427205Y-15090388D02*
X7417682Y-15109436D01*
X7417682Y-15109436D02*
X7408158Y-15118960D01*
X7408158Y-15118960D02*
X7389110Y-15128484D01*
X7389110Y-15128484D02*
X7370062Y-15128484D01*
X7370062Y-15128484D02*
X7351015Y-15118960D01*
X7351015Y-15118960D02*
X7341491Y-15109436D01*
X7341491Y-15109436D02*
X7331967Y-15090388D01*
X7331967Y-15090388D02*
X7322443Y-15052293D01*
X7322443Y-15052293D02*
X7322443Y-15004674D01*
X7322443Y-15004674D02*
X7331967Y-14966579D01*
X7331967Y-14966579D02*
X7341491Y-14947531D01*
X7341491Y-14947531D02*
X7351015Y-14938008D01*
X7351015Y-14938008D02*
X7370062Y-14928484D01*
X7560539Y-14928484D02*
X7579586Y-14928484D01*
X7579586Y-14928484D02*
X7598634Y-14938008D01*
X7598634Y-14938008D02*
X7608158Y-14947531D01*
X7608158Y-14947531D02*
X7617682Y-14966579D01*
X7617682Y-14966579D02*
X7627205Y-15004674D01*
X7627205Y-15004674D02*
X7627205Y-15052293D01*
X7627205Y-15052293D02*
X7617682Y-15090388D01*
X7617682Y-15090388D02*
X7608158Y-15109436D01*
X7608158Y-15109436D02*
X7598634Y-15118960D01*
X7598634Y-15118960D02*
X7579586Y-15128484D01*
X7579586Y-15128484D02*
X7560539Y-15128484D01*
X7560539Y-15128484D02*
X7541491Y-15118960D01*
X7541491Y-15118960D02*
X7531967Y-15109436D01*
X7531967Y-15109436D02*
X7522443Y-15090388D01*
X7522443Y-15090388D02*
X7512920Y-15052293D01*
X7512920Y-15052293D02*
X7512920Y-15004674D01*
X7512920Y-15004674D02*
X7522443Y-14966579D01*
X7522443Y-14966579D02*
X7531967Y-14947531D01*
X7531967Y-14947531D02*
X7541491Y-14938008D01*
X7541491Y-14938008D02*
X7560539Y-14928484D01*
X7712920Y-15128484D02*
X7712920Y-14995150D01*
X7712920Y-15014198D02*
X7722443Y-15004674D01*
X7722443Y-15004674D02*
X7741491Y-14995150D01*
X7741491Y-14995150D02*
X7770063Y-14995150D01*
X7770063Y-14995150D02*
X7789110Y-15004674D01*
X7789110Y-15004674D02*
X7798634Y-15023722D01*
X7798634Y-15023722D02*
X7798634Y-15128484D01*
X7798634Y-15023722D02*
X7808158Y-15004674D01*
X7808158Y-15004674D02*
X7827205Y-14995150D01*
X7827205Y-14995150D02*
X7855777Y-14995150D01*
X7855777Y-14995150D02*
X7874824Y-15004674D01*
X7874824Y-15004674D02*
X7884348Y-15023722D01*
X7884348Y-15023722D02*
X7884348Y-15128484D01*
X7979586Y-15128484D02*
X7979586Y-14995150D01*
X7979586Y-15014198D02*
X7989110Y-15004674D01*
X7989110Y-15004674D02*
X8008158Y-14995150D01*
X8008158Y-14995150D02*
X8036729Y-14995150D01*
X8036729Y-14995150D02*
X8055777Y-15004674D01*
X8055777Y-15004674D02*
X8065301Y-15023722D01*
X8065301Y-15023722D02*
X8065301Y-15128484D01*
X8065301Y-15023722D02*
X8074824Y-15004674D01*
X8074824Y-15004674D02*
X8093872Y-14995150D01*
X8093872Y-14995150D02*
X8122443Y-14995150D01*
X8122443Y-14995150D02*
X8141491Y-15004674D01*
X8141491Y-15004674D02*
X8151015Y-15023722D01*
X8151015Y-15023722D02*
X8151015Y-15128484D01*
X8541491Y-14918960D02*
X8370063Y-15176103D01*
X8798634Y-14928484D02*
X8817682Y-14928484D01*
X8817682Y-14928484D02*
X8836729Y-14938008D01*
X8836729Y-14938008D02*
X8846253Y-14947531D01*
X8846253Y-14947531D02*
X8855777Y-14966579D01*
X8855777Y-14966579D02*
X8865301Y-15004674D01*
X8865301Y-15004674D02*
X8865301Y-15052293D01*
X8865301Y-15052293D02*
X8855777Y-15090388D01*
X8855777Y-15090388D02*
X8846253Y-15109436D01*
X8846253Y-15109436D02*
X8836729Y-15118960D01*
X8836729Y-15118960D02*
X8817682Y-15128484D01*
X8817682Y-15128484D02*
X8798634Y-15128484D01*
X8798634Y-15128484D02*
X8779587Y-15118960D01*
X8779587Y-15118960D02*
X8770063Y-15109436D01*
X8770063Y-15109436D02*
X8760539Y-15090388D01*
X8760539Y-15090388D02*
X8751015Y-15052293D01*
X8751015Y-15052293D02*
X8751015Y-15004674D01*
X8751015Y-15004674D02*
X8760539Y-14966579D01*
X8760539Y-14966579D02*
X8770063Y-14947531D01*
X8770063Y-14947531D02*
X8779587Y-14938008D01*
X8779587Y-14938008D02*
X8798634Y-14928484D01*
X8951015Y-15109436D02*
X8960539Y-15118960D01*
X8960539Y-15118960D02*
X8951015Y-15128484D01*
X8951015Y-15128484D02*
X8941491Y-15118960D01*
X8941491Y-15118960D02*
X8951015Y-15109436D01*
X8951015Y-15109436D02*
X8951015Y-15128484D01*
X9084348Y-14928484D02*
X9103396Y-14928484D01*
X9103396Y-14928484D02*
X9122444Y-14938008D01*
X9122444Y-14938008D02*
X9131968Y-14947531D01*
X9131968Y-14947531D02*
X9141491Y-14966579D01*
X9141491Y-14966579D02*
X9151015Y-15004674D01*
X9151015Y-15004674D02*
X9151015Y-15052293D01*
X9151015Y-15052293D02*
X9141491Y-15090388D01*
X9141491Y-15090388D02*
X9131968Y-15109436D01*
X9131968Y-15109436D02*
X9122444Y-15118960D01*
X9122444Y-15118960D02*
X9103396Y-15128484D01*
X9103396Y-15128484D02*
X9084348Y-15128484D01*
X9084348Y-15128484D02*
X9065301Y-15118960D01*
X9065301Y-15118960D02*
X9055777Y-15109436D01*
X9055777Y-15109436D02*
X9046253Y-15090388D01*
X9046253Y-15090388D02*
X9036729Y-15052293D01*
X9036729Y-15052293D02*
X9036729Y-15004674D01*
X9036729Y-15004674D02*
X9046253Y-14966579D01*
X9046253Y-14966579D02*
X9055777Y-14947531D01*
X9055777Y-14947531D02*
X9065301Y-14938008D01*
X9065301Y-14938008D02*
X9084348Y-14928484D01*
X9217682Y-14928484D02*
X9341491Y-14928484D01*
X9341491Y-14928484D02*
X9274825Y-15004674D01*
X9274825Y-15004674D02*
X9303396Y-15004674D01*
X9303396Y-15004674D02*
X9322444Y-15014198D01*
X9322444Y-15014198D02*
X9331968Y-15023722D01*
X9331968Y-15023722D02*
X9341491Y-15042769D01*
X9341491Y-15042769D02*
X9341491Y-15090388D01*
X9341491Y-15090388D02*
X9331968Y-15109436D01*
X9331968Y-15109436D02*
X9322444Y-15118960D01*
X9322444Y-15118960D02*
X9303396Y-15128484D01*
X9303396Y-15128484D02*
X9246253Y-15128484D01*
X9246253Y-15128484D02*
X9227206Y-15118960D01*
X9227206Y-15118960D02*
X9217682Y-15109436D01*
X9436729Y-15128484D02*
X9474825Y-15128484D01*
X9474825Y-15128484D02*
X9493872Y-15118960D01*
X9493872Y-15118960D02*
X9503396Y-15109436D01*
X9503396Y-15109436D02*
X9522444Y-15080865D01*
X9522444Y-15080865D02*
X9531968Y-15042769D01*
X9531968Y-15042769D02*
X9531968Y-14966579D01*
X9531968Y-14966579D02*
X9522444Y-14947531D01*
X9522444Y-14947531D02*
X9512920Y-14938008D01*
X9512920Y-14938008D02*
X9493872Y-14928484D01*
X9493872Y-14928484D02*
X9455777Y-14928484D01*
X9455777Y-14928484D02*
X9436729Y-14938008D01*
X9436729Y-14938008D02*
X9427206Y-14947531D01*
X9427206Y-14947531D02*
X9417682Y-14966579D01*
X9417682Y-14966579D02*
X9417682Y-15014198D01*
X9417682Y-15014198D02*
X9427206Y-15033246D01*
X9427206Y-15033246D02*
X9436729Y-15042769D01*
X9436729Y-15042769D02*
X9455777Y-15052293D01*
X9455777Y-15052293D02*
X9493872Y-15052293D01*
X9493872Y-15052293D02*
X9512920Y-15042769D01*
X9512920Y-15042769D02*
X9522444Y-15033246D01*
X9522444Y-15033246D02*
X9531968Y-15014198D01*
X9703396Y-14995150D02*
X9703396Y-15128484D01*
X9655777Y-14918960D02*
X9608158Y-15061817D01*
X9608158Y-15061817D02*
X9731968Y-15061817D01*
X9798634Y-14928484D02*
X9798634Y-14966579D01*
X9874825Y-14928484D02*
X9874825Y-14966579D01*
X10170063Y-15204674D02*
X10160539Y-15195150D01*
X10160539Y-15195150D02*
X10141491Y-15166579D01*
X10141491Y-15166579D02*
X10131968Y-15147531D01*
X10131968Y-15147531D02*
X10122444Y-15118960D01*
X10122444Y-15118960D02*
X10112920Y-15071341D01*
X10112920Y-15071341D02*
X10112920Y-15033246D01*
X10112920Y-15033246D02*
X10122444Y-14985627D01*
X10122444Y-14985627D02*
X10131968Y-14957055D01*
X10131968Y-14957055D02*
X10141491Y-14938008D01*
X10141491Y-14938008D02*
X10160539Y-14909436D01*
X10160539Y-14909436D02*
X10170063Y-14899912D01*
X10236730Y-14947531D02*
X10246253Y-14938008D01*
X10246253Y-14938008D02*
X10265301Y-14928484D01*
X10265301Y-14928484D02*
X10312920Y-14928484D01*
X10312920Y-14928484D02*
X10331968Y-14938008D01*
X10331968Y-14938008D02*
X10341491Y-14947531D01*
X10341491Y-14947531D02*
X10351015Y-14966579D01*
X10351015Y-14966579D02*
X10351015Y-14985627D01*
X10351015Y-14985627D02*
X10341491Y-15014198D01*
X10341491Y-15014198D02*
X10227206Y-15128484D01*
X10227206Y-15128484D02*
X10351015Y-15128484D01*
X10522444Y-14928484D02*
X10484349Y-14928484D01*
X10484349Y-14928484D02*
X10465301Y-14938008D01*
X10465301Y-14938008D02*
X10455777Y-14947531D01*
X10455777Y-14947531D02*
X10436730Y-14976103D01*
X10436730Y-14976103D02*
X10427206Y-15014198D01*
X10427206Y-15014198D02*
X10427206Y-15090388D01*
X10427206Y-15090388D02*
X10436730Y-15109436D01*
X10436730Y-15109436D02*
X10446253Y-15118960D01*
X10446253Y-15118960D02*
X10465301Y-15128484D01*
X10465301Y-15128484D02*
X10503396Y-15128484D01*
X10503396Y-15128484D02*
X10522444Y-15118960D01*
X10522444Y-15118960D02*
X10531968Y-15109436D01*
X10531968Y-15109436D02*
X10541491Y-15090388D01*
X10541491Y-15090388D02*
X10541491Y-15042769D01*
X10541491Y-15042769D02*
X10531968Y-15023722D01*
X10531968Y-15023722D02*
X10522444Y-15014198D01*
X10522444Y-15014198D02*
X10503396Y-15004674D01*
X10503396Y-15004674D02*
X10465301Y-15004674D01*
X10465301Y-15004674D02*
X10446253Y-15014198D01*
X10446253Y-15014198D02*
X10436730Y-15023722D01*
X10436730Y-15023722D02*
X10427206Y-15042769D01*
X10779587Y-15128484D02*
X10779587Y-14928484D01*
X10865301Y-15128484D02*
X10865301Y-15023722D01*
X10865301Y-15023722D02*
X10855777Y-15004674D01*
X10855777Y-15004674D02*
X10836730Y-14995150D01*
X10836730Y-14995150D02*
X10808158Y-14995150D01*
X10808158Y-14995150D02*
X10789111Y-15004674D01*
X10789111Y-15004674D02*
X10779587Y-15014198D01*
X10989111Y-15128484D02*
X10970063Y-15118960D01*
X10970063Y-15118960D02*
X10960539Y-15109436D01*
X10960539Y-15109436D02*
X10951015Y-15090388D01*
X10951015Y-15090388D02*
X10951015Y-15033246D01*
X10951015Y-15033246D02*
X10960539Y-15014198D01*
X10960539Y-15014198D02*
X10970063Y-15004674D01*
X10970063Y-15004674D02*
X10989111Y-14995150D01*
X10989111Y-14995150D02*
X11017682Y-14995150D01*
X11017682Y-14995150D02*
X11036730Y-15004674D01*
X11036730Y-15004674D02*
X11046253Y-15014198D01*
X11046253Y-15014198D02*
X11055777Y-15033246D01*
X11055777Y-15033246D02*
X11055777Y-15090388D01*
X11055777Y-15090388D02*
X11046253Y-15109436D01*
X11046253Y-15109436D02*
X11036730Y-15118960D01*
X11036730Y-15118960D02*
X11017682Y-15128484D01*
X11017682Y-15128484D02*
X10989111Y-15128484D01*
X11170063Y-15128484D02*
X11151015Y-15118960D01*
X11151015Y-15118960D02*
X11141492Y-15099912D01*
X11141492Y-15099912D02*
X11141492Y-14928484D01*
X11322444Y-15118960D02*
X11303396Y-15128484D01*
X11303396Y-15128484D02*
X11265301Y-15128484D01*
X11265301Y-15128484D02*
X11246253Y-15118960D01*
X11246253Y-15118960D02*
X11236730Y-15099912D01*
X11236730Y-15099912D02*
X11236730Y-15023722D01*
X11236730Y-15023722D02*
X11246253Y-15004674D01*
X11246253Y-15004674D02*
X11265301Y-14995150D01*
X11265301Y-14995150D02*
X11303396Y-14995150D01*
X11303396Y-14995150D02*
X11322444Y-15004674D01*
X11322444Y-15004674D02*
X11331968Y-15023722D01*
X11331968Y-15023722D02*
X11331968Y-15042769D01*
X11331968Y-15042769D02*
X11236730Y-15061817D01*
X11408158Y-15118960D02*
X11427206Y-15128484D01*
X11427206Y-15128484D02*
X11465301Y-15128484D01*
X11465301Y-15128484D02*
X11484349Y-15118960D01*
X11484349Y-15118960D02*
X11493872Y-15099912D01*
X11493872Y-15099912D02*
X11493872Y-15090388D01*
X11493872Y-15090388D02*
X11484349Y-15071341D01*
X11484349Y-15071341D02*
X11465301Y-15061817D01*
X11465301Y-15061817D02*
X11436730Y-15061817D01*
X11436730Y-15061817D02*
X11417682Y-15052293D01*
X11417682Y-15052293D02*
X11408158Y-15033246D01*
X11408158Y-15033246D02*
X11408158Y-15023722D01*
X11408158Y-15023722D02*
X11417682Y-15004674D01*
X11417682Y-15004674D02*
X11436730Y-14995150D01*
X11436730Y-14995150D02*
X11465301Y-14995150D01*
X11465301Y-14995150D02*
X11484349Y-15004674D01*
X11560539Y-15204674D02*
X11570063Y-15195150D01*
X11570063Y-15195150D02*
X11589111Y-15166579D01*
X11589111Y-15166579D02*
X11598634Y-15147531D01*
X11598634Y-15147531D02*
X11608158Y-15118960D01*
X11608158Y-15118960D02*
X11617682Y-15071341D01*
X11617682Y-15071341D02*
X11617682Y-15033246D01*
X11617682Y-15033246D02*
X11608158Y-14985627D01*
X11608158Y-14985627D02*
X11598634Y-14957055D01*
X11598634Y-14957055D02*
X11589111Y-14938008D01*
X11589111Y-14938008D02*
X11570063Y-14909436D01*
X11570063Y-14909436D02*
X11560539Y-14899912D01*
D12*
X6544000Y-15352000D02*
X6595000Y-15301000D01*
X6544000Y-15250000D01*
X6493000Y-15301000D01*
X6544000Y-15352000D01*
D11*
X6960539Y-15392484D02*
X6846253Y-15392484D01*
X6903396Y-15392484D02*
X6903396Y-15192484D01*
X6903396Y-15192484D02*
X6884348Y-15221055D01*
X6884348Y-15221055D02*
X6865301Y-15240103D01*
X6865301Y-15240103D02*
X6846253Y-15249627D01*
X7046253Y-15373436D02*
X7055777Y-15382960D01*
X7055777Y-15382960D02*
X7046253Y-15392484D01*
X7046253Y-15392484D02*
X7036729Y-15382960D01*
X7036729Y-15382960D02*
X7046253Y-15373436D01*
X7046253Y-15373436D02*
X7046253Y-15392484D01*
X7179586Y-15192484D02*
X7198634Y-15192484D01*
X7198634Y-15192484D02*
X7217682Y-15202008D01*
X7217682Y-15202008D02*
X7227205Y-15211531D01*
X7227205Y-15211531D02*
X7236729Y-15230579D01*
X7236729Y-15230579D02*
X7246253Y-15268674D01*
X7246253Y-15268674D02*
X7246253Y-15316293D01*
X7246253Y-15316293D02*
X7236729Y-15354388D01*
X7236729Y-15354388D02*
X7227205Y-15373436D01*
X7227205Y-15373436D02*
X7217682Y-15382960D01*
X7217682Y-15382960D02*
X7198634Y-15392484D01*
X7198634Y-15392484D02*
X7179586Y-15392484D01*
X7179586Y-15392484D02*
X7160539Y-15382960D01*
X7160539Y-15382960D02*
X7151015Y-15373436D01*
X7151015Y-15373436D02*
X7141491Y-15354388D01*
X7141491Y-15354388D02*
X7131967Y-15316293D01*
X7131967Y-15316293D02*
X7131967Y-15268674D01*
X7131967Y-15268674D02*
X7141491Y-15230579D01*
X7141491Y-15230579D02*
X7151015Y-15211531D01*
X7151015Y-15211531D02*
X7160539Y-15202008D01*
X7160539Y-15202008D02*
X7179586Y-15192484D01*
X7322443Y-15211531D02*
X7331967Y-15202008D01*
X7331967Y-15202008D02*
X7351015Y-15192484D01*
X7351015Y-15192484D02*
X7398634Y-15192484D01*
X7398634Y-15192484D02*
X7417682Y-15202008D01*
X7417682Y-15202008D02*
X7427205Y-15211531D01*
X7427205Y-15211531D02*
X7436729Y-15230579D01*
X7436729Y-15230579D02*
X7436729Y-15249627D01*
X7436729Y-15249627D02*
X7427205Y-15278198D01*
X7427205Y-15278198D02*
X7312920Y-15392484D01*
X7312920Y-15392484D02*
X7436729Y-15392484D01*
X7560539Y-15192484D02*
X7579586Y-15192484D01*
X7579586Y-15192484D02*
X7598634Y-15202008D01*
X7598634Y-15202008D02*
X7608158Y-15211531D01*
X7608158Y-15211531D02*
X7617682Y-15230579D01*
X7617682Y-15230579D02*
X7627205Y-15268674D01*
X7627205Y-15268674D02*
X7627205Y-15316293D01*
X7627205Y-15316293D02*
X7617682Y-15354388D01*
X7617682Y-15354388D02*
X7608158Y-15373436D01*
X7608158Y-15373436D02*
X7598634Y-15382960D01*
X7598634Y-15382960D02*
X7579586Y-15392484D01*
X7579586Y-15392484D02*
X7560539Y-15392484D01*
X7560539Y-15392484D02*
X7541491Y-15382960D01*
X7541491Y-15382960D02*
X7531967Y-15373436D01*
X7531967Y-15373436D02*
X7522443Y-15354388D01*
X7522443Y-15354388D02*
X7512920Y-15316293D01*
X7512920Y-15316293D02*
X7512920Y-15268674D01*
X7512920Y-15268674D02*
X7522443Y-15230579D01*
X7522443Y-15230579D02*
X7531967Y-15211531D01*
X7531967Y-15211531D02*
X7541491Y-15202008D01*
X7541491Y-15202008D02*
X7560539Y-15192484D01*
X7712920Y-15392484D02*
X7712920Y-15259150D01*
X7712920Y-15278198D02*
X7722443Y-15268674D01*
X7722443Y-15268674D02*
X7741491Y-15259150D01*
X7741491Y-15259150D02*
X7770063Y-15259150D01*
X7770063Y-15259150D02*
X7789110Y-15268674D01*
X7789110Y-15268674D02*
X7798634Y-15287722D01*
X7798634Y-15287722D02*
X7798634Y-15392484D01*
X7798634Y-15287722D02*
X7808158Y-15268674D01*
X7808158Y-15268674D02*
X7827205Y-15259150D01*
X7827205Y-15259150D02*
X7855777Y-15259150D01*
X7855777Y-15259150D02*
X7874824Y-15268674D01*
X7874824Y-15268674D02*
X7884348Y-15287722D01*
X7884348Y-15287722D02*
X7884348Y-15392484D01*
X7979586Y-15392484D02*
X7979586Y-15259150D01*
X7979586Y-15278198D02*
X7989110Y-15268674D01*
X7989110Y-15268674D02*
X8008158Y-15259150D01*
X8008158Y-15259150D02*
X8036729Y-15259150D01*
X8036729Y-15259150D02*
X8055777Y-15268674D01*
X8055777Y-15268674D02*
X8065301Y-15287722D01*
X8065301Y-15287722D02*
X8065301Y-15392484D01*
X8065301Y-15287722D02*
X8074824Y-15268674D01*
X8074824Y-15268674D02*
X8093872Y-15259150D01*
X8093872Y-15259150D02*
X8122443Y-15259150D01*
X8122443Y-15259150D02*
X8141491Y-15268674D01*
X8141491Y-15268674D02*
X8151015Y-15287722D01*
X8151015Y-15287722D02*
X8151015Y-15392484D01*
X8541491Y-15182960D02*
X8370063Y-15440103D01*
X8798634Y-15192484D02*
X8817682Y-15192484D01*
X8817682Y-15192484D02*
X8836729Y-15202008D01*
X8836729Y-15202008D02*
X8846253Y-15211531D01*
X8846253Y-15211531D02*
X8855777Y-15230579D01*
X8855777Y-15230579D02*
X8865301Y-15268674D01*
X8865301Y-15268674D02*
X8865301Y-15316293D01*
X8865301Y-15316293D02*
X8855777Y-15354388D01*
X8855777Y-15354388D02*
X8846253Y-15373436D01*
X8846253Y-15373436D02*
X8836729Y-15382960D01*
X8836729Y-15382960D02*
X8817682Y-15392484D01*
X8817682Y-15392484D02*
X8798634Y-15392484D01*
X8798634Y-15392484D02*
X8779587Y-15382960D01*
X8779587Y-15382960D02*
X8770063Y-15373436D01*
X8770063Y-15373436D02*
X8760539Y-15354388D01*
X8760539Y-15354388D02*
X8751015Y-15316293D01*
X8751015Y-15316293D02*
X8751015Y-15268674D01*
X8751015Y-15268674D02*
X8760539Y-15230579D01*
X8760539Y-15230579D02*
X8770063Y-15211531D01*
X8770063Y-15211531D02*
X8779587Y-15202008D01*
X8779587Y-15202008D02*
X8798634Y-15192484D01*
X8951015Y-15373436D02*
X8960539Y-15382960D01*
X8960539Y-15382960D02*
X8951015Y-15392484D01*
X8951015Y-15392484D02*
X8941491Y-15382960D01*
X8941491Y-15382960D02*
X8951015Y-15373436D01*
X8951015Y-15373436D02*
X8951015Y-15392484D01*
X9084348Y-15192484D02*
X9103396Y-15192484D01*
X9103396Y-15192484D02*
X9122444Y-15202008D01*
X9122444Y-15202008D02*
X9131968Y-15211531D01*
X9131968Y-15211531D02*
X9141491Y-15230579D01*
X9141491Y-15230579D02*
X9151015Y-15268674D01*
X9151015Y-15268674D02*
X9151015Y-15316293D01*
X9151015Y-15316293D02*
X9141491Y-15354388D01*
X9141491Y-15354388D02*
X9131968Y-15373436D01*
X9131968Y-15373436D02*
X9122444Y-15382960D01*
X9122444Y-15382960D02*
X9103396Y-15392484D01*
X9103396Y-15392484D02*
X9084348Y-15392484D01*
X9084348Y-15392484D02*
X9065301Y-15382960D01*
X9065301Y-15382960D02*
X9055777Y-15373436D01*
X9055777Y-15373436D02*
X9046253Y-15354388D01*
X9046253Y-15354388D02*
X9036729Y-15316293D01*
X9036729Y-15316293D02*
X9036729Y-15268674D01*
X9036729Y-15268674D02*
X9046253Y-15230579D01*
X9046253Y-15230579D02*
X9055777Y-15211531D01*
X9055777Y-15211531D02*
X9065301Y-15202008D01*
X9065301Y-15202008D02*
X9084348Y-15192484D01*
X9322444Y-15259150D02*
X9322444Y-15392484D01*
X9274825Y-15182960D02*
X9227206Y-15325817D01*
X9227206Y-15325817D02*
X9351015Y-15325817D01*
X9465301Y-15192484D02*
X9484349Y-15192484D01*
X9484349Y-15192484D02*
X9503396Y-15202008D01*
X9503396Y-15202008D02*
X9512920Y-15211531D01*
X9512920Y-15211531D02*
X9522444Y-15230579D01*
X9522444Y-15230579D02*
X9531968Y-15268674D01*
X9531968Y-15268674D02*
X9531968Y-15316293D01*
X9531968Y-15316293D02*
X9522444Y-15354388D01*
X9522444Y-15354388D02*
X9512920Y-15373436D01*
X9512920Y-15373436D02*
X9503396Y-15382960D01*
X9503396Y-15382960D02*
X9484349Y-15392484D01*
X9484349Y-15392484D02*
X9465301Y-15392484D01*
X9465301Y-15392484D02*
X9446253Y-15382960D01*
X9446253Y-15382960D02*
X9436729Y-15373436D01*
X9436729Y-15373436D02*
X9427206Y-15354388D01*
X9427206Y-15354388D02*
X9417682Y-15316293D01*
X9417682Y-15316293D02*
X9417682Y-15268674D01*
X9417682Y-15268674D02*
X9427206Y-15230579D01*
X9427206Y-15230579D02*
X9436729Y-15211531D01*
X9436729Y-15211531D02*
X9446253Y-15202008D01*
X9446253Y-15202008D02*
X9465301Y-15192484D01*
X9608158Y-15211531D02*
X9617682Y-15202008D01*
X9617682Y-15202008D02*
X9636729Y-15192484D01*
X9636729Y-15192484D02*
X9684349Y-15192484D01*
X9684349Y-15192484D02*
X9703396Y-15202008D01*
X9703396Y-15202008D02*
X9712920Y-15211531D01*
X9712920Y-15211531D02*
X9722444Y-15230579D01*
X9722444Y-15230579D02*
X9722444Y-15249627D01*
X9722444Y-15249627D02*
X9712920Y-15278198D01*
X9712920Y-15278198D02*
X9598634Y-15392484D01*
X9598634Y-15392484D02*
X9722444Y-15392484D01*
X9798634Y-15192484D02*
X9798634Y-15230579D01*
X9874825Y-15192484D02*
X9874825Y-15230579D01*
X10170063Y-15468674D02*
X10160539Y-15459150D01*
X10160539Y-15459150D02*
X10141491Y-15430579D01*
X10141491Y-15430579D02*
X10131968Y-15411531D01*
X10131968Y-15411531D02*
X10122444Y-15382960D01*
X10122444Y-15382960D02*
X10112920Y-15335341D01*
X10112920Y-15335341D02*
X10112920Y-15297246D01*
X10112920Y-15297246D02*
X10122444Y-15249627D01*
X10122444Y-15249627D02*
X10131968Y-15221055D01*
X10131968Y-15221055D02*
X10141491Y-15202008D01*
X10141491Y-15202008D02*
X10160539Y-15173436D01*
X10160539Y-15173436D02*
X10170063Y-15163912D01*
X10227206Y-15192484D02*
X10351015Y-15192484D01*
X10351015Y-15192484D02*
X10284349Y-15268674D01*
X10284349Y-15268674D02*
X10312920Y-15268674D01*
X10312920Y-15268674D02*
X10331968Y-15278198D01*
X10331968Y-15278198D02*
X10341491Y-15287722D01*
X10341491Y-15287722D02*
X10351015Y-15306769D01*
X10351015Y-15306769D02*
X10351015Y-15354388D01*
X10351015Y-15354388D02*
X10341491Y-15373436D01*
X10341491Y-15373436D02*
X10331968Y-15382960D01*
X10331968Y-15382960D02*
X10312920Y-15392484D01*
X10312920Y-15392484D02*
X10255777Y-15392484D01*
X10255777Y-15392484D02*
X10236730Y-15382960D01*
X10236730Y-15382960D02*
X10227206Y-15373436D01*
X10474825Y-15192484D02*
X10493872Y-15192484D01*
X10493872Y-15192484D02*
X10512920Y-15202008D01*
X10512920Y-15202008D02*
X10522444Y-15211531D01*
X10522444Y-15211531D02*
X10531968Y-15230579D01*
X10531968Y-15230579D02*
X10541491Y-15268674D01*
X10541491Y-15268674D02*
X10541491Y-15316293D01*
X10541491Y-15316293D02*
X10531968Y-15354388D01*
X10531968Y-15354388D02*
X10522444Y-15373436D01*
X10522444Y-15373436D02*
X10512920Y-15382960D01*
X10512920Y-15382960D02*
X10493872Y-15392484D01*
X10493872Y-15392484D02*
X10474825Y-15392484D01*
X10474825Y-15392484D02*
X10455777Y-15382960D01*
X10455777Y-15382960D02*
X10446253Y-15373436D01*
X10446253Y-15373436D02*
X10436730Y-15354388D01*
X10436730Y-15354388D02*
X10427206Y-15316293D01*
X10427206Y-15316293D02*
X10427206Y-15268674D01*
X10427206Y-15268674D02*
X10436730Y-15230579D01*
X10436730Y-15230579D02*
X10446253Y-15211531D01*
X10446253Y-15211531D02*
X10455777Y-15202008D01*
X10455777Y-15202008D02*
X10474825Y-15192484D01*
X10779587Y-15392484D02*
X10779587Y-15192484D01*
X10865301Y-15392484D02*
X10865301Y-15287722D01*
X10865301Y-15287722D02*
X10855777Y-15268674D01*
X10855777Y-15268674D02*
X10836730Y-15259150D01*
X10836730Y-15259150D02*
X10808158Y-15259150D01*
X10808158Y-15259150D02*
X10789111Y-15268674D01*
X10789111Y-15268674D02*
X10779587Y-15278198D01*
X10989111Y-15392484D02*
X10970063Y-15382960D01*
X10970063Y-15382960D02*
X10960539Y-15373436D01*
X10960539Y-15373436D02*
X10951015Y-15354388D01*
X10951015Y-15354388D02*
X10951015Y-15297246D01*
X10951015Y-15297246D02*
X10960539Y-15278198D01*
X10960539Y-15278198D02*
X10970063Y-15268674D01*
X10970063Y-15268674D02*
X10989111Y-15259150D01*
X10989111Y-15259150D02*
X11017682Y-15259150D01*
X11017682Y-15259150D02*
X11036730Y-15268674D01*
X11036730Y-15268674D02*
X11046253Y-15278198D01*
X11046253Y-15278198D02*
X11055777Y-15297246D01*
X11055777Y-15297246D02*
X11055777Y-15354388D01*
X11055777Y-15354388D02*
X11046253Y-15373436D01*
X11046253Y-15373436D02*
X11036730Y-15382960D01*
X11036730Y-15382960D02*
X11017682Y-15392484D01*
X11017682Y-15392484D02*
X10989111Y-15392484D01*
X11170063Y-15392484D02*
X11151015Y-15382960D01*
X11151015Y-15382960D02*
X11141492Y-15363912D01*
X11141492Y-15363912D02*
X11141492Y-15192484D01*
X11322444Y-15382960D02*
X11303396Y-15392484D01*
X11303396Y-15392484D02*
X11265301Y-15392484D01*
X11265301Y-15392484D02*
X11246253Y-15382960D01*
X11246253Y-15382960D02*
X11236730Y-15363912D01*
X11236730Y-15363912D02*
X11236730Y-15287722D01*
X11236730Y-15287722D02*
X11246253Y-15268674D01*
X11246253Y-15268674D02*
X11265301Y-15259150D01*
X11265301Y-15259150D02*
X11303396Y-15259150D01*
X11303396Y-15259150D02*
X11322444Y-15268674D01*
X11322444Y-15268674D02*
X11331968Y-15287722D01*
X11331968Y-15287722D02*
X11331968Y-15306769D01*
X11331968Y-15306769D02*
X11236730Y-15325817D01*
X11408158Y-15382960D02*
X11427206Y-15392484D01*
X11427206Y-15392484D02*
X11465301Y-15392484D01*
X11465301Y-15392484D02*
X11484349Y-15382960D01*
X11484349Y-15382960D02*
X11493872Y-15363912D01*
X11493872Y-15363912D02*
X11493872Y-15354388D01*
X11493872Y-15354388D02*
X11484349Y-15335341D01*
X11484349Y-15335341D02*
X11465301Y-15325817D01*
X11465301Y-15325817D02*
X11436730Y-15325817D01*
X11436730Y-15325817D02*
X11417682Y-15316293D01*
X11417682Y-15316293D02*
X11408158Y-15297246D01*
X11408158Y-15297246D02*
X11408158Y-15287722D01*
X11408158Y-15287722D02*
X11417682Y-15268674D01*
X11417682Y-15268674D02*
X11436730Y-15259150D01*
X11436730Y-15259150D02*
X11465301Y-15259150D01*
X11465301Y-15259150D02*
X11484349Y-15268674D01*
X11560539Y-15468674D02*
X11570063Y-15459150D01*
X11570063Y-15459150D02*
X11589111Y-15430579D01*
X11589111Y-15430579D02*
X11598634Y-15411531D01*
X11598634Y-15411531D02*
X11608158Y-15382960D01*
X11608158Y-15382960D02*
X11617682Y-15335341D01*
X11617682Y-15335341D02*
X11617682Y-15297246D01*
X11617682Y-15297246D02*
X11608158Y-15249627D01*
X11608158Y-15249627D02*
X11598634Y-15221055D01*
X11598634Y-15221055D02*
X11589111Y-15202008D01*
X11589111Y-15202008D02*
X11570063Y-15173436D01*
X11570063Y-15173436D02*
X11560539Y-15163912D01*
X6395000Y-15465000D02*
X6595000Y-15665000D01*
X6595000Y-15465000D02*
X6395000Y-15665000D01*
X6595000Y-15565000D02*
G75*
G02*
X6395000Y-15565000I-100000J0D01*
G01*
X6395000Y-15565000D02*
G75*
G02*
X6595000Y-15565000I100000J0D01*
G01*
X6846253Y-15475531D02*
X6855777Y-15466008D01*
X6855777Y-15466008D02*
X6874824Y-15456484D01*
X6874824Y-15456484D02*
X6922443Y-15456484D01*
X6922443Y-15456484D02*
X6941491Y-15466008D01*
X6941491Y-15466008D02*
X6951015Y-15475531D01*
X6951015Y-15475531D02*
X6960539Y-15494579D01*
X6960539Y-15494579D02*
X6960539Y-15513627D01*
X6960539Y-15513627D02*
X6951015Y-15542198D01*
X6951015Y-15542198D02*
X6836729Y-15656484D01*
X6836729Y-15656484D02*
X6960539Y-15656484D01*
X7046253Y-15637436D02*
X7055777Y-15646960D01*
X7055777Y-15646960D02*
X7046253Y-15656484D01*
X7046253Y-15656484D02*
X7036729Y-15646960D01*
X7036729Y-15646960D02*
X7046253Y-15637436D01*
X7046253Y-15637436D02*
X7046253Y-15656484D01*
X7236729Y-15456484D02*
X7141491Y-15456484D01*
X7141491Y-15456484D02*
X7131967Y-15551722D01*
X7131967Y-15551722D02*
X7141491Y-15542198D01*
X7141491Y-15542198D02*
X7160539Y-15532674D01*
X7160539Y-15532674D02*
X7208158Y-15532674D01*
X7208158Y-15532674D02*
X7227205Y-15542198D01*
X7227205Y-15542198D02*
X7236729Y-15551722D01*
X7236729Y-15551722D02*
X7246253Y-15570769D01*
X7246253Y-15570769D02*
X7246253Y-15618388D01*
X7246253Y-15618388D02*
X7236729Y-15637436D01*
X7236729Y-15637436D02*
X7227205Y-15646960D01*
X7227205Y-15646960D02*
X7208158Y-15656484D01*
X7208158Y-15656484D02*
X7160539Y-15656484D01*
X7160539Y-15656484D02*
X7141491Y-15646960D01*
X7141491Y-15646960D02*
X7131967Y-15637436D01*
X7370062Y-15456484D02*
X7389110Y-15456484D01*
X7389110Y-15456484D02*
X7408158Y-15466008D01*
X7408158Y-15466008D02*
X7417682Y-15475531D01*
X7417682Y-15475531D02*
X7427205Y-15494579D01*
X7427205Y-15494579D02*
X7436729Y-15532674D01*
X7436729Y-15532674D02*
X7436729Y-15580293D01*
X7436729Y-15580293D02*
X7427205Y-15618388D01*
X7427205Y-15618388D02*
X7417682Y-15637436D01*
X7417682Y-15637436D02*
X7408158Y-15646960D01*
X7408158Y-15646960D02*
X7389110Y-15656484D01*
X7389110Y-15656484D02*
X7370062Y-15656484D01*
X7370062Y-15656484D02*
X7351015Y-15646960D01*
X7351015Y-15646960D02*
X7341491Y-15637436D01*
X7341491Y-15637436D02*
X7331967Y-15618388D01*
X7331967Y-15618388D02*
X7322443Y-15580293D01*
X7322443Y-15580293D02*
X7322443Y-15532674D01*
X7322443Y-15532674D02*
X7331967Y-15494579D01*
X7331967Y-15494579D02*
X7341491Y-15475531D01*
X7341491Y-15475531D02*
X7351015Y-15466008D01*
X7351015Y-15466008D02*
X7370062Y-15456484D01*
X7560539Y-15456484D02*
X7579586Y-15456484D01*
X7579586Y-15456484D02*
X7598634Y-15466008D01*
X7598634Y-15466008D02*
X7608158Y-15475531D01*
X7608158Y-15475531D02*
X7617682Y-15494579D01*
X7617682Y-15494579D02*
X7627205Y-15532674D01*
X7627205Y-15532674D02*
X7627205Y-15580293D01*
X7627205Y-15580293D02*
X7617682Y-15618388D01*
X7617682Y-15618388D02*
X7608158Y-15637436D01*
X7608158Y-15637436D02*
X7598634Y-15646960D01*
X7598634Y-15646960D02*
X7579586Y-15656484D01*
X7579586Y-15656484D02*
X7560539Y-15656484D01*
X7560539Y-15656484D02*
X7541491Y-15646960D01*
X7541491Y-15646960D02*
X7531967Y-15637436D01*
X7531967Y-15637436D02*
X7522443Y-15618388D01*
X7522443Y-15618388D02*
X7512920Y-15580293D01*
X7512920Y-15580293D02*
X7512920Y-15532674D01*
X7512920Y-15532674D02*
X7522443Y-15494579D01*
X7522443Y-15494579D02*
X7531967Y-15475531D01*
X7531967Y-15475531D02*
X7541491Y-15466008D01*
X7541491Y-15466008D02*
X7560539Y-15456484D01*
X7712920Y-15656484D02*
X7712920Y-15523150D01*
X7712920Y-15542198D02*
X7722443Y-15532674D01*
X7722443Y-15532674D02*
X7741491Y-15523150D01*
X7741491Y-15523150D02*
X7770063Y-15523150D01*
X7770063Y-15523150D02*
X7789110Y-15532674D01*
X7789110Y-15532674D02*
X7798634Y-15551722D01*
X7798634Y-15551722D02*
X7798634Y-15656484D01*
X7798634Y-15551722D02*
X7808158Y-15532674D01*
X7808158Y-15532674D02*
X7827205Y-15523150D01*
X7827205Y-15523150D02*
X7855777Y-15523150D01*
X7855777Y-15523150D02*
X7874824Y-15532674D01*
X7874824Y-15532674D02*
X7884348Y-15551722D01*
X7884348Y-15551722D02*
X7884348Y-15656484D01*
X7979586Y-15656484D02*
X7979586Y-15523150D01*
X7979586Y-15542198D02*
X7989110Y-15532674D01*
X7989110Y-15532674D02*
X8008158Y-15523150D01*
X8008158Y-15523150D02*
X8036729Y-15523150D01*
X8036729Y-15523150D02*
X8055777Y-15532674D01*
X8055777Y-15532674D02*
X8065301Y-15551722D01*
X8065301Y-15551722D02*
X8065301Y-15656484D01*
X8065301Y-15551722D02*
X8074824Y-15532674D01*
X8074824Y-15532674D02*
X8093872Y-15523150D01*
X8093872Y-15523150D02*
X8122443Y-15523150D01*
X8122443Y-15523150D02*
X8141491Y-15532674D01*
X8141491Y-15532674D02*
X8151015Y-15551722D01*
X8151015Y-15551722D02*
X8151015Y-15656484D01*
X8541491Y-15446960D02*
X8370063Y-15704103D01*
X8798634Y-15456484D02*
X8817682Y-15456484D01*
X8817682Y-15456484D02*
X8836729Y-15466008D01*
X8836729Y-15466008D02*
X8846253Y-15475531D01*
X8846253Y-15475531D02*
X8855777Y-15494579D01*
X8855777Y-15494579D02*
X8865301Y-15532674D01*
X8865301Y-15532674D02*
X8865301Y-15580293D01*
X8865301Y-15580293D02*
X8855777Y-15618388D01*
X8855777Y-15618388D02*
X8846253Y-15637436D01*
X8846253Y-15637436D02*
X8836729Y-15646960D01*
X8836729Y-15646960D02*
X8817682Y-15656484D01*
X8817682Y-15656484D02*
X8798634Y-15656484D01*
X8798634Y-15656484D02*
X8779587Y-15646960D01*
X8779587Y-15646960D02*
X8770063Y-15637436D01*
X8770063Y-15637436D02*
X8760539Y-15618388D01*
X8760539Y-15618388D02*
X8751015Y-15580293D01*
X8751015Y-15580293D02*
X8751015Y-15532674D01*
X8751015Y-15532674D02*
X8760539Y-15494579D01*
X8760539Y-15494579D02*
X8770063Y-15475531D01*
X8770063Y-15475531D02*
X8779587Y-15466008D01*
X8779587Y-15466008D02*
X8798634Y-15456484D01*
X8951015Y-15637436D02*
X8960539Y-15646960D01*
X8960539Y-15646960D02*
X8951015Y-15656484D01*
X8951015Y-15656484D02*
X8941491Y-15646960D01*
X8941491Y-15646960D02*
X8951015Y-15637436D01*
X8951015Y-15637436D02*
X8951015Y-15656484D01*
X9084348Y-15456484D02*
X9103396Y-15456484D01*
X9103396Y-15456484D02*
X9122444Y-15466008D01*
X9122444Y-15466008D02*
X9131968Y-15475531D01*
X9131968Y-15475531D02*
X9141491Y-15494579D01*
X9141491Y-15494579D02*
X9151015Y-15532674D01*
X9151015Y-15532674D02*
X9151015Y-15580293D01*
X9151015Y-15580293D02*
X9141491Y-15618388D01*
X9141491Y-15618388D02*
X9131968Y-15637436D01*
X9131968Y-15637436D02*
X9122444Y-15646960D01*
X9122444Y-15646960D02*
X9103396Y-15656484D01*
X9103396Y-15656484D02*
X9084348Y-15656484D01*
X9084348Y-15656484D02*
X9065301Y-15646960D01*
X9065301Y-15646960D02*
X9055777Y-15637436D01*
X9055777Y-15637436D02*
X9046253Y-15618388D01*
X9046253Y-15618388D02*
X9036729Y-15580293D01*
X9036729Y-15580293D02*
X9036729Y-15532674D01*
X9036729Y-15532674D02*
X9046253Y-15494579D01*
X9046253Y-15494579D02*
X9055777Y-15475531D01*
X9055777Y-15475531D02*
X9065301Y-15466008D01*
X9065301Y-15466008D02*
X9084348Y-15456484D01*
X9246253Y-15656484D02*
X9284348Y-15656484D01*
X9284348Y-15656484D02*
X9303396Y-15646960D01*
X9303396Y-15646960D02*
X9312920Y-15637436D01*
X9312920Y-15637436D02*
X9331968Y-15608865D01*
X9331968Y-15608865D02*
X9341491Y-15570769D01*
X9341491Y-15570769D02*
X9341491Y-15494579D01*
X9341491Y-15494579D02*
X9331968Y-15475531D01*
X9331968Y-15475531D02*
X9322444Y-15466008D01*
X9322444Y-15466008D02*
X9303396Y-15456484D01*
X9303396Y-15456484D02*
X9265301Y-15456484D01*
X9265301Y-15456484D02*
X9246253Y-15466008D01*
X9246253Y-15466008D02*
X9236729Y-15475531D01*
X9236729Y-15475531D02*
X9227206Y-15494579D01*
X9227206Y-15494579D02*
X9227206Y-15542198D01*
X9227206Y-15542198D02*
X9236729Y-15561246D01*
X9236729Y-15561246D02*
X9246253Y-15570769D01*
X9246253Y-15570769D02*
X9265301Y-15580293D01*
X9265301Y-15580293D02*
X9303396Y-15580293D01*
X9303396Y-15580293D02*
X9322444Y-15570769D01*
X9322444Y-15570769D02*
X9331968Y-15561246D01*
X9331968Y-15561246D02*
X9341491Y-15542198D01*
X9455777Y-15542198D02*
X9436729Y-15532674D01*
X9436729Y-15532674D02*
X9427206Y-15523150D01*
X9427206Y-15523150D02*
X9417682Y-15504103D01*
X9417682Y-15504103D02*
X9417682Y-15494579D01*
X9417682Y-15494579D02*
X9427206Y-15475531D01*
X9427206Y-15475531D02*
X9436729Y-15466008D01*
X9436729Y-15466008D02*
X9455777Y-15456484D01*
X9455777Y-15456484D02*
X9493872Y-15456484D01*
X9493872Y-15456484D02*
X9512920Y-15466008D01*
X9512920Y-15466008D02*
X9522444Y-15475531D01*
X9522444Y-15475531D02*
X9531968Y-15494579D01*
X9531968Y-15494579D02*
X9531968Y-15504103D01*
X9531968Y-15504103D02*
X9522444Y-15523150D01*
X9522444Y-15523150D02*
X9512920Y-15532674D01*
X9512920Y-15532674D02*
X9493872Y-15542198D01*
X9493872Y-15542198D02*
X9455777Y-15542198D01*
X9455777Y-15542198D02*
X9436729Y-15551722D01*
X9436729Y-15551722D02*
X9427206Y-15561246D01*
X9427206Y-15561246D02*
X9417682Y-15580293D01*
X9417682Y-15580293D02*
X9417682Y-15618388D01*
X9417682Y-15618388D02*
X9427206Y-15637436D01*
X9427206Y-15637436D02*
X9436729Y-15646960D01*
X9436729Y-15646960D02*
X9455777Y-15656484D01*
X9455777Y-15656484D02*
X9493872Y-15656484D01*
X9493872Y-15656484D02*
X9512920Y-15646960D01*
X9512920Y-15646960D02*
X9522444Y-15637436D01*
X9522444Y-15637436D02*
X9531968Y-15618388D01*
X9531968Y-15618388D02*
X9531968Y-15580293D01*
X9531968Y-15580293D02*
X9522444Y-15561246D01*
X9522444Y-15561246D02*
X9512920Y-15551722D01*
X9512920Y-15551722D02*
X9493872Y-15542198D01*
X9703396Y-15523150D02*
X9703396Y-15656484D01*
X9655777Y-15446960D02*
X9608158Y-15589817D01*
X9608158Y-15589817D02*
X9731968Y-15589817D01*
X9798634Y-15456484D02*
X9798634Y-15494579D01*
X9874825Y-15456484D02*
X9874825Y-15494579D01*
X10170063Y-15732674D02*
X10160539Y-15723150D01*
X10160539Y-15723150D02*
X10141491Y-15694579D01*
X10141491Y-15694579D02*
X10131968Y-15675531D01*
X10131968Y-15675531D02*
X10122444Y-15646960D01*
X10122444Y-15646960D02*
X10112920Y-15599341D01*
X10112920Y-15599341D02*
X10112920Y-15561246D01*
X10112920Y-15561246D02*
X10122444Y-15513627D01*
X10122444Y-15513627D02*
X10131968Y-15485055D01*
X10131968Y-15485055D02*
X10141491Y-15466008D01*
X10141491Y-15466008D02*
X10160539Y-15437436D01*
X10160539Y-15437436D02*
X10170063Y-15427912D01*
X10274825Y-15542198D02*
X10255777Y-15532674D01*
X10255777Y-15532674D02*
X10246253Y-15523150D01*
X10246253Y-15523150D02*
X10236730Y-15504103D01*
X10236730Y-15504103D02*
X10236730Y-15494579D01*
X10236730Y-15494579D02*
X10246253Y-15475531D01*
X10246253Y-15475531D02*
X10255777Y-15466008D01*
X10255777Y-15466008D02*
X10274825Y-15456484D01*
X10274825Y-15456484D02*
X10312920Y-15456484D01*
X10312920Y-15456484D02*
X10331968Y-15466008D01*
X10331968Y-15466008D02*
X10341491Y-15475531D01*
X10341491Y-15475531D02*
X10351015Y-15494579D01*
X10351015Y-15494579D02*
X10351015Y-15504103D01*
X10351015Y-15504103D02*
X10341491Y-15523150D01*
X10341491Y-15523150D02*
X10331968Y-15532674D01*
X10331968Y-15532674D02*
X10312920Y-15542198D01*
X10312920Y-15542198D02*
X10274825Y-15542198D01*
X10274825Y-15542198D02*
X10255777Y-15551722D01*
X10255777Y-15551722D02*
X10246253Y-15561246D01*
X10246253Y-15561246D02*
X10236730Y-15580293D01*
X10236730Y-15580293D02*
X10236730Y-15618388D01*
X10236730Y-15618388D02*
X10246253Y-15637436D01*
X10246253Y-15637436D02*
X10255777Y-15646960D01*
X10255777Y-15646960D02*
X10274825Y-15656484D01*
X10274825Y-15656484D02*
X10312920Y-15656484D01*
X10312920Y-15656484D02*
X10331968Y-15646960D01*
X10331968Y-15646960D02*
X10341491Y-15637436D01*
X10341491Y-15637436D02*
X10351015Y-15618388D01*
X10351015Y-15618388D02*
X10351015Y-15580293D01*
X10351015Y-15580293D02*
X10341491Y-15561246D01*
X10341491Y-15561246D02*
X10331968Y-15551722D01*
X10331968Y-15551722D02*
X10312920Y-15542198D01*
X10589111Y-15656484D02*
X10589111Y-15456484D01*
X10674825Y-15656484D02*
X10674825Y-15551722D01*
X10674825Y-15551722D02*
X10665301Y-15532674D01*
X10665301Y-15532674D02*
X10646253Y-15523150D01*
X10646253Y-15523150D02*
X10617682Y-15523150D01*
X10617682Y-15523150D02*
X10598634Y-15532674D01*
X10598634Y-15532674D02*
X10589111Y-15542198D01*
X10798634Y-15656484D02*
X10779587Y-15646960D01*
X10779587Y-15646960D02*
X10770063Y-15637436D01*
X10770063Y-15637436D02*
X10760539Y-15618388D01*
X10760539Y-15618388D02*
X10760539Y-15561246D01*
X10760539Y-15561246D02*
X10770063Y-15542198D01*
X10770063Y-15542198D02*
X10779587Y-15532674D01*
X10779587Y-15532674D02*
X10798634Y-15523150D01*
X10798634Y-15523150D02*
X10827206Y-15523150D01*
X10827206Y-15523150D02*
X10846253Y-15532674D01*
X10846253Y-15532674D02*
X10855777Y-15542198D01*
X10855777Y-15542198D02*
X10865301Y-15561246D01*
X10865301Y-15561246D02*
X10865301Y-15618388D01*
X10865301Y-15618388D02*
X10855777Y-15637436D01*
X10855777Y-15637436D02*
X10846253Y-15646960D01*
X10846253Y-15646960D02*
X10827206Y-15656484D01*
X10827206Y-15656484D02*
X10798634Y-15656484D01*
X10979587Y-15656484D02*
X10960539Y-15646960D01*
X10960539Y-15646960D02*
X10951015Y-15627912D01*
X10951015Y-15627912D02*
X10951015Y-15456484D01*
X11131968Y-15646960D02*
X11112920Y-15656484D01*
X11112920Y-15656484D02*
X11074825Y-15656484D01*
X11074825Y-15656484D02*
X11055777Y-15646960D01*
X11055777Y-15646960D02*
X11046253Y-15627912D01*
X11046253Y-15627912D02*
X11046253Y-15551722D01*
X11046253Y-15551722D02*
X11055777Y-15532674D01*
X11055777Y-15532674D02*
X11074825Y-15523150D01*
X11074825Y-15523150D02*
X11112920Y-15523150D01*
X11112920Y-15523150D02*
X11131968Y-15532674D01*
X11131968Y-15532674D02*
X11141492Y-15551722D01*
X11141492Y-15551722D02*
X11141492Y-15570769D01*
X11141492Y-15570769D02*
X11046253Y-15589817D01*
X11217682Y-15646960D02*
X11236730Y-15656484D01*
X11236730Y-15656484D02*
X11274825Y-15656484D01*
X11274825Y-15656484D02*
X11293872Y-15646960D01*
X11293872Y-15646960D02*
X11303396Y-15627912D01*
X11303396Y-15627912D02*
X11303396Y-15618388D01*
X11303396Y-15618388D02*
X11293872Y-15599341D01*
X11293872Y-15599341D02*
X11274825Y-15589817D01*
X11274825Y-15589817D02*
X11246253Y-15589817D01*
X11246253Y-15589817D02*
X11227206Y-15580293D01*
X11227206Y-15580293D02*
X11217682Y-15561246D01*
X11217682Y-15561246D02*
X11217682Y-15551722D01*
X11217682Y-15551722D02*
X11227206Y-15532674D01*
X11227206Y-15532674D02*
X11246253Y-15523150D01*
X11246253Y-15523150D02*
X11274825Y-15523150D01*
X11274825Y-15523150D02*
X11293872Y-15532674D01*
X11370063Y-15732674D02*
X11379587Y-15723150D01*
X11379587Y-15723150D02*
X11398634Y-15694579D01*
X11398634Y-15694579D02*
X11408158Y-15675531D01*
X11408158Y-15675531D02*
X11417682Y-15646960D01*
X11417682Y-15646960D02*
X11427206Y-15599341D01*
X11427206Y-15599341D02*
X11427206Y-15561246D01*
X11427206Y-15561246D02*
X11417682Y-15513627D01*
X11417682Y-15513627D02*
X11408158Y-15485055D01*
X11408158Y-15485055D02*
X11398634Y-15466008D01*
X11398634Y-15466008D02*
X11379587Y-15437436D01*
X11379587Y-15437436D02*
X11370063Y-15427912D01*
M02*
