%TF.GenerationSoftware,KiCad,Pcbnew,8.0.2*%
%TF.CreationDate,2024-10-28T21:29:47-07:00*%
%TF.ProjectId,mini_weather_monitor,6d696e69-5f77-4656-9174-6865725f6d6f,rev?*%
%TF.SameCoordinates,Original*%
%TF.FileFunction,Drillmap*%
%TF.FilePolarity,Positive*%
%FSLAX45Y45*%
G04 Gerber Fmt 4.5, Leading zero omitted, Abs format (unit mm)*
G04 Created by KiCad (PCBNEW 8.0.2) date 2024-10-28 21:29:47*
%MOMM*%
%LPD*%
G01*
G04 APERTURE LIST*
%ADD10C,0.100000*%
%ADD11C,0.200000*%
%ADD12C,0.102000*%
G04 APERTURE END LIST*
D10*
X6600000Y-6400000D02*
X20100000Y-6400000D01*
X20100000Y-13600000D01*
X6600000Y-13600000D01*
X6600000Y-6400000D01*
D11*
D10*
X7870000Y-8860000D02*
X7910000Y-8900000D01*
X7910000Y-8860000D02*
X7870000Y-8900000D01*
X7910000Y-10855000D02*
X7950000Y-10895000D01*
X7950000Y-10855000D02*
X7910000Y-10895000D01*
X8887500Y-11685000D02*
X8927500Y-11725000D01*
X8927500Y-11685000D02*
X8887500Y-11725000D01*
X9147500Y-11670000D02*
X9187500Y-11710000D01*
X9187500Y-11670000D02*
X9147500Y-11710000D01*
X9900000Y-10980000D02*
X9940000Y-11020000D01*
X9940000Y-10980000D02*
X9900000Y-11020000D01*
X10110000Y-9080000D02*
X10150000Y-9120000D01*
X10150000Y-9080000D02*
X10110000Y-9120000D01*
X10160000Y-11602500D02*
X10200000Y-11642500D01*
X10200000Y-11602500D02*
X10160000Y-11642500D01*
X10410000Y-11845000D02*
X10450000Y-11885000D01*
X10450000Y-11845000D02*
X10410000Y-11885000D01*
X10660000Y-11457550D02*
X10700000Y-11497550D01*
X10700000Y-11457550D02*
X10660000Y-11497550D01*
X10720000Y-9310000D02*
X10760000Y-9350000D01*
X10760000Y-9310000D02*
X10720000Y-9350000D01*
X11300000Y-9820000D02*
X11340000Y-9860000D01*
X11340000Y-9820000D02*
X11300000Y-9860000D01*
X11300000Y-10090000D02*
X11340000Y-10130000D01*
X11340000Y-10090000D02*
X11300000Y-10130000D01*
X11570000Y-10292450D02*
X11610000Y-10332450D01*
X11610000Y-10292450D02*
X11570000Y-10332450D01*
X11770000Y-9590000D02*
X11810000Y-9630000D01*
X11810000Y-9590000D02*
X11770000Y-9630000D01*
X11875000Y-10890000D02*
X11915000Y-10930000D01*
X11915000Y-10890000D02*
X11875000Y-10930000D01*
X12240000Y-7617500D02*
X12280000Y-7657500D01*
X12280000Y-7617500D02*
X12240000Y-7657500D01*
X12460000Y-9415000D02*
X12500000Y-9455000D01*
X12500000Y-9415000D02*
X12460000Y-9455000D01*
X14455000Y-7617500D02*
X14495000Y-7657500D01*
X14495000Y-7617500D02*
X14455000Y-7657500D01*
X14577500Y-10117500D02*
X14617500Y-10157500D01*
X14617500Y-10117500D02*
X14577500Y-10157500D01*
X15030000Y-9830000D02*
X15070000Y-9870000D01*
X15070000Y-9830000D02*
X15030000Y-9870000D01*
X15315000Y-7867500D02*
X15355000Y-7907500D01*
X15355000Y-7867500D02*
X15315000Y-7907500D01*
X17207500Y-7665000D02*
X17247500Y-7705000D01*
X17247500Y-7665000D02*
X17207500Y-7705000D01*
X17220000Y-8370000D02*
X17260000Y-8410000D01*
X17260000Y-8370000D02*
X17220000Y-8410000D01*
X17220000Y-8982500D02*
X17260000Y-9022500D01*
X17260000Y-8982500D02*
X17220000Y-9022500D01*
X17280000Y-11445050D02*
X17320000Y-11485050D01*
X17320000Y-11445050D02*
X17280000Y-11485050D01*
X17452018Y-11630050D02*
X17492018Y-11670050D01*
X17492018Y-11630050D02*
X17452018Y-11670050D01*
X17497550Y-10126074D02*
X17537550Y-10166074D01*
X17537550Y-10126074D02*
X17497550Y-10166074D01*
X17522500Y-9627500D02*
X17562500Y-9667500D01*
X17562500Y-9627500D02*
X17522500Y-9667500D01*
X17565000Y-11742550D02*
X17605000Y-11782550D01*
X17605000Y-11742550D02*
X17565000Y-11782550D01*
X17610000Y-9850000D02*
X17650000Y-9890000D01*
X17650000Y-9850000D02*
X17610000Y-9890000D01*
X17737500Y-11772500D02*
X17777500Y-11812500D01*
X17777500Y-11772500D02*
X17737500Y-11812500D01*
X18090000Y-11090000D02*
X18130000Y-11130000D01*
X18130000Y-11090000D02*
X18090000Y-11130000D01*
X18100000Y-9430000D02*
X18140000Y-9470000D01*
X18140000Y-9430000D02*
X18100000Y-9470000D01*
X18220000Y-11650000D02*
X18260000Y-11690000D01*
X18260000Y-11650000D02*
X18220000Y-11690000D01*
X18239902Y-9919902D02*
X18279902Y-9959902D01*
X18279902Y-9919902D02*
X18239902Y-9959902D01*
X18310000Y-10960000D02*
X18350000Y-11000000D01*
X18350000Y-10960000D02*
X18310000Y-11000000D01*
X18530000Y-9030000D02*
X18570000Y-9070000D01*
X18570000Y-9030000D02*
X18530000Y-9070000D01*
X18580000Y-10970000D02*
X18620000Y-11010000D01*
X18620000Y-10970000D02*
X18580000Y-11010000D01*
X18820000Y-11650000D02*
X18860000Y-11690000D01*
X18860000Y-11650000D02*
X18820000Y-11690000D01*
X19030000Y-8280000D02*
X19070000Y-8320000D01*
X19070000Y-8280000D02*
X19030000Y-8320000D01*
X19187500Y-7880000D02*
X19227500Y-7920000D01*
X19227500Y-7880000D02*
X19187500Y-7920000D01*
X14369100Y-10795000D02*
G75*
G02*
X14292900Y-10795000I-38100J0D01*
G01*
X14292900Y-10795000D02*
G75*
G02*
X14369100Y-10795000I38100J0D01*
G01*
X14623100Y-9195000D02*
G75*
G02*
X14546900Y-9195000I-38100J0D01*
G01*
X14546900Y-9195000D02*
G75*
G02*
X14623100Y-9195000I38100J0D01*
G01*
X14623100Y-10795000D02*
G75*
G02*
X14546900Y-10795000I-38100J0D01*
G01*
X14546900Y-10795000D02*
G75*
G02*
X14623100Y-10795000I38100J0D01*
G01*
X15423100Y-9195000D02*
G75*
G02*
X15346900Y-9195000I-38100J0D01*
G01*
X15346900Y-9195000D02*
G75*
G02*
X15423100Y-9195000I38100J0D01*
G01*
X15423100Y-10795000D02*
G75*
G02*
X15346900Y-10795000I-38100J0D01*
G01*
X15346900Y-10795000D02*
G75*
G02*
X15423100Y-10795000I38100J0D01*
G01*
X16173100Y-10127000D02*
G75*
G02*
X16096900Y-10127000I-38100J0D01*
G01*
X16096900Y-10127000D02*
G75*
G02*
X16173100Y-10127000I38100J0D01*
G01*
X16174100Y-9873000D02*
G75*
G02*
X16097900Y-9873000I-38100J0D01*
G01*
X16097900Y-9873000D02*
G75*
G02*
X16174100Y-9873000I38100J0D01*
G01*
X18372100Y-8607500D02*
G75*
G02*
X18295900Y-8607500I-38100J0D01*
G01*
X18295900Y-8607500D02*
G75*
G02*
X18372100Y-8607500I38100J0D01*
G01*
X18507800Y-9355400D02*
G75*
G02*
X18431600Y-9355400I-38100J0D01*
G01*
X18431600Y-9355400D02*
G75*
G02*
X18507800Y-9355400I38100J0D01*
G01*
X18507800Y-9609400D02*
G75*
G02*
X18431600Y-9609400I-38100J0D01*
G01*
X18431600Y-9609400D02*
G75*
G02*
X18507800Y-9609400I38100J0D01*
G01*
X18507800Y-9863400D02*
G75*
G02*
X18431600Y-9863400I-38100J0D01*
G01*
X18431600Y-9863400D02*
G75*
G02*
X18507800Y-9863400I38100J0D01*
G01*
X18507800Y-10117400D02*
G75*
G02*
X18431600Y-10117400I-38100J0D01*
G01*
X18431600Y-10117400D02*
G75*
G02*
X18507800Y-10117400I38100J0D01*
G01*
X18507800Y-10371400D02*
G75*
G02*
X18431600Y-10371400I-38100J0D01*
G01*
X18431600Y-10371400D02*
G75*
G02*
X18507800Y-10371400I38100J0D01*
G01*
X18507800Y-10625400D02*
G75*
G02*
X18431600Y-10625400I-38100J0D01*
G01*
X18431600Y-10625400D02*
G75*
G02*
X18507800Y-10625400I38100J0D01*
G01*
X18626100Y-8607500D02*
G75*
G02*
X18549900Y-8607500I-38100J0D01*
G01*
X18549900Y-8607500D02*
G75*
G02*
X18626100Y-8607500I38100J0D01*
G01*
X18880100Y-8607500D02*
G75*
G02*
X18803900Y-8607500I-38100J0D01*
G01*
X18803900Y-8607500D02*
G75*
G02*
X18880100Y-8607500I38100J0D01*
G01*
X19134100Y-8607500D02*
G75*
G02*
X19057900Y-8607500I-38100J0D01*
G01*
X19057900Y-8607500D02*
G75*
G02*
X19134100Y-8607500I38100J0D01*
G01*
X19388100Y-8607500D02*
G75*
G02*
X19311900Y-8607500I-38100J0D01*
G01*
X19311900Y-8607500D02*
G75*
G02*
X19388100Y-8607500I38100J0D01*
G01*
X7390000Y-8289000D02*
X7390000Y-8369000D01*
X7350000Y-8329000D02*
X7430000Y-8329000D01*
X7390000Y-8543000D02*
X7390000Y-8623000D01*
X7350000Y-8583000D02*
X7430000Y-8583000D01*
X7390000Y-8797000D02*
X7390000Y-8877000D01*
X7350000Y-8837000D02*
X7430000Y-8837000D01*
X7390000Y-9051000D02*
X7390000Y-9131000D01*
X7350000Y-9091000D02*
X7430000Y-9091000D01*
X7390000Y-9305000D02*
X7390000Y-9385000D01*
X7350000Y-9345000D02*
X7430000Y-9345000D01*
X7390000Y-9559000D02*
X7390000Y-9639000D01*
X7350000Y-9599000D02*
X7430000Y-9599000D01*
X7390000Y-9813000D02*
X7390000Y-9893000D01*
X7350000Y-9853000D02*
X7430000Y-9853000D01*
X7390000Y-10067000D02*
X7390000Y-10147000D01*
X7350000Y-10107000D02*
X7430000Y-10107000D01*
X7390000Y-10321000D02*
X7390000Y-10401000D01*
X7350000Y-10361000D02*
X7430000Y-10361000D01*
X7390000Y-10575000D02*
X7390000Y-10655000D01*
X7350000Y-10615000D02*
X7430000Y-10615000D01*
X7390000Y-10829000D02*
X7390000Y-10909000D01*
X7350000Y-10869000D02*
X7430000Y-10869000D01*
X7390000Y-11083000D02*
X7390000Y-11163000D01*
X7350000Y-11123000D02*
X7430000Y-11123000D01*
X7390000Y-11337000D02*
X7390000Y-11417000D01*
X7350000Y-11377000D02*
X7430000Y-11377000D01*
X7390000Y-11591000D02*
X7390000Y-11671000D01*
X7350000Y-11631000D02*
X7430000Y-11631000D01*
X17794000Y-9559000D02*
X17794000Y-9639000D01*
X17754000Y-9599000D02*
X17834000Y-9599000D01*
X17794000Y-9813000D02*
X17794000Y-9893000D01*
X17754000Y-9853000D02*
X17834000Y-9853000D01*
X17794000Y-10067000D02*
X17794000Y-10147000D01*
X17754000Y-10107000D02*
X17834000Y-10107000D01*
X17794000Y-10321000D02*
X17794000Y-10401000D01*
X17754000Y-10361000D02*
X17834000Y-10361000D01*
D12*
X8911563Y-8746063D02*
X8911563Y-8673937D01*
X8839437Y-8673937D01*
X8839437Y-8746063D01*
X8911563Y-8746063D01*
X8911563Y-11286063D02*
X8911563Y-11213937D01*
X8839437Y-11213937D01*
X8839437Y-11286063D01*
X8911563Y-11286063D01*
X9165563Y-8746063D02*
X9165563Y-8673937D01*
X9093437Y-8673937D01*
X9093437Y-8746063D01*
X9165563Y-8746063D01*
X9165563Y-11286063D02*
X9165563Y-11213937D01*
X9093437Y-11213937D01*
X9093437Y-11286063D01*
X9165563Y-11286063D01*
X9419563Y-8746063D02*
X9419563Y-8673937D01*
X9347437Y-8673937D01*
X9347437Y-8746063D01*
X9419563Y-8746063D01*
X9419563Y-11286063D02*
X9419563Y-11213937D01*
X9347437Y-11213937D01*
X9347437Y-11286063D01*
X9419563Y-11286063D01*
X9673563Y-8746063D02*
X9673563Y-8673937D01*
X9601437Y-8673937D01*
X9601437Y-8746063D01*
X9673563Y-8746063D01*
X9673563Y-11286063D02*
X9673563Y-11213937D01*
X9601437Y-11213937D01*
X9601437Y-11286063D01*
X9673563Y-11286063D01*
X9927563Y-8746063D02*
X9927563Y-8673937D01*
X9855437Y-8673937D01*
X9855437Y-8746063D01*
X9927563Y-8746063D01*
X9927563Y-11286063D02*
X9927563Y-11213937D01*
X9855437Y-11213937D01*
X9855437Y-11286063D01*
X9927563Y-11286063D01*
X10181563Y-8746063D02*
X10181563Y-8673937D01*
X10109437Y-8673937D01*
X10109437Y-8746063D01*
X10181563Y-8746063D01*
X10181563Y-11286063D02*
X10181563Y-11213937D01*
X10109437Y-11213937D01*
X10109437Y-11286063D01*
X10181563Y-11286063D01*
X10435563Y-8746063D02*
X10435563Y-8673937D01*
X10363437Y-8673937D01*
X10363437Y-8746063D01*
X10435563Y-8746063D01*
X10435563Y-11286063D02*
X10435563Y-11213937D01*
X10363437Y-11213937D01*
X10363437Y-11286063D01*
X10435563Y-11286063D01*
X10689563Y-8746063D02*
X10689563Y-8673937D01*
X10617437Y-8673937D01*
X10617437Y-8746063D01*
X10689563Y-8746063D01*
X10689563Y-11286063D02*
X10689563Y-11213937D01*
X10617437Y-11213937D01*
X10617437Y-11286063D01*
X10689563Y-11286063D01*
X10943563Y-8746063D02*
X10943563Y-8673937D01*
X10871437Y-8673937D01*
X10871437Y-8746063D01*
X10943563Y-8746063D01*
X10943563Y-11286063D02*
X10943563Y-11213937D01*
X10871437Y-11213937D01*
X10871437Y-11286063D01*
X10943563Y-11286063D01*
X11197563Y-8746063D02*
X11197563Y-8673937D01*
X11125437Y-8673937D01*
X11125437Y-8746063D01*
X11197563Y-8746063D01*
X11197563Y-11286063D02*
X11197563Y-11213937D01*
X11125437Y-11213937D01*
X11125437Y-11286063D01*
X11197563Y-11286063D01*
X11451563Y-8746063D02*
X11451563Y-8673937D01*
X11379437Y-8673937D01*
X11379437Y-8746063D01*
X11451563Y-8746063D01*
X11451563Y-11286063D02*
X11451563Y-11213937D01*
X11379437Y-11213937D01*
X11379437Y-11286063D01*
X11451563Y-11286063D01*
X11705563Y-8746063D02*
X11705563Y-8673937D01*
X11633437Y-8673937D01*
X11633437Y-8746063D01*
X11705563Y-8746063D01*
X11705563Y-11286063D02*
X11705563Y-11213937D01*
X11633437Y-11213937D01*
X11633437Y-11286063D01*
X11705563Y-11286063D01*
X11959563Y-8746063D02*
X11959563Y-8673937D01*
X11887437Y-8673937D01*
X11887437Y-8746063D01*
X11959563Y-8746063D01*
X11959563Y-11286063D02*
X11959563Y-11213937D01*
X11887437Y-11213937D01*
X11887437Y-11286063D01*
X11959563Y-11286063D01*
X12213563Y-8746063D02*
X12213563Y-8673937D01*
X12141437Y-8673937D01*
X12141437Y-8746063D01*
X12213563Y-8746063D01*
X12213563Y-11286063D02*
X12213563Y-11213937D01*
X12141437Y-11213937D01*
X12141437Y-11286063D01*
X12213563Y-11286063D01*
X12467563Y-8746063D02*
X12467563Y-8673937D01*
X12395437Y-8673937D01*
X12395437Y-8746063D01*
X12467563Y-8746063D01*
X12467563Y-11286063D02*
X12467563Y-11213937D01*
X12395437Y-11213937D01*
X12395437Y-11286063D01*
X12467563Y-11286063D01*
D11*
X6855777Y-13916484D02*
X6855777Y-13716484D01*
X6855777Y-13716484D02*
X6903396Y-13716484D01*
X6903396Y-13716484D02*
X6931967Y-13726008D01*
X6931967Y-13726008D02*
X6951015Y-13745055D01*
X6951015Y-13745055D02*
X6960539Y-13764103D01*
X6960539Y-13764103D02*
X6970062Y-13802198D01*
X6970062Y-13802198D02*
X6970062Y-13830769D01*
X6970062Y-13830769D02*
X6960539Y-13868865D01*
X6960539Y-13868865D02*
X6951015Y-13887912D01*
X6951015Y-13887912D02*
X6931967Y-13906960D01*
X6931967Y-13906960D02*
X6903396Y-13916484D01*
X6903396Y-13916484D02*
X6855777Y-13916484D01*
X7055777Y-13916484D02*
X7055777Y-13783150D01*
X7055777Y-13821246D02*
X7065301Y-13802198D01*
X7065301Y-13802198D02*
X7074824Y-13792674D01*
X7074824Y-13792674D02*
X7093872Y-13783150D01*
X7093872Y-13783150D02*
X7112920Y-13783150D01*
X7179586Y-13916484D02*
X7179586Y-13783150D01*
X7179586Y-13716484D02*
X7170062Y-13726008D01*
X7170062Y-13726008D02*
X7179586Y-13735531D01*
X7179586Y-13735531D02*
X7189110Y-13726008D01*
X7189110Y-13726008D02*
X7179586Y-13716484D01*
X7179586Y-13716484D02*
X7179586Y-13735531D01*
X7303396Y-13916484D02*
X7284348Y-13906960D01*
X7284348Y-13906960D02*
X7274824Y-13887912D01*
X7274824Y-13887912D02*
X7274824Y-13716484D01*
X7408158Y-13916484D02*
X7389110Y-13906960D01*
X7389110Y-13906960D02*
X7379586Y-13887912D01*
X7379586Y-13887912D02*
X7379586Y-13716484D01*
X7636729Y-13916484D02*
X7636729Y-13716484D01*
X7636729Y-13716484D02*
X7703396Y-13859341D01*
X7703396Y-13859341D02*
X7770062Y-13716484D01*
X7770062Y-13716484D02*
X7770062Y-13916484D01*
X7951015Y-13916484D02*
X7951015Y-13811722D01*
X7951015Y-13811722D02*
X7941491Y-13792674D01*
X7941491Y-13792674D02*
X7922443Y-13783150D01*
X7922443Y-13783150D02*
X7884348Y-13783150D01*
X7884348Y-13783150D02*
X7865301Y-13792674D01*
X7951015Y-13906960D02*
X7931967Y-13916484D01*
X7931967Y-13916484D02*
X7884348Y-13916484D01*
X7884348Y-13916484D02*
X7865301Y-13906960D01*
X7865301Y-13906960D02*
X7855777Y-13887912D01*
X7855777Y-13887912D02*
X7855777Y-13868865D01*
X7855777Y-13868865D02*
X7865301Y-13849817D01*
X7865301Y-13849817D02*
X7884348Y-13840293D01*
X7884348Y-13840293D02*
X7931967Y-13840293D01*
X7931967Y-13840293D02*
X7951015Y-13830769D01*
X8046253Y-13783150D02*
X8046253Y-13983150D01*
X8046253Y-13792674D02*
X8065301Y-13783150D01*
X8065301Y-13783150D02*
X8103396Y-13783150D01*
X8103396Y-13783150D02*
X8122443Y-13792674D01*
X8122443Y-13792674D02*
X8131967Y-13802198D01*
X8131967Y-13802198D02*
X8141491Y-13821246D01*
X8141491Y-13821246D02*
X8141491Y-13878388D01*
X8141491Y-13878388D02*
X8131967Y-13897436D01*
X8131967Y-13897436D02*
X8122443Y-13906960D01*
X8122443Y-13906960D02*
X8103396Y-13916484D01*
X8103396Y-13916484D02*
X8065301Y-13916484D01*
X8065301Y-13916484D02*
X8046253Y-13906960D01*
X8227205Y-13897436D02*
X8236729Y-13906960D01*
X8236729Y-13906960D02*
X8227205Y-13916484D01*
X8227205Y-13916484D02*
X8217682Y-13906960D01*
X8217682Y-13906960D02*
X8227205Y-13897436D01*
X8227205Y-13897436D02*
X8227205Y-13916484D01*
X8227205Y-13792674D02*
X8236729Y-13802198D01*
X8236729Y-13802198D02*
X8227205Y-13811722D01*
X8227205Y-13811722D02*
X8217682Y-13802198D01*
X8217682Y-13802198D02*
X8227205Y-13792674D01*
X8227205Y-13792674D02*
X8227205Y-13811722D01*
D10*
X6555000Y-14225000D02*
X6595000Y-14265000D01*
X6595000Y-14225000D02*
X6555000Y-14265000D01*
D11*
X6893872Y-14136484D02*
X6912920Y-14136484D01*
X6912920Y-14136484D02*
X6931967Y-14146008D01*
X6931967Y-14146008D02*
X6941491Y-14155531D01*
X6941491Y-14155531D02*
X6951015Y-14174579D01*
X6951015Y-14174579D02*
X6960539Y-14212674D01*
X6960539Y-14212674D02*
X6960539Y-14260293D01*
X6960539Y-14260293D02*
X6951015Y-14298388D01*
X6951015Y-14298388D02*
X6941491Y-14317436D01*
X6941491Y-14317436D02*
X6931967Y-14326960D01*
X6931967Y-14326960D02*
X6912920Y-14336484D01*
X6912920Y-14336484D02*
X6893872Y-14336484D01*
X6893872Y-14336484D02*
X6874824Y-14326960D01*
X6874824Y-14326960D02*
X6865301Y-14317436D01*
X6865301Y-14317436D02*
X6855777Y-14298388D01*
X6855777Y-14298388D02*
X6846253Y-14260293D01*
X6846253Y-14260293D02*
X6846253Y-14212674D01*
X6846253Y-14212674D02*
X6855777Y-14174579D01*
X6855777Y-14174579D02*
X6865301Y-14155531D01*
X6865301Y-14155531D02*
X6874824Y-14146008D01*
X6874824Y-14146008D02*
X6893872Y-14136484D01*
X7046253Y-14317436D02*
X7055777Y-14326960D01*
X7055777Y-14326960D02*
X7046253Y-14336484D01*
X7046253Y-14336484D02*
X7036729Y-14326960D01*
X7036729Y-14326960D02*
X7046253Y-14317436D01*
X7046253Y-14317436D02*
X7046253Y-14336484D01*
X7227205Y-14203150D02*
X7227205Y-14336484D01*
X7179586Y-14126960D02*
X7131967Y-14269817D01*
X7131967Y-14269817D02*
X7255777Y-14269817D01*
X7370062Y-14136484D02*
X7389110Y-14136484D01*
X7389110Y-14136484D02*
X7408158Y-14146008D01*
X7408158Y-14146008D02*
X7417682Y-14155531D01*
X7417682Y-14155531D02*
X7427205Y-14174579D01*
X7427205Y-14174579D02*
X7436729Y-14212674D01*
X7436729Y-14212674D02*
X7436729Y-14260293D01*
X7436729Y-14260293D02*
X7427205Y-14298388D01*
X7427205Y-14298388D02*
X7417682Y-14317436D01*
X7417682Y-14317436D02*
X7408158Y-14326960D01*
X7408158Y-14326960D02*
X7389110Y-14336484D01*
X7389110Y-14336484D02*
X7370062Y-14336484D01*
X7370062Y-14336484D02*
X7351015Y-14326960D01*
X7351015Y-14326960D02*
X7341491Y-14317436D01*
X7341491Y-14317436D02*
X7331967Y-14298388D01*
X7331967Y-14298388D02*
X7322443Y-14260293D01*
X7322443Y-14260293D02*
X7322443Y-14212674D01*
X7322443Y-14212674D02*
X7331967Y-14174579D01*
X7331967Y-14174579D02*
X7341491Y-14155531D01*
X7341491Y-14155531D02*
X7351015Y-14146008D01*
X7351015Y-14146008D02*
X7370062Y-14136484D01*
X7560539Y-14136484D02*
X7579586Y-14136484D01*
X7579586Y-14136484D02*
X7598634Y-14146008D01*
X7598634Y-14146008D02*
X7608158Y-14155531D01*
X7608158Y-14155531D02*
X7617682Y-14174579D01*
X7617682Y-14174579D02*
X7627205Y-14212674D01*
X7627205Y-14212674D02*
X7627205Y-14260293D01*
X7627205Y-14260293D02*
X7617682Y-14298388D01*
X7617682Y-14298388D02*
X7608158Y-14317436D01*
X7608158Y-14317436D02*
X7598634Y-14326960D01*
X7598634Y-14326960D02*
X7579586Y-14336484D01*
X7579586Y-14336484D02*
X7560539Y-14336484D01*
X7560539Y-14336484D02*
X7541491Y-14326960D01*
X7541491Y-14326960D02*
X7531967Y-14317436D01*
X7531967Y-14317436D02*
X7522443Y-14298388D01*
X7522443Y-14298388D02*
X7512920Y-14260293D01*
X7512920Y-14260293D02*
X7512920Y-14212674D01*
X7512920Y-14212674D02*
X7522443Y-14174579D01*
X7522443Y-14174579D02*
X7531967Y-14155531D01*
X7531967Y-14155531D02*
X7541491Y-14146008D01*
X7541491Y-14146008D02*
X7560539Y-14136484D01*
X7712920Y-14336484D02*
X7712920Y-14203150D01*
X7712920Y-14222198D02*
X7722443Y-14212674D01*
X7722443Y-14212674D02*
X7741491Y-14203150D01*
X7741491Y-14203150D02*
X7770063Y-14203150D01*
X7770063Y-14203150D02*
X7789110Y-14212674D01*
X7789110Y-14212674D02*
X7798634Y-14231722D01*
X7798634Y-14231722D02*
X7798634Y-14336484D01*
X7798634Y-14231722D02*
X7808158Y-14212674D01*
X7808158Y-14212674D02*
X7827205Y-14203150D01*
X7827205Y-14203150D02*
X7855777Y-14203150D01*
X7855777Y-14203150D02*
X7874824Y-14212674D01*
X7874824Y-14212674D02*
X7884348Y-14231722D01*
X7884348Y-14231722D02*
X7884348Y-14336484D01*
X7979586Y-14336484D02*
X7979586Y-14203150D01*
X7979586Y-14222198D02*
X7989110Y-14212674D01*
X7989110Y-14212674D02*
X8008158Y-14203150D01*
X8008158Y-14203150D02*
X8036729Y-14203150D01*
X8036729Y-14203150D02*
X8055777Y-14212674D01*
X8055777Y-14212674D02*
X8065301Y-14231722D01*
X8065301Y-14231722D02*
X8065301Y-14336484D01*
X8065301Y-14231722D02*
X8074824Y-14212674D01*
X8074824Y-14212674D02*
X8093872Y-14203150D01*
X8093872Y-14203150D02*
X8122443Y-14203150D01*
X8122443Y-14203150D02*
X8141491Y-14212674D01*
X8141491Y-14212674D02*
X8151015Y-14231722D01*
X8151015Y-14231722D02*
X8151015Y-14336484D01*
X8541491Y-14126960D02*
X8370063Y-14384103D01*
X8798634Y-14136484D02*
X8817682Y-14136484D01*
X8817682Y-14136484D02*
X8836729Y-14146008D01*
X8836729Y-14146008D02*
X8846253Y-14155531D01*
X8846253Y-14155531D02*
X8855777Y-14174579D01*
X8855777Y-14174579D02*
X8865301Y-14212674D01*
X8865301Y-14212674D02*
X8865301Y-14260293D01*
X8865301Y-14260293D02*
X8855777Y-14298388D01*
X8855777Y-14298388D02*
X8846253Y-14317436D01*
X8846253Y-14317436D02*
X8836729Y-14326960D01*
X8836729Y-14326960D02*
X8817682Y-14336484D01*
X8817682Y-14336484D02*
X8798634Y-14336484D01*
X8798634Y-14336484D02*
X8779587Y-14326960D01*
X8779587Y-14326960D02*
X8770063Y-14317436D01*
X8770063Y-14317436D02*
X8760539Y-14298388D01*
X8760539Y-14298388D02*
X8751015Y-14260293D01*
X8751015Y-14260293D02*
X8751015Y-14212674D01*
X8751015Y-14212674D02*
X8760539Y-14174579D01*
X8760539Y-14174579D02*
X8770063Y-14155531D01*
X8770063Y-14155531D02*
X8779587Y-14146008D01*
X8779587Y-14146008D02*
X8798634Y-14136484D01*
X8951015Y-14317436D02*
X8960539Y-14326960D01*
X8960539Y-14326960D02*
X8951015Y-14336484D01*
X8951015Y-14336484D02*
X8941491Y-14326960D01*
X8941491Y-14326960D02*
X8951015Y-14317436D01*
X8951015Y-14317436D02*
X8951015Y-14336484D01*
X9084348Y-14136484D02*
X9103396Y-14136484D01*
X9103396Y-14136484D02*
X9122444Y-14146008D01*
X9122444Y-14146008D02*
X9131968Y-14155531D01*
X9131968Y-14155531D02*
X9141491Y-14174579D01*
X9141491Y-14174579D02*
X9151015Y-14212674D01*
X9151015Y-14212674D02*
X9151015Y-14260293D01*
X9151015Y-14260293D02*
X9141491Y-14298388D01*
X9141491Y-14298388D02*
X9131968Y-14317436D01*
X9131968Y-14317436D02*
X9122444Y-14326960D01*
X9122444Y-14326960D02*
X9103396Y-14336484D01*
X9103396Y-14336484D02*
X9084348Y-14336484D01*
X9084348Y-14336484D02*
X9065301Y-14326960D01*
X9065301Y-14326960D02*
X9055777Y-14317436D01*
X9055777Y-14317436D02*
X9046253Y-14298388D01*
X9046253Y-14298388D02*
X9036729Y-14260293D01*
X9036729Y-14260293D02*
X9036729Y-14212674D01*
X9036729Y-14212674D02*
X9046253Y-14174579D01*
X9046253Y-14174579D02*
X9055777Y-14155531D01*
X9055777Y-14155531D02*
X9065301Y-14146008D01*
X9065301Y-14146008D02*
X9084348Y-14136484D01*
X9341491Y-14336484D02*
X9227206Y-14336484D01*
X9284348Y-14336484D02*
X9284348Y-14136484D01*
X9284348Y-14136484D02*
X9265301Y-14165055D01*
X9265301Y-14165055D02*
X9246253Y-14184103D01*
X9246253Y-14184103D02*
X9227206Y-14193627D01*
X9522444Y-14136484D02*
X9427206Y-14136484D01*
X9427206Y-14136484D02*
X9417682Y-14231722D01*
X9417682Y-14231722D02*
X9427206Y-14222198D01*
X9427206Y-14222198D02*
X9446253Y-14212674D01*
X9446253Y-14212674D02*
X9493872Y-14212674D01*
X9493872Y-14212674D02*
X9512920Y-14222198D01*
X9512920Y-14222198D02*
X9522444Y-14231722D01*
X9522444Y-14231722D02*
X9531968Y-14250769D01*
X9531968Y-14250769D02*
X9531968Y-14298388D01*
X9531968Y-14298388D02*
X9522444Y-14317436D01*
X9522444Y-14317436D02*
X9512920Y-14326960D01*
X9512920Y-14326960D02*
X9493872Y-14336484D01*
X9493872Y-14336484D02*
X9446253Y-14336484D01*
X9446253Y-14336484D02*
X9427206Y-14326960D01*
X9427206Y-14326960D02*
X9417682Y-14317436D01*
X9598634Y-14136484D02*
X9731968Y-14136484D01*
X9731968Y-14136484D02*
X9646253Y-14336484D01*
X9798634Y-14136484D02*
X9798634Y-14174579D01*
X9874825Y-14136484D02*
X9874825Y-14174579D01*
X10170063Y-14412674D02*
X10160539Y-14403150D01*
X10160539Y-14403150D02*
X10141491Y-14374579D01*
X10141491Y-14374579D02*
X10131968Y-14355531D01*
X10131968Y-14355531D02*
X10122444Y-14326960D01*
X10122444Y-14326960D02*
X10112920Y-14279341D01*
X10112920Y-14279341D02*
X10112920Y-14241246D01*
X10112920Y-14241246D02*
X10122444Y-14193627D01*
X10122444Y-14193627D02*
X10131968Y-14165055D01*
X10131968Y-14165055D02*
X10141491Y-14146008D01*
X10141491Y-14146008D02*
X10160539Y-14117436D01*
X10160539Y-14117436D02*
X10170063Y-14107912D01*
X10331968Y-14203150D02*
X10331968Y-14336484D01*
X10284349Y-14126960D02*
X10236730Y-14269817D01*
X10236730Y-14269817D02*
X10360539Y-14269817D01*
X10541491Y-14336484D02*
X10427206Y-14336484D01*
X10484349Y-14336484D02*
X10484349Y-14136484D01*
X10484349Y-14136484D02*
X10465301Y-14165055D01*
X10465301Y-14165055D02*
X10446253Y-14184103D01*
X10446253Y-14184103D02*
X10427206Y-14193627D01*
X10779587Y-14336484D02*
X10779587Y-14136484D01*
X10865301Y-14336484D02*
X10865301Y-14231722D01*
X10865301Y-14231722D02*
X10855777Y-14212674D01*
X10855777Y-14212674D02*
X10836730Y-14203150D01*
X10836730Y-14203150D02*
X10808158Y-14203150D01*
X10808158Y-14203150D02*
X10789111Y-14212674D01*
X10789111Y-14212674D02*
X10779587Y-14222198D01*
X10989111Y-14336484D02*
X10970063Y-14326960D01*
X10970063Y-14326960D02*
X10960539Y-14317436D01*
X10960539Y-14317436D02*
X10951015Y-14298388D01*
X10951015Y-14298388D02*
X10951015Y-14241246D01*
X10951015Y-14241246D02*
X10960539Y-14222198D01*
X10960539Y-14222198D02*
X10970063Y-14212674D01*
X10970063Y-14212674D02*
X10989111Y-14203150D01*
X10989111Y-14203150D02*
X11017682Y-14203150D01*
X11017682Y-14203150D02*
X11036730Y-14212674D01*
X11036730Y-14212674D02*
X11046253Y-14222198D01*
X11046253Y-14222198D02*
X11055777Y-14241246D01*
X11055777Y-14241246D02*
X11055777Y-14298388D01*
X11055777Y-14298388D02*
X11046253Y-14317436D01*
X11046253Y-14317436D02*
X11036730Y-14326960D01*
X11036730Y-14326960D02*
X11017682Y-14336484D01*
X11017682Y-14336484D02*
X10989111Y-14336484D01*
X11170063Y-14336484D02*
X11151015Y-14326960D01*
X11151015Y-14326960D02*
X11141492Y-14307912D01*
X11141492Y-14307912D02*
X11141492Y-14136484D01*
X11322444Y-14326960D02*
X11303396Y-14336484D01*
X11303396Y-14336484D02*
X11265301Y-14336484D01*
X11265301Y-14336484D02*
X11246253Y-14326960D01*
X11246253Y-14326960D02*
X11236730Y-14307912D01*
X11236730Y-14307912D02*
X11236730Y-14231722D01*
X11236730Y-14231722D02*
X11246253Y-14212674D01*
X11246253Y-14212674D02*
X11265301Y-14203150D01*
X11265301Y-14203150D02*
X11303396Y-14203150D01*
X11303396Y-14203150D02*
X11322444Y-14212674D01*
X11322444Y-14212674D02*
X11331968Y-14231722D01*
X11331968Y-14231722D02*
X11331968Y-14250769D01*
X11331968Y-14250769D02*
X11236730Y-14269817D01*
X11408158Y-14326960D02*
X11427206Y-14336484D01*
X11427206Y-14336484D02*
X11465301Y-14336484D01*
X11465301Y-14336484D02*
X11484349Y-14326960D01*
X11484349Y-14326960D02*
X11493872Y-14307912D01*
X11493872Y-14307912D02*
X11493872Y-14298388D01*
X11493872Y-14298388D02*
X11484349Y-14279341D01*
X11484349Y-14279341D02*
X11465301Y-14269817D01*
X11465301Y-14269817D02*
X11436730Y-14269817D01*
X11436730Y-14269817D02*
X11417682Y-14260293D01*
X11417682Y-14260293D02*
X11408158Y-14241246D01*
X11408158Y-14241246D02*
X11408158Y-14231722D01*
X11408158Y-14231722D02*
X11417682Y-14212674D01*
X11417682Y-14212674D02*
X11436730Y-14203150D01*
X11436730Y-14203150D02*
X11465301Y-14203150D01*
X11465301Y-14203150D02*
X11484349Y-14212674D01*
X11560539Y-14412674D02*
X11570063Y-14403150D01*
X11570063Y-14403150D02*
X11589111Y-14374579D01*
X11589111Y-14374579D02*
X11598634Y-14355531D01*
X11598634Y-14355531D02*
X11608158Y-14326960D01*
X11608158Y-14326960D02*
X11617682Y-14279341D01*
X11617682Y-14279341D02*
X11617682Y-14241246D01*
X11617682Y-14241246D02*
X11608158Y-14193627D01*
X11608158Y-14193627D02*
X11598634Y-14165055D01*
X11598634Y-14165055D02*
X11589111Y-14146008D01*
X11589111Y-14146008D02*
X11570063Y-14117436D01*
X11570063Y-14117436D02*
X11560539Y-14107912D01*
D10*
X6595000Y-14509000D02*
G75*
G02*
X6518800Y-14509000I-38100J0D01*
G01*
X6518800Y-14509000D02*
G75*
G02*
X6595000Y-14509000I38100J0D01*
G01*
D11*
X6893872Y-14400484D02*
X6912920Y-14400484D01*
X6912920Y-14400484D02*
X6931967Y-14410008D01*
X6931967Y-14410008D02*
X6941491Y-14419531D01*
X6941491Y-14419531D02*
X6951015Y-14438579D01*
X6951015Y-14438579D02*
X6960539Y-14476674D01*
X6960539Y-14476674D02*
X6960539Y-14524293D01*
X6960539Y-14524293D02*
X6951015Y-14562388D01*
X6951015Y-14562388D02*
X6941491Y-14581436D01*
X6941491Y-14581436D02*
X6931967Y-14590960D01*
X6931967Y-14590960D02*
X6912920Y-14600484D01*
X6912920Y-14600484D02*
X6893872Y-14600484D01*
X6893872Y-14600484D02*
X6874824Y-14590960D01*
X6874824Y-14590960D02*
X6865301Y-14581436D01*
X6865301Y-14581436D02*
X6855777Y-14562388D01*
X6855777Y-14562388D02*
X6846253Y-14524293D01*
X6846253Y-14524293D02*
X6846253Y-14476674D01*
X6846253Y-14476674D02*
X6855777Y-14438579D01*
X6855777Y-14438579D02*
X6865301Y-14419531D01*
X6865301Y-14419531D02*
X6874824Y-14410008D01*
X6874824Y-14410008D02*
X6893872Y-14400484D01*
X7046253Y-14581436D02*
X7055777Y-14590960D01*
X7055777Y-14590960D02*
X7046253Y-14600484D01*
X7046253Y-14600484D02*
X7036729Y-14590960D01*
X7036729Y-14590960D02*
X7046253Y-14581436D01*
X7046253Y-14581436D02*
X7046253Y-14600484D01*
X7122443Y-14400484D02*
X7255777Y-14400484D01*
X7255777Y-14400484D02*
X7170062Y-14600484D01*
X7417682Y-14400484D02*
X7379586Y-14400484D01*
X7379586Y-14400484D02*
X7360539Y-14410008D01*
X7360539Y-14410008D02*
X7351015Y-14419531D01*
X7351015Y-14419531D02*
X7331967Y-14448103D01*
X7331967Y-14448103D02*
X7322443Y-14486198D01*
X7322443Y-14486198D02*
X7322443Y-14562388D01*
X7322443Y-14562388D02*
X7331967Y-14581436D01*
X7331967Y-14581436D02*
X7341491Y-14590960D01*
X7341491Y-14590960D02*
X7360539Y-14600484D01*
X7360539Y-14600484D02*
X7398634Y-14600484D01*
X7398634Y-14600484D02*
X7417682Y-14590960D01*
X7417682Y-14590960D02*
X7427205Y-14581436D01*
X7427205Y-14581436D02*
X7436729Y-14562388D01*
X7436729Y-14562388D02*
X7436729Y-14514769D01*
X7436729Y-14514769D02*
X7427205Y-14495722D01*
X7427205Y-14495722D02*
X7417682Y-14486198D01*
X7417682Y-14486198D02*
X7398634Y-14476674D01*
X7398634Y-14476674D02*
X7360539Y-14476674D01*
X7360539Y-14476674D02*
X7341491Y-14486198D01*
X7341491Y-14486198D02*
X7331967Y-14495722D01*
X7331967Y-14495722D02*
X7322443Y-14514769D01*
X7512920Y-14419531D02*
X7522443Y-14410008D01*
X7522443Y-14410008D02*
X7541491Y-14400484D01*
X7541491Y-14400484D02*
X7589110Y-14400484D01*
X7589110Y-14400484D02*
X7608158Y-14410008D01*
X7608158Y-14410008D02*
X7617682Y-14419531D01*
X7617682Y-14419531D02*
X7627205Y-14438579D01*
X7627205Y-14438579D02*
X7627205Y-14457627D01*
X7627205Y-14457627D02*
X7617682Y-14486198D01*
X7617682Y-14486198D02*
X7503396Y-14600484D01*
X7503396Y-14600484D02*
X7627205Y-14600484D01*
X7712920Y-14600484D02*
X7712920Y-14467150D01*
X7712920Y-14486198D02*
X7722443Y-14476674D01*
X7722443Y-14476674D02*
X7741491Y-14467150D01*
X7741491Y-14467150D02*
X7770063Y-14467150D01*
X7770063Y-14467150D02*
X7789110Y-14476674D01*
X7789110Y-14476674D02*
X7798634Y-14495722D01*
X7798634Y-14495722D02*
X7798634Y-14600484D01*
X7798634Y-14495722D02*
X7808158Y-14476674D01*
X7808158Y-14476674D02*
X7827205Y-14467150D01*
X7827205Y-14467150D02*
X7855777Y-14467150D01*
X7855777Y-14467150D02*
X7874824Y-14476674D01*
X7874824Y-14476674D02*
X7884348Y-14495722D01*
X7884348Y-14495722D02*
X7884348Y-14600484D01*
X7979586Y-14600484D02*
X7979586Y-14467150D01*
X7979586Y-14486198D02*
X7989110Y-14476674D01*
X7989110Y-14476674D02*
X8008158Y-14467150D01*
X8008158Y-14467150D02*
X8036729Y-14467150D01*
X8036729Y-14467150D02*
X8055777Y-14476674D01*
X8055777Y-14476674D02*
X8065301Y-14495722D01*
X8065301Y-14495722D02*
X8065301Y-14600484D01*
X8065301Y-14495722D02*
X8074824Y-14476674D01*
X8074824Y-14476674D02*
X8093872Y-14467150D01*
X8093872Y-14467150D02*
X8122443Y-14467150D01*
X8122443Y-14467150D02*
X8141491Y-14476674D01*
X8141491Y-14476674D02*
X8151015Y-14495722D01*
X8151015Y-14495722D02*
X8151015Y-14600484D01*
X8541491Y-14390960D02*
X8370063Y-14648103D01*
X8798634Y-14400484D02*
X8817682Y-14400484D01*
X8817682Y-14400484D02*
X8836729Y-14410008D01*
X8836729Y-14410008D02*
X8846253Y-14419531D01*
X8846253Y-14419531D02*
X8855777Y-14438579D01*
X8855777Y-14438579D02*
X8865301Y-14476674D01*
X8865301Y-14476674D02*
X8865301Y-14524293D01*
X8865301Y-14524293D02*
X8855777Y-14562388D01*
X8855777Y-14562388D02*
X8846253Y-14581436D01*
X8846253Y-14581436D02*
X8836729Y-14590960D01*
X8836729Y-14590960D02*
X8817682Y-14600484D01*
X8817682Y-14600484D02*
X8798634Y-14600484D01*
X8798634Y-14600484D02*
X8779587Y-14590960D01*
X8779587Y-14590960D02*
X8770063Y-14581436D01*
X8770063Y-14581436D02*
X8760539Y-14562388D01*
X8760539Y-14562388D02*
X8751015Y-14524293D01*
X8751015Y-14524293D02*
X8751015Y-14476674D01*
X8751015Y-14476674D02*
X8760539Y-14438579D01*
X8760539Y-14438579D02*
X8770063Y-14419531D01*
X8770063Y-14419531D02*
X8779587Y-14410008D01*
X8779587Y-14410008D02*
X8798634Y-14400484D01*
X8951015Y-14581436D02*
X8960539Y-14590960D01*
X8960539Y-14590960D02*
X8951015Y-14600484D01*
X8951015Y-14600484D02*
X8941491Y-14590960D01*
X8941491Y-14590960D02*
X8951015Y-14581436D01*
X8951015Y-14581436D02*
X8951015Y-14600484D01*
X9084348Y-14400484D02*
X9103396Y-14400484D01*
X9103396Y-14400484D02*
X9122444Y-14410008D01*
X9122444Y-14410008D02*
X9131968Y-14419531D01*
X9131968Y-14419531D02*
X9141491Y-14438579D01*
X9141491Y-14438579D02*
X9151015Y-14476674D01*
X9151015Y-14476674D02*
X9151015Y-14524293D01*
X9151015Y-14524293D02*
X9141491Y-14562388D01*
X9141491Y-14562388D02*
X9131968Y-14581436D01*
X9131968Y-14581436D02*
X9122444Y-14590960D01*
X9122444Y-14590960D02*
X9103396Y-14600484D01*
X9103396Y-14600484D02*
X9084348Y-14600484D01*
X9084348Y-14600484D02*
X9065301Y-14590960D01*
X9065301Y-14590960D02*
X9055777Y-14581436D01*
X9055777Y-14581436D02*
X9046253Y-14562388D01*
X9046253Y-14562388D02*
X9036729Y-14524293D01*
X9036729Y-14524293D02*
X9036729Y-14476674D01*
X9036729Y-14476674D02*
X9046253Y-14438579D01*
X9046253Y-14438579D02*
X9055777Y-14419531D01*
X9055777Y-14419531D02*
X9065301Y-14410008D01*
X9065301Y-14410008D02*
X9084348Y-14400484D01*
X9217682Y-14400484D02*
X9341491Y-14400484D01*
X9341491Y-14400484D02*
X9274825Y-14476674D01*
X9274825Y-14476674D02*
X9303396Y-14476674D01*
X9303396Y-14476674D02*
X9322444Y-14486198D01*
X9322444Y-14486198D02*
X9331968Y-14495722D01*
X9331968Y-14495722D02*
X9341491Y-14514769D01*
X9341491Y-14514769D02*
X9341491Y-14562388D01*
X9341491Y-14562388D02*
X9331968Y-14581436D01*
X9331968Y-14581436D02*
X9322444Y-14590960D01*
X9322444Y-14590960D02*
X9303396Y-14600484D01*
X9303396Y-14600484D02*
X9246253Y-14600484D01*
X9246253Y-14600484D02*
X9227206Y-14590960D01*
X9227206Y-14590960D02*
X9217682Y-14581436D01*
X9465301Y-14400484D02*
X9484349Y-14400484D01*
X9484349Y-14400484D02*
X9503396Y-14410008D01*
X9503396Y-14410008D02*
X9512920Y-14419531D01*
X9512920Y-14419531D02*
X9522444Y-14438579D01*
X9522444Y-14438579D02*
X9531968Y-14476674D01*
X9531968Y-14476674D02*
X9531968Y-14524293D01*
X9531968Y-14524293D02*
X9522444Y-14562388D01*
X9522444Y-14562388D02*
X9512920Y-14581436D01*
X9512920Y-14581436D02*
X9503396Y-14590960D01*
X9503396Y-14590960D02*
X9484349Y-14600484D01*
X9484349Y-14600484D02*
X9465301Y-14600484D01*
X9465301Y-14600484D02*
X9446253Y-14590960D01*
X9446253Y-14590960D02*
X9436729Y-14581436D01*
X9436729Y-14581436D02*
X9427206Y-14562388D01*
X9427206Y-14562388D02*
X9417682Y-14524293D01*
X9417682Y-14524293D02*
X9417682Y-14476674D01*
X9417682Y-14476674D02*
X9427206Y-14438579D01*
X9427206Y-14438579D02*
X9436729Y-14419531D01*
X9436729Y-14419531D02*
X9446253Y-14410008D01*
X9446253Y-14410008D02*
X9465301Y-14400484D01*
X9655777Y-14400484D02*
X9674825Y-14400484D01*
X9674825Y-14400484D02*
X9693872Y-14410008D01*
X9693872Y-14410008D02*
X9703396Y-14419531D01*
X9703396Y-14419531D02*
X9712920Y-14438579D01*
X9712920Y-14438579D02*
X9722444Y-14476674D01*
X9722444Y-14476674D02*
X9722444Y-14524293D01*
X9722444Y-14524293D02*
X9712920Y-14562388D01*
X9712920Y-14562388D02*
X9703396Y-14581436D01*
X9703396Y-14581436D02*
X9693872Y-14590960D01*
X9693872Y-14590960D02*
X9674825Y-14600484D01*
X9674825Y-14600484D02*
X9655777Y-14600484D01*
X9655777Y-14600484D02*
X9636729Y-14590960D01*
X9636729Y-14590960D02*
X9627206Y-14581436D01*
X9627206Y-14581436D02*
X9617682Y-14562388D01*
X9617682Y-14562388D02*
X9608158Y-14524293D01*
X9608158Y-14524293D02*
X9608158Y-14476674D01*
X9608158Y-14476674D02*
X9617682Y-14438579D01*
X9617682Y-14438579D02*
X9627206Y-14419531D01*
X9627206Y-14419531D02*
X9636729Y-14410008D01*
X9636729Y-14410008D02*
X9655777Y-14400484D01*
X9798634Y-14400484D02*
X9798634Y-14438579D01*
X9874825Y-14400484D02*
X9874825Y-14438579D01*
X10170063Y-14676674D02*
X10160539Y-14667150D01*
X10160539Y-14667150D02*
X10141491Y-14638579D01*
X10141491Y-14638579D02*
X10131968Y-14619531D01*
X10131968Y-14619531D02*
X10122444Y-14590960D01*
X10122444Y-14590960D02*
X10112920Y-14543341D01*
X10112920Y-14543341D02*
X10112920Y-14505246D01*
X10112920Y-14505246D02*
X10122444Y-14457627D01*
X10122444Y-14457627D02*
X10131968Y-14429055D01*
X10131968Y-14429055D02*
X10141491Y-14410008D01*
X10141491Y-14410008D02*
X10160539Y-14381436D01*
X10160539Y-14381436D02*
X10170063Y-14371912D01*
X10351015Y-14600484D02*
X10236730Y-14600484D01*
X10293872Y-14600484D02*
X10293872Y-14400484D01*
X10293872Y-14400484D02*
X10274825Y-14429055D01*
X10274825Y-14429055D02*
X10255777Y-14448103D01*
X10255777Y-14448103D02*
X10236730Y-14457627D01*
X10465301Y-14486198D02*
X10446253Y-14476674D01*
X10446253Y-14476674D02*
X10436730Y-14467150D01*
X10436730Y-14467150D02*
X10427206Y-14448103D01*
X10427206Y-14448103D02*
X10427206Y-14438579D01*
X10427206Y-14438579D02*
X10436730Y-14419531D01*
X10436730Y-14419531D02*
X10446253Y-14410008D01*
X10446253Y-14410008D02*
X10465301Y-14400484D01*
X10465301Y-14400484D02*
X10503396Y-14400484D01*
X10503396Y-14400484D02*
X10522444Y-14410008D01*
X10522444Y-14410008D02*
X10531968Y-14419531D01*
X10531968Y-14419531D02*
X10541491Y-14438579D01*
X10541491Y-14438579D02*
X10541491Y-14448103D01*
X10541491Y-14448103D02*
X10531968Y-14467150D01*
X10531968Y-14467150D02*
X10522444Y-14476674D01*
X10522444Y-14476674D02*
X10503396Y-14486198D01*
X10503396Y-14486198D02*
X10465301Y-14486198D01*
X10465301Y-14486198D02*
X10446253Y-14495722D01*
X10446253Y-14495722D02*
X10436730Y-14505246D01*
X10436730Y-14505246D02*
X10427206Y-14524293D01*
X10427206Y-14524293D02*
X10427206Y-14562388D01*
X10427206Y-14562388D02*
X10436730Y-14581436D01*
X10436730Y-14581436D02*
X10446253Y-14590960D01*
X10446253Y-14590960D02*
X10465301Y-14600484D01*
X10465301Y-14600484D02*
X10503396Y-14600484D01*
X10503396Y-14600484D02*
X10522444Y-14590960D01*
X10522444Y-14590960D02*
X10531968Y-14581436D01*
X10531968Y-14581436D02*
X10541491Y-14562388D01*
X10541491Y-14562388D02*
X10541491Y-14524293D01*
X10541491Y-14524293D02*
X10531968Y-14505246D01*
X10531968Y-14505246D02*
X10522444Y-14495722D01*
X10522444Y-14495722D02*
X10503396Y-14486198D01*
X10779587Y-14600484D02*
X10779587Y-14400484D01*
X10865301Y-14600484D02*
X10865301Y-14495722D01*
X10865301Y-14495722D02*
X10855777Y-14476674D01*
X10855777Y-14476674D02*
X10836730Y-14467150D01*
X10836730Y-14467150D02*
X10808158Y-14467150D01*
X10808158Y-14467150D02*
X10789111Y-14476674D01*
X10789111Y-14476674D02*
X10779587Y-14486198D01*
X10989111Y-14600484D02*
X10970063Y-14590960D01*
X10970063Y-14590960D02*
X10960539Y-14581436D01*
X10960539Y-14581436D02*
X10951015Y-14562388D01*
X10951015Y-14562388D02*
X10951015Y-14505246D01*
X10951015Y-14505246D02*
X10960539Y-14486198D01*
X10960539Y-14486198D02*
X10970063Y-14476674D01*
X10970063Y-14476674D02*
X10989111Y-14467150D01*
X10989111Y-14467150D02*
X11017682Y-14467150D01*
X11017682Y-14467150D02*
X11036730Y-14476674D01*
X11036730Y-14476674D02*
X11046253Y-14486198D01*
X11046253Y-14486198D02*
X11055777Y-14505246D01*
X11055777Y-14505246D02*
X11055777Y-14562388D01*
X11055777Y-14562388D02*
X11046253Y-14581436D01*
X11046253Y-14581436D02*
X11036730Y-14590960D01*
X11036730Y-14590960D02*
X11017682Y-14600484D01*
X11017682Y-14600484D02*
X10989111Y-14600484D01*
X11170063Y-14600484D02*
X11151015Y-14590960D01*
X11151015Y-14590960D02*
X11141492Y-14571912D01*
X11141492Y-14571912D02*
X11141492Y-14400484D01*
X11322444Y-14590960D02*
X11303396Y-14600484D01*
X11303396Y-14600484D02*
X11265301Y-14600484D01*
X11265301Y-14600484D02*
X11246253Y-14590960D01*
X11246253Y-14590960D02*
X11236730Y-14571912D01*
X11236730Y-14571912D02*
X11236730Y-14495722D01*
X11236730Y-14495722D02*
X11246253Y-14476674D01*
X11246253Y-14476674D02*
X11265301Y-14467150D01*
X11265301Y-14467150D02*
X11303396Y-14467150D01*
X11303396Y-14467150D02*
X11322444Y-14476674D01*
X11322444Y-14476674D02*
X11331968Y-14495722D01*
X11331968Y-14495722D02*
X11331968Y-14514769D01*
X11331968Y-14514769D02*
X11236730Y-14533817D01*
X11408158Y-14590960D02*
X11427206Y-14600484D01*
X11427206Y-14600484D02*
X11465301Y-14600484D01*
X11465301Y-14600484D02*
X11484349Y-14590960D01*
X11484349Y-14590960D02*
X11493872Y-14571912D01*
X11493872Y-14571912D02*
X11493872Y-14562388D01*
X11493872Y-14562388D02*
X11484349Y-14543341D01*
X11484349Y-14543341D02*
X11465301Y-14533817D01*
X11465301Y-14533817D02*
X11436730Y-14533817D01*
X11436730Y-14533817D02*
X11417682Y-14524293D01*
X11417682Y-14524293D02*
X11408158Y-14505246D01*
X11408158Y-14505246D02*
X11408158Y-14495722D01*
X11408158Y-14495722D02*
X11417682Y-14476674D01*
X11417682Y-14476674D02*
X11436730Y-14467150D01*
X11436730Y-14467150D02*
X11465301Y-14467150D01*
X11465301Y-14467150D02*
X11484349Y-14476674D01*
X11560539Y-14676674D02*
X11570063Y-14667150D01*
X11570063Y-14667150D02*
X11589111Y-14638579D01*
X11589111Y-14638579D02*
X11598634Y-14619531D01*
X11598634Y-14619531D02*
X11608158Y-14590960D01*
X11608158Y-14590960D02*
X11617682Y-14543341D01*
X11617682Y-14543341D02*
X11617682Y-14505246D01*
X11617682Y-14505246D02*
X11608158Y-14457627D01*
X11608158Y-14457627D02*
X11598634Y-14429055D01*
X11598634Y-14429055D02*
X11589111Y-14410008D01*
X11589111Y-14410008D02*
X11570063Y-14381436D01*
X11570063Y-14381436D02*
X11560539Y-14371912D01*
D10*
X6555000Y-14733000D02*
X6555000Y-14813000D01*
X6515000Y-14773000D02*
X6595000Y-14773000D01*
D11*
X6893872Y-14664484D02*
X6912920Y-14664484D01*
X6912920Y-14664484D02*
X6931967Y-14674008D01*
X6931967Y-14674008D02*
X6941491Y-14683531D01*
X6941491Y-14683531D02*
X6951015Y-14702579D01*
X6951015Y-14702579D02*
X6960539Y-14740674D01*
X6960539Y-14740674D02*
X6960539Y-14788293D01*
X6960539Y-14788293D02*
X6951015Y-14826388D01*
X6951015Y-14826388D02*
X6941491Y-14845436D01*
X6941491Y-14845436D02*
X6931967Y-14854960D01*
X6931967Y-14854960D02*
X6912920Y-14864484D01*
X6912920Y-14864484D02*
X6893872Y-14864484D01*
X6893872Y-14864484D02*
X6874824Y-14854960D01*
X6874824Y-14854960D02*
X6865301Y-14845436D01*
X6865301Y-14845436D02*
X6855777Y-14826388D01*
X6855777Y-14826388D02*
X6846253Y-14788293D01*
X6846253Y-14788293D02*
X6846253Y-14740674D01*
X6846253Y-14740674D02*
X6855777Y-14702579D01*
X6855777Y-14702579D02*
X6865301Y-14683531D01*
X6865301Y-14683531D02*
X6874824Y-14674008D01*
X6874824Y-14674008D02*
X6893872Y-14664484D01*
X7046253Y-14845436D02*
X7055777Y-14854960D01*
X7055777Y-14854960D02*
X7046253Y-14864484D01*
X7046253Y-14864484D02*
X7036729Y-14854960D01*
X7036729Y-14854960D02*
X7046253Y-14845436D01*
X7046253Y-14845436D02*
X7046253Y-14864484D01*
X7170062Y-14750198D02*
X7151015Y-14740674D01*
X7151015Y-14740674D02*
X7141491Y-14731150D01*
X7141491Y-14731150D02*
X7131967Y-14712103D01*
X7131967Y-14712103D02*
X7131967Y-14702579D01*
X7131967Y-14702579D02*
X7141491Y-14683531D01*
X7141491Y-14683531D02*
X7151015Y-14674008D01*
X7151015Y-14674008D02*
X7170062Y-14664484D01*
X7170062Y-14664484D02*
X7208158Y-14664484D01*
X7208158Y-14664484D02*
X7227205Y-14674008D01*
X7227205Y-14674008D02*
X7236729Y-14683531D01*
X7236729Y-14683531D02*
X7246253Y-14702579D01*
X7246253Y-14702579D02*
X7246253Y-14712103D01*
X7246253Y-14712103D02*
X7236729Y-14731150D01*
X7236729Y-14731150D02*
X7227205Y-14740674D01*
X7227205Y-14740674D02*
X7208158Y-14750198D01*
X7208158Y-14750198D02*
X7170062Y-14750198D01*
X7170062Y-14750198D02*
X7151015Y-14759722D01*
X7151015Y-14759722D02*
X7141491Y-14769246D01*
X7141491Y-14769246D02*
X7131967Y-14788293D01*
X7131967Y-14788293D02*
X7131967Y-14826388D01*
X7131967Y-14826388D02*
X7141491Y-14845436D01*
X7141491Y-14845436D02*
X7151015Y-14854960D01*
X7151015Y-14854960D02*
X7170062Y-14864484D01*
X7170062Y-14864484D02*
X7208158Y-14864484D01*
X7208158Y-14864484D02*
X7227205Y-14854960D01*
X7227205Y-14854960D02*
X7236729Y-14845436D01*
X7236729Y-14845436D02*
X7246253Y-14826388D01*
X7246253Y-14826388D02*
X7246253Y-14788293D01*
X7246253Y-14788293D02*
X7236729Y-14769246D01*
X7236729Y-14769246D02*
X7227205Y-14759722D01*
X7227205Y-14759722D02*
X7208158Y-14750198D01*
X7370062Y-14664484D02*
X7389110Y-14664484D01*
X7389110Y-14664484D02*
X7408158Y-14674008D01*
X7408158Y-14674008D02*
X7417682Y-14683531D01*
X7417682Y-14683531D02*
X7427205Y-14702579D01*
X7427205Y-14702579D02*
X7436729Y-14740674D01*
X7436729Y-14740674D02*
X7436729Y-14788293D01*
X7436729Y-14788293D02*
X7427205Y-14826388D01*
X7427205Y-14826388D02*
X7417682Y-14845436D01*
X7417682Y-14845436D02*
X7408158Y-14854960D01*
X7408158Y-14854960D02*
X7389110Y-14864484D01*
X7389110Y-14864484D02*
X7370062Y-14864484D01*
X7370062Y-14864484D02*
X7351015Y-14854960D01*
X7351015Y-14854960D02*
X7341491Y-14845436D01*
X7341491Y-14845436D02*
X7331967Y-14826388D01*
X7331967Y-14826388D02*
X7322443Y-14788293D01*
X7322443Y-14788293D02*
X7322443Y-14740674D01*
X7322443Y-14740674D02*
X7331967Y-14702579D01*
X7331967Y-14702579D02*
X7341491Y-14683531D01*
X7341491Y-14683531D02*
X7351015Y-14674008D01*
X7351015Y-14674008D02*
X7370062Y-14664484D01*
X7560539Y-14664484D02*
X7579586Y-14664484D01*
X7579586Y-14664484D02*
X7598634Y-14674008D01*
X7598634Y-14674008D02*
X7608158Y-14683531D01*
X7608158Y-14683531D02*
X7617682Y-14702579D01*
X7617682Y-14702579D02*
X7627205Y-14740674D01*
X7627205Y-14740674D02*
X7627205Y-14788293D01*
X7627205Y-14788293D02*
X7617682Y-14826388D01*
X7617682Y-14826388D02*
X7608158Y-14845436D01*
X7608158Y-14845436D02*
X7598634Y-14854960D01*
X7598634Y-14854960D02*
X7579586Y-14864484D01*
X7579586Y-14864484D02*
X7560539Y-14864484D01*
X7560539Y-14864484D02*
X7541491Y-14854960D01*
X7541491Y-14854960D02*
X7531967Y-14845436D01*
X7531967Y-14845436D02*
X7522443Y-14826388D01*
X7522443Y-14826388D02*
X7512920Y-14788293D01*
X7512920Y-14788293D02*
X7512920Y-14740674D01*
X7512920Y-14740674D02*
X7522443Y-14702579D01*
X7522443Y-14702579D02*
X7531967Y-14683531D01*
X7531967Y-14683531D02*
X7541491Y-14674008D01*
X7541491Y-14674008D02*
X7560539Y-14664484D01*
X7712920Y-14864484D02*
X7712920Y-14731150D01*
X7712920Y-14750198D02*
X7722443Y-14740674D01*
X7722443Y-14740674D02*
X7741491Y-14731150D01*
X7741491Y-14731150D02*
X7770063Y-14731150D01*
X7770063Y-14731150D02*
X7789110Y-14740674D01*
X7789110Y-14740674D02*
X7798634Y-14759722D01*
X7798634Y-14759722D02*
X7798634Y-14864484D01*
X7798634Y-14759722D02*
X7808158Y-14740674D01*
X7808158Y-14740674D02*
X7827205Y-14731150D01*
X7827205Y-14731150D02*
X7855777Y-14731150D01*
X7855777Y-14731150D02*
X7874824Y-14740674D01*
X7874824Y-14740674D02*
X7884348Y-14759722D01*
X7884348Y-14759722D02*
X7884348Y-14864484D01*
X7979586Y-14864484D02*
X7979586Y-14731150D01*
X7979586Y-14750198D02*
X7989110Y-14740674D01*
X7989110Y-14740674D02*
X8008158Y-14731150D01*
X8008158Y-14731150D02*
X8036729Y-14731150D01*
X8036729Y-14731150D02*
X8055777Y-14740674D01*
X8055777Y-14740674D02*
X8065301Y-14759722D01*
X8065301Y-14759722D02*
X8065301Y-14864484D01*
X8065301Y-14759722D02*
X8074824Y-14740674D01*
X8074824Y-14740674D02*
X8093872Y-14731150D01*
X8093872Y-14731150D02*
X8122443Y-14731150D01*
X8122443Y-14731150D02*
X8141491Y-14740674D01*
X8141491Y-14740674D02*
X8151015Y-14759722D01*
X8151015Y-14759722D02*
X8151015Y-14864484D01*
X8541491Y-14654960D02*
X8370063Y-14912103D01*
X8798634Y-14664484D02*
X8817682Y-14664484D01*
X8817682Y-14664484D02*
X8836729Y-14674008D01*
X8836729Y-14674008D02*
X8846253Y-14683531D01*
X8846253Y-14683531D02*
X8855777Y-14702579D01*
X8855777Y-14702579D02*
X8865301Y-14740674D01*
X8865301Y-14740674D02*
X8865301Y-14788293D01*
X8865301Y-14788293D02*
X8855777Y-14826388D01*
X8855777Y-14826388D02*
X8846253Y-14845436D01*
X8846253Y-14845436D02*
X8836729Y-14854960D01*
X8836729Y-14854960D02*
X8817682Y-14864484D01*
X8817682Y-14864484D02*
X8798634Y-14864484D01*
X8798634Y-14864484D02*
X8779587Y-14854960D01*
X8779587Y-14854960D02*
X8770063Y-14845436D01*
X8770063Y-14845436D02*
X8760539Y-14826388D01*
X8760539Y-14826388D02*
X8751015Y-14788293D01*
X8751015Y-14788293D02*
X8751015Y-14740674D01*
X8751015Y-14740674D02*
X8760539Y-14702579D01*
X8760539Y-14702579D02*
X8770063Y-14683531D01*
X8770063Y-14683531D02*
X8779587Y-14674008D01*
X8779587Y-14674008D02*
X8798634Y-14664484D01*
X8951015Y-14845436D02*
X8960539Y-14854960D01*
X8960539Y-14854960D02*
X8951015Y-14864484D01*
X8951015Y-14864484D02*
X8941491Y-14854960D01*
X8941491Y-14854960D02*
X8951015Y-14845436D01*
X8951015Y-14845436D02*
X8951015Y-14864484D01*
X9084348Y-14664484D02*
X9103396Y-14664484D01*
X9103396Y-14664484D02*
X9122444Y-14674008D01*
X9122444Y-14674008D02*
X9131968Y-14683531D01*
X9131968Y-14683531D02*
X9141491Y-14702579D01*
X9141491Y-14702579D02*
X9151015Y-14740674D01*
X9151015Y-14740674D02*
X9151015Y-14788293D01*
X9151015Y-14788293D02*
X9141491Y-14826388D01*
X9141491Y-14826388D02*
X9131968Y-14845436D01*
X9131968Y-14845436D02*
X9122444Y-14854960D01*
X9122444Y-14854960D02*
X9103396Y-14864484D01*
X9103396Y-14864484D02*
X9084348Y-14864484D01*
X9084348Y-14864484D02*
X9065301Y-14854960D01*
X9065301Y-14854960D02*
X9055777Y-14845436D01*
X9055777Y-14845436D02*
X9046253Y-14826388D01*
X9046253Y-14826388D02*
X9036729Y-14788293D01*
X9036729Y-14788293D02*
X9036729Y-14740674D01*
X9036729Y-14740674D02*
X9046253Y-14702579D01*
X9046253Y-14702579D02*
X9055777Y-14683531D01*
X9055777Y-14683531D02*
X9065301Y-14674008D01*
X9065301Y-14674008D02*
X9084348Y-14664484D01*
X9217682Y-14664484D02*
X9341491Y-14664484D01*
X9341491Y-14664484D02*
X9274825Y-14740674D01*
X9274825Y-14740674D02*
X9303396Y-14740674D01*
X9303396Y-14740674D02*
X9322444Y-14750198D01*
X9322444Y-14750198D02*
X9331968Y-14759722D01*
X9331968Y-14759722D02*
X9341491Y-14778769D01*
X9341491Y-14778769D02*
X9341491Y-14826388D01*
X9341491Y-14826388D02*
X9331968Y-14845436D01*
X9331968Y-14845436D02*
X9322444Y-14854960D01*
X9322444Y-14854960D02*
X9303396Y-14864484D01*
X9303396Y-14864484D02*
X9246253Y-14864484D01*
X9246253Y-14864484D02*
X9227206Y-14854960D01*
X9227206Y-14854960D02*
X9217682Y-14845436D01*
X9531968Y-14864484D02*
X9417682Y-14864484D01*
X9474825Y-14864484D02*
X9474825Y-14664484D01*
X9474825Y-14664484D02*
X9455777Y-14693055D01*
X9455777Y-14693055D02*
X9436729Y-14712103D01*
X9436729Y-14712103D02*
X9417682Y-14721627D01*
X9712920Y-14664484D02*
X9617682Y-14664484D01*
X9617682Y-14664484D02*
X9608158Y-14759722D01*
X9608158Y-14759722D02*
X9617682Y-14750198D01*
X9617682Y-14750198D02*
X9636729Y-14740674D01*
X9636729Y-14740674D02*
X9684349Y-14740674D01*
X9684349Y-14740674D02*
X9703396Y-14750198D01*
X9703396Y-14750198D02*
X9712920Y-14759722D01*
X9712920Y-14759722D02*
X9722444Y-14778769D01*
X9722444Y-14778769D02*
X9722444Y-14826388D01*
X9722444Y-14826388D02*
X9712920Y-14845436D01*
X9712920Y-14845436D02*
X9703396Y-14854960D01*
X9703396Y-14854960D02*
X9684349Y-14864484D01*
X9684349Y-14864484D02*
X9636729Y-14864484D01*
X9636729Y-14864484D02*
X9617682Y-14854960D01*
X9617682Y-14854960D02*
X9608158Y-14845436D01*
X9798634Y-14664484D02*
X9798634Y-14702579D01*
X9874825Y-14664484D02*
X9874825Y-14702579D01*
X10170063Y-14940674D02*
X10160539Y-14931150D01*
X10160539Y-14931150D02*
X10141491Y-14902579D01*
X10141491Y-14902579D02*
X10131968Y-14883531D01*
X10131968Y-14883531D02*
X10122444Y-14854960D01*
X10122444Y-14854960D02*
X10112920Y-14807341D01*
X10112920Y-14807341D02*
X10112920Y-14769246D01*
X10112920Y-14769246D02*
X10122444Y-14721627D01*
X10122444Y-14721627D02*
X10131968Y-14693055D01*
X10131968Y-14693055D02*
X10141491Y-14674008D01*
X10141491Y-14674008D02*
X10160539Y-14645436D01*
X10160539Y-14645436D02*
X10170063Y-14635912D01*
X10351015Y-14864484D02*
X10236730Y-14864484D01*
X10293872Y-14864484D02*
X10293872Y-14664484D01*
X10293872Y-14664484D02*
X10274825Y-14693055D01*
X10274825Y-14693055D02*
X10255777Y-14712103D01*
X10255777Y-14712103D02*
X10236730Y-14721627D01*
X10465301Y-14750198D02*
X10446253Y-14740674D01*
X10446253Y-14740674D02*
X10436730Y-14731150D01*
X10436730Y-14731150D02*
X10427206Y-14712103D01*
X10427206Y-14712103D02*
X10427206Y-14702579D01*
X10427206Y-14702579D02*
X10436730Y-14683531D01*
X10436730Y-14683531D02*
X10446253Y-14674008D01*
X10446253Y-14674008D02*
X10465301Y-14664484D01*
X10465301Y-14664484D02*
X10503396Y-14664484D01*
X10503396Y-14664484D02*
X10522444Y-14674008D01*
X10522444Y-14674008D02*
X10531968Y-14683531D01*
X10531968Y-14683531D02*
X10541491Y-14702579D01*
X10541491Y-14702579D02*
X10541491Y-14712103D01*
X10541491Y-14712103D02*
X10531968Y-14731150D01*
X10531968Y-14731150D02*
X10522444Y-14740674D01*
X10522444Y-14740674D02*
X10503396Y-14750198D01*
X10503396Y-14750198D02*
X10465301Y-14750198D01*
X10465301Y-14750198D02*
X10446253Y-14759722D01*
X10446253Y-14759722D02*
X10436730Y-14769246D01*
X10436730Y-14769246D02*
X10427206Y-14788293D01*
X10427206Y-14788293D02*
X10427206Y-14826388D01*
X10427206Y-14826388D02*
X10436730Y-14845436D01*
X10436730Y-14845436D02*
X10446253Y-14854960D01*
X10446253Y-14854960D02*
X10465301Y-14864484D01*
X10465301Y-14864484D02*
X10503396Y-14864484D01*
X10503396Y-14864484D02*
X10522444Y-14854960D01*
X10522444Y-14854960D02*
X10531968Y-14845436D01*
X10531968Y-14845436D02*
X10541491Y-14826388D01*
X10541491Y-14826388D02*
X10541491Y-14788293D01*
X10541491Y-14788293D02*
X10531968Y-14769246D01*
X10531968Y-14769246D02*
X10522444Y-14759722D01*
X10522444Y-14759722D02*
X10503396Y-14750198D01*
X10779587Y-14864484D02*
X10779587Y-14664484D01*
X10865301Y-14864484D02*
X10865301Y-14759722D01*
X10865301Y-14759722D02*
X10855777Y-14740674D01*
X10855777Y-14740674D02*
X10836730Y-14731150D01*
X10836730Y-14731150D02*
X10808158Y-14731150D01*
X10808158Y-14731150D02*
X10789111Y-14740674D01*
X10789111Y-14740674D02*
X10779587Y-14750198D01*
X10989111Y-14864484D02*
X10970063Y-14854960D01*
X10970063Y-14854960D02*
X10960539Y-14845436D01*
X10960539Y-14845436D02*
X10951015Y-14826388D01*
X10951015Y-14826388D02*
X10951015Y-14769246D01*
X10951015Y-14769246D02*
X10960539Y-14750198D01*
X10960539Y-14750198D02*
X10970063Y-14740674D01*
X10970063Y-14740674D02*
X10989111Y-14731150D01*
X10989111Y-14731150D02*
X11017682Y-14731150D01*
X11017682Y-14731150D02*
X11036730Y-14740674D01*
X11036730Y-14740674D02*
X11046253Y-14750198D01*
X11046253Y-14750198D02*
X11055777Y-14769246D01*
X11055777Y-14769246D02*
X11055777Y-14826388D01*
X11055777Y-14826388D02*
X11046253Y-14845436D01*
X11046253Y-14845436D02*
X11036730Y-14854960D01*
X11036730Y-14854960D02*
X11017682Y-14864484D01*
X11017682Y-14864484D02*
X10989111Y-14864484D01*
X11170063Y-14864484D02*
X11151015Y-14854960D01*
X11151015Y-14854960D02*
X11141492Y-14835912D01*
X11141492Y-14835912D02*
X11141492Y-14664484D01*
X11322444Y-14854960D02*
X11303396Y-14864484D01*
X11303396Y-14864484D02*
X11265301Y-14864484D01*
X11265301Y-14864484D02*
X11246253Y-14854960D01*
X11246253Y-14854960D02*
X11236730Y-14835912D01*
X11236730Y-14835912D02*
X11236730Y-14759722D01*
X11236730Y-14759722D02*
X11246253Y-14740674D01*
X11246253Y-14740674D02*
X11265301Y-14731150D01*
X11265301Y-14731150D02*
X11303396Y-14731150D01*
X11303396Y-14731150D02*
X11322444Y-14740674D01*
X11322444Y-14740674D02*
X11331968Y-14759722D01*
X11331968Y-14759722D02*
X11331968Y-14778769D01*
X11331968Y-14778769D02*
X11236730Y-14797817D01*
X11408158Y-14854960D02*
X11427206Y-14864484D01*
X11427206Y-14864484D02*
X11465301Y-14864484D01*
X11465301Y-14864484D02*
X11484349Y-14854960D01*
X11484349Y-14854960D02*
X11493872Y-14835912D01*
X11493872Y-14835912D02*
X11493872Y-14826388D01*
X11493872Y-14826388D02*
X11484349Y-14807341D01*
X11484349Y-14807341D02*
X11465301Y-14797817D01*
X11465301Y-14797817D02*
X11436730Y-14797817D01*
X11436730Y-14797817D02*
X11417682Y-14788293D01*
X11417682Y-14788293D02*
X11408158Y-14769246D01*
X11408158Y-14769246D02*
X11408158Y-14759722D01*
X11408158Y-14759722D02*
X11417682Y-14740674D01*
X11417682Y-14740674D02*
X11436730Y-14731150D01*
X11436730Y-14731150D02*
X11465301Y-14731150D01*
X11465301Y-14731150D02*
X11484349Y-14740674D01*
X11560539Y-14940674D02*
X11570063Y-14931150D01*
X11570063Y-14931150D02*
X11589111Y-14902579D01*
X11589111Y-14902579D02*
X11598634Y-14883531D01*
X11598634Y-14883531D02*
X11608158Y-14854960D01*
X11608158Y-14854960D02*
X11617682Y-14807341D01*
X11617682Y-14807341D02*
X11617682Y-14769246D01*
X11617682Y-14769246D02*
X11608158Y-14721627D01*
X11608158Y-14721627D02*
X11598634Y-14693055D01*
X11598634Y-14693055D02*
X11589111Y-14674008D01*
X11589111Y-14674008D02*
X11570063Y-14645436D01*
X11570063Y-14645436D02*
X11560539Y-14635912D01*
D12*
X6580063Y-15073063D02*
X6580063Y-15000937D01*
X6507937Y-15000937D01*
X6507937Y-15073063D01*
X6580063Y-15073063D01*
D11*
X6960539Y-15128484D02*
X6846253Y-15128484D01*
X6903396Y-15128484D02*
X6903396Y-14928484D01*
X6903396Y-14928484D02*
X6884348Y-14957055D01*
X6884348Y-14957055D02*
X6865301Y-14976103D01*
X6865301Y-14976103D02*
X6846253Y-14985627D01*
X7046253Y-15109436D02*
X7055777Y-15118960D01*
X7055777Y-15118960D02*
X7046253Y-15128484D01*
X7046253Y-15128484D02*
X7036729Y-15118960D01*
X7036729Y-15118960D02*
X7046253Y-15109436D01*
X7046253Y-15109436D02*
X7046253Y-15128484D01*
X7179586Y-14928484D02*
X7198634Y-14928484D01*
X7198634Y-14928484D02*
X7217682Y-14938008D01*
X7217682Y-14938008D02*
X7227205Y-14947531D01*
X7227205Y-14947531D02*
X7236729Y-14966579D01*
X7236729Y-14966579D02*
X7246253Y-15004674D01*
X7246253Y-15004674D02*
X7246253Y-15052293D01*
X7246253Y-15052293D02*
X7236729Y-15090388D01*
X7236729Y-15090388D02*
X7227205Y-15109436D01*
X7227205Y-15109436D02*
X7217682Y-15118960D01*
X7217682Y-15118960D02*
X7198634Y-15128484D01*
X7198634Y-15128484D02*
X7179586Y-15128484D01*
X7179586Y-15128484D02*
X7160539Y-15118960D01*
X7160539Y-15118960D02*
X7151015Y-15109436D01*
X7151015Y-15109436D02*
X7141491Y-15090388D01*
X7141491Y-15090388D02*
X7131967Y-15052293D01*
X7131967Y-15052293D02*
X7131967Y-15004674D01*
X7131967Y-15004674D02*
X7141491Y-14966579D01*
X7141491Y-14966579D02*
X7151015Y-14947531D01*
X7151015Y-14947531D02*
X7160539Y-14938008D01*
X7160539Y-14938008D02*
X7179586Y-14928484D01*
X7322443Y-14947531D02*
X7331967Y-14938008D01*
X7331967Y-14938008D02*
X7351015Y-14928484D01*
X7351015Y-14928484D02*
X7398634Y-14928484D01*
X7398634Y-14928484D02*
X7417682Y-14938008D01*
X7417682Y-14938008D02*
X7427205Y-14947531D01*
X7427205Y-14947531D02*
X7436729Y-14966579D01*
X7436729Y-14966579D02*
X7436729Y-14985627D01*
X7436729Y-14985627D02*
X7427205Y-15014198D01*
X7427205Y-15014198D02*
X7312920Y-15128484D01*
X7312920Y-15128484D02*
X7436729Y-15128484D01*
X7560539Y-14928484D02*
X7579586Y-14928484D01*
X7579586Y-14928484D02*
X7598634Y-14938008D01*
X7598634Y-14938008D02*
X7608158Y-14947531D01*
X7608158Y-14947531D02*
X7617682Y-14966579D01*
X7617682Y-14966579D02*
X7627205Y-15004674D01*
X7627205Y-15004674D02*
X7627205Y-15052293D01*
X7627205Y-15052293D02*
X7617682Y-15090388D01*
X7617682Y-15090388D02*
X7608158Y-15109436D01*
X7608158Y-15109436D02*
X7598634Y-15118960D01*
X7598634Y-15118960D02*
X7579586Y-15128484D01*
X7579586Y-15128484D02*
X7560539Y-15128484D01*
X7560539Y-15128484D02*
X7541491Y-15118960D01*
X7541491Y-15118960D02*
X7531967Y-15109436D01*
X7531967Y-15109436D02*
X7522443Y-15090388D01*
X7522443Y-15090388D02*
X7512920Y-15052293D01*
X7512920Y-15052293D02*
X7512920Y-15004674D01*
X7512920Y-15004674D02*
X7522443Y-14966579D01*
X7522443Y-14966579D02*
X7531967Y-14947531D01*
X7531967Y-14947531D02*
X7541491Y-14938008D01*
X7541491Y-14938008D02*
X7560539Y-14928484D01*
X7712920Y-15128484D02*
X7712920Y-14995150D01*
X7712920Y-15014198D02*
X7722443Y-15004674D01*
X7722443Y-15004674D02*
X7741491Y-14995150D01*
X7741491Y-14995150D02*
X7770063Y-14995150D01*
X7770063Y-14995150D02*
X7789110Y-15004674D01*
X7789110Y-15004674D02*
X7798634Y-15023722D01*
X7798634Y-15023722D02*
X7798634Y-15128484D01*
X7798634Y-15023722D02*
X7808158Y-15004674D01*
X7808158Y-15004674D02*
X7827205Y-14995150D01*
X7827205Y-14995150D02*
X7855777Y-14995150D01*
X7855777Y-14995150D02*
X7874824Y-15004674D01*
X7874824Y-15004674D02*
X7884348Y-15023722D01*
X7884348Y-15023722D02*
X7884348Y-15128484D01*
X7979586Y-15128484D02*
X7979586Y-14995150D01*
X7979586Y-15014198D02*
X7989110Y-15004674D01*
X7989110Y-15004674D02*
X8008158Y-14995150D01*
X8008158Y-14995150D02*
X8036729Y-14995150D01*
X8036729Y-14995150D02*
X8055777Y-15004674D01*
X8055777Y-15004674D02*
X8065301Y-15023722D01*
X8065301Y-15023722D02*
X8065301Y-15128484D01*
X8065301Y-15023722D02*
X8074824Y-15004674D01*
X8074824Y-15004674D02*
X8093872Y-14995150D01*
X8093872Y-14995150D02*
X8122443Y-14995150D01*
X8122443Y-14995150D02*
X8141491Y-15004674D01*
X8141491Y-15004674D02*
X8151015Y-15023722D01*
X8151015Y-15023722D02*
X8151015Y-15128484D01*
X8541491Y-14918960D02*
X8370063Y-15176103D01*
X8798634Y-14928484D02*
X8817682Y-14928484D01*
X8817682Y-14928484D02*
X8836729Y-14938008D01*
X8836729Y-14938008D02*
X8846253Y-14947531D01*
X8846253Y-14947531D02*
X8855777Y-14966579D01*
X8855777Y-14966579D02*
X8865301Y-15004674D01*
X8865301Y-15004674D02*
X8865301Y-15052293D01*
X8865301Y-15052293D02*
X8855777Y-15090388D01*
X8855777Y-15090388D02*
X8846253Y-15109436D01*
X8846253Y-15109436D02*
X8836729Y-15118960D01*
X8836729Y-15118960D02*
X8817682Y-15128484D01*
X8817682Y-15128484D02*
X8798634Y-15128484D01*
X8798634Y-15128484D02*
X8779587Y-15118960D01*
X8779587Y-15118960D02*
X8770063Y-15109436D01*
X8770063Y-15109436D02*
X8760539Y-15090388D01*
X8760539Y-15090388D02*
X8751015Y-15052293D01*
X8751015Y-15052293D02*
X8751015Y-15004674D01*
X8751015Y-15004674D02*
X8760539Y-14966579D01*
X8760539Y-14966579D02*
X8770063Y-14947531D01*
X8770063Y-14947531D02*
X8779587Y-14938008D01*
X8779587Y-14938008D02*
X8798634Y-14928484D01*
X8951015Y-15109436D02*
X8960539Y-15118960D01*
X8960539Y-15118960D02*
X8951015Y-15128484D01*
X8951015Y-15128484D02*
X8941491Y-15118960D01*
X8941491Y-15118960D02*
X8951015Y-15109436D01*
X8951015Y-15109436D02*
X8951015Y-15128484D01*
X9084348Y-14928484D02*
X9103396Y-14928484D01*
X9103396Y-14928484D02*
X9122444Y-14938008D01*
X9122444Y-14938008D02*
X9131968Y-14947531D01*
X9131968Y-14947531D02*
X9141491Y-14966579D01*
X9141491Y-14966579D02*
X9151015Y-15004674D01*
X9151015Y-15004674D02*
X9151015Y-15052293D01*
X9151015Y-15052293D02*
X9141491Y-15090388D01*
X9141491Y-15090388D02*
X9131968Y-15109436D01*
X9131968Y-15109436D02*
X9122444Y-15118960D01*
X9122444Y-15118960D02*
X9103396Y-15128484D01*
X9103396Y-15128484D02*
X9084348Y-15128484D01*
X9084348Y-15128484D02*
X9065301Y-15118960D01*
X9065301Y-15118960D02*
X9055777Y-15109436D01*
X9055777Y-15109436D02*
X9046253Y-15090388D01*
X9046253Y-15090388D02*
X9036729Y-15052293D01*
X9036729Y-15052293D02*
X9036729Y-15004674D01*
X9036729Y-15004674D02*
X9046253Y-14966579D01*
X9046253Y-14966579D02*
X9055777Y-14947531D01*
X9055777Y-14947531D02*
X9065301Y-14938008D01*
X9065301Y-14938008D02*
X9084348Y-14928484D01*
X9322444Y-14995150D02*
X9322444Y-15128484D01*
X9274825Y-14918960D02*
X9227206Y-15061817D01*
X9227206Y-15061817D02*
X9351015Y-15061817D01*
X9465301Y-14928484D02*
X9484349Y-14928484D01*
X9484349Y-14928484D02*
X9503396Y-14938008D01*
X9503396Y-14938008D02*
X9512920Y-14947531D01*
X9512920Y-14947531D02*
X9522444Y-14966579D01*
X9522444Y-14966579D02*
X9531968Y-15004674D01*
X9531968Y-15004674D02*
X9531968Y-15052293D01*
X9531968Y-15052293D02*
X9522444Y-15090388D01*
X9522444Y-15090388D02*
X9512920Y-15109436D01*
X9512920Y-15109436D02*
X9503396Y-15118960D01*
X9503396Y-15118960D02*
X9484349Y-15128484D01*
X9484349Y-15128484D02*
X9465301Y-15128484D01*
X9465301Y-15128484D02*
X9446253Y-15118960D01*
X9446253Y-15118960D02*
X9436729Y-15109436D01*
X9436729Y-15109436D02*
X9427206Y-15090388D01*
X9427206Y-15090388D02*
X9417682Y-15052293D01*
X9417682Y-15052293D02*
X9417682Y-15004674D01*
X9417682Y-15004674D02*
X9427206Y-14966579D01*
X9427206Y-14966579D02*
X9436729Y-14947531D01*
X9436729Y-14947531D02*
X9446253Y-14938008D01*
X9446253Y-14938008D02*
X9465301Y-14928484D01*
X9608158Y-14947531D02*
X9617682Y-14938008D01*
X9617682Y-14938008D02*
X9636729Y-14928484D01*
X9636729Y-14928484D02*
X9684349Y-14928484D01*
X9684349Y-14928484D02*
X9703396Y-14938008D01*
X9703396Y-14938008D02*
X9712920Y-14947531D01*
X9712920Y-14947531D02*
X9722444Y-14966579D01*
X9722444Y-14966579D02*
X9722444Y-14985627D01*
X9722444Y-14985627D02*
X9712920Y-15014198D01*
X9712920Y-15014198D02*
X9598634Y-15128484D01*
X9598634Y-15128484D02*
X9722444Y-15128484D01*
X9798634Y-14928484D02*
X9798634Y-14966579D01*
X9874825Y-14928484D02*
X9874825Y-14966579D01*
X10170063Y-15204674D02*
X10160539Y-15195150D01*
X10160539Y-15195150D02*
X10141491Y-15166579D01*
X10141491Y-15166579D02*
X10131968Y-15147531D01*
X10131968Y-15147531D02*
X10122444Y-15118960D01*
X10122444Y-15118960D02*
X10112920Y-15071341D01*
X10112920Y-15071341D02*
X10112920Y-15033246D01*
X10112920Y-15033246D02*
X10122444Y-14985627D01*
X10122444Y-14985627D02*
X10131968Y-14957055D01*
X10131968Y-14957055D02*
X10141491Y-14938008D01*
X10141491Y-14938008D02*
X10160539Y-14909436D01*
X10160539Y-14909436D02*
X10170063Y-14899912D01*
X10227206Y-14928484D02*
X10351015Y-14928484D01*
X10351015Y-14928484D02*
X10284349Y-15004674D01*
X10284349Y-15004674D02*
X10312920Y-15004674D01*
X10312920Y-15004674D02*
X10331968Y-15014198D01*
X10331968Y-15014198D02*
X10341491Y-15023722D01*
X10341491Y-15023722D02*
X10351015Y-15042769D01*
X10351015Y-15042769D02*
X10351015Y-15090388D01*
X10351015Y-15090388D02*
X10341491Y-15109436D01*
X10341491Y-15109436D02*
X10331968Y-15118960D01*
X10331968Y-15118960D02*
X10312920Y-15128484D01*
X10312920Y-15128484D02*
X10255777Y-15128484D01*
X10255777Y-15128484D02*
X10236730Y-15118960D01*
X10236730Y-15118960D02*
X10227206Y-15109436D01*
X10474825Y-14928484D02*
X10493872Y-14928484D01*
X10493872Y-14928484D02*
X10512920Y-14938008D01*
X10512920Y-14938008D02*
X10522444Y-14947531D01*
X10522444Y-14947531D02*
X10531968Y-14966579D01*
X10531968Y-14966579D02*
X10541491Y-15004674D01*
X10541491Y-15004674D02*
X10541491Y-15052293D01*
X10541491Y-15052293D02*
X10531968Y-15090388D01*
X10531968Y-15090388D02*
X10522444Y-15109436D01*
X10522444Y-15109436D02*
X10512920Y-15118960D01*
X10512920Y-15118960D02*
X10493872Y-15128484D01*
X10493872Y-15128484D02*
X10474825Y-15128484D01*
X10474825Y-15128484D02*
X10455777Y-15118960D01*
X10455777Y-15118960D02*
X10446253Y-15109436D01*
X10446253Y-15109436D02*
X10436730Y-15090388D01*
X10436730Y-15090388D02*
X10427206Y-15052293D01*
X10427206Y-15052293D02*
X10427206Y-15004674D01*
X10427206Y-15004674D02*
X10436730Y-14966579D01*
X10436730Y-14966579D02*
X10446253Y-14947531D01*
X10446253Y-14947531D02*
X10455777Y-14938008D01*
X10455777Y-14938008D02*
X10474825Y-14928484D01*
X10779587Y-15128484D02*
X10779587Y-14928484D01*
X10865301Y-15128484D02*
X10865301Y-15023722D01*
X10865301Y-15023722D02*
X10855777Y-15004674D01*
X10855777Y-15004674D02*
X10836730Y-14995150D01*
X10836730Y-14995150D02*
X10808158Y-14995150D01*
X10808158Y-14995150D02*
X10789111Y-15004674D01*
X10789111Y-15004674D02*
X10779587Y-15014198D01*
X10989111Y-15128484D02*
X10970063Y-15118960D01*
X10970063Y-15118960D02*
X10960539Y-15109436D01*
X10960539Y-15109436D02*
X10951015Y-15090388D01*
X10951015Y-15090388D02*
X10951015Y-15033246D01*
X10951015Y-15033246D02*
X10960539Y-15014198D01*
X10960539Y-15014198D02*
X10970063Y-15004674D01*
X10970063Y-15004674D02*
X10989111Y-14995150D01*
X10989111Y-14995150D02*
X11017682Y-14995150D01*
X11017682Y-14995150D02*
X11036730Y-15004674D01*
X11036730Y-15004674D02*
X11046253Y-15014198D01*
X11046253Y-15014198D02*
X11055777Y-15033246D01*
X11055777Y-15033246D02*
X11055777Y-15090388D01*
X11055777Y-15090388D02*
X11046253Y-15109436D01*
X11046253Y-15109436D02*
X11036730Y-15118960D01*
X11036730Y-15118960D02*
X11017682Y-15128484D01*
X11017682Y-15128484D02*
X10989111Y-15128484D01*
X11170063Y-15128484D02*
X11151015Y-15118960D01*
X11151015Y-15118960D02*
X11141492Y-15099912D01*
X11141492Y-15099912D02*
X11141492Y-14928484D01*
X11322444Y-15118960D02*
X11303396Y-15128484D01*
X11303396Y-15128484D02*
X11265301Y-15128484D01*
X11265301Y-15128484D02*
X11246253Y-15118960D01*
X11246253Y-15118960D02*
X11236730Y-15099912D01*
X11236730Y-15099912D02*
X11236730Y-15023722D01*
X11236730Y-15023722D02*
X11246253Y-15004674D01*
X11246253Y-15004674D02*
X11265301Y-14995150D01*
X11265301Y-14995150D02*
X11303396Y-14995150D01*
X11303396Y-14995150D02*
X11322444Y-15004674D01*
X11322444Y-15004674D02*
X11331968Y-15023722D01*
X11331968Y-15023722D02*
X11331968Y-15042769D01*
X11331968Y-15042769D02*
X11236730Y-15061817D01*
X11408158Y-15118960D02*
X11427206Y-15128484D01*
X11427206Y-15128484D02*
X11465301Y-15128484D01*
X11465301Y-15128484D02*
X11484349Y-15118960D01*
X11484349Y-15118960D02*
X11493872Y-15099912D01*
X11493872Y-15099912D02*
X11493872Y-15090388D01*
X11493872Y-15090388D02*
X11484349Y-15071341D01*
X11484349Y-15071341D02*
X11465301Y-15061817D01*
X11465301Y-15061817D02*
X11436730Y-15061817D01*
X11436730Y-15061817D02*
X11417682Y-15052293D01*
X11417682Y-15052293D02*
X11408158Y-15033246D01*
X11408158Y-15033246D02*
X11408158Y-15023722D01*
X11408158Y-15023722D02*
X11417682Y-15004674D01*
X11417682Y-15004674D02*
X11436730Y-14995150D01*
X11436730Y-14995150D02*
X11465301Y-14995150D01*
X11465301Y-14995150D02*
X11484349Y-15004674D01*
X11560539Y-15204674D02*
X11570063Y-15195150D01*
X11570063Y-15195150D02*
X11589111Y-15166579D01*
X11589111Y-15166579D02*
X11598634Y-15147531D01*
X11598634Y-15147531D02*
X11608158Y-15118960D01*
X11608158Y-15118960D02*
X11617682Y-15071341D01*
X11617682Y-15071341D02*
X11617682Y-15033246D01*
X11617682Y-15033246D02*
X11608158Y-14985627D01*
X11608158Y-14985627D02*
X11598634Y-14957055D01*
X11598634Y-14957055D02*
X11589111Y-14938008D01*
X11589111Y-14938008D02*
X11570063Y-14909436D01*
X11570063Y-14909436D02*
X11560539Y-14899912D01*
M02*
