%TF.GenerationSoftware,KiCad,Pcbnew,8.0.2*%
%TF.CreationDate,2024-10-19T21:23:19-07:00*%
%TF.ProjectId,mini_weather_monitor,6d696e69-5f77-4656-9174-6865725f6d6f,rev?*%
%TF.SameCoordinates,Original*%
%TF.FileFunction,Copper,L2,Bot*%
%TF.FilePolarity,Positive*%
%FSLAX46Y46*%
G04 Gerber Fmt 4.6, Leading zero omitted, Abs format (unit mm)*
G04 Created by KiCad (PCBNEW 8.0.2) date 2024-10-19 21:23:19*
%MOMM*%
%LPD*%
G01*
G04 APERTURE LIST*
%TA.AperFunction,WasherPad*%
%ADD10C,3.250000*%
%TD*%
%TA.AperFunction,ComponentPad*%
%ADD11C,1.524000*%
%TD*%
%TA.AperFunction,WasherPad*%
%ADD12C,3.000000*%
%TD*%
%TA.AperFunction,WasherPad*%
%ADD13C,4.000000*%
%TD*%
%TA.AperFunction,ComponentPad*%
%ADD14R,1.400000X1.200000*%
%TD*%
%TA.AperFunction,ComponentPad*%
%ADD15O,1.400000X1.200000*%
%TD*%
%TA.AperFunction,ComponentPad*%
%ADD16R,2.000000X2.000000*%
%TD*%
%TA.AperFunction,ComponentPad*%
%ADD17C,2.000000*%
%TD*%
%TA.AperFunction,ComponentPad*%
%ADD18R,1.700000X1.700000*%
%TD*%
%TA.AperFunction,ComponentPad*%
%ADD19O,1.700000X1.700000*%
%TD*%
%TA.AperFunction,ViaPad*%
%ADD20C,0.800000*%
%TD*%
%TA.AperFunction,Conductor*%
%ADD21C,0.500000*%
%TD*%
%TA.AperFunction,Conductor*%
%ADD22C,0.508000*%
%TD*%
%TA.AperFunction,Conductor*%
%ADD23C,0.250000*%
%TD*%
G04 APERTURE END LIST*
D10*
%TO.P,U2_BME280,*%
%TO.N,*%
X192571000Y-94824000D03*
X192571000Y-105238000D03*
D11*
%TO.P,U2_BME280,1,VCC*%
%TO.N,+3V3*%
X184697000Y-93554000D03*
%TO.P,U2_BME280,2,GND*%
%TO.N,GND*%
X184697000Y-96094000D03*
%TO.P,U2_BME280,3,SCL*%
%TO.N,Net-(U2_BME280-SCL)*%
X184697000Y-98634000D03*
%TO.P,U2_BME280,4,SDA*%
%TO.N,Net-(U2_BME280-SDA)*%
X184697000Y-101174000D03*
%TO.P,U2_BME280,5,CSB*%
%TO.N,unconnected-(U2_BME280-CSB-Pad5)*%
X184697000Y-103714000D03*
%TO.P,U2_BME280,6,SDO*%
%TO.N,unconnected-(U2_BME280-SDO-Pad6)*%
X184697000Y-106254000D03*
%TD*%
D12*
%TO.P,H1,*%
%TO.N,*%
X69000000Y-67000000D03*
%TD*%
%TO.P,H2,*%
%TO.N,*%
X198000000Y-67000000D03*
%TD*%
%TO.P,H4,*%
%TO.N,*%
X198000000Y-133000000D03*
%TD*%
%TO.P,U3_BH1750,*%
%TO.N,*%
X184102000Y-71851000D03*
X192738000Y-71851000D03*
D11*
%TO.P,U3_BH1750,1,ADDR*%
%TO.N,unconnected-(U3_BH1750-ADDR-Pad1)*%
X183340000Y-86075000D03*
%TO.P,U3_BH1750,2,SDA*%
%TO.N,Net-(U2_BME280-SDA)*%
X185880000Y-86075000D03*
%TO.P,U3_BH1750,3,SCL*%
%TO.N,Net-(U2_BME280-SCL)*%
X188420000Y-86075000D03*
%TO.P,U3_BH1750,4,GND*%
%TO.N,GND*%
X190960000Y-86075000D03*
%TO.P,U3_BH1750,5,VCC*%
%TO.N,VCC*%
X193500000Y-86075000D03*
%TD*%
D13*
%TO.P,U2,*%
%TO.N,*%
X75485000Y-127295000D03*
X75975000Y-71495000D03*
X178015000Y-71075000D03*
X178015000Y-126395000D03*
D14*
%TO.P,U2,1,VCC*%
%TO.N,VCC*%
X74975000Y-82435000D03*
D15*
%TO.P,U2,2,GND*%
%TO.N,GND*%
X74975000Y-84975000D03*
%TO.P,U2,3,CS*%
%TO.N,Net-(U2-CS)*%
X74975000Y-87515000D03*
%TO.P,U2,4,RESET*%
%TO.N,Net-(U2-RESET)*%
X74975000Y-90055000D03*
%TO.P,U2,5,DC/RS*%
%TO.N,Net-(U2-DC{slash}RS)*%
X74975000Y-92595000D03*
%TO.P,U2,6,SDI_(MOSI)*%
%TO.N,Net-(U2-SDI_(MOSI))*%
X74975000Y-95135000D03*
%TO.P,U2,7,SCK*%
%TO.N,Net-(U2-SCK)*%
X74975000Y-97675000D03*
%TO.P,U2,8,LED*%
%TO.N,Net-(U2-LED)*%
X74975000Y-100215000D03*
%TO.P,U2,9,SDO(MISO)*%
%TO.N,Net-(U2-SDO(MISO))*%
X74975000Y-102755000D03*
%TO.P,U2,10,T_CLK*%
%TO.N,unconnected-(U2-T_CLK-Pad10)*%
X74975000Y-105295000D03*
%TO.P,U2,11,T_CS*%
%TO.N,unconnected-(U2-T_CS-Pad11)*%
X74975000Y-107835000D03*
%TO.P,U2,12,T_DIN*%
%TO.N,unconnected-(U2-T_DIN-Pad12)*%
X74975000Y-110375000D03*
%TO.P,U2,13,T_DO*%
%TO.N,unconnected-(U2-T_DO-Pad13)*%
X74975000Y-112915000D03*
%TO.P,U2,14,T_IRQ*%
%TO.N,unconnected-(U2-T_IRQ-Pad14)*%
X74975000Y-115455000D03*
D14*
%TO.P,U2,15,SD_CS*%
%TO.N,Net-(U2-SD_CS)*%
X179015000Y-95135000D03*
D15*
%TO.P,U2,16,SD_MOSI*%
%TO.N,Net-(U2-SD_MOSI)*%
X179015000Y-97675000D03*
%TO.P,U2,17,SD_MISO*%
%TO.N,Net-(U2-SD_MISO)*%
X179015000Y-100215000D03*
%TO.P,U2,18,SD_SCK*%
%TO.N,Net-(U2-SD_SCK)*%
X179015000Y-102755000D03*
%TD*%
D12*
%TO.P,H3,*%
%TO.N,*%
X69000000Y-133000000D03*
%TD*%
D11*
%TO.P,5V_buck_boost1,1,VOUT-*%
%TO.N,GND*%
X142000000Y-73500000D03*
%TO.P,5V_buck_boost1,2,VOUT+*%
%TO.N,VCC*%
X150000000Y-73500000D03*
%TO.P,5V_buck_boost1,3,EN*%
%TO.N,VCC_PRE*%
X139460000Y-89500000D03*
%TO.P,5V_buck_boost1,4,VIN+*%
X142000000Y-89500000D03*
%TO.P,5V_buck_boost1,5,VIN-*%
%TO.N,GND*%
X150000000Y-89500000D03*
%TD*%
D16*
%TO.P,U_ESP32_DEVKIT_V1,1,3V3*%
%TO.N,+3V3*%
X124315000Y-112500000D03*
D17*
%TO.P,U_ESP32_DEVKIT_V1,2,GND*%
%TO.N,GND*%
X121775000Y-112500000D03*
%TO.P,U_ESP32_DEVKIT_V1,3,D15*%
%TO.N,Net-(U2-CS)*%
X119235000Y-112500000D03*
%TO.P,U_ESP32_DEVKIT_V1,4,D2*%
%TO.N,Net-(J1-Pin_1)*%
X116695000Y-112500000D03*
%TO.P,U_ESP32_DEVKIT_V1,5,D4*%
%TO.N,Net-(U2-LED)*%
X114155000Y-112500000D03*
%TO.P,U_ESP32_DEVKIT_V1,6,RX2*%
%TO.N,unconnected-(U_ESP32_DEVKIT_V1-RX2-Pad6)*%
X111615000Y-112500000D03*
%TO.P,U_ESP32_DEVKIT_V1,7,TX2*%
%TO.N,unconnected-(U_ESP32_DEVKIT_V1-TX2-Pad7)*%
X109075000Y-112500000D03*
%TO.P,U_ESP32_DEVKIT_V1,8,D5*%
%TO.N,Net-(U2-SD_CS)*%
X106535000Y-112500000D03*
%TO.P,U_ESP32_DEVKIT_V1,9,D18*%
%TO.N,Net-(U2-SD_SCK)*%
X103995000Y-112500000D03*
%TO.P,U_ESP32_DEVKIT_V1,10,D19*%
%TO.N,Net-(U2-SD_MISO)*%
X101455000Y-112500000D03*
%TO.P,U_ESP32_DEVKIT_V1,11,D21*%
%TO.N,Net-(U2_BME280-SDA)*%
X98915000Y-112500000D03*
%TO.P,U_ESP32_DEVKIT_V1,12,RX0*%
%TO.N,unconnected-(U_ESP32_DEVKIT_V1-RX0-Pad12)*%
X96375000Y-112500000D03*
%TO.P,U_ESP32_DEVKIT_V1,13,TX0*%
%TO.N,unconnected-(U_ESP32_DEVKIT_V1-TX0-Pad13)*%
X93835000Y-112500000D03*
%TO.P,U_ESP32_DEVKIT_V1,14,D22*%
%TO.N,Net-(U2_BME280-SCL)*%
X91295000Y-112500000D03*
%TO.P,U_ESP32_DEVKIT_V1,15,D23*%
%TO.N,Net-(U2-SD_MOSI)*%
X88755000Y-112500000D03*
%TO.P,U_ESP32_DEVKIT_V1,16,EN*%
%TO.N,unconnected-(U_ESP32_DEVKIT_V1-EN-Pad16)*%
X88755000Y-87100000D03*
%TO.P,U_ESP32_DEVKIT_V1,17,VP*%
%TO.N,unconnected-(U_ESP32_DEVKIT_V1-VP-Pad17)*%
X91295000Y-87100000D03*
%TO.P,U_ESP32_DEVKIT_V1,18,VN*%
%TO.N,unconnected-(U_ESP32_DEVKIT_V1-VN-Pad18)*%
X93835000Y-87100000D03*
%TO.P,U_ESP32_DEVKIT_V1,19,D34*%
%TO.N,unconnected-(U_ESP32_DEVKIT_V1-D34-Pad19)*%
X96375000Y-87100000D03*
%TO.P,U_ESP32_DEVKIT_V1,20,D35*%
%TO.N,unconnected-(U_ESP32_DEVKIT_V1-D35-Pad20)*%
X98915000Y-87100000D03*
%TO.P,U_ESP32_DEVKIT_V1,21,D32*%
%TO.N,Net-(U2-RESET)*%
X101455000Y-87100000D03*
%TO.P,U_ESP32_DEVKIT_V1,22,D33*%
%TO.N,unconnected-(U_ESP32_DEVKIT_V1-D33-Pad22)*%
X103995000Y-87100000D03*
%TO.P,U_ESP32_DEVKIT_V1,23,D25*%
%TO.N,unconnected-(U_ESP32_DEVKIT_V1-D25-Pad23)*%
X106535000Y-87100000D03*
%TO.P,U_ESP32_DEVKIT_V1,24,D26*%
%TO.N,Net-(U2-DC{slash}RS)*%
X109075000Y-87100000D03*
%TO.P,U_ESP32_DEVKIT_V1,25,D27*%
%TO.N,unconnected-(U_ESP32_DEVKIT_V1-D27-Pad25)*%
X111615000Y-87100000D03*
%TO.P,U_ESP32_DEVKIT_V1,26,D14*%
%TO.N,Net-(U2-SCK)*%
X114155000Y-87100000D03*
%TO.P,U_ESP32_DEVKIT_V1,27,D12*%
%TO.N,Net-(U2-SDO(MISO))*%
X116695000Y-87100000D03*
%TO.P,U_ESP32_DEVKIT_V1,28,D13*%
%TO.N,Net-(U2-SDI_(MOSI))*%
X119235000Y-87100000D03*
%TO.P,U_ESP32_DEVKIT_V1,29,GND*%
%TO.N,GND*%
X121775000Y-87100000D03*
%TO.P,U_ESP32_DEVKIT_V1,30,VIN*%
%TO.N,VCC*%
X124315000Y-87100000D03*
%TD*%
D18*
%TO.P,J1,1,Pin_1*%
%TO.N,Net-(J1-Pin_1)*%
X142040000Y-124020000D03*
D19*
%TO.P,J1,2,Pin_2*%
%TO.N,VCC*%
X144580000Y-124020000D03*
%TO.P,J1,3,Pin_3*%
%TO.N,GND*%
X147120000Y-124020000D03*
%TD*%
D13*
%TO.P,USB_C_Input1,*%
%TO.N,*%
X162350000Y-106000000D03*
X162350000Y-94000000D03*
D11*
%TO.P,USB_C_Input1,1,VIN+*%
%TO.N,VCC_PRE*%
X161350000Y-101270000D03*
%TO.P,USB_C_Input1,2,VIN-*%
%TO.N,GND*%
X161360000Y-98730000D03*
%TD*%
D20*
%TO.N,VCC_PRE*%
X145975000Y-101375000D03*
%TO.N,VCC*%
X128725000Y-78875000D03*
X192075000Y-79000000D03*
X127000000Y-126000000D03*
X129500000Y-72000000D03*
%TO.N,Net-(J1-Pin_1)*%
X117175000Y-124800000D03*
%TO.N,Net-(U2-DC{slash}RS)*%
X107400000Y-93300000D03*
%TO.N,Net-(U2-SD_MOSI)*%
X89075000Y-117050000D03*
X176300000Y-98700000D03*
X175850000Y-117625500D03*
%TO.N,Net-(U2-SCK)*%
X113200000Y-98400000D03*
%TO.N,Net-(U2-RESET)*%
X101300000Y-91000000D03*
%TO.N,Net-(U2-SD_CS)*%
X173000000Y-114650500D03*
X175425000Y-96475000D03*
X106800000Y-114775500D03*
%TO.N,Net-(U2-SD_SCK)*%
X177575000Y-117925000D03*
X104300000Y-118650000D03*
%TO.N,GND*%
X150500000Y-98500000D03*
X121775000Y-120725000D03*
X122350000Y-127525000D03*
X185500000Y-90500000D03*
X170391130Y-120624500D03*
X150000000Y-76335000D03*
X172400000Y-90025000D03*
X172275000Y-76850000D03*
X190500000Y-83000000D03*
X172400000Y-83900000D03*
%TO.N,+3V3*%
X180625000Y-122875000D03*
X181100000Y-113200000D03*
X181200000Y-94500000D03*
X124625000Y-129225000D03*
%TO.N,Net-(U2-CS)*%
X118950000Y-109100000D03*
X78900000Y-88800000D03*
X79300000Y-108750000D03*
%TO.N,Net-(U2-SDO(MISO))*%
X115900000Y-103124500D03*
%TO.N,Net-(U2-SDI_(MOSI))*%
X117900000Y-96100000D03*
%TO.N,Net-(U2-SD_MISO)*%
X101800000Y-116225000D03*
X174720180Y-116500500D03*
X175175502Y-101460741D03*
%TO.N,Net-(U2-LED)*%
X113200000Y-101100000D03*
%TO.N,Net-(U2_BME280-SCL)*%
X188400000Y-116700000D03*
X182400000Y-116700000D03*
X91675000Y-116900000D03*
X182599016Y-99399016D03*
%TO.N,Net-(U2_BME280-SDA)*%
X183300000Y-109800000D03*
X186000000Y-109900000D03*
X99200000Y-110000000D03*
%TD*%
D21*
%TO.N,VCC_PRE*%
X139460000Y-96960000D02*
X139460000Y-89500000D01*
X143950000Y-101450000D02*
X139460000Y-96960000D01*
X145975000Y-101375000D02*
X145900000Y-101450000D01*
X145900000Y-101450000D02*
X143950000Y-101450000D01*
D22*
X145975000Y-101375000D02*
X142000000Y-97400000D01*
X142000000Y-97400000D02*
X142000000Y-89500000D01*
X145975000Y-101375000D02*
X146080000Y-101270000D01*
%TO.N,VCC*%
X193500000Y-86200000D02*
X193500000Y-80425000D01*
X193500000Y-80425000D02*
X192075000Y-79000000D01*
X129500000Y-72000000D02*
X128725000Y-72775000D01*
X124315000Y-87100000D02*
X127000000Y-89785000D01*
X127000000Y-89785000D02*
X127000000Y-126000000D01*
X193400000Y-86115000D02*
X193450000Y-86065000D01*
X128725000Y-72775000D02*
X128725000Y-78875000D01*
D23*
%TO.N,Net-(J1-Pin_1)*%
X116695000Y-124320000D02*
X117175000Y-124800000D01*
X116695000Y-112500000D02*
X116695000Y-124320000D01*
%TO.N,Net-(U2-DC{slash}RS)*%
X109100000Y-91600000D02*
X109100000Y-87125000D01*
X109100000Y-87125000D02*
X109075000Y-87100000D01*
X107400000Y-93300000D02*
X109100000Y-91600000D01*
%TO.N,Net-(U2-SD_MOSI)*%
X88755000Y-112500000D02*
X88755000Y-116730000D01*
X176300000Y-117175500D02*
X175850000Y-117625500D01*
X176300000Y-98700000D02*
X176300000Y-117175500D01*
X88755000Y-116730000D02*
X89075000Y-117050000D01*
%TO.N,Net-(U2-SCK)*%
X114155000Y-97445000D02*
X113200000Y-98400000D01*
X114155000Y-87100000D02*
X114155000Y-97445000D01*
%TO.N,Net-(U2-RESET)*%
X101455000Y-90845000D02*
X101300000Y-91000000D01*
X101455000Y-87100000D02*
X101455000Y-90845000D01*
%TO.N,Net-(U2-SD_CS)*%
X175425000Y-96475000D02*
X174175000Y-97725000D01*
X174175000Y-113475500D02*
X173000000Y-114650500D01*
X106535000Y-114510500D02*
X106800000Y-114775500D01*
X174175000Y-97725000D02*
X174175000Y-113475500D01*
X106535000Y-112500000D02*
X106535000Y-114510500D01*
%TO.N,Net-(U2-SD_SCK)*%
X177940000Y-103610000D02*
X177940000Y-117560000D01*
X103995000Y-118345000D02*
X104300000Y-118650000D01*
X103995000Y-112500000D02*
X103995000Y-118345000D01*
X177940000Y-117560000D02*
X177575000Y-117925000D01*
D22*
%TO.N,GND*%
X161590000Y-98500000D02*
X170640000Y-98500000D01*
X121775000Y-112500000D02*
X121775000Y-120725000D01*
X170670000Y-100170000D02*
X170680179Y-107000000D01*
X170680179Y-120335451D02*
X170680179Y-107000000D01*
X186300000Y-91300000D02*
X185500000Y-90500000D01*
X170700000Y-120315630D02*
X170391130Y-120624500D01*
X170680179Y-107000000D02*
X170700000Y-120300000D01*
X172400000Y-83900000D02*
X172400000Y-90025000D01*
X150500000Y-98500000D02*
X150000000Y-98000000D01*
X149850000Y-76485000D02*
X149850000Y-89500000D01*
X172275000Y-83775000D02*
X172400000Y-83900000D01*
X150000000Y-98000000D02*
X150000000Y-89650000D01*
X184697000Y-96094000D02*
X186300000Y-94491000D01*
X172400000Y-90025000D02*
X172400000Y-96800000D01*
X121775000Y-120725000D02*
X121800000Y-120750000D01*
X121775000Y-112500000D02*
X121775000Y-87100000D01*
X190910000Y-86065000D02*
X190910000Y-83410000D01*
X161360000Y-98730000D02*
X161590000Y-98500000D01*
X186300000Y-94491000D02*
X186300000Y-91300000D01*
X170391130Y-120624500D02*
X170680179Y-120335451D01*
X150000000Y-76335000D02*
X149850000Y-76485000D01*
X170640000Y-98500000D02*
X170670000Y-98530000D01*
X172400000Y-96800000D02*
X170670000Y-98530000D01*
X121800000Y-120750000D02*
X121800000Y-126975000D01*
X190910000Y-83410000D02*
X190500000Y-83000000D01*
X172275000Y-76850000D02*
X172275000Y-83775000D01*
X170670000Y-98530000D02*
X170670000Y-100170000D01*
X121800000Y-126975000D02*
X122350000Y-127525000D01*
%TO.N,+3V3*%
X124315000Y-112500000D02*
X124315000Y-128915000D01*
X180625000Y-122875000D02*
X181100000Y-122400000D01*
X181200000Y-94500000D02*
X181100000Y-94600000D01*
X181100000Y-122400000D02*
X181100000Y-113200000D01*
X181100000Y-94600000D02*
X181100000Y-113200000D01*
X124315000Y-128915000D02*
X124625000Y-129225000D01*
D23*
%TO.N,Net-(U2-CS)*%
X78900000Y-108350000D02*
X79300000Y-108750000D01*
X119235000Y-109385000D02*
X118950000Y-109100000D01*
X119235000Y-112500000D02*
X119235000Y-109385000D01*
X78900000Y-88800000D02*
X78900000Y-108350000D01*
%TO.N,Net-(U2-SDO(MISO))*%
X116695000Y-102329500D02*
X115900000Y-103124500D01*
X116695000Y-87100000D02*
X116695000Y-102329500D01*
%TO.N,Net-(U2-SDI_(MOSI))*%
X119300000Y-87165000D02*
X119235000Y-87100000D01*
X117900000Y-96100000D02*
X119300000Y-94700000D01*
X119300000Y-94700000D02*
X119300000Y-87165000D01*
%TO.N,Net-(U2-SD_MISO)*%
X175175502Y-101460741D02*
X175100000Y-101536243D01*
X101455000Y-112500000D02*
X101455000Y-115880000D01*
X175100000Y-101536243D02*
X175100000Y-116120680D01*
X101455000Y-115880000D02*
X101800000Y-116225000D01*
X175100000Y-116120680D02*
X174720180Y-116500500D01*
%TO.N,Net-(U2-LED)*%
X113200000Y-101100000D02*
X114155000Y-102055000D01*
X114155000Y-102055000D02*
X114155000Y-112500000D01*
%TO.N,Net-(U2_BME280-SCL)*%
X188370000Y-86065000D02*
X189100000Y-86795000D01*
X91295000Y-112500000D02*
X91295000Y-116520000D01*
X182400000Y-99598032D02*
X182599016Y-99399016D01*
X182400000Y-116700000D02*
X182400000Y-99598032D01*
X189100000Y-116000000D02*
X188400000Y-116700000D01*
X189100000Y-86795000D02*
X189100000Y-116000000D01*
X91295000Y-116520000D02*
X91675000Y-116900000D01*
%TO.N,Net-(U2_BME280-SDA)*%
X186975000Y-87210000D02*
X186975000Y-108925000D01*
X98915000Y-110285000D02*
X99200000Y-110000000D01*
X183300000Y-109800000D02*
X183300000Y-102571000D01*
X183300000Y-102571000D02*
X184697000Y-101174000D01*
X186975000Y-108925000D02*
X186000000Y-109900000D01*
X185830000Y-86065000D02*
X186975000Y-87210000D01*
X98915000Y-112500000D02*
X98915000Y-110285000D01*
D22*
%TO.N,VCC*%
X128850000Y-79000000D02*
X128850000Y-82565000D01*
X128850000Y-82565000D02*
X124315000Y-87100000D01*
%TD*%
M02*
