%TF.GenerationSoftware,KiCad,Pcbnew,(6.0.5)*%
%TF.CreationDate,2022-06-19T22:20:01-07:00*%
%TF.ProjectId,mini_weather_monitor,6d696e69-5f77-4656-9174-6865725f6d6f,rev?*%
%TF.SameCoordinates,Original*%
%TF.FileFunction,Copper,L1,Top*%
%TF.FilePolarity,Positive*%
%FSLAX46Y46*%
G04 Gerber Fmt 4.6, Leading zero omitted, Abs format (unit mm)*
G04 Created by KiCad (PCBNEW (6.0.5)) date 2022-06-19 22:20:01*
%MOMM*%
%LPD*%
G01*
G04 APERTURE LIST*
%TA.AperFunction,WasherPad*%
%ADD10C,4.000000*%
%TD*%
%TA.AperFunction,ComponentPad*%
%ADD11R,1.400000X1.200000*%
%TD*%
%TA.AperFunction,ComponentPad*%
%ADD12O,1.400000X1.200000*%
%TD*%
%TA.AperFunction,ComponentPad*%
%ADD13C,1.524000*%
%TD*%
%TA.AperFunction,ComponentPad*%
%ADD14R,1.524000X1.524000*%
%TD*%
%TA.AperFunction,ComponentPad*%
%ADD15R,2.000000X2.000000*%
%TD*%
%TA.AperFunction,ComponentPad*%
%ADD16C,2.000000*%
%TD*%
%TA.AperFunction,ComponentPad*%
%ADD17O,1.700000X1.700000*%
%TD*%
%TA.AperFunction,ComponentPad*%
%ADD18R,1.700000X1.700000*%
%TD*%
%TA.AperFunction,ViaPad*%
%ADD19C,0.800000*%
%TD*%
%TA.AperFunction,Conductor*%
%ADD20C,0.250000*%
%TD*%
%TA.AperFunction,Conductor*%
%ADD21C,0.508000*%
%TD*%
G04 APERTURE END LIST*
D10*
%TO.P,U2,*%
%TO.N,*%
X176940000Y-71930000D03*
X74410000Y-128150000D03*
X74900000Y-72350000D03*
X176940000Y-127250000D03*
D11*
%TO.P,U2,1,VCC*%
%TO.N,VCC*%
X73900000Y-83290000D03*
D12*
%TO.P,U2,2,GND*%
%TO.N,GND*%
X73900000Y-85830000D03*
%TO.P,U2,3,CS*%
%TO.N,Net-(U2-Pad3)*%
X73900000Y-88370000D03*
%TO.P,U2,4,RESET*%
%TO.N,Net-(U2-Pad4)*%
X73900000Y-90910000D03*
%TO.P,U2,5,DC/RS*%
%TO.N,Net-(U2-Pad5)*%
X73900000Y-93450000D03*
%TO.P,U2,6,SDI_(MOSI)*%
%TO.N,Net-(U2-Pad6)*%
X73900000Y-95990000D03*
%TO.P,U2,7,SCK*%
%TO.N,Net-(U2-Pad7)*%
X73900000Y-98530000D03*
%TO.P,U2,8,LED*%
%TO.N,Net-(U2-Pad8)*%
X73900000Y-101070000D03*
%TO.P,U2,9,SDO(MISO)*%
%TO.N,Net-(U2-Pad9)*%
X73900000Y-103610000D03*
%TO.P,U2,10,T_CLK*%
%TO.N,unconnected-(U2-Pad10)*%
X73900000Y-106150000D03*
%TO.P,U2,11,T_CS*%
%TO.N,unconnected-(U2-Pad11)*%
X73900000Y-108690000D03*
%TO.P,U2,12,T_DIN*%
%TO.N,unconnected-(U2-Pad12)*%
X73900000Y-111230000D03*
%TO.P,U2,13,T_DO*%
%TO.N,unconnected-(U2-Pad13)*%
X73900000Y-113770000D03*
%TO.P,U2,14,T_IRQ*%
%TO.N,unconnected-(U2-Pad14)*%
X73900000Y-116310000D03*
D11*
%TO.P,U2,15,SD_CS*%
%TO.N,Net-(U2-Pad15)*%
X177940000Y-95990000D03*
D12*
%TO.P,U2,16,SD_MOSI*%
%TO.N,Net-(U2-Pad16)*%
X177940000Y-98530000D03*
%TO.P,U2,17,SD_MISO*%
%TO.N,Net-(U2-Pad17)*%
X177940000Y-101070000D03*
%TO.P,U2,18,SD_SCK*%
%TO.N,Net-(U2-Pad18)*%
X177940000Y-103610000D03*
%TD*%
D13*
%TO.P,Ue,1,VCC1*%
%TO.N,VCC*%
X168611500Y-78875000D03*
D14*
%TO.P,Ue,2,GND*%
%TO.N,GND*%
X168611500Y-76335000D03*
D13*
%TO.P,Ue,3,VCC1*%
%TO.N,VCC*%
X158311500Y-78875000D03*
D14*
%TO.P,Ue,4,GND*%
%TO.N,GND*%
X158311500Y-76335000D03*
D13*
%TO.P,Ue,5,VCC2*%
%TO.N,+3V3*%
X168611500Y-123235000D03*
D14*
%TO.P,Ue,6,GND*%
%TO.N,GND*%
X168611500Y-120695000D03*
D13*
%TO.P,Ue,7,VCC2*%
%TO.N,+3V3*%
X158311500Y-123235000D03*
D14*
%TO.P,Ue,8,GND*%
%TO.N,GND*%
X158311500Y-120695000D03*
%TD*%
D13*
%TO.P,U2_BME280,1,VCC*%
%TO.N,+3V3*%
X184697000Y-93554000D03*
%TO.P,U2_BME280,2,GND*%
%TO.N,GND*%
X184697000Y-96094000D03*
%TO.P,U2_BME280,3,SCL*%
%TO.N,Net-(U2_BME280-Pad3)*%
X184697000Y-98634000D03*
%TO.P,U2_BME280,4,SDA*%
%TO.N,Net-(U2_BME280-Pad4)*%
X184697000Y-101174000D03*
%TO.P,U2_BME280,5,CSB*%
%TO.N,unconnected-(U2_BME280-Pad5)*%
X184697000Y-103714000D03*
%TO.P,U2_BME280,6,SDO*%
%TO.N,unconnected-(U2_BME280-Pad6)*%
X184697000Y-106254000D03*
%TD*%
%TO.P,U3_BH1750,1,ADDR*%
%TO.N,unconnected-(U3_BH1750-Pad1)*%
X183340000Y-86075000D03*
%TO.P,U3_BH1750,2,SDA*%
%TO.N,Net-(U2_BME280-Pad4)*%
X185880000Y-86075000D03*
%TO.P,U3_BH1750,3,SCL*%
%TO.N,Net-(U2_BME280-Pad3)*%
X188420000Y-86075000D03*
%TO.P,U3_BH1750,4,GND*%
%TO.N,GND*%
X190960000Y-86075000D03*
%TO.P,U3_BH1750,5,VCC*%
%TO.N,VCC*%
X193500000Y-86075000D03*
%TD*%
D15*
%TO.P,U_ESP32_DEVKIT_V1,1,3V3*%
%TO.N,+3V3*%
X124315000Y-112500000D03*
D16*
%TO.P,U_ESP32_DEVKIT_V1,2,GND*%
%TO.N,GND*%
X121775000Y-112500000D03*
%TO.P,U_ESP32_DEVKIT_V1,3,D15*%
%TO.N,Net-(U2-Pad3)*%
X119235000Y-112500000D03*
%TO.P,U_ESP32_DEVKIT_V1,4,D2*%
%TO.N,Net-(J1-Pad1)*%
X116695000Y-112500000D03*
%TO.P,U_ESP32_DEVKIT_V1,5,D4*%
%TO.N,Net-(U2-Pad8)*%
X114155000Y-112500000D03*
%TO.P,U_ESP32_DEVKIT_V1,6,RX2*%
%TO.N,unconnected-(U_ESP32_DEVKIT_V1-Pad6)*%
X111615000Y-112500000D03*
%TO.P,U_ESP32_DEVKIT_V1,7,TX2*%
%TO.N,unconnected-(U_ESP32_DEVKIT_V1-Pad7)*%
X109075000Y-112500000D03*
%TO.P,U_ESP32_DEVKIT_V1,8,D5*%
%TO.N,Net-(U2-Pad15)*%
X106535000Y-112500000D03*
%TO.P,U_ESP32_DEVKIT_V1,9,D18*%
%TO.N,Net-(U2-Pad18)*%
X103995000Y-112500000D03*
%TO.P,U_ESP32_DEVKIT_V1,10,D19*%
%TO.N,Net-(U2-Pad17)*%
X101455000Y-112500000D03*
%TO.P,U_ESP32_DEVKIT_V1,11,D21*%
%TO.N,Net-(U2_BME280-Pad4)*%
X98915000Y-112500000D03*
%TO.P,U_ESP32_DEVKIT_V1,12,RX0*%
%TO.N,unconnected-(U_ESP32_DEVKIT_V1-Pad12)*%
X96375000Y-112500000D03*
%TO.P,U_ESP32_DEVKIT_V1,13,TX0*%
%TO.N,unconnected-(U_ESP32_DEVKIT_V1-Pad13)*%
X93835000Y-112500000D03*
%TO.P,U_ESP32_DEVKIT_V1,14,D22*%
%TO.N,Net-(U2_BME280-Pad3)*%
X91295000Y-112500000D03*
%TO.P,U_ESP32_DEVKIT_V1,15,D23*%
%TO.N,Net-(U2-Pad16)*%
X88755000Y-112500000D03*
%TO.P,U_ESP32_DEVKIT_V1,16,EN*%
%TO.N,unconnected-(U_ESP32_DEVKIT_V1-Pad16)*%
X88755000Y-87100000D03*
%TO.P,U_ESP32_DEVKIT_V1,17,VP*%
%TO.N,unconnected-(U_ESP32_DEVKIT_V1-Pad17)*%
X91295000Y-87100000D03*
%TO.P,U_ESP32_DEVKIT_V1,18,VN*%
%TO.N,unconnected-(U_ESP32_DEVKIT_V1-Pad18)*%
X93835000Y-87100000D03*
%TO.P,U_ESP32_DEVKIT_V1,19,D34*%
%TO.N,unconnected-(U_ESP32_DEVKIT_V1-Pad19)*%
X96375000Y-87100000D03*
%TO.P,U_ESP32_DEVKIT_V1,20,D35*%
%TO.N,unconnected-(U_ESP32_DEVKIT_V1-Pad20)*%
X98915000Y-87100000D03*
%TO.P,U_ESP32_DEVKIT_V1,21,D32*%
%TO.N,Net-(U2-Pad4)*%
X101455000Y-87100000D03*
%TO.P,U_ESP32_DEVKIT_V1,22,D33*%
%TO.N,unconnected-(U_ESP32_DEVKIT_V1-Pad22)*%
X103995000Y-87100000D03*
%TO.P,U_ESP32_DEVKIT_V1,23,D25*%
%TO.N,unconnected-(U_ESP32_DEVKIT_V1-Pad23)*%
X106535000Y-87100000D03*
%TO.P,U_ESP32_DEVKIT_V1,24,D26*%
%TO.N,Net-(U2-Pad5)*%
X109075000Y-87100000D03*
%TO.P,U_ESP32_DEVKIT_V1,25,D27*%
%TO.N,unconnected-(U_ESP32_DEVKIT_V1-Pad25)*%
X111615000Y-87100000D03*
%TO.P,U_ESP32_DEVKIT_V1,26,D14*%
%TO.N,Net-(U2-Pad7)*%
X114155000Y-87100000D03*
%TO.P,U_ESP32_DEVKIT_V1,27,D12*%
%TO.N,Net-(U2-Pad9)*%
X116695000Y-87100000D03*
%TO.P,U_ESP32_DEVKIT_V1,28,D13*%
%TO.N,Net-(U2-Pad6)*%
X119235000Y-87100000D03*
%TO.P,U_ESP32_DEVKIT_V1,29,GND*%
%TO.N,GND*%
X121775000Y-87100000D03*
%TO.P,U_ESP32_DEVKIT_V1,30,VIN*%
%TO.N,VCC*%
X124315000Y-87100000D03*
%TD*%
D17*
%TO.P,J1,3,Pin_3*%
%TO.N,GND*%
X147120000Y-124020000D03*
%TO.P,J1,2,Pin_2*%
%TO.N,VCC*%
X144580000Y-124020000D03*
D18*
%TO.P,J1,1,Pin_1*%
%TO.N,Net-(J1-Pad1)*%
X142040000Y-124020000D03*
%TD*%
D19*
%TO.N,GND*%
X121775000Y-120725000D03*
%TO.N,Net-(U2-Pad3)*%
X118950000Y-109100000D03*
%TO.N,GND*%
X170391130Y-120624500D03*
%TO.N,VCC*%
X148125000Y-78875000D03*
X192075000Y-79000000D03*
%TO.N,Net-(U2-Pad3)*%
X78900000Y-88800000D03*
X79300000Y-108750000D03*
%TO.N,Net-(U2-Pad4)*%
X101300000Y-91000000D03*
%TO.N,Net-(U2-Pad5)*%
X107400000Y-93300000D03*
%TO.N,Net-(U2-Pad6)*%
X117900000Y-96100000D03*
%TO.N,Net-(U2-Pad7)*%
X113200000Y-98400000D03*
%TO.N,Net-(U2-Pad8)*%
X113200000Y-101100000D03*
%TO.N,Net-(U2-Pad9)*%
X115900000Y-103124500D03*
%TO.N,GND*%
X122350000Y-127525000D03*
X185500000Y-90500000D03*
X172400000Y-90025000D03*
X172275000Y-76850000D03*
X190500000Y-83000000D03*
X172400000Y-83900000D03*
%TO.N,+3V3*%
X180625000Y-122875000D03*
X181100000Y-113200000D03*
X181200000Y-94500000D03*
X124625000Y-129225000D03*
X157425000Y-128950000D03*
%TO.N,Net-(U2_BME280-Pad4)*%
X183300000Y-109800000D03*
X186000000Y-109900000D03*
X99200000Y-110000000D03*
%TO.N,Net-(U2-Pad15)*%
X173000000Y-114650500D03*
X175425000Y-96475000D03*
X106800000Y-114775500D03*
%TO.N,Net-(U2-Pad18)*%
X177575000Y-117925000D03*
X104300000Y-118650000D03*
%TO.N,Net-(U2-Pad17)*%
X101800000Y-116225000D03*
X174720180Y-116500500D03*
X175175502Y-101460741D03*
%TO.N,Net-(U2-Pad16)*%
X89075000Y-117050000D03*
X176300000Y-98700000D03*
X175850000Y-117625500D03*
%TO.N,Net-(U2_BME280-Pad3)*%
X188400000Y-116700000D03*
X182400000Y-116700000D03*
X91675000Y-116900000D03*
X182599016Y-99399016D03*
%TO.N,Net-(J1-Pad1)*%
X117175000Y-124800000D03*
%TD*%
D20*
%TO.N,Net-(U2-Pad3)*%
X79300000Y-108750000D02*
X118600000Y-108750000D01*
X118600000Y-108750000D02*
X118950000Y-109100000D01*
D21*
%TO.N,GND*%
X168611500Y-76335000D02*
X158311500Y-76335000D01*
X171760000Y-76335000D02*
X168611500Y-76335000D01*
%TO.N,VCC*%
X191950000Y-78875000D02*
X192075000Y-79000000D01*
X168611500Y-78875000D02*
X191950000Y-78875000D01*
X158311500Y-78875000D02*
X168611500Y-78875000D01*
%TO.N,+3V3*%
X180265000Y-123235000D02*
X180625000Y-122875000D01*
X168611500Y-123235000D02*
X180265000Y-123235000D01*
X158311500Y-123235000D02*
X168611500Y-123235000D01*
%TO.N,GND*%
X168611500Y-120695000D02*
X158311500Y-120695000D01*
X170391130Y-120624500D02*
X168682000Y-120624500D01*
X168682000Y-120624500D02*
X168611500Y-120695000D01*
D20*
%TO.N,Net-(J1-Pad1)*%
X117200000Y-124775000D02*
X117175000Y-124800000D01*
X142040000Y-124020000D02*
X141285000Y-124775000D01*
X141285000Y-124775000D02*
X117200000Y-124775000D01*
D21*
%TO.N,GND*%
X122825000Y-121775000D02*
X121800000Y-120750000D01*
X147120000Y-122820000D02*
X146075000Y-121775000D01*
X146075000Y-121775000D02*
X122825000Y-121775000D01*
X147120000Y-124020000D02*
X147120000Y-122820000D01*
%TO.N,VCC*%
X148125000Y-78875000D02*
X128725000Y-78875000D01*
X158311500Y-78875000D02*
X148125000Y-78875000D01*
X73910000Y-83300000D02*
X124230000Y-83300000D01*
X124385000Y-83215000D02*
X124315000Y-83215000D01*
X128725000Y-78875000D02*
X124385000Y-83215000D01*
X124315000Y-83215000D02*
X124315000Y-87100000D01*
X73900000Y-83290000D02*
X73910000Y-83300000D01*
X124230000Y-83300000D02*
X124315000Y-83215000D01*
D20*
%TO.N,Net-(U2-Pad3)*%
X73900000Y-88370000D02*
X78470000Y-88370000D01*
X78470000Y-88370000D02*
X78900000Y-88800000D01*
%TO.N,Net-(U2-Pad4)*%
X73900000Y-90910000D02*
X101210000Y-90910000D01*
X101210000Y-90910000D02*
X101300000Y-91000000D01*
%TO.N,Net-(U2-Pad5)*%
X107250000Y-93450000D02*
X107400000Y-93300000D01*
X73900000Y-93450000D02*
X107250000Y-93450000D01*
%TO.N,Net-(U2-Pad6)*%
X73900000Y-95990000D02*
X117790000Y-95990000D01*
X117790000Y-95990000D02*
X117900000Y-96100000D01*
%TO.N,Net-(U2-Pad7)*%
X73900000Y-98530000D02*
X113070000Y-98530000D01*
X113070000Y-98530000D02*
X113200000Y-98400000D01*
%TO.N,Net-(U2-Pad8)*%
X73900000Y-101070000D02*
X113170000Y-101070000D01*
X113170000Y-101070000D02*
X113200000Y-101100000D01*
%TO.N,Net-(U2-Pad9)*%
X115414500Y-103610000D02*
X115900000Y-103124500D01*
X73900000Y-103610000D02*
X115414500Y-103610000D01*
D21*
%TO.N,GND*%
X172400000Y-90025000D02*
X185025000Y-90025000D01*
X152725000Y-127525000D02*
X122350000Y-127525000D01*
X185025000Y-90025000D02*
X185500000Y-90500000D01*
X154300000Y-125950000D02*
X152725000Y-127525000D01*
X173300000Y-83000000D02*
X172400000Y-83900000D01*
X190500000Y-83000000D02*
X173300000Y-83000000D01*
X75275000Y-76375000D02*
X72150000Y-79500000D01*
X158311500Y-120695000D02*
X155330000Y-120695000D01*
X72150000Y-79500000D02*
X72150000Y-84080000D01*
X72150000Y-84080000D02*
X73900000Y-85830000D01*
X155330000Y-120695000D02*
X154300000Y-121725000D01*
X158271500Y-76375000D02*
X75275000Y-76375000D01*
X158311500Y-76335000D02*
X158271500Y-76375000D01*
X154300000Y-121725000D02*
X154300000Y-125950000D01*
X171760000Y-76335000D02*
X172275000Y-76850000D01*
%TO.N,+3V3*%
X125215000Y-111600000D02*
X179500000Y-111600000D01*
X182146000Y-93554000D02*
X181200000Y-94500000D01*
X125050000Y-129650000D02*
X124625000Y-129225000D01*
X184697000Y-93554000D02*
X182146000Y-93554000D01*
X157425000Y-128950000D02*
X156725000Y-129650000D01*
X179500000Y-111600000D02*
X181100000Y-113200000D01*
X156725000Y-129650000D02*
X125050000Y-129650000D01*
X124315000Y-112500000D02*
X125215000Y-111600000D01*
D20*
%TO.N,Net-(U2_BME280-Pad4)*%
X186000000Y-109900000D02*
X183400000Y-109900000D01*
X165800000Y-110000000D02*
X183100000Y-110000000D01*
X183400000Y-109900000D02*
X183300000Y-109800000D01*
X183100000Y-110000000D02*
X183300000Y-109800000D01*
X165800000Y-110000000D02*
X99200000Y-110000000D01*
%TO.N,Net-(U2-Pad15)*%
X175910000Y-95990000D02*
X175425000Y-96475000D01*
X172825500Y-114825000D02*
X106849500Y-114825000D01*
X173000000Y-114650500D02*
X172825500Y-114825000D01*
X106849500Y-114825000D02*
X106800000Y-114775500D01*
X177940000Y-95990000D02*
X175910000Y-95990000D01*
%TO.N,Net-(U2-Pad18)*%
X104300000Y-118650000D02*
X176850000Y-118650000D01*
X176850000Y-118650000D02*
X177575000Y-117925000D01*
%TO.N,Net-(U2-Pad17)*%
X177940000Y-101070000D02*
X175566243Y-101070000D01*
X174494680Y-116275000D02*
X174720180Y-116500500D01*
X101800000Y-116225000D02*
X101850000Y-116275000D01*
X101850000Y-116275000D02*
X174494680Y-116275000D01*
X175566243Y-101070000D02*
X175175502Y-101460741D01*
%TO.N,Net-(U2-Pad16)*%
X175575011Y-117900489D02*
X89925489Y-117900489D01*
X89925489Y-117900489D02*
X89075000Y-117050000D01*
X177770000Y-98700000D02*
X177940000Y-98530000D01*
X176300000Y-98700000D02*
X177770000Y-98700000D01*
X175850000Y-117625500D02*
X175575011Y-117900489D01*
%TO.N,Net-(U2_BME280-Pad3)*%
X182400000Y-116700000D02*
X175750900Y-116700000D01*
X92000000Y-117225000D02*
X91675000Y-116900000D01*
X184697000Y-98634000D02*
X183364032Y-98634000D01*
X175750900Y-116700000D02*
X175225900Y-117225000D01*
X183364032Y-98634000D02*
X182599016Y-99399016D01*
X188400000Y-116700000D02*
X182400000Y-116700000D01*
X175225900Y-117225000D02*
X92000000Y-117225000D01*
%TD*%
M02*
