%TF.GenerationSoftware,KiCad,Pcbnew,8.0.2*%
%TF.CreationDate,2025-03-01T21:56:43-08:00*%
%TF.ProjectId,mini_weather_monitor,6d696e69-5f77-4656-9174-6865725f6d6f,rev?*%
%TF.SameCoordinates,Original*%
%TF.FileFunction,Drillmap*%
%TF.FilePolarity,Positive*%
%FSLAX45Y45*%
G04 Gerber Fmt 4.5, Leading zero omitted, Abs format (unit mm)*
G04 Created by KiCad (PCBNEW 8.0.2) date 2025-03-01 21:56:43*
%MOMM*%
%LPD*%
G01*
G04 APERTURE LIST*
%ADD10C,0.100000*%
%ADD11C,0.200000*%
%ADD12C,0.102000*%
%ADD13C,0.218000*%
%ADD14C,0.250000*%
G04 APERTURE END LIST*
D10*
X20000000Y-13600000D02*
X6700000Y-13600000D01*
X6700000Y-6400000D02*
X20000000Y-6400000D01*
X20000000Y-6400000D02*
G75*
G02*
X20100000Y-6500000I0J-100000D01*
G01*
X20100000Y-6500000D02*
X20100000Y-13500000D01*
X6600000Y-13500000D02*
X6600000Y-6500000D01*
X6600000Y-6500000D02*
G75*
G02*
X6700000Y-6400000I100000J0D01*
G01*
X20100000Y-13500000D02*
G75*
G02*
X20000000Y-13600000I-100000J0D01*
G01*
X6700000Y-13600000D02*
G75*
G02*
X6600000Y-13500000I0J100000D01*
G01*
D11*
D10*
X7645000Y-8840000D02*
X7685000Y-8880000D01*
X7685000Y-8840000D02*
X7645000Y-8880000D01*
X7645000Y-10725000D02*
X7685000Y-10765000D01*
X7685000Y-10725000D02*
X7645000Y-10765000D01*
X8535000Y-11700000D02*
X8575000Y-11740000D01*
X8575000Y-11700000D02*
X8535000Y-11740000D01*
X8790000Y-12490000D02*
X8830000Y-12530000D01*
X8830000Y-12490000D02*
X8790000Y-12530000D01*
X9560000Y-11030000D02*
X9600000Y-11070000D01*
X9600000Y-11030000D02*
X9560000Y-11070000D01*
X9805000Y-11610000D02*
X9845000Y-11650000D01*
X9845000Y-11610000D02*
X9805000Y-11650000D01*
X9815000Y-9071000D02*
X9855000Y-9111000D01*
X9855000Y-9071000D02*
X9815000Y-9111000D01*
X10135000Y-11850000D02*
X10175000Y-11890000D01*
X10175000Y-11850000D02*
X10135000Y-11890000D01*
X10325000Y-11530000D02*
X10365000Y-11570000D01*
X10365000Y-11530000D02*
X10325000Y-11570000D01*
X10560000Y-9300000D02*
X10600000Y-9340000D01*
X10600000Y-9300000D02*
X10560000Y-9340000D01*
X11055000Y-10087000D02*
X11095000Y-10127000D01*
X11095000Y-10087000D02*
X11055000Y-10127000D01*
X11080000Y-9833000D02*
X11120000Y-9873000D01*
X11120000Y-9833000D02*
X11080000Y-9873000D01*
X11345000Y-10280000D02*
X11385000Y-10320000D01*
X11385000Y-10280000D02*
X11345000Y-10320000D01*
X11595000Y-9579000D02*
X11635000Y-9619000D01*
X11635000Y-9579000D02*
X11595000Y-9619000D01*
X11595000Y-10750000D02*
X11635000Y-10790000D01*
X11635000Y-10750000D02*
X11595000Y-10790000D01*
X12115000Y-12155000D02*
X12155000Y-12195000D01*
X12155000Y-12155000D02*
X12115000Y-12195000D01*
X17266250Y-12315400D02*
X17306250Y-12355400D01*
X17306250Y-12315400D02*
X17266250Y-12355400D01*
X17430000Y-12315400D02*
X17470000Y-12355400D01*
X17470000Y-12315400D02*
X17430000Y-12355400D01*
X17497550Y-10126074D02*
X17537550Y-10166074D01*
X17537550Y-10126074D02*
X17497550Y-10166074D01*
X17522500Y-9627500D02*
X17562500Y-9667500D01*
X17562500Y-9627500D02*
X17522500Y-9667500D01*
X17570000Y-12315400D02*
X17610000Y-12355400D01*
X17610000Y-12315400D02*
X17570000Y-12355400D01*
X17610000Y-9850000D02*
X17650000Y-9890000D01*
X17650000Y-9850000D02*
X17610000Y-9890000D01*
X17740000Y-12365000D02*
X17780000Y-12405000D01*
X17780000Y-12365000D02*
X17740000Y-12405000D01*
X17960000Y-11825000D02*
X18000000Y-11865000D01*
X18000000Y-11825000D02*
X17960000Y-11865000D01*
X18310000Y-10960000D02*
X18350000Y-11000000D01*
X18350000Y-10960000D02*
X18310000Y-11000000D01*
X18320000Y-12185000D02*
X18360000Y-12225000D01*
X18360000Y-12185000D02*
X18320000Y-12225000D01*
X18580000Y-10970000D02*
X18620000Y-11010000D01*
X18620000Y-10970000D02*
X18580000Y-11010000D01*
X18372100Y-8607500D02*
G75*
G02*
X18295900Y-8607500I-38100J0D01*
G01*
X18295900Y-8607500D02*
G75*
G02*
X18372100Y-8607500I38100J0D01*
G01*
X18507800Y-9355400D02*
G75*
G02*
X18431600Y-9355400I-38100J0D01*
G01*
X18431600Y-9355400D02*
G75*
G02*
X18507800Y-9355400I38100J0D01*
G01*
X18507800Y-9609400D02*
G75*
G02*
X18431600Y-9609400I-38100J0D01*
G01*
X18431600Y-9609400D02*
G75*
G02*
X18507800Y-9609400I38100J0D01*
G01*
X18507800Y-9863400D02*
G75*
G02*
X18431600Y-9863400I-38100J0D01*
G01*
X18431600Y-9863400D02*
G75*
G02*
X18507800Y-9863400I38100J0D01*
G01*
X18507800Y-10117400D02*
G75*
G02*
X18431600Y-10117400I-38100J0D01*
G01*
X18431600Y-10117400D02*
G75*
G02*
X18507800Y-10117400I38100J0D01*
G01*
X18507800Y-10371400D02*
G75*
G02*
X18431600Y-10371400I-38100J0D01*
G01*
X18431600Y-10371400D02*
G75*
G02*
X18507800Y-10371400I38100J0D01*
G01*
X18507800Y-10625400D02*
G75*
G02*
X18431600Y-10625400I-38100J0D01*
G01*
X18431600Y-10625400D02*
G75*
G02*
X18507800Y-10625400I38100J0D01*
G01*
X18626100Y-8607500D02*
G75*
G02*
X18549900Y-8607500I-38100J0D01*
G01*
X18549900Y-8607500D02*
G75*
G02*
X18626100Y-8607500I38100J0D01*
G01*
X18880100Y-8607500D02*
G75*
G02*
X18803900Y-8607500I-38100J0D01*
G01*
X18803900Y-8607500D02*
G75*
G02*
X18880100Y-8607500I38100J0D01*
G01*
X19134100Y-8607500D02*
G75*
G02*
X19057900Y-8607500I-38100J0D01*
G01*
X19057900Y-8607500D02*
G75*
G02*
X19134100Y-8607500I38100J0D01*
G01*
X19388100Y-8607500D02*
G75*
G02*
X19311900Y-8607500I-38100J0D01*
G01*
X19311900Y-8607500D02*
G75*
G02*
X19388100Y-8607500I38100J0D01*
G01*
X13430000Y-12355000D02*
X13430000Y-12435000D01*
X13390000Y-12395000D02*
X13470000Y-12395000D01*
X15085000Y-12360000D02*
X15085000Y-12440000D01*
X15045000Y-12400000D02*
X15125000Y-12400000D01*
X15375000Y-8920000D02*
X15375000Y-9000000D01*
X15335000Y-8960000D02*
X15415000Y-8960000D01*
X15510000Y-7915000D02*
X15510000Y-7995000D01*
X15470000Y-7955000D02*
X15550000Y-7955000D01*
X16395000Y-12210000D02*
X16395000Y-12290000D01*
X16355000Y-12250000D02*
X16435000Y-12250000D01*
X16405000Y-9333000D02*
X16405000Y-9413000D01*
X16365000Y-9373000D02*
X16445000Y-9373000D01*
X19215000Y-7925000D02*
X19215000Y-8005000D01*
X19175000Y-7965000D02*
X19255000Y-7965000D01*
X7418284Y-8357284D02*
X7418284Y-8300715D01*
X7361715Y-8300715D01*
X7361715Y-8357284D01*
X7418284Y-8357284D01*
X7418284Y-8611285D02*
X7418284Y-8554716D01*
X7361715Y-8554716D01*
X7361715Y-8611285D01*
X7418284Y-8611285D01*
X7418284Y-8865285D02*
X7418284Y-8808716D01*
X7361715Y-8808716D01*
X7361715Y-8865285D01*
X7418284Y-8865285D01*
X7418284Y-9119285D02*
X7418284Y-9062716D01*
X7361715Y-9062716D01*
X7361715Y-9119285D01*
X7418284Y-9119285D01*
X7418284Y-9373285D02*
X7418284Y-9316716D01*
X7361715Y-9316716D01*
X7361715Y-9373285D01*
X7418284Y-9373285D01*
X7418284Y-9627285D02*
X7418284Y-9570716D01*
X7361715Y-9570716D01*
X7361715Y-9627285D01*
X7418284Y-9627285D01*
X7418284Y-9881285D02*
X7418284Y-9824716D01*
X7361715Y-9824716D01*
X7361715Y-9881285D01*
X7418284Y-9881285D01*
X7418284Y-10135285D02*
X7418284Y-10078716D01*
X7361715Y-10078716D01*
X7361715Y-10135285D01*
X7418284Y-10135285D01*
X7418284Y-10389285D02*
X7418284Y-10332716D01*
X7361715Y-10332716D01*
X7361715Y-10389285D01*
X7418284Y-10389285D01*
X7418284Y-10643285D02*
X7418284Y-10586716D01*
X7361715Y-10586716D01*
X7361715Y-10643285D01*
X7418284Y-10643285D01*
X7418284Y-10897285D02*
X7418284Y-10840716D01*
X7361715Y-10840716D01*
X7361715Y-10897285D01*
X7418284Y-10897285D01*
X7418284Y-11151285D02*
X7418284Y-11094716D01*
X7361715Y-11094716D01*
X7361715Y-11151285D01*
X7418284Y-11151285D01*
X7418284Y-11405284D02*
X7418284Y-11348715D01*
X7361715Y-11348715D01*
X7361715Y-11405284D01*
X7418284Y-11405284D01*
X7418284Y-11659284D02*
X7418284Y-11602715D01*
X7361715Y-11602715D01*
X7361715Y-11659284D01*
X7418284Y-11659284D01*
X17822285Y-9627285D02*
X17822285Y-9570716D01*
X17765716Y-9570716D01*
X17765716Y-9627285D01*
X17822285Y-9627285D01*
X17822285Y-9881285D02*
X17822285Y-9824716D01*
X17765716Y-9824716D01*
X17765716Y-9881285D01*
X17822285Y-9881285D01*
X17822285Y-10135285D02*
X17822285Y-10078716D01*
X17765716Y-10078716D01*
X17765716Y-10135285D01*
X17822285Y-10135285D01*
X17822285Y-10389285D02*
X17822285Y-10332716D01*
X17765716Y-10332716D01*
X17765716Y-10389285D01*
X17822285Y-10389285D01*
X9386000Y-12520000D02*
X9436000Y-12470000D01*
X9386000Y-12420000D01*
X9336000Y-12470000D01*
X9386000Y-12520000D01*
X9640000Y-12520000D02*
X9690000Y-12470000D01*
X9640000Y-12420000D01*
X9590000Y-12470000D01*
X9640000Y-12520000D01*
X15883000Y-9169000D02*
X15933000Y-9119000D01*
X15883000Y-9069000D01*
X15833000Y-9119000D01*
X15883000Y-9169000D01*
X15883000Y-9423000D02*
X15933000Y-9373000D01*
X15883000Y-9323000D01*
X15833000Y-9373000D01*
X15883000Y-9423000D01*
X15883000Y-9677000D02*
X15933000Y-9627000D01*
X15883000Y-9577000D01*
X15833000Y-9627000D01*
X15883000Y-9677000D01*
X15883000Y-9931000D02*
X15933000Y-9881000D01*
X15883000Y-9831000D01*
X15833000Y-9881000D01*
X15883000Y-9931000D01*
X15883000Y-10185000D02*
X15933000Y-10135000D01*
X15883000Y-10085000D01*
X15833000Y-10135000D01*
X15883000Y-10185000D01*
X15883000Y-10439000D02*
X15933000Y-10389000D01*
X15883000Y-10339000D01*
X15833000Y-10389000D01*
X15883000Y-10439000D01*
X15883000Y-10693000D02*
X15933000Y-10643000D01*
X15883000Y-10593000D01*
X15833000Y-10643000D01*
X15883000Y-10693000D01*
X15883000Y-10947000D02*
X15933000Y-10897000D01*
X15883000Y-10847000D01*
X15833000Y-10897000D01*
X15883000Y-10947000D01*
X16899000Y-9169000D02*
X16949000Y-9119000D01*
X16899000Y-9069000D01*
X16849000Y-9119000D01*
X16899000Y-9169000D01*
X16899000Y-9423000D02*
X16949000Y-9373000D01*
X16899000Y-9323000D01*
X16849000Y-9373000D01*
X16899000Y-9423000D01*
X16899000Y-9677000D02*
X16949000Y-9627000D01*
X16899000Y-9577000D01*
X16849000Y-9627000D01*
X16899000Y-9677000D01*
X16899000Y-9931000D02*
X16949000Y-9881000D01*
X16899000Y-9831000D01*
X16849000Y-9881000D01*
X16899000Y-9931000D01*
X16899000Y-10185000D02*
X16949000Y-10135000D01*
X16899000Y-10085000D01*
X16849000Y-10135000D01*
X16899000Y-10185000D01*
X16899000Y-10439000D02*
X16949000Y-10389000D01*
X16899000Y-10339000D01*
X16849000Y-10389000D01*
X16899000Y-10439000D01*
X16899000Y-10693000D02*
X16949000Y-10643000D01*
X16899000Y-10593000D01*
X16849000Y-10643000D01*
X16899000Y-10693000D01*
X16899000Y-10947000D02*
X16949000Y-10897000D01*
X16899000Y-10847000D01*
X16849000Y-10897000D01*
X16899000Y-10947000D01*
X18955000Y-11166000D02*
X19005000Y-11116000D01*
X18955000Y-11066000D01*
X18905000Y-11116000D01*
X18955000Y-11166000D01*
X18955000Y-11420000D02*
X19005000Y-11370000D01*
X18955000Y-11320000D01*
X18905000Y-11370000D01*
X18955000Y-11420000D01*
X18955000Y-11674000D02*
X19005000Y-11624000D01*
X18955000Y-11574000D01*
X18905000Y-11624000D01*
X18955000Y-11674000D01*
X18955000Y-11928000D02*
X19005000Y-11878000D01*
X18955000Y-11828000D01*
X18905000Y-11878000D01*
X18955000Y-11928000D01*
X18955000Y-12182000D02*
X19005000Y-12132000D01*
X18955000Y-12082000D01*
X18905000Y-12132000D01*
X18955000Y-12182000D01*
X18955000Y-12436000D02*
X19005000Y-12386000D01*
X18955000Y-12336000D01*
X18905000Y-12386000D01*
X18955000Y-12436000D01*
X18955000Y-12690000D02*
X19005000Y-12640000D01*
X18955000Y-12590000D01*
X18905000Y-12640000D01*
X18955000Y-12690000D01*
X18955000Y-12944000D02*
X19005000Y-12894000D01*
X18955000Y-12844000D01*
X18905000Y-12894000D01*
X18955000Y-12944000D01*
D12*
X8509500Y-8659000D02*
X8611500Y-8761000D01*
X8611500Y-8659000D02*
X8509500Y-8761000D01*
X8611500Y-8710000D02*
G75*
G02*
X8509500Y-8710000I-51000J0D01*
G01*
X8509500Y-8710000D02*
G75*
G02*
X8611500Y-8710000I51000J0D01*
G01*
X8509500Y-11199000D02*
X8611500Y-11301000D01*
X8611500Y-11199000D02*
X8509500Y-11301000D01*
X8611500Y-11250000D02*
G75*
G02*
X8509500Y-11250000I-51000J0D01*
G01*
X8509500Y-11250000D02*
G75*
G02*
X8611500Y-11250000I51000J0D01*
G01*
X8763500Y-8659000D02*
X8865500Y-8761000D01*
X8865500Y-8659000D02*
X8763500Y-8761000D01*
X8865500Y-8710000D02*
G75*
G02*
X8763500Y-8710000I-51000J0D01*
G01*
X8763500Y-8710000D02*
G75*
G02*
X8865500Y-8710000I51000J0D01*
G01*
X8763500Y-11199000D02*
X8865500Y-11301000D01*
X8865500Y-11199000D02*
X8763500Y-11301000D01*
X8865500Y-11250000D02*
G75*
G02*
X8763500Y-11250000I-51000J0D01*
G01*
X8763500Y-11250000D02*
G75*
G02*
X8865500Y-11250000I51000J0D01*
G01*
X9017500Y-8659000D02*
X9119500Y-8761000D01*
X9119500Y-8659000D02*
X9017500Y-8761000D01*
X9119500Y-8710000D02*
G75*
G02*
X9017500Y-8710000I-51000J0D01*
G01*
X9017500Y-8710000D02*
G75*
G02*
X9119500Y-8710000I51000J0D01*
G01*
X9017500Y-11199000D02*
X9119500Y-11301000D01*
X9119500Y-11199000D02*
X9017500Y-11301000D01*
X9119500Y-11250000D02*
G75*
G02*
X9017500Y-11250000I-51000J0D01*
G01*
X9017500Y-11250000D02*
G75*
G02*
X9119500Y-11250000I51000J0D01*
G01*
X9271500Y-8659000D02*
X9373500Y-8761000D01*
X9373500Y-8659000D02*
X9271500Y-8761000D01*
X9373500Y-8710000D02*
G75*
G02*
X9271500Y-8710000I-51000J0D01*
G01*
X9271500Y-8710000D02*
G75*
G02*
X9373500Y-8710000I51000J0D01*
G01*
X9271500Y-11199000D02*
X9373500Y-11301000D01*
X9373500Y-11199000D02*
X9271500Y-11301000D01*
X9373500Y-11250000D02*
G75*
G02*
X9271500Y-11250000I-51000J0D01*
G01*
X9271500Y-11250000D02*
G75*
G02*
X9373500Y-11250000I51000J0D01*
G01*
X9525500Y-8659000D02*
X9627500Y-8761000D01*
X9627500Y-8659000D02*
X9525500Y-8761000D01*
X9627500Y-8710000D02*
G75*
G02*
X9525500Y-8710000I-51000J0D01*
G01*
X9525500Y-8710000D02*
G75*
G02*
X9627500Y-8710000I51000J0D01*
G01*
X9525500Y-11199000D02*
X9627500Y-11301000D01*
X9627500Y-11199000D02*
X9525500Y-11301000D01*
X9627500Y-11250000D02*
G75*
G02*
X9525500Y-11250000I-51000J0D01*
G01*
X9525500Y-11250000D02*
G75*
G02*
X9627500Y-11250000I51000J0D01*
G01*
X9779500Y-8659000D02*
X9881500Y-8761000D01*
X9881500Y-8659000D02*
X9779500Y-8761000D01*
X9881500Y-8710000D02*
G75*
G02*
X9779500Y-8710000I-51000J0D01*
G01*
X9779500Y-8710000D02*
G75*
G02*
X9881500Y-8710000I51000J0D01*
G01*
X9779500Y-11199000D02*
X9881500Y-11301000D01*
X9881500Y-11199000D02*
X9779500Y-11301000D01*
X9881500Y-11250000D02*
G75*
G02*
X9779500Y-11250000I-51000J0D01*
G01*
X9779500Y-11250000D02*
G75*
G02*
X9881500Y-11250000I51000J0D01*
G01*
X10033500Y-8659000D02*
X10135500Y-8761000D01*
X10135500Y-8659000D02*
X10033500Y-8761000D01*
X10135500Y-8710000D02*
G75*
G02*
X10033500Y-8710000I-51000J0D01*
G01*
X10033500Y-8710000D02*
G75*
G02*
X10135500Y-8710000I51000J0D01*
G01*
X10033500Y-11199000D02*
X10135500Y-11301000D01*
X10135500Y-11199000D02*
X10033500Y-11301000D01*
X10135500Y-11250000D02*
G75*
G02*
X10033500Y-11250000I-51000J0D01*
G01*
X10033500Y-11250000D02*
G75*
G02*
X10135500Y-11250000I51000J0D01*
G01*
X10287500Y-8659000D02*
X10389500Y-8761000D01*
X10389500Y-8659000D02*
X10287500Y-8761000D01*
X10389500Y-8710000D02*
G75*
G02*
X10287500Y-8710000I-51000J0D01*
G01*
X10287500Y-8710000D02*
G75*
G02*
X10389500Y-8710000I51000J0D01*
G01*
X10287500Y-11199000D02*
X10389500Y-11301000D01*
X10389500Y-11199000D02*
X10287500Y-11301000D01*
X10389500Y-11250000D02*
G75*
G02*
X10287500Y-11250000I-51000J0D01*
G01*
X10287500Y-11250000D02*
G75*
G02*
X10389500Y-11250000I51000J0D01*
G01*
X10541500Y-8659000D02*
X10643500Y-8761000D01*
X10643500Y-8659000D02*
X10541500Y-8761000D01*
X10643500Y-8710000D02*
G75*
G02*
X10541500Y-8710000I-51000J0D01*
G01*
X10541500Y-8710000D02*
G75*
G02*
X10643500Y-8710000I51000J0D01*
G01*
X10541500Y-11199000D02*
X10643500Y-11301000D01*
X10643500Y-11199000D02*
X10541500Y-11301000D01*
X10643500Y-11250000D02*
G75*
G02*
X10541500Y-11250000I-51000J0D01*
G01*
X10541500Y-11250000D02*
G75*
G02*
X10643500Y-11250000I51000J0D01*
G01*
X10795500Y-8659000D02*
X10897500Y-8761000D01*
X10897500Y-8659000D02*
X10795500Y-8761000D01*
X10897500Y-8710000D02*
G75*
G02*
X10795500Y-8710000I-51000J0D01*
G01*
X10795500Y-8710000D02*
G75*
G02*
X10897500Y-8710000I51000J0D01*
G01*
X10795500Y-11199000D02*
X10897500Y-11301000D01*
X10897500Y-11199000D02*
X10795500Y-11301000D01*
X10897500Y-11250000D02*
G75*
G02*
X10795500Y-11250000I-51000J0D01*
G01*
X10795500Y-11250000D02*
G75*
G02*
X10897500Y-11250000I51000J0D01*
G01*
X11049500Y-8659000D02*
X11151500Y-8761000D01*
X11151500Y-8659000D02*
X11049500Y-8761000D01*
X11151500Y-8710000D02*
G75*
G02*
X11049500Y-8710000I-51000J0D01*
G01*
X11049500Y-8710000D02*
G75*
G02*
X11151500Y-8710000I51000J0D01*
G01*
X11049500Y-11199000D02*
X11151500Y-11301000D01*
X11151500Y-11199000D02*
X11049500Y-11301000D01*
X11151500Y-11250000D02*
G75*
G02*
X11049500Y-11250000I-51000J0D01*
G01*
X11049500Y-11250000D02*
G75*
G02*
X11151500Y-11250000I51000J0D01*
G01*
X11303500Y-8659000D02*
X11405500Y-8761000D01*
X11405500Y-8659000D02*
X11303500Y-8761000D01*
X11405500Y-8710000D02*
G75*
G02*
X11303500Y-8710000I-51000J0D01*
G01*
X11303500Y-8710000D02*
G75*
G02*
X11405500Y-8710000I51000J0D01*
G01*
X11303500Y-11199000D02*
X11405500Y-11301000D01*
X11405500Y-11199000D02*
X11303500Y-11301000D01*
X11405500Y-11250000D02*
G75*
G02*
X11303500Y-11250000I-51000J0D01*
G01*
X11303500Y-11250000D02*
G75*
G02*
X11405500Y-11250000I51000J0D01*
G01*
X11557500Y-8659000D02*
X11659500Y-8761000D01*
X11659500Y-8659000D02*
X11557500Y-8761000D01*
X11659500Y-8710000D02*
G75*
G02*
X11557500Y-8710000I-51000J0D01*
G01*
X11557500Y-8710000D02*
G75*
G02*
X11659500Y-8710000I51000J0D01*
G01*
X11557500Y-11199000D02*
X11659500Y-11301000D01*
X11659500Y-11199000D02*
X11557500Y-11301000D01*
X11659500Y-11250000D02*
G75*
G02*
X11557500Y-11250000I-51000J0D01*
G01*
X11557500Y-11250000D02*
G75*
G02*
X11659500Y-11250000I51000J0D01*
G01*
X11811500Y-8659000D02*
X11913500Y-8761000D01*
X11913500Y-8659000D02*
X11811500Y-8761000D01*
X11913500Y-8710000D02*
G75*
G02*
X11811500Y-8710000I-51000J0D01*
G01*
X11811500Y-8710000D02*
G75*
G02*
X11913500Y-8710000I51000J0D01*
G01*
X11811500Y-11199000D02*
X11913500Y-11301000D01*
X11913500Y-11199000D02*
X11811500Y-11301000D01*
X11913500Y-11250000D02*
G75*
G02*
X11811500Y-11250000I-51000J0D01*
G01*
X11811500Y-11250000D02*
G75*
G02*
X11913500Y-11250000I51000J0D01*
G01*
X12065500Y-8659000D02*
X12167500Y-8761000D01*
X12167500Y-8659000D02*
X12065500Y-8761000D01*
X12167500Y-8710000D02*
G75*
G02*
X12065500Y-8710000I-51000J0D01*
G01*
X12065500Y-8710000D02*
G75*
G02*
X12167500Y-8710000I51000J0D01*
G01*
X12065500Y-11199000D02*
X12167500Y-11301000D01*
X12167500Y-11199000D02*
X12065500Y-11301000D01*
X12167500Y-11250000D02*
G75*
G02*
X12065500Y-11250000I-51000J0D01*
G01*
X12065500Y-11250000D02*
G75*
G02*
X12167500Y-11250000I51000J0D01*
G01*
X13562170Y-11447092D02*
X13664170Y-11549092D01*
X13664170Y-11447092D02*
X13562170Y-11549092D01*
X13664170Y-11498092D02*
G75*
G02*
X13562170Y-11498092I-51000J0D01*
G01*
X13562170Y-11498092D02*
G75*
G02*
X13664170Y-11498092I51000J0D01*
G01*
X13816170Y-11447092D02*
X13918170Y-11549092D01*
X13918170Y-11447092D02*
X13816170Y-11549092D01*
X13918170Y-11498092D02*
G75*
G02*
X13816170Y-11498092I-51000J0D01*
G01*
X13816170Y-11498092D02*
G75*
G02*
X13918170Y-11498092I51000J0D01*
G01*
X14066170Y-8403092D02*
X14168170Y-8505092D01*
X14168170Y-8403092D02*
X14066170Y-8505092D01*
X14168170Y-8454092D02*
G75*
G02*
X14066170Y-8454092I-51000J0D01*
G01*
X14066170Y-8454092D02*
G75*
G02*
X14168170Y-8454092I51000J0D01*
G01*
X14070170Y-11447092D02*
X14172170Y-11549092D01*
X14172170Y-11447092D02*
X14070170Y-11549092D01*
X14172170Y-11498092D02*
G75*
G02*
X14070170Y-11498092I-51000J0D01*
G01*
X14070170Y-11498092D02*
G75*
G02*
X14172170Y-11498092I51000J0D01*
G01*
X14320170Y-8403092D02*
X14422170Y-8505092D01*
X14422170Y-8403092D02*
X14320170Y-8505092D01*
X14422170Y-8454092D02*
G75*
G02*
X14320170Y-8454092I-51000J0D01*
G01*
X14320170Y-8454092D02*
G75*
G02*
X14422170Y-8454092I51000J0D01*
G01*
X14324170Y-11447092D02*
X14426170Y-11549092D01*
X14426170Y-11447092D02*
X14324170Y-11549092D01*
X14426170Y-11498092D02*
G75*
G02*
X14324170Y-11498092I-51000J0D01*
G01*
X14324170Y-11498092D02*
G75*
G02*
X14426170Y-11498092I51000J0D01*
G01*
X14574170Y-8403092D02*
X14676170Y-8505092D01*
X14676170Y-8403092D02*
X14574170Y-8505092D01*
X14676170Y-8454092D02*
G75*
G02*
X14574170Y-8454092I-51000J0D01*
G01*
X14574170Y-8454092D02*
G75*
G02*
X14676170Y-8454092I51000J0D01*
G01*
X14578170Y-11447092D02*
X14680170Y-11549092D01*
X14680170Y-11447092D02*
X14578170Y-11549092D01*
X14680170Y-11498092D02*
G75*
G02*
X14578170Y-11498092I-51000J0D01*
G01*
X14578170Y-11498092D02*
G75*
G02*
X14680170Y-11498092I51000J0D01*
G01*
X14828170Y-8403092D02*
X14930170Y-8505092D01*
X14930170Y-8403092D02*
X14828170Y-8505092D01*
X14930170Y-8454092D02*
G75*
G02*
X14828170Y-8454092I-51000J0D01*
G01*
X14828170Y-8454092D02*
G75*
G02*
X14930170Y-8454092I51000J0D01*
G01*
D13*
X13631170Y-11643092D02*
X13849170Y-11861092D01*
X13849170Y-11643092D02*
X13631170Y-11861092D01*
X13740170Y-11643092D02*
X13740170Y-11861092D01*
X13631170Y-11752092D02*
X13849170Y-11752092D01*
X14131170Y-11643092D02*
X14349170Y-11861092D01*
X14349170Y-11643092D02*
X14131170Y-11861092D01*
X14240170Y-11643092D02*
X14240170Y-11861092D01*
X14131170Y-11752092D02*
X14349170Y-11752092D01*
X14143170Y-8091092D02*
X14361170Y-8309092D01*
X14361170Y-8091092D02*
X14143170Y-8309092D01*
X14252170Y-8091092D02*
X14252170Y-8309092D01*
X14143170Y-8200092D02*
X14361170Y-8200092D01*
X14643170Y-8091092D02*
X14861170Y-8309092D01*
X14861170Y-8091092D02*
X14643170Y-8309092D01*
X14752170Y-8091092D02*
X14752170Y-8309092D01*
X14643170Y-8200092D02*
X14861170Y-8200092D01*
D14*
X15758000Y-8613000D02*
X16008000Y-8863000D01*
X16008000Y-8613000D02*
X15758000Y-8863000D01*
X15971389Y-8826389D02*
X15971389Y-8649611D01*
X15794611Y-8649611D01*
X15794611Y-8826389D01*
X15971389Y-8826389D01*
X15758000Y-11153000D02*
X16008000Y-11403000D01*
X16008000Y-11153000D02*
X15758000Y-11403000D01*
X15971389Y-11366389D02*
X15971389Y-11189611D01*
X15794611Y-11189611D01*
X15794611Y-11366389D01*
X15971389Y-11366389D01*
X16774000Y-8613000D02*
X17024000Y-8863000D01*
X17024000Y-8613000D02*
X16774000Y-8863000D01*
X16987389Y-8826389D02*
X16987389Y-8649611D01*
X16810611Y-8649611D01*
X16810611Y-8826389D01*
X16987389Y-8826389D01*
X16774000Y-11153000D02*
X17024000Y-11403000D01*
X17024000Y-11153000D02*
X16774000Y-11403000D01*
X16987389Y-11366389D02*
X16987389Y-11189611D01*
X16810611Y-11189611D01*
X16810611Y-11366389D01*
X16987389Y-11366389D01*
X19719000Y-11118000D02*
X19969000Y-11368000D01*
X19969000Y-11118000D02*
X19719000Y-11368000D01*
X19932389Y-11331389D02*
X19932389Y-11154611D01*
X19755611Y-11154611D01*
X19755611Y-11331389D01*
X19932389Y-11331389D01*
X19719000Y-12642000D02*
X19969000Y-12892000D01*
X19969000Y-12642000D02*
X19719000Y-12892000D01*
X19932389Y-12855389D02*
X19932389Y-12678611D01*
X19755611Y-12678611D01*
X19755611Y-12855389D01*
X19932389Y-12855389D01*
D11*
X6855777Y-13916484D02*
X6855777Y-13716484D01*
X6855777Y-13716484D02*
X6903396Y-13716484D01*
X6903396Y-13716484D02*
X6931967Y-13726008D01*
X6931967Y-13726008D02*
X6951015Y-13745055D01*
X6951015Y-13745055D02*
X6960539Y-13764103D01*
X6960539Y-13764103D02*
X6970062Y-13802198D01*
X6970062Y-13802198D02*
X6970062Y-13830769D01*
X6970062Y-13830769D02*
X6960539Y-13868865D01*
X6960539Y-13868865D02*
X6951015Y-13887912D01*
X6951015Y-13887912D02*
X6931967Y-13906960D01*
X6931967Y-13906960D02*
X6903396Y-13916484D01*
X6903396Y-13916484D02*
X6855777Y-13916484D01*
X7055777Y-13916484D02*
X7055777Y-13783150D01*
X7055777Y-13821246D02*
X7065301Y-13802198D01*
X7065301Y-13802198D02*
X7074824Y-13792674D01*
X7074824Y-13792674D02*
X7093872Y-13783150D01*
X7093872Y-13783150D02*
X7112920Y-13783150D01*
X7179586Y-13916484D02*
X7179586Y-13783150D01*
X7179586Y-13716484D02*
X7170062Y-13726008D01*
X7170062Y-13726008D02*
X7179586Y-13735531D01*
X7179586Y-13735531D02*
X7189110Y-13726008D01*
X7189110Y-13726008D02*
X7179586Y-13716484D01*
X7179586Y-13716484D02*
X7179586Y-13735531D01*
X7303396Y-13916484D02*
X7284348Y-13906960D01*
X7284348Y-13906960D02*
X7274824Y-13887912D01*
X7274824Y-13887912D02*
X7274824Y-13716484D01*
X7408158Y-13916484D02*
X7389110Y-13906960D01*
X7389110Y-13906960D02*
X7379586Y-13887912D01*
X7379586Y-13887912D02*
X7379586Y-13716484D01*
X7636729Y-13916484D02*
X7636729Y-13716484D01*
X7636729Y-13716484D02*
X7703396Y-13859341D01*
X7703396Y-13859341D02*
X7770062Y-13716484D01*
X7770062Y-13716484D02*
X7770062Y-13916484D01*
X7951015Y-13916484D02*
X7951015Y-13811722D01*
X7951015Y-13811722D02*
X7941491Y-13792674D01*
X7941491Y-13792674D02*
X7922443Y-13783150D01*
X7922443Y-13783150D02*
X7884348Y-13783150D01*
X7884348Y-13783150D02*
X7865301Y-13792674D01*
X7951015Y-13906960D02*
X7931967Y-13916484D01*
X7931967Y-13916484D02*
X7884348Y-13916484D01*
X7884348Y-13916484D02*
X7865301Y-13906960D01*
X7865301Y-13906960D02*
X7855777Y-13887912D01*
X7855777Y-13887912D02*
X7855777Y-13868865D01*
X7855777Y-13868865D02*
X7865301Y-13849817D01*
X7865301Y-13849817D02*
X7884348Y-13840293D01*
X7884348Y-13840293D02*
X7931967Y-13840293D01*
X7931967Y-13840293D02*
X7951015Y-13830769D01*
X8046253Y-13783150D02*
X8046253Y-13983150D01*
X8046253Y-13792674D02*
X8065301Y-13783150D01*
X8065301Y-13783150D02*
X8103396Y-13783150D01*
X8103396Y-13783150D02*
X8122443Y-13792674D01*
X8122443Y-13792674D02*
X8131967Y-13802198D01*
X8131967Y-13802198D02*
X8141491Y-13821246D01*
X8141491Y-13821246D02*
X8141491Y-13878388D01*
X8141491Y-13878388D02*
X8131967Y-13897436D01*
X8131967Y-13897436D02*
X8122443Y-13906960D01*
X8122443Y-13906960D02*
X8103396Y-13916484D01*
X8103396Y-13916484D02*
X8065301Y-13916484D01*
X8065301Y-13916484D02*
X8046253Y-13906960D01*
X8227205Y-13897436D02*
X8236729Y-13906960D01*
X8236729Y-13906960D02*
X8227205Y-13916484D01*
X8227205Y-13916484D02*
X8217682Y-13906960D01*
X8217682Y-13906960D02*
X8227205Y-13897436D01*
X8227205Y-13897436D02*
X8227205Y-13916484D01*
X8227205Y-13792674D02*
X8236729Y-13802198D01*
X8236729Y-13802198D02*
X8227205Y-13811722D01*
X8227205Y-13811722D02*
X8217682Y-13802198D01*
X8217682Y-13802198D02*
X8227205Y-13792674D01*
X8227205Y-13792674D02*
X8227205Y-13811722D01*
D10*
X6555000Y-14225000D02*
X6595000Y-14265000D01*
X6595000Y-14225000D02*
X6555000Y-14265000D01*
D11*
X6893872Y-14136484D02*
X6912920Y-14136484D01*
X6912920Y-14136484D02*
X6931967Y-14146008D01*
X6931967Y-14146008D02*
X6941491Y-14155531D01*
X6941491Y-14155531D02*
X6951015Y-14174579D01*
X6951015Y-14174579D02*
X6960539Y-14212674D01*
X6960539Y-14212674D02*
X6960539Y-14260293D01*
X6960539Y-14260293D02*
X6951015Y-14298388D01*
X6951015Y-14298388D02*
X6941491Y-14317436D01*
X6941491Y-14317436D02*
X6931967Y-14326960D01*
X6931967Y-14326960D02*
X6912920Y-14336484D01*
X6912920Y-14336484D02*
X6893872Y-14336484D01*
X6893872Y-14336484D02*
X6874824Y-14326960D01*
X6874824Y-14326960D02*
X6865301Y-14317436D01*
X6865301Y-14317436D02*
X6855777Y-14298388D01*
X6855777Y-14298388D02*
X6846253Y-14260293D01*
X6846253Y-14260293D02*
X6846253Y-14212674D01*
X6846253Y-14212674D02*
X6855777Y-14174579D01*
X6855777Y-14174579D02*
X6865301Y-14155531D01*
X6865301Y-14155531D02*
X6874824Y-14146008D01*
X6874824Y-14146008D02*
X6893872Y-14136484D01*
X7046253Y-14317436D02*
X7055777Y-14326960D01*
X7055777Y-14326960D02*
X7046253Y-14336484D01*
X7046253Y-14336484D02*
X7036729Y-14326960D01*
X7036729Y-14326960D02*
X7046253Y-14317436D01*
X7046253Y-14317436D02*
X7046253Y-14336484D01*
X7227205Y-14203150D02*
X7227205Y-14336484D01*
X7179586Y-14126960D02*
X7131967Y-14269817D01*
X7131967Y-14269817D02*
X7255777Y-14269817D01*
X7370062Y-14136484D02*
X7389110Y-14136484D01*
X7389110Y-14136484D02*
X7408158Y-14146008D01*
X7408158Y-14146008D02*
X7417682Y-14155531D01*
X7417682Y-14155531D02*
X7427205Y-14174579D01*
X7427205Y-14174579D02*
X7436729Y-14212674D01*
X7436729Y-14212674D02*
X7436729Y-14260293D01*
X7436729Y-14260293D02*
X7427205Y-14298388D01*
X7427205Y-14298388D02*
X7417682Y-14317436D01*
X7417682Y-14317436D02*
X7408158Y-14326960D01*
X7408158Y-14326960D02*
X7389110Y-14336484D01*
X7389110Y-14336484D02*
X7370062Y-14336484D01*
X7370062Y-14336484D02*
X7351015Y-14326960D01*
X7351015Y-14326960D02*
X7341491Y-14317436D01*
X7341491Y-14317436D02*
X7331967Y-14298388D01*
X7331967Y-14298388D02*
X7322443Y-14260293D01*
X7322443Y-14260293D02*
X7322443Y-14212674D01*
X7322443Y-14212674D02*
X7331967Y-14174579D01*
X7331967Y-14174579D02*
X7341491Y-14155531D01*
X7341491Y-14155531D02*
X7351015Y-14146008D01*
X7351015Y-14146008D02*
X7370062Y-14136484D01*
X7560539Y-14136484D02*
X7579586Y-14136484D01*
X7579586Y-14136484D02*
X7598634Y-14146008D01*
X7598634Y-14146008D02*
X7608158Y-14155531D01*
X7608158Y-14155531D02*
X7617682Y-14174579D01*
X7617682Y-14174579D02*
X7627205Y-14212674D01*
X7627205Y-14212674D02*
X7627205Y-14260293D01*
X7627205Y-14260293D02*
X7617682Y-14298388D01*
X7617682Y-14298388D02*
X7608158Y-14317436D01*
X7608158Y-14317436D02*
X7598634Y-14326960D01*
X7598634Y-14326960D02*
X7579586Y-14336484D01*
X7579586Y-14336484D02*
X7560539Y-14336484D01*
X7560539Y-14336484D02*
X7541491Y-14326960D01*
X7541491Y-14326960D02*
X7531967Y-14317436D01*
X7531967Y-14317436D02*
X7522443Y-14298388D01*
X7522443Y-14298388D02*
X7512920Y-14260293D01*
X7512920Y-14260293D02*
X7512920Y-14212674D01*
X7512920Y-14212674D02*
X7522443Y-14174579D01*
X7522443Y-14174579D02*
X7531967Y-14155531D01*
X7531967Y-14155531D02*
X7541491Y-14146008D01*
X7541491Y-14146008D02*
X7560539Y-14136484D01*
X7712920Y-14336484D02*
X7712920Y-14203150D01*
X7712920Y-14222198D02*
X7722443Y-14212674D01*
X7722443Y-14212674D02*
X7741491Y-14203150D01*
X7741491Y-14203150D02*
X7770063Y-14203150D01*
X7770063Y-14203150D02*
X7789110Y-14212674D01*
X7789110Y-14212674D02*
X7798634Y-14231722D01*
X7798634Y-14231722D02*
X7798634Y-14336484D01*
X7798634Y-14231722D02*
X7808158Y-14212674D01*
X7808158Y-14212674D02*
X7827205Y-14203150D01*
X7827205Y-14203150D02*
X7855777Y-14203150D01*
X7855777Y-14203150D02*
X7874824Y-14212674D01*
X7874824Y-14212674D02*
X7884348Y-14231722D01*
X7884348Y-14231722D02*
X7884348Y-14336484D01*
X7979586Y-14336484D02*
X7979586Y-14203150D01*
X7979586Y-14222198D02*
X7989110Y-14212674D01*
X7989110Y-14212674D02*
X8008158Y-14203150D01*
X8008158Y-14203150D02*
X8036729Y-14203150D01*
X8036729Y-14203150D02*
X8055777Y-14212674D01*
X8055777Y-14212674D02*
X8065301Y-14231722D01*
X8065301Y-14231722D02*
X8065301Y-14336484D01*
X8065301Y-14231722D02*
X8074824Y-14212674D01*
X8074824Y-14212674D02*
X8093872Y-14203150D01*
X8093872Y-14203150D02*
X8122443Y-14203150D01*
X8122443Y-14203150D02*
X8141491Y-14212674D01*
X8141491Y-14212674D02*
X8151015Y-14231722D01*
X8151015Y-14231722D02*
X8151015Y-14336484D01*
X8541491Y-14126960D02*
X8370063Y-14384103D01*
X8798634Y-14136484D02*
X8817682Y-14136484D01*
X8817682Y-14136484D02*
X8836729Y-14146008D01*
X8836729Y-14146008D02*
X8846253Y-14155531D01*
X8846253Y-14155531D02*
X8855777Y-14174579D01*
X8855777Y-14174579D02*
X8865301Y-14212674D01*
X8865301Y-14212674D02*
X8865301Y-14260293D01*
X8865301Y-14260293D02*
X8855777Y-14298388D01*
X8855777Y-14298388D02*
X8846253Y-14317436D01*
X8846253Y-14317436D02*
X8836729Y-14326960D01*
X8836729Y-14326960D02*
X8817682Y-14336484D01*
X8817682Y-14336484D02*
X8798634Y-14336484D01*
X8798634Y-14336484D02*
X8779587Y-14326960D01*
X8779587Y-14326960D02*
X8770063Y-14317436D01*
X8770063Y-14317436D02*
X8760539Y-14298388D01*
X8760539Y-14298388D02*
X8751015Y-14260293D01*
X8751015Y-14260293D02*
X8751015Y-14212674D01*
X8751015Y-14212674D02*
X8760539Y-14174579D01*
X8760539Y-14174579D02*
X8770063Y-14155531D01*
X8770063Y-14155531D02*
X8779587Y-14146008D01*
X8779587Y-14146008D02*
X8798634Y-14136484D01*
X8951015Y-14317436D02*
X8960539Y-14326960D01*
X8960539Y-14326960D02*
X8951015Y-14336484D01*
X8951015Y-14336484D02*
X8941491Y-14326960D01*
X8941491Y-14326960D02*
X8951015Y-14317436D01*
X8951015Y-14317436D02*
X8951015Y-14336484D01*
X9084348Y-14136484D02*
X9103396Y-14136484D01*
X9103396Y-14136484D02*
X9122444Y-14146008D01*
X9122444Y-14146008D02*
X9131968Y-14155531D01*
X9131968Y-14155531D02*
X9141491Y-14174579D01*
X9141491Y-14174579D02*
X9151015Y-14212674D01*
X9151015Y-14212674D02*
X9151015Y-14260293D01*
X9151015Y-14260293D02*
X9141491Y-14298388D01*
X9141491Y-14298388D02*
X9131968Y-14317436D01*
X9131968Y-14317436D02*
X9122444Y-14326960D01*
X9122444Y-14326960D02*
X9103396Y-14336484D01*
X9103396Y-14336484D02*
X9084348Y-14336484D01*
X9084348Y-14336484D02*
X9065301Y-14326960D01*
X9065301Y-14326960D02*
X9055777Y-14317436D01*
X9055777Y-14317436D02*
X9046253Y-14298388D01*
X9046253Y-14298388D02*
X9036729Y-14260293D01*
X9036729Y-14260293D02*
X9036729Y-14212674D01*
X9036729Y-14212674D02*
X9046253Y-14174579D01*
X9046253Y-14174579D02*
X9055777Y-14155531D01*
X9055777Y-14155531D02*
X9065301Y-14146008D01*
X9065301Y-14146008D02*
X9084348Y-14136484D01*
X9341491Y-14336484D02*
X9227206Y-14336484D01*
X9284348Y-14336484D02*
X9284348Y-14136484D01*
X9284348Y-14136484D02*
X9265301Y-14165055D01*
X9265301Y-14165055D02*
X9246253Y-14184103D01*
X9246253Y-14184103D02*
X9227206Y-14193627D01*
X9522444Y-14136484D02*
X9427206Y-14136484D01*
X9427206Y-14136484D02*
X9417682Y-14231722D01*
X9417682Y-14231722D02*
X9427206Y-14222198D01*
X9427206Y-14222198D02*
X9446253Y-14212674D01*
X9446253Y-14212674D02*
X9493872Y-14212674D01*
X9493872Y-14212674D02*
X9512920Y-14222198D01*
X9512920Y-14222198D02*
X9522444Y-14231722D01*
X9522444Y-14231722D02*
X9531968Y-14250769D01*
X9531968Y-14250769D02*
X9531968Y-14298388D01*
X9531968Y-14298388D02*
X9522444Y-14317436D01*
X9522444Y-14317436D02*
X9512920Y-14326960D01*
X9512920Y-14326960D02*
X9493872Y-14336484D01*
X9493872Y-14336484D02*
X9446253Y-14336484D01*
X9446253Y-14336484D02*
X9427206Y-14326960D01*
X9427206Y-14326960D02*
X9417682Y-14317436D01*
X9598634Y-14136484D02*
X9731968Y-14136484D01*
X9731968Y-14136484D02*
X9646253Y-14336484D01*
X9798634Y-14136484D02*
X9798634Y-14174579D01*
X9874825Y-14136484D02*
X9874825Y-14174579D01*
X10170063Y-14412674D02*
X10160539Y-14403150D01*
X10160539Y-14403150D02*
X10141491Y-14374579D01*
X10141491Y-14374579D02*
X10131968Y-14355531D01*
X10131968Y-14355531D02*
X10122444Y-14326960D01*
X10122444Y-14326960D02*
X10112920Y-14279341D01*
X10112920Y-14279341D02*
X10112920Y-14241246D01*
X10112920Y-14241246D02*
X10122444Y-14193627D01*
X10122444Y-14193627D02*
X10131968Y-14165055D01*
X10131968Y-14165055D02*
X10141491Y-14146008D01*
X10141491Y-14146008D02*
X10160539Y-14117436D01*
X10160539Y-14117436D02*
X10170063Y-14107912D01*
X10236730Y-14155531D02*
X10246253Y-14146008D01*
X10246253Y-14146008D02*
X10265301Y-14136484D01*
X10265301Y-14136484D02*
X10312920Y-14136484D01*
X10312920Y-14136484D02*
X10331968Y-14146008D01*
X10331968Y-14146008D02*
X10341491Y-14155531D01*
X10341491Y-14155531D02*
X10351015Y-14174579D01*
X10351015Y-14174579D02*
X10351015Y-14193627D01*
X10351015Y-14193627D02*
X10341491Y-14222198D01*
X10341491Y-14222198D02*
X10227206Y-14336484D01*
X10227206Y-14336484D02*
X10351015Y-14336484D01*
X10417682Y-14136484D02*
X10551015Y-14136484D01*
X10551015Y-14136484D02*
X10465301Y-14336484D01*
X10779587Y-14336484D02*
X10779587Y-14136484D01*
X10865301Y-14336484D02*
X10865301Y-14231722D01*
X10865301Y-14231722D02*
X10855777Y-14212674D01*
X10855777Y-14212674D02*
X10836730Y-14203150D01*
X10836730Y-14203150D02*
X10808158Y-14203150D01*
X10808158Y-14203150D02*
X10789111Y-14212674D01*
X10789111Y-14212674D02*
X10779587Y-14222198D01*
X10989111Y-14336484D02*
X10970063Y-14326960D01*
X10970063Y-14326960D02*
X10960539Y-14317436D01*
X10960539Y-14317436D02*
X10951015Y-14298388D01*
X10951015Y-14298388D02*
X10951015Y-14241246D01*
X10951015Y-14241246D02*
X10960539Y-14222198D01*
X10960539Y-14222198D02*
X10970063Y-14212674D01*
X10970063Y-14212674D02*
X10989111Y-14203150D01*
X10989111Y-14203150D02*
X11017682Y-14203150D01*
X11017682Y-14203150D02*
X11036730Y-14212674D01*
X11036730Y-14212674D02*
X11046253Y-14222198D01*
X11046253Y-14222198D02*
X11055777Y-14241246D01*
X11055777Y-14241246D02*
X11055777Y-14298388D01*
X11055777Y-14298388D02*
X11046253Y-14317436D01*
X11046253Y-14317436D02*
X11036730Y-14326960D01*
X11036730Y-14326960D02*
X11017682Y-14336484D01*
X11017682Y-14336484D02*
X10989111Y-14336484D01*
X11170063Y-14336484D02*
X11151015Y-14326960D01*
X11151015Y-14326960D02*
X11141492Y-14307912D01*
X11141492Y-14307912D02*
X11141492Y-14136484D01*
X11322444Y-14326960D02*
X11303396Y-14336484D01*
X11303396Y-14336484D02*
X11265301Y-14336484D01*
X11265301Y-14336484D02*
X11246253Y-14326960D01*
X11246253Y-14326960D02*
X11236730Y-14307912D01*
X11236730Y-14307912D02*
X11236730Y-14231722D01*
X11236730Y-14231722D02*
X11246253Y-14212674D01*
X11246253Y-14212674D02*
X11265301Y-14203150D01*
X11265301Y-14203150D02*
X11303396Y-14203150D01*
X11303396Y-14203150D02*
X11322444Y-14212674D01*
X11322444Y-14212674D02*
X11331968Y-14231722D01*
X11331968Y-14231722D02*
X11331968Y-14250769D01*
X11331968Y-14250769D02*
X11236730Y-14269817D01*
X11408158Y-14326960D02*
X11427206Y-14336484D01*
X11427206Y-14336484D02*
X11465301Y-14336484D01*
X11465301Y-14336484D02*
X11484349Y-14326960D01*
X11484349Y-14326960D02*
X11493872Y-14307912D01*
X11493872Y-14307912D02*
X11493872Y-14298388D01*
X11493872Y-14298388D02*
X11484349Y-14279341D01*
X11484349Y-14279341D02*
X11465301Y-14269817D01*
X11465301Y-14269817D02*
X11436730Y-14269817D01*
X11436730Y-14269817D02*
X11417682Y-14260293D01*
X11417682Y-14260293D02*
X11408158Y-14241246D01*
X11408158Y-14241246D02*
X11408158Y-14231722D01*
X11408158Y-14231722D02*
X11417682Y-14212674D01*
X11417682Y-14212674D02*
X11436730Y-14203150D01*
X11436730Y-14203150D02*
X11465301Y-14203150D01*
X11465301Y-14203150D02*
X11484349Y-14212674D01*
X11560539Y-14412674D02*
X11570063Y-14403150D01*
X11570063Y-14403150D02*
X11589111Y-14374579D01*
X11589111Y-14374579D02*
X11598634Y-14355531D01*
X11598634Y-14355531D02*
X11608158Y-14326960D01*
X11608158Y-14326960D02*
X11617682Y-14279341D01*
X11617682Y-14279341D02*
X11617682Y-14241246D01*
X11617682Y-14241246D02*
X11608158Y-14193627D01*
X11608158Y-14193627D02*
X11598634Y-14165055D01*
X11598634Y-14165055D02*
X11589111Y-14146008D01*
X11589111Y-14146008D02*
X11570063Y-14117436D01*
X11570063Y-14117436D02*
X11560539Y-14107912D01*
D10*
X6595000Y-14509000D02*
G75*
G02*
X6518800Y-14509000I-38100J0D01*
G01*
X6518800Y-14509000D02*
G75*
G02*
X6595000Y-14509000I38100J0D01*
G01*
D11*
X6893872Y-14400484D02*
X6912920Y-14400484D01*
X6912920Y-14400484D02*
X6931967Y-14410008D01*
X6931967Y-14410008D02*
X6941491Y-14419531D01*
X6941491Y-14419531D02*
X6951015Y-14438579D01*
X6951015Y-14438579D02*
X6960539Y-14476674D01*
X6960539Y-14476674D02*
X6960539Y-14524293D01*
X6960539Y-14524293D02*
X6951015Y-14562388D01*
X6951015Y-14562388D02*
X6941491Y-14581436D01*
X6941491Y-14581436D02*
X6931967Y-14590960D01*
X6931967Y-14590960D02*
X6912920Y-14600484D01*
X6912920Y-14600484D02*
X6893872Y-14600484D01*
X6893872Y-14600484D02*
X6874824Y-14590960D01*
X6874824Y-14590960D02*
X6865301Y-14581436D01*
X6865301Y-14581436D02*
X6855777Y-14562388D01*
X6855777Y-14562388D02*
X6846253Y-14524293D01*
X6846253Y-14524293D02*
X6846253Y-14476674D01*
X6846253Y-14476674D02*
X6855777Y-14438579D01*
X6855777Y-14438579D02*
X6865301Y-14419531D01*
X6865301Y-14419531D02*
X6874824Y-14410008D01*
X6874824Y-14410008D02*
X6893872Y-14400484D01*
X7046253Y-14581436D02*
X7055777Y-14590960D01*
X7055777Y-14590960D02*
X7046253Y-14600484D01*
X7046253Y-14600484D02*
X7036729Y-14590960D01*
X7036729Y-14590960D02*
X7046253Y-14581436D01*
X7046253Y-14581436D02*
X7046253Y-14600484D01*
X7122443Y-14400484D02*
X7255777Y-14400484D01*
X7255777Y-14400484D02*
X7170062Y-14600484D01*
X7417682Y-14400484D02*
X7379586Y-14400484D01*
X7379586Y-14400484D02*
X7360539Y-14410008D01*
X7360539Y-14410008D02*
X7351015Y-14419531D01*
X7351015Y-14419531D02*
X7331967Y-14448103D01*
X7331967Y-14448103D02*
X7322443Y-14486198D01*
X7322443Y-14486198D02*
X7322443Y-14562388D01*
X7322443Y-14562388D02*
X7331967Y-14581436D01*
X7331967Y-14581436D02*
X7341491Y-14590960D01*
X7341491Y-14590960D02*
X7360539Y-14600484D01*
X7360539Y-14600484D02*
X7398634Y-14600484D01*
X7398634Y-14600484D02*
X7417682Y-14590960D01*
X7417682Y-14590960D02*
X7427205Y-14581436D01*
X7427205Y-14581436D02*
X7436729Y-14562388D01*
X7436729Y-14562388D02*
X7436729Y-14514769D01*
X7436729Y-14514769D02*
X7427205Y-14495722D01*
X7427205Y-14495722D02*
X7417682Y-14486198D01*
X7417682Y-14486198D02*
X7398634Y-14476674D01*
X7398634Y-14476674D02*
X7360539Y-14476674D01*
X7360539Y-14476674D02*
X7341491Y-14486198D01*
X7341491Y-14486198D02*
X7331967Y-14495722D01*
X7331967Y-14495722D02*
X7322443Y-14514769D01*
X7512920Y-14419531D02*
X7522443Y-14410008D01*
X7522443Y-14410008D02*
X7541491Y-14400484D01*
X7541491Y-14400484D02*
X7589110Y-14400484D01*
X7589110Y-14400484D02*
X7608158Y-14410008D01*
X7608158Y-14410008D02*
X7617682Y-14419531D01*
X7617682Y-14419531D02*
X7627205Y-14438579D01*
X7627205Y-14438579D02*
X7627205Y-14457627D01*
X7627205Y-14457627D02*
X7617682Y-14486198D01*
X7617682Y-14486198D02*
X7503396Y-14600484D01*
X7503396Y-14600484D02*
X7627205Y-14600484D01*
X7712920Y-14600484D02*
X7712920Y-14467150D01*
X7712920Y-14486198D02*
X7722443Y-14476674D01*
X7722443Y-14476674D02*
X7741491Y-14467150D01*
X7741491Y-14467150D02*
X7770063Y-14467150D01*
X7770063Y-14467150D02*
X7789110Y-14476674D01*
X7789110Y-14476674D02*
X7798634Y-14495722D01*
X7798634Y-14495722D02*
X7798634Y-14600484D01*
X7798634Y-14495722D02*
X7808158Y-14476674D01*
X7808158Y-14476674D02*
X7827205Y-14467150D01*
X7827205Y-14467150D02*
X7855777Y-14467150D01*
X7855777Y-14467150D02*
X7874824Y-14476674D01*
X7874824Y-14476674D02*
X7884348Y-14495722D01*
X7884348Y-14495722D02*
X7884348Y-14600484D01*
X7979586Y-14600484D02*
X7979586Y-14467150D01*
X7979586Y-14486198D02*
X7989110Y-14476674D01*
X7989110Y-14476674D02*
X8008158Y-14467150D01*
X8008158Y-14467150D02*
X8036729Y-14467150D01*
X8036729Y-14467150D02*
X8055777Y-14476674D01*
X8055777Y-14476674D02*
X8065301Y-14495722D01*
X8065301Y-14495722D02*
X8065301Y-14600484D01*
X8065301Y-14495722D02*
X8074824Y-14476674D01*
X8074824Y-14476674D02*
X8093872Y-14467150D01*
X8093872Y-14467150D02*
X8122443Y-14467150D01*
X8122443Y-14467150D02*
X8141491Y-14476674D01*
X8141491Y-14476674D02*
X8151015Y-14495722D01*
X8151015Y-14495722D02*
X8151015Y-14600484D01*
X8541491Y-14390960D02*
X8370063Y-14648103D01*
X8798634Y-14400484D02*
X8817682Y-14400484D01*
X8817682Y-14400484D02*
X8836729Y-14410008D01*
X8836729Y-14410008D02*
X8846253Y-14419531D01*
X8846253Y-14419531D02*
X8855777Y-14438579D01*
X8855777Y-14438579D02*
X8865301Y-14476674D01*
X8865301Y-14476674D02*
X8865301Y-14524293D01*
X8865301Y-14524293D02*
X8855777Y-14562388D01*
X8855777Y-14562388D02*
X8846253Y-14581436D01*
X8846253Y-14581436D02*
X8836729Y-14590960D01*
X8836729Y-14590960D02*
X8817682Y-14600484D01*
X8817682Y-14600484D02*
X8798634Y-14600484D01*
X8798634Y-14600484D02*
X8779587Y-14590960D01*
X8779587Y-14590960D02*
X8770063Y-14581436D01*
X8770063Y-14581436D02*
X8760539Y-14562388D01*
X8760539Y-14562388D02*
X8751015Y-14524293D01*
X8751015Y-14524293D02*
X8751015Y-14476674D01*
X8751015Y-14476674D02*
X8760539Y-14438579D01*
X8760539Y-14438579D02*
X8770063Y-14419531D01*
X8770063Y-14419531D02*
X8779587Y-14410008D01*
X8779587Y-14410008D02*
X8798634Y-14400484D01*
X8951015Y-14581436D02*
X8960539Y-14590960D01*
X8960539Y-14590960D02*
X8951015Y-14600484D01*
X8951015Y-14600484D02*
X8941491Y-14590960D01*
X8941491Y-14590960D02*
X8951015Y-14581436D01*
X8951015Y-14581436D02*
X8951015Y-14600484D01*
X9084348Y-14400484D02*
X9103396Y-14400484D01*
X9103396Y-14400484D02*
X9122444Y-14410008D01*
X9122444Y-14410008D02*
X9131968Y-14419531D01*
X9131968Y-14419531D02*
X9141491Y-14438579D01*
X9141491Y-14438579D02*
X9151015Y-14476674D01*
X9151015Y-14476674D02*
X9151015Y-14524293D01*
X9151015Y-14524293D02*
X9141491Y-14562388D01*
X9141491Y-14562388D02*
X9131968Y-14581436D01*
X9131968Y-14581436D02*
X9122444Y-14590960D01*
X9122444Y-14590960D02*
X9103396Y-14600484D01*
X9103396Y-14600484D02*
X9084348Y-14600484D01*
X9084348Y-14600484D02*
X9065301Y-14590960D01*
X9065301Y-14590960D02*
X9055777Y-14581436D01*
X9055777Y-14581436D02*
X9046253Y-14562388D01*
X9046253Y-14562388D02*
X9036729Y-14524293D01*
X9036729Y-14524293D02*
X9036729Y-14476674D01*
X9036729Y-14476674D02*
X9046253Y-14438579D01*
X9046253Y-14438579D02*
X9055777Y-14419531D01*
X9055777Y-14419531D02*
X9065301Y-14410008D01*
X9065301Y-14410008D02*
X9084348Y-14400484D01*
X9217682Y-14400484D02*
X9341491Y-14400484D01*
X9341491Y-14400484D02*
X9274825Y-14476674D01*
X9274825Y-14476674D02*
X9303396Y-14476674D01*
X9303396Y-14476674D02*
X9322444Y-14486198D01*
X9322444Y-14486198D02*
X9331968Y-14495722D01*
X9331968Y-14495722D02*
X9341491Y-14514769D01*
X9341491Y-14514769D02*
X9341491Y-14562388D01*
X9341491Y-14562388D02*
X9331968Y-14581436D01*
X9331968Y-14581436D02*
X9322444Y-14590960D01*
X9322444Y-14590960D02*
X9303396Y-14600484D01*
X9303396Y-14600484D02*
X9246253Y-14600484D01*
X9246253Y-14600484D02*
X9227206Y-14590960D01*
X9227206Y-14590960D02*
X9217682Y-14581436D01*
X9465301Y-14400484D02*
X9484349Y-14400484D01*
X9484349Y-14400484D02*
X9503396Y-14410008D01*
X9503396Y-14410008D02*
X9512920Y-14419531D01*
X9512920Y-14419531D02*
X9522444Y-14438579D01*
X9522444Y-14438579D02*
X9531968Y-14476674D01*
X9531968Y-14476674D02*
X9531968Y-14524293D01*
X9531968Y-14524293D02*
X9522444Y-14562388D01*
X9522444Y-14562388D02*
X9512920Y-14581436D01*
X9512920Y-14581436D02*
X9503396Y-14590960D01*
X9503396Y-14590960D02*
X9484349Y-14600484D01*
X9484349Y-14600484D02*
X9465301Y-14600484D01*
X9465301Y-14600484D02*
X9446253Y-14590960D01*
X9446253Y-14590960D02*
X9436729Y-14581436D01*
X9436729Y-14581436D02*
X9427206Y-14562388D01*
X9427206Y-14562388D02*
X9417682Y-14524293D01*
X9417682Y-14524293D02*
X9417682Y-14476674D01*
X9417682Y-14476674D02*
X9427206Y-14438579D01*
X9427206Y-14438579D02*
X9436729Y-14419531D01*
X9436729Y-14419531D02*
X9446253Y-14410008D01*
X9446253Y-14410008D02*
X9465301Y-14400484D01*
X9655777Y-14400484D02*
X9674825Y-14400484D01*
X9674825Y-14400484D02*
X9693872Y-14410008D01*
X9693872Y-14410008D02*
X9703396Y-14419531D01*
X9703396Y-14419531D02*
X9712920Y-14438579D01*
X9712920Y-14438579D02*
X9722444Y-14476674D01*
X9722444Y-14476674D02*
X9722444Y-14524293D01*
X9722444Y-14524293D02*
X9712920Y-14562388D01*
X9712920Y-14562388D02*
X9703396Y-14581436D01*
X9703396Y-14581436D02*
X9693872Y-14590960D01*
X9693872Y-14590960D02*
X9674825Y-14600484D01*
X9674825Y-14600484D02*
X9655777Y-14600484D01*
X9655777Y-14600484D02*
X9636729Y-14590960D01*
X9636729Y-14590960D02*
X9627206Y-14581436D01*
X9627206Y-14581436D02*
X9617682Y-14562388D01*
X9617682Y-14562388D02*
X9608158Y-14524293D01*
X9608158Y-14524293D02*
X9608158Y-14476674D01*
X9608158Y-14476674D02*
X9617682Y-14438579D01*
X9617682Y-14438579D02*
X9627206Y-14419531D01*
X9627206Y-14419531D02*
X9636729Y-14410008D01*
X9636729Y-14410008D02*
X9655777Y-14400484D01*
X9798634Y-14400484D02*
X9798634Y-14438579D01*
X9874825Y-14400484D02*
X9874825Y-14438579D01*
X10170063Y-14676674D02*
X10160539Y-14667150D01*
X10160539Y-14667150D02*
X10141491Y-14638579D01*
X10141491Y-14638579D02*
X10131968Y-14619531D01*
X10131968Y-14619531D02*
X10122444Y-14590960D01*
X10122444Y-14590960D02*
X10112920Y-14543341D01*
X10112920Y-14543341D02*
X10112920Y-14505246D01*
X10112920Y-14505246D02*
X10122444Y-14457627D01*
X10122444Y-14457627D02*
X10131968Y-14429055D01*
X10131968Y-14429055D02*
X10141491Y-14410008D01*
X10141491Y-14410008D02*
X10160539Y-14381436D01*
X10160539Y-14381436D02*
X10170063Y-14371912D01*
X10351015Y-14600484D02*
X10236730Y-14600484D01*
X10293872Y-14600484D02*
X10293872Y-14400484D01*
X10293872Y-14400484D02*
X10274825Y-14429055D01*
X10274825Y-14429055D02*
X10255777Y-14448103D01*
X10255777Y-14448103D02*
X10236730Y-14457627D01*
X10541491Y-14600484D02*
X10427206Y-14600484D01*
X10484349Y-14600484D02*
X10484349Y-14400484D01*
X10484349Y-14400484D02*
X10465301Y-14429055D01*
X10465301Y-14429055D02*
X10446253Y-14448103D01*
X10446253Y-14448103D02*
X10427206Y-14457627D01*
X10779587Y-14600484D02*
X10779587Y-14400484D01*
X10865301Y-14600484D02*
X10865301Y-14495722D01*
X10865301Y-14495722D02*
X10855777Y-14476674D01*
X10855777Y-14476674D02*
X10836730Y-14467150D01*
X10836730Y-14467150D02*
X10808158Y-14467150D01*
X10808158Y-14467150D02*
X10789111Y-14476674D01*
X10789111Y-14476674D02*
X10779587Y-14486198D01*
X10989111Y-14600484D02*
X10970063Y-14590960D01*
X10970063Y-14590960D02*
X10960539Y-14581436D01*
X10960539Y-14581436D02*
X10951015Y-14562388D01*
X10951015Y-14562388D02*
X10951015Y-14505246D01*
X10951015Y-14505246D02*
X10960539Y-14486198D01*
X10960539Y-14486198D02*
X10970063Y-14476674D01*
X10970063Y-14476674D02*
X10989111Y-14467150D01*
X10989111Y-14467150D02*
X11017682Y-14467150D01*
X11017682Y-14467150D02*
X11036730Y-14476674D01*
X11036730Y-14476674D02*
X11046253Y-14486198D01*
X11046253Y-14486198D02*
X11055777Y-14505246D01*
X11055777Y-14505246D02*
X11055777Y-14562388D01*
X11055777Y-14562388D02*
X11046253Y-14581436D01*
X11046253Y-14581436D02*
X11036730Y-14590960D01*
X11036730Y-14590960D02*
X11017682Y-14600484D01*
X11017682Y-14600484D02*
X10989111Y-14600484D01*
X11170063Y-14600484D02*
X11151015Y-14590960D01*
X11151015Y-14590960D02*
X11141492Y-14571912D01*
X11141492Y-14571912D02*
X11141492Y-14400484D01*
X11322444Y-14590960D02*
X11303396Y-14600484D01*
X11303396Y-14600484D02*
X11265301Y-14600484D01*
X11265301Y-14600484D02*
X11246253Y-14590960D01*
X11246253Y-14590960D02*
X11236730Y-14571912D01*
X11236730Y-14571912D02*
X11236730Y-14495722D01*
X11236730Y-14495722D02*
X11246253Y-14476674D01*
X11246253Y-14476674D02*
X11265301Y-14467150D01*
X11265301Y-14467150D02*
X11303396Y-14467150D01*
X11303396Y-14467150D02*
X11322444Y-14476674D01*
X11322444Y-14476674D02*
X11331968Y-14495722D01*
X11331968Y-14495722D02*
X11331968Y-14514769D01*
X11331968Y-14514769D02*
X11236730Y-14533817D01*
X11408158Y-14590960D02*
X11427206Y-14600484D01*
X11427206Y-14600484D02*
X11465301Y-14600484D01*
X11465301Y-14600484D02*
X11484349Y-14590960D01*
X11484349Y-14590960D02*
X11493872Y-14571912D01*
X11493872Y-14571912D02*
X11493872Y-14562388D01*
X11493872Y-14562388D02*
X11484349Y-14543341D01*
X11484349Y-14543341D02*
X11465301Y-14533817D01*
X11465301Y-14533817D02*
X11436730Y-14533817D01*
X11436730Y-14533817D02*
X11417682Y-14524293D01*
X11417682Y-14524293D02*
X11408158Y-14505246D01*
X11408158Y-14505246D02*
X11408158Y-14495722D01*
X11408158Y-14495722D02*
X11417682Y-14476674D01*
X11417682Y-14476674D02*
X11436730Y-14467150D01*
X11436730Y-14467150D02*
X11465301Y-14467150D01*
X11465301Y-14467150D02*
X11484349Y-14476674D01*
X11560539Y-14676674D02*
X11570063Y-14667150D01*
X11570063Y-14667150D02*
X11589111Y-14638579D01*
X11589111Y-14638579D02*
X11598634Y-14619531D01*
X11598634Y-14619531D02*
X11608158Y-14590960D01*
X11608158Y-14590960D02*
X11617682Y-14543341D01*
X11617682Y-14543341D02*
X11617682Y-14505246D01*
X11617682Y-14505246D02*
X11608158Y-14457627D01*
X11608158Y-14457627D02*
X11598634Y-14429055D01*
X11598634Y-14429055D02*
X11589111Y-14410008D01*
X11589111Y-14410008D02*
X11570063Y-14381436D01*
X11570063Y-14381436D02*
X11560539Y-14371912D01*
D10*
X6555000Y-14733000D02*
X6555000Y-14813000D01*
X6515000Y-14773000D02*
X6595000Y-14773000D01*
D11*
X6893872Y-14664484D02*
X6912920Y-14664484D01*
X6912920Y-14664484D02*
X6931967Y-14674008D01*
X6931967Y-14674008D02*
X6941491Y-14683531D01*
X6941491Y-14683531D02*
X6951015Y-14702579D01*
X6951015Y-14702579D02*
X6960539Y-14740674D01*
X6960539Y-14740674D02*
X6960539Y-14788293D01*
X6960539Y-14788293D02*
X6951015Y-14826388D01*
X6951015Y-14826388D02*
X6941491Y-14845436D01*
X6941491Y-14845436D02*
X6931967Y-14854960D01*
X6931967Y-14854960D02*
X6912920Y-14864484D01*
X6912920Y-14864484D02*
X6893872Y-14864484D01*
X6893872Y-14864484D02*
X6874824Y-14854960D01*
X6874824Y-14854960D02*
X6865301Y-14845436D01*
X6865301Y-14845436D02*
X6855777Y-14826388D01*
X6855777Y-14826388D02*
X6846253Y-14788293D01*
X6846253Y-14788293D02*
X6846253Y-14740674D01*
X6846253Y-14740674D02*
X6855777Y-14702579D01*
X6855777Y-14702579D02*
X6865301Y-14683531D01*
X6865301Y-14683531D02*
X6874824Y-14674008D01*
X6874824Y-14674008D02*
X6893872Y-14664484D01*
X7046253Y-14845436D02*
X7055777Y-14854960D01*
X7055777Y-14854960D02*
X7046253Y-14864484D01*
X7046253Y-14864484D02*
X7036729Y-14854960D01*
X7036729Y-14854960D02*
X7046253Y-14845436D01*
X7046253Y-14845436D02*
X7046253Y-14864484D01*
X7170062Y-14750198D02*
X7151015Y-14740674D01*
X7151015Y-14740674D02*
X7141491Y-14731150D01*
X7141491Y-14731150D02*
X7131967Y-14712103D01*
X7131967Y-14712103D02*
X7131967Y-14702579D01*
X7131967Y-14702579D02*
X7141491Y-14683531D01*
X7141491Y-14683531D02*
X7151015Y-14674008D01*
X7151015Y-14674008D02*
X7170062Y-14664484D01*
X7170062Y-14664484D02*
X7208158Y-14664484D01*
X7208158Y-14664484D02*
X7227205Y-14674008D01*
X7227205Y-14674008D02*
X7236729Y-14683531D01*
X7236729Y-14683531D02*
X7246253Y-14702579D01*
X7246253Y-14702579D02*
X7246253Y-14712103D01*
X7246253Y-14712103D02*
X7236729Y-14731150D01*
X7236729Y-14731150D02*
X7227205Y-14740674D01*
X7227205Y-14740674D02*
X7208158Y-14750198D01*
X7208158Y-14750198D02*
X7170062Y-14750198D01*
X7170062Y-14750198D02*
X7151015Y-14759722D01*
X7151015Y-14759722D02*
X7141491Y-14769246D01*
X7141491Y-14769246D02*
X7131967Y-14788293D01*
X7131967Y-14788293D02*
X7131967Y-14826388D01*
X7131967Y-14826388D02*
X7141491Y-14845436D01*
X7141491Y-14845436D02*
X7151015Y-14854960D01*
X7151015Y-14854960D02*
X7170062Y-14864484D01*
X7170062Y-14864484D02*
X7208158Y-14864484D01*
X7208158Y-14864484D02*
X7227205Y-14854960D01*
X7227205Y-14854960D02*
X7236729Y-14845436D01*
X7236729Y-14845436D02*
X7246253Y-14826388D01*
X7246253Y-14826388D02*
X7246253Y-14788293D01*
X7246253Y-14788293D02*
X7236729Y-14769246D01*
X7236729Y-14769246D02*
X7227205Y-14759722D01*
X7227205Y-14759722D02*
X7208158Y-14750198D01*
X7370062Y-14664484D02*
X7389110Y-14664484D01*
X7389110Y-14664484D02*
X7408158Y-14674008D01*
X7408158Y-14674008D02*
X7417682Y-14683531D01*
X7417682Y-14683531D02*
X7427205Y-14702579D01*
X7427205Y-14702579D02*
X7436729Y-14740674D01*
X7436729Y-14740674D02*
X7436729Y-14788293D01*
X7436729Y-14788293D02*
X7427205Y-14826388D01*
X7427205Y-14826388D02*
X7417682Y-14845436D01*
X7417682Y-14845436D02*
X7408158Y-14854960D01*
X7408158Y-14854960D02*
X7389110Y-14864484D01*
X7389110Y-14864484D02*
X7370062Y-14864484D01*
X7370062Y-14864484D02*
X7351015Y-14854960D01*
X7351015Y-14854960D02*
X7341491Y-14845436D01*
X7341491Y-14845436D02*
X7331967Y-14826388D01*
X7331967Y-14826388D02*
X7322443Y-14788293D01*
X7322443Y-14788293D02*
X7322443Y-14740674D01*
X7322443Y-14740674D02*
X7331967Y-14702579D01*
X7331967Y-14702579D02*
X7341491Y-14683531D01*
X7341491Y-14683531D02*
X7351015Y-14674008D01*
X7351015Y-14674008D02*
X7370062Y-14664484D01*
X7560539Y-14664484D02*
X7579586Y-14664484D01*
X7579586Y-14664484D02*
X7598634Y-14674008D01*
X7598634Y-14674008D02*
X7608158Y-14683531D01*
X7608158Y-14683531D02*
X7617682Y-14702579D01*
X7617682Y-14702579D02*
X7627205Y-14740674D01*
X7627205Y-14740674D02*
X7627205Y-14788293D01*
X7627205Y-14788293D02*
X7617682Y-14826388D01*
X7617682Y-14826388D02*
X7608158Y-14845436D01*
X7608158Y-14845436D02*
X7598634Y-14854960D01*
X7598634Y-14854960D02*
X7579586Y-14864484D01*
X7579586Y-14864484D02*
X7560539Y-14864484D01*
X7560539Y-14864484D02*
X7541491Y-14854960D01*
X7541491Y-14854960D02*
X7531967Y-14845436D01*
X7531967Y-14845436D02*
X7522443Y-14826388D01*
X7522443Y-14826388D02*
X7512920Y-14788293D01*
X7512920Y-14788293D02*
X7512920Y-14740674D01*
X7512920Y-14740674D02*
X7522443Y-14702579D01*
X7522443Y-14702579D02*
X7531967Y-14683531D01*
X7531967Y-14683531D02*
X7541491Y-14674008D01*
X7541491Y-14674008D02*
X7560539Y-14664484D01*
X7712920Y-14864484D02*
X7712920Y-14731150D01*
X7712920Y-14750198D02*
X7722443Y-14740674D01*
X7722443Y-14740674D02*
X7741491Y-14731150D01*
X7741491Y-14731150D02*
X7770063Y-14731150D01*
X7770063Y-14731150D02*
X7789110Y-14740674D01*
X7789110Y-14740674D02*
X7798634Y-14759722D01*
X7798634Y-14759722D02*
X7798634Y-14864484D01*
X7798634Y-14759722D02*
X7808158Y-14740674D01*
X7808158Y-14740674D02*
X7827205Y-14731150D01*
X7827205Y-14731150D02*
X7855777Y-14731150D01*
X7855777Y-14731150D02*
X7874824Y-14740674D01*
X7874824Y-14740674D02*
X7884348Y-14759722D01*
X7884348Y-14759722D02*
X7884348Y-14864484D01*
X7979586Y-14864484D02*
X7979586Y-14731150D01*
X7979586Y-14750198D02*
X7989110Y-14740674D01*
X7989110Y-14740674D02*
X8008158Y-14731150D01*
X8008158Y-14731150D02*
X8036729Y-14731150D01*
X8036729Y-14731150D02*
X8055777Y-14740674D01*
X8055777Y-14740674D02*
X8065301Y-14759722D01*
X8065301Y-14759722D02*
X8065301Y-14864484D01*
X8065301Y-14759722D02*
X8074824Y-14740674D01*
X8074824Y-14740674D02*
X8093872Y-14731150D01*
X8093872Y-14731150D02*
X8122443Y-14731150D01*
X8122443Y-14731150D02*
X8141491Y-14740674D01*
X8141491Y-14740674D02*
X8151015Y-14759722D01*
X8151015Y-14759722D02*
X8151015Y-14864484D01*
X8541491Y-14654960D02*
X8370063Y-14912103D01*
X8798634Y-14664484D02*
X8817682Y-14664484D01*
X8817682Y-14664484D02*
X8836729Y-14674008D01*
X8836729Y-14674008D02*
X8846253Y-14683531D01*
X8846253Y-14683531D02*
X8855777Y-14702579D01*
X8855777Y-14702579D02*
X8865301Y-14740674D01*
X8865301Y-14740674D02*
X8865301Y-14788293D01*
X8865301Y-14788293D02*
X8855777Y-14826388D01*
X8855777Y-14826388D02*
X8846253Y-14845436D01*
X8846253Y-14845436D02*
X8836729Y-14854960D01*
X8836729Y-14854960D02*
X8817682Y-14864484D01*
X8817682Y-14864484D02*
X8798634Y-14864484D01*
X8798634Y-14864484D02*
X8779587Y-14854960D01*
X8779587Y-14854960D02*
X8770063Y-14845436D01*
X8770063Y-14845436D02*
X8760539Y-14826388D01*
X8760539Y-14826388D02*
X8751015Y-14788293D01*
X8751015Y-14788293D02*
X8751015Y-14740674D01*
X8751015Y-14740674D02*
X8760539Y-14702579D01*
X8760539Y-14702579D02*
X8770063Y-14683531D01*
X8770063Y-14683531D02*
X8779587Y-14674008D01*
X8779587Y-14674008D02*
X8798634Y-14664484D01*
X8951015Y-14845436D02*
X8960539Y-14854960D01*
X8960539Y-14854960D02*
X8951015Y-14864484D01*
X8951015Y-14864484D02*
X8941491Y-14854960D01*
X8941491Y-14854960D02*
X8951015Y-14845436D01*
X8951015Y-14845436D02*
X8951015Y-14864484D01*
X9084348Y-14664484D02*
X9103396Y-14664484D01*
X9103396Y-14664484D02*
X9122444Y-14674008D01*
X9122444Y-14674008D02*
X9131968Y-14683531D01*
X9131968Y-14683531D02*
X9141491Y-14702579D01*
X9141491Y-14702579D02*
X9151015Y-14740674D01*
X9151015Y-14740674D02*
X9151015Y-14788293D01*
X9151015Y-14788293D02*
X9141491Y-14826388D01*
X9141491Y-14826388D02*
X9131968Y-14845436D01*
X9131968Y-14845436D02*
X9122444Y-14854960D01*
X9122444Y-14854960D02*
X9103396Y-14864484D01*
X9103396Y-14864484D02*
X9084348Y-14864484D01*
X9084348Y-14864484D02*
X9065301Y-14854960D01*
X9065301Y-14854960D02*
X9055777Y-14845436D01*
X9055777Y-14845436D02*
X9046253Y-14826388D01*
X9046253Y-14826388D02*
X9036729Y-14788293D01*
X9036729Y-14788293D02*
X9036729Y-14740674D01*
X9036729Y-14740674D02*
X9046253Y-14702579D01*
X9046253Y-14702579D02*
X9055777Y-14683531D01*
X9055777Y-14683531D02*
X9065301Y-14674008D01*
X9065301Y-14674008D02*
X9084348Y-14664484D01*
X9217682Y-14664484D02*
X9341491Y-14664484D01*
X9341491Y-14664484D02*
X9274825Y-14740674D01*
X9274825Y-14740674D02*
X9303396Y-14740674D01*
X9303396Y-14740674D02*
X9322444Y-14750198D01*
X9322444Y-14750198D02*
X9331968Y-14759722D01*
X9331968Y-14759722D02*
X9341491Y-14778769D01*
X9341491Y-14778769D02*
X9341491Y-14826388D01*
X9341491Y-14826388D02*
X9331968Y-14845436D01*
X9331968Y-14845436D02*
X9322444Y-14854960D01*
X9322444Y-14854960D02*
X9303396Y-14864484D01*
X9303396Y-14864484D02*
X9246253Y-14864484D01*
X9246253Y-14864484D02*
X9227206Y-14854960D01*
X9227206Y-14854960D02*
X9217682Y-14845436D01*
X9531968Y-14864484D02*
X9417682Y-14864484D01*
X9474825Y-14864484D02*
X9474825Y-14664484D01*
X9474825Y-14664484D02*
X9455777Y-14693055D01*
X9455777Y-14693055D02*
X9436729Y-14712103D01*
X9436729Y-14712103D02*
X9417682Y-14721627D01*
X9712920Y-14664484D02*
X9617682Y-14664484D01*
X9617682Y-14664484D02*
X9608158Y-14759722D01*
X9608158Y-14759722D02*
X9617682Y-14750198D01*
X9617682Y-14750198D02*
X9636729Y-14740674D01*
X9636729Y-14740674D02*
X9684349Y-14740674D01*
X9684349Y-14740674D02*
X9703396Y-14750198D01*
X9703396Y-14750198D02*
X9712920Y-14759722D01*
X9712920Y-14759722D02*
X9722444Y-14778769D01*
X9722444Y-14778769D02*
X9722444Y-14826388D01*
X9722444Y-14826388D02*
X9712920Y-14845436D01*
X9712920Y-14845436D02*
X9703396Y-14854960D01*
X9703396Y-14854960D02*
X9684349Y-14864484D01*
X9684349Y-14864484D02*
X9636729Y-14864484D01*
X9636729Y-14864484D02*
X9617682Y-14854960D01*
X9617682Y-14854960D02*
X9608158Y-14845436D01*
X9798634Y-14664484D02*
X9798634Y-14702579D01*
X9874825Y-14664484D02*
X9874825Y-14702579D01*
X10170063Y-14940674D02*
X10160539Y-14931150D01*
X10160539Y-14931150D02*
X10141491Y-14902579D01*
X10141491Y-14902579D02*
X10131968Y-14883531D01*
X10131968Y-14883531D02*
X10122444Y-14854960D01*
X10122444Y-14854960D02*
X10112920Y-14807341D01*
X10112920Y-14807341D02*
X10112920Y-14769246D01*
X10112920Y-14769246D02*
X10122444Y-14721627D01*
X10122444Y-14721627D02*
X10131968Y-14693055D01*
X10131968Y-14693055D02*
X10141491Y-14674008D01*
X10141491Y-14674008D02*
X10160539Y-14645436D01*
X10160539Y-14645436D02*
X10170063Y-14635912D01*
X10227206Y-14664484D02*
X10360539Y-14664484D01*
X10360539Y-14664484D02*
X10274825Y-14864484D01*
X10589111Y-14864484D02*
X10589111Y-14664484D01*
X10674825Y-14864484D02*
X10674825Y-14759722D01*
X10674825Y-14759722D02*
X10665301Y-14740674D01*
X10665301Y-14740674D02*
X10646253Y-14731150D01*
X10646253Y-14731150D02*
X10617682Y-14731150D01*
X10617682Y-14731150D02*
X10598634Y-14740674D01*
X10598634Y-14740674D02*
X10589111Y-14750198D01*
X10798634Y-14864484D02*
X10779587Y-14854960D01*
X10779587Y-14854960D02*
X10770063Y-14845436D01*
X10770063Y-14845436D02*
X10760539Y-14826388D01*
X10760539Y-14826388D02*
X10760539Y-14769246D01*
X10760539Y-14769246D02*
X10770063Y-14750198D01*
X10770063Y-14750198D02*
X10779587Y-14740674D01*
X10779587Y-14740674D02*
X10798634Y-14731150D01*
X10798634Y-14731150D02*
X10827206Y-14731150D01*
X10827206Y-14731150D02*
X10846253Y-14740674D01*
X10846253Y-14740674D02*
X10855777Y-14750198D01*
X10855777Y-14750198D02*
X10865301Y-14769246D01*
X10865301Y-14769246D02*
X10865301Y-14826388D01*
X10865301Y-14826388D02*
X10855777Y-14845436D01*
X10855777Y-14845436D02*
X10846253Y-14854960D01*
X10846253Y-14854960D02*
X10827206Y-14864484D01*
X10827206Y-14864484D02*
X10798634Y-14864484D01*
X10979587Y-14864484D02*
X10960539Y-14854960D01*
X10960539Y-14854960D02*
X10951015Y-14835912D01*
X10951015Y-14835912D02*
X10951015Y-14664484D01*
X11131968Y-14854960D02*
X11112920Y-14864484D01*
X11112920Y-14864484D02*
X11074825Y-14864484D01*
X11074825Y-14864484D02*
X11055777Y-14854960D01*
X11055777Y-14854960D02*
X11046253Y-14835912D01*
X11046253Y-14835912D02*
X11046253Y-14759722D01*
X11046253Y-14759722D02*
X11055777Y-14740674D01*
X11055777Y-14740674D02*
X11074825Y-14731150D01*
X11074825Y-14731150D02*
X11112920Y-14731150D01*
X11112920Y-14731150D02*
X11131968Y-14740674D01*
X11131968Y-14740674D02*
X11141492Y-14759722D01*
X11141492Y-14759722D02*
X11141492Y-14778769D01*
X11141492Y-14778769D02*
X11046253Y-14797817D01*
X11217682Y-14854960D02*
X11236730Y-14864484D01*
X11236730Y-14864484D02*
X11274825Y-14864484D01*
X11274825Y-14864484D02*
X11293872Y-14854960D01*
X11293872Y-14854960D02*
X11303396Y-14835912D01*
X11303396Y-14835912D02*
X11303396Y-14826388D01*
X11303396Y-14826388D02*
X11293872Y-14807341D01*
X11293872Y-14807341D02*
X11274825Y-14797817D01*
X11274825Y-14797817D02*
X11246253Y-14797817D01*
X11246253Y-14797817D02*
X11227206Y-14788293D01*
X11227206Y-14788293D02*
X11217682Y-14769246D01*
X11217682Y-14769246D02*
X11217682Y-14759722D01*
X11217682Y-14759722D02*
X11227206Y-14740674D01*
X11227206Y-14740674D02*
X11246253Y-14731150D01*
X11246253Y-14731150D02*
X11274825Y-14731150D01*
X11274825Y-14731150D02*
X11293872Y-14740674D01*
X11370063Y-14940674D02*
X11379587Y-14931150D01*
X11379587Y-14931150D02*
X11398634Y-14902579D01*
X11398634Y-14902579D02*
X11408158Y-14883531D01*
X11408158Y-14883531D02*
X11417682Y-14854960D01*
X11417682Y-14854960D02*
X11427206Y-14807341D01*
X11427206Y-14807341D02*
X11427206Y-14769246D01*
X11427206Y-14769246D02*
X11417682Y-14721627D01*
X11417682Y-14721627D02*
X11408158Y-14693055D01*
X11408158Y-14693055D02*
X11398634Y-14674008D01*
X11398634Y-14674008D02*
X11379587Y-14645436D01*
X11379587Y-14645436D02*
X11370063Y-14635912D01*
D10*
X6583284Y-15065284D02*
X6583284Y-15008715D01*
X6526715Y-15008715D01*
X6526715Y-15065284D01*
X6583284Y-15065284D01*
D11*
X6893872Y-14928484D02*
X6912920Y-14928484D01*
X6912920Y-14928484D02*
X6931967Y-14938008D01*
X6931967Y-14938008D02*
X6941491Y-14947531D01*
X6941491Y-14947531D02*
X6951015Y-14966579D01*
X6951015Y-14966579D02*
X6960539Y-15004674D01*
X6960539Y-15004674D02*
X6960539Y-15052293D01*
X6960539Y-15052293D02*
X6951015Y-15090388D01*
X6951015Y-15090388D02*
X6941491Y-15109436D01*
X6941491Y-15109436D02*
X6931967Y-15118960D01*
X6931967Y-15118960D02*
X6912920Y-15128484D01*
X6912920Y-15128484D02*
X6893872Y-15128484D01*
X6893872Y-15128484D02*
X6874824Y-15118960D01*
X6874824Y-15118960D02*
X6865301Y-15109436D01*
X6865301Y-15109436D02*
X6855777Y-15090388D01*
X6855777Y-15090388D02*
X6846253Y-15052293D01*
X6846253Y-15052293D02*
X6846253Y-15004674D01*
X6846253Y-15004674D02*
X6855777Y-14966579D01*
X6855777Y-14966579D02*
X6865301Y-14947531D01*
X6865301Y-14947531D02*
X6874824Y-14938008D01*
X6874824Y-14938008D02*
X6893872Y-14928484D01*
X7046253Y-15109436D02*
X7055777Y-15118960D01*
X7055777Y-15118960D02*
X7046253Y-15128484D01*
X7046253Y-15128484D02*
X7036729Y-15118960D01*
X7036729Y-15118960D02*
X7046253Y-15109436D01*
X7046253Y-15109436D02*
X7046253Y-15128484D01*
X7170062Y-15014198D02*
X7151015Y-15004674D01*
X7151015Y-15004674D02*
X7141491Y-14995150D01*
X7141491Y-14995150D02*
X7131967Y-14976103D01*
X7131967Y-14976103D02*
X7131967Y-14966579D01*
X7131967Y-14966579D02*
X7141491Y-14947531D01*
X7141491Y-14947531D02*
X7151015Y-14938008D01*
X7151015Y-14938008D02*
X7170062Y-14928484D01*
X7170062Y-14928484D02*
X7208158Y-14928484D01*
X7208158Y-14928484D02*
X7227205Y-14938008D01*
X7227205Y-14938008D02*
X7236729Y-14947531D01*
X7236729Y-14947531D02*
X7246253Y-14966579D01*
X7246253Y-14966579D02*
X7246253Y-14976103D01*
X7246253Y-14976103D02*
X7236729Y-14995150D01*
X7236729Y-14995150D02*
X7227205Y-15004674D01*
X7227205Y-15004674D02*
X7208158Y-15014198D01*
X7208158Y-15014198D02*
X7170062Y-15014198D01*
X7170062Y-15014198D02*
X7151015Y-15023722D01*
X7151015Y-15023722D02*
X7141491Y-15033246D01*
X7141491Y-15033246D02*
X7131967Y-15052293D01*
X7131967Y-15052293D02*
X7131967Y-15090388D01*
X7131967Y-15090388D02*
X7141491Y-15109436D01*
X7141491Y-15109436D02*
X7151015Y-15118960D01*
X7151015Y-15118960D02*
X7170062Y-15128484D01*
X7170062Y-15128484D02*
X7208158Y-15128484D01*
X7208158Y-15128484D02*
X7227205Y-15118960D01*
X7227205Y-15118960D02*
X7236729Y-15109436D01*
X7236729Y-15109436D02*
X7246253Y-15090388D01*
X7246253Y-15090388D02*
X7246253Y-15052293D01*
X7246253Y-15052293D02*
X7236729Y-15033246D01*
X7236729Y-15033246D02*
X7227205Y-15023722D01*
X7227205Y-15023722D02*
X7208158Y-15014198D01*
X7370062Y-14928484D02*
X7389110Y-14928484D01*
X7389110Y-14928484D02*
X7408158Y-14938008D01*
X7408158Y-14938008D02*
X7417682Y-14947531D01*
X7417682Y-14947531D02*
X7427205Y-14966579D01*
X7427205Y-14966579D02*
X7436729Y-15004674D01*
X7436729Y-15004674D02*
X7436729Y-15052293D01*
X7436729Y-15052293D02*
X7427205Y-15090388D01*
X7427205Y-15090388D02*
X7417682Y-15109436D01*
X7417682Y-15109436D02*
X7408158Y-15118960D01*
X7408158Y-15118960D02*
X7389110Y-15128484D01*
X7389110Y-15128484D02*
X7370062Y-15128484D01*
X7370062Y-15128484D02*
X7351015Y-15118960D01*
X7351015Y-15118960D02*
X7341491Y-15109436D01*
X7341491Y-15109436D02*
X7331967Y-15090388D01*
X7331967Y-15090388D02*
X7322443Y-15052293D01*
X7322443Y-15052293D02*
X7322443Y-15004674D01*
X7322443Y-15004674D02*
X7331967Y-14966579D01*
X7331967Y-14966579D02*
X7341491Y-14947531D01*
X7341491Y-14947531D02*
X7351015Y-14938008D01*
X7351015Y-14938008D02*
X7370062Y-14928484D01*
X7560539Y-14928484D02*
X7579586Y-14928484D01*
X7579586Y-14928484D02*
X7598634Y-14938008D01*
X7598634Y-14938008D02*
X7608158Y-14947531D01*
X7608158Y-14947531D02*
X7617682Y-14966579D01*
X7617682Y-14966579D02*
X7627205Y-15004674D01*
X7627205Y-15004674D02*
X7627205Y-15052293D01*
X7627205Y-15052293D02*
X7617682Y-15090388D01*
X7617682Y-15090388D02*
X7608158Y-15109436D01*
X7608158Y-15109436D02*
X7598634Y-15118960D01*
X7598634Y-15118960D02*
X7579586Y-15128484D01*
X7579586Y-15128484D02*
X7560539Y-15128484D01*
X7560539Y-15128484D02*
X7541491Y-15118960D01*
X7541491Y-15118960D02*
X7531967Y-15109436D01*
X7531967Y-15109436D02*
X7522443Y-15090388D01*
X7522443Y-15090388D02*
X7512920Y-15052293D01*
X7512920Y-15052293D02*
X7512920Y-15004674D01*
X7512920Y-15004674D02*
X7522443Y-14966579D01*
X7522443Y-14966579D02*
X7531967Y-14947531D01*
X7531967Y-14947531D02*
X7541491Y-14938008D01*
X7541491Y-14938008D02*
X7560539Y-14928484D01*
X7712920Y-15128484D02*
X7712920Y-14995150D01*
X7712920Y-15014198D02*
X7722443Y-15004674D01*
X7722443Y-15004674D02*
X7741491Y-14995150D01*
X7741491Y-14995150D02*
X7770063Y-14995150D01*
X7770063Y-14995150D02*
X7789110Y-15004674D01*
X7789110Y-15004674D02*
X7798634Y-15023722D01*
X7798634Y-15023722D02*
X7798634Y-15128484D01*
X7798634Y-15023722D02*
X7808158Y-15004674D01*
X7808158Y-15004674D02*
X7827205Y-14995150D01*
X7827205Y-14995150D02*
X7855777Y-14995150D01*
X7855777Y-14995150D02*
X7874824Y-15004674D01*
X7874824Y-15004674D02*
X7884348Y-15023722D01*
X7884348Y-15023722D02*
X7884348Y-15128484D01*
X7979586Y-15128484D02*
X7979586Y-14995150D01*
X7979586Y-15014198D02*
X7989110Y-15004674D01*
X7989110Y-15004674D02*
X8008158Y-14995150D01*
X8008158Y-14995150D02*
X8036729Y-14995150D01*
X8036729Y-14995150D02*
X8055777Y-15004674D01*
X8055777Y-15004674D02*
X8065301Y-15023722D01*
X8065301Y-15023722D02*
X8065301Y-15128484D01*
X8065301Y-15023722D02*
X8074824Y-15004674D01*
X8074824Y-15004674D02*
X8093872Y-14995150D01*
X8093872Y-14995150D02*
X8122443Y-14995150D01*
X8122443Y-14995150D02*
X8141491Y-15004674D01*
X8141491Y-15004674D02*
X8151015Y-15023722D01*
X8151015Y-15023722D02*
X8151015Y-15128484D01*
X8541491Y-14918960D02*
X8370063Y-15176103D01*
X8798634Y-14928484D02*
X8817682Y-14928484D01*
X8817682Y-14928484D02*
X8836729Y-14938008D01*
X8836729Y-14938008D02*
X8846253Y-14947531D01*
X8846253Y-14947531D02*
X8855777Y-14966579D01*
X8855777Y-14966579D02*
X8865301Y-15004674D01*
X8865301Y-15004674D02*
X8865301Y-15052293D01*
X8865301Y-15052293D02*
X8855777Y-15090388D01*
X8855777Y-15090388D02*
X8846253Y-15109436D01*
X8846253Y-15109436D02*
X8836729Y-15118960D01*
X8836729Y-15118960D02*
X8817682Y-15128484D01*
X8817682Y-15128484D02*
X8798634Y-15128484D01*
X8798634Y-15128484D02*
X8779587Y-15118960D01*
X8779587Y-15118960D02*
X8770063Y-15109436D01*
X8770063Y-15109436D02*
X8760539Y-15090388D01*
X8760539Y-15090388D02*
X8751015Y-15052293D01*
X8751015Y-15052293D02*
X8751015Y-15004674D01*
X8751015Y-15004674D02*
X8760539Y-14966579D01*
X8760539Y-14966579D02*
X8770063Y-14947531D01*
X8770063Y-14947531D02*
X8779587Y-14938008D01*
X8779587Y-14938008D02*
X8798634Y-14928484D01*
X8951015Y-15109436D02*
X8960539Y-15118960D01*
X8960539Y-15118960D02*
X8951015Y-15128484D01*
X8951015Y-15128484D02*
X8941491Y-15118960D01*
X8941491Y-15118960D02*
X8951015Y-15109436D01*
X8951015Y-15109436D02*
X8951015Y-15128484D01*
X9084348Y-14928484D02*
X9103396Y-14928484D01*
X9103396Y-14928484D02*
X9122444Y-14938008D01*
X9122444Y-14938008D02*
X9131968Y-14947531D01*
X9131968Y-14947531D02*
X9141491Y-14966579D01*
X9141491Y-14966579D02*
X9151015Y-15004674D01*
X9151015Y-15004674D02*
X9151015Y-15052293D01*
X9151015Y-15052293D02*
X9141491Y-15090388D01*
X9141491Y-15090388D02*
X9131968Y-15109436D01*
X9131968Y-15109436D02*
X9122444Y-15118960D01*
X9122444Y-15118960D02*
X9103396Y-15128484D01*
X9103396Y-15128484D02*
X9084348Y-15128484D01*
X9084348Y-15128484D02*
X9065301Y-15118960D01*
X9065301Y-15118960D02*
X9055777Y-15109436D01*
X9055777Y-15109436D02*
X9046253Y-15090388D01*
X9046253Y-15090388D02*
X9036729Y-15052293D01*
X9036729Y-15052293D02*
X9036729Y-15004674D01*
X9036729Y-15004674D02*
X9046253Y-14966579D01*
X9046253Y-14966579D02*
X9055777Y-14947531D01*
X9055777Y-14947531D02*
X9065301Y-14938008D01*
X9065301Y-14938008D02*
X9084348Y-14928484D01*
X9217682Y-14928484D02*
X9341491Y-14928484D01*
X9341491Y-14928484D02*
X9274825Y-15004674D01*
X9274825Y-15004674D02*
X9303396Y-15004674D01*
X9303396Y-15004674D02*
X9322444Y-15014198D01*
X9322444Y-15014198D02*
X9331968Y-15023722D01*
X9331968Y-15023722D02*
X9341491Y-15042769D01*
X9341491Y-15042769D02*
X9341491Y-15090388D01*
X9341491Y-15090388D02*
X9331968Y-15109436D01*
X9331968Y-15109436D02*
X9322444Y-15118960D01*
X9322444Y-15118960D02*
X9303396Y-15128484D01*
X9303396Y-15128484D02*
X9246253Y-15128484D01*
X9246253Y-15128484D02*
X9227206Y-15118960D01*
X9227206Y-15118960D02*
X9217682Y-15109436D01*
X9531968Y-15128484D02*
X9417682Y-15128484D01*
X9474825Y-15128484D02*
X9474825Y-14928484D01*
X9474825Y-14928484D02*
X9455777Y-14957055D01*
X9455777Y-14957055D02*
X9436729Y-14976103D01*
X9436729Y-14976103D02*
X9417682Y-14985627D01*
X9712920Y-14928484D02*
X9617682Y-14928484D01*
X9617682Y-14928484D02*
X9608158Y-15023722D01*
X9608158Y-15023722D02*
X9617682Y-15014198D01*
X9617682Y-15014198D02*
X9636729Y-15004674D01*
X9636729Y-15004674D02*
X9684349Y-15004674D01*
X9684349Y-15004674D02*
X9703396Y-15014198D01*
X9703396Y-15014198D02*
X9712920Y-15023722D01*
X9712920Y-15023722D02*
X9722444Y-15042769D01*
X9722444Y-15042769D02*
X9722444Y-15090388D01*
X9722444Y-15090388D02*
X9712920Y-15109436D01*
X9712920Y-15109436D02*
X9703396Y-15118960D01*
X9703396Y-15118960D02*
X9684349Y-15128484D01*
X9684349Y-15128484D02*
X9636729Y-15128484D01*
X9636729Y-15128484D02*
X9617682Y-15118960D01*
X9617682Y-15118960D02*
X9608158Y-15109436D01*
X9798634Y-14928484D02*
X9798634Y-14966579D01*
X9874825Y-14928484D02*
X9874825Y-14966579D01*
X10170063Y-15204674D02*
X10160539Y-15195150D01*
X10160539Y-15195150D02*
X10141491Y-15166579D01*
X10141491Y-15166579D02*
X10131968Y-15147531D01*
X10131968Y-15147531D02*
X10122444Y-15118960D01*
X10122444Y-15118960D02*
X10112920Y-15071341D01*
X10112920Y-15071341D02*
X10112920Y-15033246D01*
X10112920Y-15033246D02*
X10122444Y-14985627D01*
X10122444Y-14985627D02*
X10131968Y-14957055D01*
X10131968Y-14957055D02*
X10141491Y-14938008D01*
X10141491Y-14938008D02*
X10160539Y-14909436D01*
X10160539Y-14909436D02*
X10170063Y-14899912D01*
X10351015Y-15128484D02*
X10236730Y-15128484D01*
X10293872Y-15128484D02*
X10293872Y-14928484D01*
X10293872Y-14928484D02*
X10274825Y-14957055D01*
X10274825Y-14957055D02*
X10255777Y-14976103D01*
X10255777Y-14976103D02*
X10236730Y-14985627D01*
X10465301Y-15014198D02*
X10446253Y-15004674D01*
X10446253Y-15004674D02*
X10436730Y-14995150D01*
X10436730Y-14995150D02*
X10427206Y-14976103D01*
X10427206Y-14976103D02*
X10427206Y-14966579D01*
X10427206Y-14966579D02*
X10436730Y-14947531D01*
X10436730Y-14947531D02*
X10446253Y-14938008D01*
X10446253Y-14938008D02*
X10465301Y-14928484D01*
X10465301Y-14928484D02*
X10503396Y-14928484D01*
X10503396Y-14928484D02*
X10522444Y-14938008D01*
X10522444Y-14938008D02*
X10531968Y-14947531D01*
X10531968Y-14947531D02*
X10541491Y-14966579D01*
X10541491Y-14966579D02*
X10541491Y-14976103D01*
X10541491Y-14976103D02*
X10531968Y-14995150D01*
X10531968Y-14995150D02*
X10522444Y-15004674D01*
X10522444Y-15004674D02*
X10503396Y-15014198D01*
X10503396Y-15014198D02*
X10465301Y-15014198D01*
X10465301Y-15014198D02*
X10446253Y-15023722D01*
X10446253Y-15023722D02*
X10436730Y-15033246D01*
X10436730Y-15033246D02*
X10427206Y-15052293D01*
X10427206Y-15052293D02*
X10427206Y-15090388D01*
X10427206Y-15090388D02*
X10436730Y-15109436D01*
X10436730Y-15109436D02*
X10446253Y-15118960D01*
X10446253Y-15118960D02*
X10465301Y-15128484D01*
X10465301Y-15128484D02*
X10503396Y-15128484D01*
X10503396Y-15128484D02*
X10522444Y-15118960D01*
X10522444Y-15118960D02*
X10531968Y-15109436D01*
X10531968Y-15109436D02*
X10541491Y-15090388D01*
X10541491Y-15090388D02*
X10541491Y-15052293D01*
X10541491Y-15052293D02*
X10531968Y-15033246D01*
X10531968Y-15033246D02*
X10522444Y-15023722D01*
X10522444Y-15023722D02*
X10503396Y-15014198D01*
X10779587Y-15128484D02*
X10779587Y-14928484D01*
X10865301Y-15128484D02*
X10865301Y-15023722D01*
X10865301Y-15023722D02*
X10855777Y-15004674D01*
X10855777Y-15004674D02*
X10836730Y-14995150D01*
X10836730Y-14995150D02*
X10808158Y-14995150D01*
X10808158Y-14995150D02*
X10789111Y-15004674D01*
X10789111Y-15004674D02*
X10779587Y-15014198D01*
X10989111Y-15128484D02*
X10970063Y-15118960D01*
X10970063Y-15118960D02*
X10960539Y-15109436D01*
X10960539Y-15109436D02*
X10951015Y-15090388D01*
X10951015Y-15090388D02*
X10951015Y-15033246D01*
X10951015Y-15033246D02*
X10960539Y-15014198D01*
X10960539Y-15014198D02*
X10970063Y-15004674D01*
X10970063Y-15004674D02*
X10989111Y-14995150D01*
X10989111Y-14995150D02*
X11017682Y-14995150D01*
X11017682Y-14995150D02*
X11036730Y-15004674D01*
X11036730Y-15004674D02*
X11046253Y-15014198D01*
X11046253Y-15014198D02*
X11055777Y-15033246D01*
X11055777Y-15033246D02*
X11055777Y-15090388D01*
X11055777Y-15090388D02*
X11046253Y-15109436D01*
X11046253Y-15109436D02*
X11036730Y-15118960D01*
X11036730Y-15118960D02*
X11017682Y-15128484D01*
X11017682Y-15128484D02*
X10989111Y-15128484D01*
X11170063Y-15128484D02*
X11151015Y-15118960D01*
X11151015Y-15118960D02*
X11141492Y-15099912D01*
X11141492Y-15099912D02*
X11141492Y-14928484D01*
X11322444Y-15118960D02*
X11303396Y-15128484D01*
X11303396Y-15128484D02*
X11265301Y-15128484D01*
X11265301Y-15128484D02*
X11246253Y-15118960D01*
X11246253Y-15118960D02*
X11236730Y-15099912D01*
X11236730Y-15099912D02*
X11236730Y-15023722D01*
X11236730Y-15023722D02*
X11246253Y-15004674D01*
X11246253Y-15004674D02*
X11265301Y-14995150D01*
X11265301Y-14995150D02*
X11303396Y-14995150D01*
X11303396Y-14995150D02*
X11322444Y-15004674D01*
X11322444Y-15004674D02*
X11331968Y-15023722D01*
X11331968Y-15023722D02*
X11331968Y-15042769D01*
X11331968Y-15042769D02*
X11236730Y-15061817D01*
X11408158Y-15118960D02*
X11427206Y-15128484D01*
X11427206Y-15128484D02*
X11465301Y-15128484D01*
X11465301Y-15128484D02*
X11484349Y-15118960D01*
X11484349Y-15118960D02*
X11493872Y-15099912D01*
X11493872Y-15099912D02*
X11493872Y-15090388D01*
X11493872Y-15090388D02*
X11484349Y-15071341D01*
X11484349Y-15071341D02*
X11465301Y-15061817D01*
X11465301Y-15061817D02*
X11436730Y-15061817D01*
X11436730Y-15061817D02*
X11417682Y-15052293D01*
X11417682Y-15052293D02*
X11408158Y-15033246D01*
X11408158Y-15033246D02*
X11408158Y-15023722D01*
X11408158Y-15023722D02*
X11417682Y-15004674D01*
X11417682Y-15004674D02*
X11436730Y-14995150D01*
X11436730Y-14995150D02*
X11465301Y-14995150D01*
X11465301Y-14995150D02*
X11484349Y-15004674D01*
X11560539Y-15204674D02*
X11570063Y-15195150D01*
X11570063Y-15195150D02*
X11589111Y-15166579D01*
X11589111Y-15166579D02*
X11598634Y-15147531D01*
X11598634Y-15147531D02*
X11608158Y-15118960D01*
X11608158Y-15118960D02*
X11617682Y-15071341D01*
X11617682Y-15071341D02*
X11617682Y-15033246D01*
X11617682Y-15033246D02*
X11608158Y-14985627D01*
X11608158Y-14985627D02*
X11598634Y-14957055D01*
X11598634Y-14957055D02*
X11589111Y-14938008D01*
X11589111Y-14938008D02*
X11570063Y-14909436D01*
X11570063Y-14909436D02*
X11560539Y-14899912D01*
D10*
X6545000Y-15351000D02*
X6595000Y-15301000D01*
X6545000Y-15251000D01*
X6495000Y-15301000D01*
X6545000Y-15351000D01*
D11*
X6960539Y-15392484D02*
X6846253Y-15392484D01*
X6903396Y-15392484D02*
X6903396Y-15192484D01*
X6903396Y-15192484D02*
X6884348Y-15221055D01*
X6884348Y-15221055D02*
X6865301Y-15240103D01*
X6865301Y-15240103D02*
X6846253Y-15249627D01*
X7046253Y-15373436D02*
X7055777Y-15382960D01*
X7055777Y-15382960D02*
X7046253Y-15392484D01*
X7046253Y-15392484D02*
X7036729Y-15382960D01*
X7036729Y-15382960D02*
X7046253Y-15373436D01*
X7046253Y-15373436D02*
X7046253Y-15392484D01*
X7179586Y-15192484D02*
X7198634Y-15192484D01*
X7198634Y-15192484D02*
X7217682Y-15202008D01*
X7217682Y-15202008D02*
X7227205Y-15211531D01*
X7227205Y-15211531D02*
X7236729Y-15230579D01*
X7236729Y-15230579D02*
X7246253Y-15268674D01*
X7246253Y-15268674D02*
X7246253Y-15316293D01*
X7246253Y-15316293D02*
X7236729Y-15354388D01*
X7236729Y-15354388D02*
X7227205Y-15373436D01*
X7227205Y-15373436D02*
X7217682Y-15382960D01*
X7217682Y-15382960D02*
X7198634Y-15392484D01*
X7198634Y-15392484D02*
X7179586Y-15392484D01*
X7179586Y-15392484D02*
X7160539Y-15382960D01*
X7160539Y-15382960D02*
X7151015Y-15373436D01*
X7151015Y-15373436D02*
X7141491Y-15354388D01*
X7141491Y-15354388D02*
X7131967Y-15316293D01*
X7131967Y-15316293D02*
X7131967Y-15268674D01*
X7131967Y-15268674D02*
X7141491Y-15230579D01*
X7141491Y-15230579D02*
X7151015Y-15211531D01*
X7151015Y-15211531D02*
X7160539Y-15202008D01*
X7160539Y-15202008D02*
X7179586Y-15192484D01*
X7370062Y-15192484D02*
X7389110Y-15192484D01*
X7389110Y-15192484D02*
X7408158Y-15202008D01*
X7408158Y-15202008D02*
X7417682Y-15211531D01*
X7417682Y-15211531D02*
X7427205Y-15230579D01*
X7427205Y-15230579D02*
X7436729Y-15268674D01*
X7436729Y-15268674D02*
X7436729Y-15316293D01*
X7436729Y-15316293D02*
X7427205Y-15354388D01*
X7427205Y-15354388D02*
X7417682Y-15373436D01*
X7417682Y-15373436D02*
X7408158Y-15382960D01*
X7408158Y-15382960D02*
X7389110Y-15392484D01*
X7389110Y-15392484D02*
X7370062Y-15392484D01*
X7370062Y-15392484D02*
X7351015Y-15382960D01*
X7351015Y-15382960D02*
X7341491Y-15373436D01*
X7341491Y-15373436D02*
X7331967Y-15354388D01*
X7331967Y-15354388D02*
X7322443Y-15316293D01*
X7322443Y-15316293D02*
X7322443Y-15268674D01*
X7322443Y-15268674D02*
X7331967Y-15230579D01*
X7331967Y-15230579D02*
X7341491Y-15211531D01*
X7341491Y-15211531D02*
X7351015Y-15202008D01*
X7351015Y-15202008D02*
X7370062Y-15192484D01*
X7560539Y-15192484D02*
X7579586Y-15192484D01*
X7579586Y-15192484D02*
X7598634Y-15202008D01*
X7598634Y-15202008D02*
X7608158Y-15211531D01*
X7608158Y-15211531D02*
X7617682Y-15230579D01*
X7617682Y-15230579D02*
X7627205Y-15268674D01*
X7627205Y-15268674D02*
X7627205Y-15316293D01*
X7627205Y-15316293D02*
X7617682Y-15354388D01*
X7617682Y-15354388D02*
X7608158Y-15373436D01*
X7608158Y-15373436D02*
X7598634Y-15382960D01*
X7598634Y-15382960D02*
X7579586Y-15392484D01*
X7579586Y-15392484D02*
X7560539Y-15392484D01*
X7560539Y-15392484D02*
X7541491Y-15382960D01*
X7541491Y-15382960D02*
X7531967Y-15373436D01*
X7531967Y-15373436D02*
X7522443Y-15354388D01*
X7522443Y-15354388D02*
X7512920Y-15316293D01*
X7512920Y-15316293D02*
X7512920Y-15268674D01*
X7512920Y-15268674D02*
X7522443Y-15230579D01*
X7522443Y-15230579D02*
X7531967Y-15211531D01*
X7531967Y-15211531D02*
X7541491Y-15202008D01*
X7541491Y-15202008D02*
X7560539Y-15192484D01*
X7712920Y-15392484D02*
X7712920Y-15259150D01*
X7712920Y-15278198D02*
X7722443Y-15268674D01*
X7722443Y-15268674D02*
X7741491Y-15259150D01*
X7741491Y-15259150D02*
X7770063Y-15259150D01*
X7770063Y-15259150D02*
X7789110Y-15268674D01*
X7789110Y-15268674D02*
X7798634Y-15287722D01*
X7798634Y-15287722D02*
X7798634Y-15392484D01*
X7798634Y-15287722D02*
X7808158Y-15268674D01*
X7808158Y-15268674D02*
X7827205Y-15259150D01*
X7827205Y-15259150D02*
X7855777Y-15259150D01*
X7855777Y-15259150D02*
X7874824Y-15268674D01*
X7874824Y-15268674D02*
X7884348Y-15287722D01*
X7884348Y-15287722D02*
X7884348Y-15392484D01*
X7979586Y-15392484D02*
X7979586Y-15259150D01*
X7979586Y-15278198D02*
X7989110Y-15268674D01*
X7989110Y-15268674D02*
X8008158Y-15259150D01*
X8008158Y-15259150D02*
X8036729Y-15259150D01*
X8036729Y-15259150D02*
X8055777Y-15268674D01*
X8055777Y-15268674D02*
X8065301Y-15287722D01*
X8065301Y-15287722D02*
X8065301Y-15392484D01*
X8065301Y-15287722D02*
X8074824Y-15268674D01*
X8074824Y-15268674D02*
X8093872Y-15259150D01*
X8093872Y-15259150D02*
X8122443Y-15259150D01*
X8122443Y-15259150D02*
X8141491Y-15268674D01*
X8141491Y-15268674D02*
X8151015Y-15287722D01*
X8151015Y-15287722D02*
X8151015Y-15392484D01*
X8541491Y-15182960D02*
X8370063Y-15440103D01*
X8798634Y-15192484D02*
X8817682Y-15192484D01*
X8817682Y-15192484D02*
X8836729Y-15202008D01*
X8836729Y-15202008D02*
X8846253Y-15211531D01*
X8846253Y-15211531D02*
X8855777Y-15230579D01*
X8855777Y-15230579D02*
X8865301Y-15268674D01*
X8865301Y-15268674D02*
X8865301Y-15316293D01*
X8865301Y-15316293D02*
X8855777Y-15354388D01*
X8855777Y-15354388D02*
X8846253Y-15373436D01*
X8846253Y-15373436D02*
X8836729Y-15382960D01*
X8836729Y-15382960D02*
X8817682Y-15392484D01*
X8817682Y-15392484D02*
X8798634Y-15392484D01*
X8798634Y-15392484D02*
X8779587Y-15382960D01*
X8779587Y-15382960D02*
X8770063Y-15373436D01*
X8770063Y-15373436D02*
X8760539Y-15354388D01*
X8760539Y-15354388D02*
X8751015Y-15316293D01*
X8751015Y-15316293D02*
X8751015Y-15268674D01*
X8751015Y-15268674D02*
X8760539Y-15230579D01*
X8760539Y-15230579D02*
X8770063Y-15211531D01*
X8770063Y-15211531D02*
X8779587Y-15202008D01*
X8779587Y-15202008D02*
X8798634Y-15192484D01*
X8951015Y-15373436D02*
X8960539Y-15382960D01*
X8960539Y-15382960D02*
X8951015Y-15392484D01*
X8951015Y-15392484D02*
X8941491Y-15382960D01*
X8941491Y-15382960D02*
X8951015Y-15373436D01*
X8951015Y-15373436D02*
X8951015Y-15392484D01*
X9084348Y-15192484D02*
X9103396Y-15192484D01*
X9103396Y-15192484D02*
X9122444Y-15202008D01*
X9122444Y-15202008D02*
X9131968Y-15211531D01*
X9131968Y-15211531D02*
X9141491Y-15230579D01*
X9141491Y-15230579D02*
X9151015Y-15268674D01*
X9151015Y-15268674D02*
X9151015Y-15316293D01*
X9151015Y-15316293D02*
X9141491Y-15354388D01*
X9141491Y-15354388D02*
X9131968Y-15373436D01*
X9131968Y-15373436D02*
X9122444Y-15382960D01*
X9122444Y-15382960D02*
X9103396Y-15392484D01*
X9103396Y-15392484D02*
X9084348Y-15392484D01*
X9084348Y-15392484D02*
X9065301Y-15382960D01*
X9065301Y-15382960D02*
X9055777Y-15373436D01*
X9055777Y-15373436D02*
X9046253Y-15354388D01*
X9046253Y-15354388D02*
X9036729Y-15316293D01*
X9036729Y-15316293D02*
X9036729Y-15268674D01*
X9036729Y-15268674D02*
X9046253Y-15230579D01*
X9046253Y-15230579D02*
X9055777Y-15211531D01*
X9055777Y-15211531D02*
X9065301Y-15202008D01*
X9065301Y-15202008D02*
X9084348Y-15192484D01*
X9217682Y-15192484D02*
X9341491Y-15192484D01*
X9341491Y-15192484D02*
X9274825Y-15268674D01*
X9274825Y-15268674D02*
X9303396Y-15268674D01*
X9303396Y-15268674D02*
X9322444Y-15278198D01*
X9322444Y-15278198D02*
X9331968Y-15287722D01*
X9331968Y-15287722D02*
X9341491Y-15306769D01*
X9341491Y-15306769D02*
X9341491Y-15354388D01*
X9341491Y-15354388D02*
X9331968Y-15373436D01*
X9331968Y-15373436D02*
X9322444Y-15382960D01*
X9322444Y-15382960D02*
X9303396Y-15392484D01*
X9303396Y-15392484D02*
X9246253Y-15392484D01*
X9246253Y-15392484D02*
X9227206Y-15382960D01*
X9227206Y-15382960D02*
X9217682Y-15373436D01*
X9436729Y-15392484D02*
X9474825Y-15392484D01*
X9474825Y-15392484D02*
X9493872Y-15382960D01*
X9493872Y-15382960D02*
X9503396Y-15373436D01*
X9503396Y-15373436D02*
X9522444Y-15344865D01*
X9522444Y-15344865D02*
X9531968Y-15306769D01*
X9531968Y-15306769D02*
X9531968Y-15230579D01*
X9531968Y-15230579D02*
X9522444Y-15211531D01*
X9522444Y-15211531D02*
X9512920Y-15202008D01*
X9512920Y-15202008D02*
X9493872Y-15192484D01*
X9493872Y-15192484D02*
X9455777Y-15192484D01*
X9455777Y-15192484D02*
X9436729Y-15202008D01*
X9436729Y-15202008D02*
X9427206Y-15211531D01*
X9427206Y-15211531D02*
X9417682Y-15230579D01*
X9417682Y-15230579D02*
X9417682Y-15278198D01*
X9417682Y-15278198D02*
X9427206Y-15297246D01*
X9427206Y-15297246D02*
X9436729Y-15306769D01*
X9436729Y-15306769D02*
X9455777Y-15316293D01*
X9455777Y-15316293D02*
X9493872Y-15316293D01*
X9493872Y-15316293D02*
X9512920Y-15306769D01*
X9512920Y-15306769D02*
X9522444Y-15297246D01*
X9522444Y-15297246D02*
X9531968Y-15278198D01*
X9703396Y-15259150D02*
X9703396Y-15392484D01*
X9655777Y-15182960D02*
X9608158Y-15325817D01*
X9608158Y-15325817D02*
X9731968Y-15325817D01*
X9798634Y-15192484D02*
X9798634Y-15230579D01*
X9874825Y-15192484D02*
X9874825Y-15230579D01*
X10170063Y-15468674D02*
X10160539Y-15459150D01*
X10160539Y-15459150D02*
X10141491Y-15430579D01*
X10141491Y-15430579D02*
X10131968Y-15411531D01*
X10131968Y-15411531D02*
X10122444Y-15382960D01*
X10122444Y-15382960D02*
X10112920Y-15335341D01*
X10112920Y-15335341D02*
X10112920Y-15297246D01*
X10112920Y-15297246D02*
X10122444Y-15249627D01*
X10122444Y-15249627D02*
X10131968Y-15221055D01*
X10131968Y-15221055D02*
X10141491Y-15202008D01*
X10141491Y-15202008D02*
X10160539Y-15173436D01*
X10160539Y-15173436D02*
X10170063Y-15163912D01*
X10236730Y-15211531D02*
X10246253Y-15202008D01*
X10246253Y-15202008D02*
X10265301Y-15192484D01*
X10265301Y-15192484D02*
X10312920Y-15192484D01*
X10312920Y-15192484D02*
X10331968Y-15202008D01*
X10331968Y-15202008D02*
X10341491Y-15211531D01*
X10341491Y-15211531D02*
X10351015Y-15230579D01*
X10351015Y-15230579D02*
X10351015Y-15249627D01*
X10351015Y-15249627D02*
X10341491Y-15278198D01*
X10341491Y-15278198D02*
X10227206Y-15392484D01*
X10227206Y-15392484D02*
X10351015Y-15392484D01*
X10522444Y-15192484D02*
X10484349Y-15192484D01*
X10484349Y-15192484D02*
X10465301Y-15202008D01*
X10465301Y-15202008D02*
X10455777Y-15211531D01*
X10455777Y-15211531D02*
X10436730Y-15240103D01*
X10436730Y-15240103D02*
X10427206Y-15278198D01*
X10427206Y-15278198D02*
X10427206Y-15354388D01*
X10427206Y-15354388D02*
X10436730Y-15373436D01*
X10436730Y-15373436D02*
X10446253Y-15382960D01*
X10446253Y-15382960D02*
X10465301Y-15392484D01*
X10465301Y-15392484D02*
X10503396Y-15392484D01*
X10503396Y-15392484D02*
X10522444Y-15382960D01*
X10522444Y-15382960D02*
X10531968Y-15373436D01*
X10531968Y-15373436D02*
X10541491Y-15354388D01*
X10541491Y-15354388D02*
X10541491Y-15306769D01*
X10541491Y-15306769D02*
X10531968Y-15287722D01*
X10531968Y-15287722D02*
X10522444Y-15278198D01*
X10522444Y-15278198D02*
X10503396Y-15268674D01*
X10503396Y-15268674D02*
X10465301Y-15268674D01*
X10465301Y-15268674D02*
X10446253Y-15278198D01*
X10446253Y-15278198D02*
X10436730Y-15287722D01*
X10436730Y-15287722D02*
X10427206Y-15306769D01*
X10779587Y-15392484D02*
X10779587Y-15192484D01*
X10865301Y-15392484D02*
X10865301Y-15287722D01*
X10865301Y-15287722D02*
X10855777Y-15268674D01*
X10855777Y-15268674D02*
X10836730Y-15259150D01*
X10836730Y-15259150D02*
X10808158Y-15259150D01*
X10808158Y-15259150D02*
X10789111Y-15268674D01*
X10789111Y-15268674D02*
X10779587Y-15278198D01*
X10989111Y-15392484D02*
X10970063Y-15382960D01*
X10970063Y-15382960D02*
X10960539Y-15373436D01*
X10960539Y-15373436D02*
X10951015Y-15354388D01*
X10951015Y-15354388D02*
X10951015Y-15297246D01*
X10951015Y-15297246D02*
X10960539Y-15278198D01*
X10960539Y-15278198D02*
X10970063Y-15268674D01*
X10970063Y-15268674D02*
X10989111Y-15259150D01*
X10989111Y-15259150D02*
X11017682Y-15259150D01*
X11017682Y-15259150D02*
X11036730Y-15268674D01*
X11036730Y-15268674D02*
X11046253Y-15278198D01*
X11046253Y-15278198D02*
X11055777Y-15297246D01*
X11055777Y-15297246D02*
X11055777Y-15354388D01*
X11055777Y-15354388D02*
X11046253Y-15373436D01*
X11046253Y-15373436D02*
X11036730Y-15382960D01*
X11036730Y-15382960D02*
X11017682Y-15392484D01*
X11017682Y-15392484D02*
X10989111Y-15392484D01*
X11170063Y-15392484D02*
X11151015Y-15382960D01*
X11151015Y-15382960D02*
X11141492Y-15363912D01*
X11141492Y-15363912D02*
X11141492Y-15192484D01*
X11322444Y-15382960D02*
X11303396Y-15392484D01*
X11303396Y-15392484D02*
X11265301Y-15392484D01*
X11265301Y-15392484D02*
X11246253Y-15382960D01*
X11246253Y-15382960D02*
X11236730Y-15363912D01*
X11236730Y-15363912D02*
X11236730Y-15287722D01*
X11236730Y-15287722D02*
X11246253Y-15268674D01*
X11246253Y-15268674D02*
X11265301Y-15259150D01*
X11265301Y-15259150D02*
X11303396Y-15259150D01*
X11303396Y-15259150D02*
X11322444Y-15268674D01*
X11322444Y-15268674D02*
X11331968Y-15287722D01*
X11331968Y-15287722D02*
X11331968Y-15306769D01*
X11331968Y-15306769D02*
X11236730Y-15325817D01*
X11408158Y-15382960D02*
X11427206Y-15392484D01*
X11427206Y-15392484D02*
X11465301Y-15392484D01*
X11465301Y-15392484D02*
X11484349Y-15382960D01*
X11484349Y-15382960D02*
X11493872Y-15363912D01*
X11493872Y-15363912D02*
X11493872Y-15354388D01*
X11493872Y-15354388D02*
X11484349Y-15335341D01*
X11484349Y-15335341D02*
X11465301Y-15325817D01*
X11465301Y-15325817D02*
X11436730Y-15325817D01*
X11436730Y-15325817D02*
X11417682Y-15316293D01*
X11417682Y-15316293D02*
X11408158Y-15297246D01*
X11408158Y-15297246D02*
X11408158Y-15287722D01*
X11408158Y-15287722D02*
X11417682Y-15268674D01*
X11417682Y-15268674D02*
X11436730Y-15259150D01*
X11436730Y-15259150D02*
X11465301Y-15259150D01*
X11465301Y-15259150D02*
X11484349Y-15268674D01*
X11560539Y-15468674D02*
X11570063Y-15459150D01*
X11570063Y-15459150D02*
X11589111Y-15430579D01*
X11589111Y-15430579D02*
X11598634Y-15411531D01*
X11598634Y-15411531D02*
X11608158Y-15382960D01*
X11608158Y-15382960D02*
X11617682Y-15335341D01*
X11617682Y-15335341D02*
X11617682Y-15297246D01*
X11617682Y-15297246D02*
X11608158Y-15249627D01*
X11608158Y-15249627D02*
X11598634Y-15221055D01*
X11598634Y-15221055D02*
X11589111Y-15202008D01*
X11589111Y-15202008D02*
X11570063Y-15173436D01*
X11570063Y-15173436D02*
X11560539Y-15163912D01*
D12*
X6493000Y-15514000D02*
X6595000Y-15616000D01*
X6595000Y-15514000D02*
X6493000Y-15616000D01*
X6595000Y-15565000D02*
G75*
G02*
X6493000Y-15565000I-51000J0D01*
G01*
X6493000Y-15565000D02*
G75*
G02*
X6595000Y-15565000I51000J0D01*
G01*
D11*
X6960539Y-15656484D02*
X6846253Y-15656484D01*
X6903396Y-15656484D02*
X6903396Y-15456484D01*
X6903396Y-15456484D02*
X6884348Y-15485055D01*
X6884348Y-15485055D02*
X6865301Y-15504103D01*
X6865301Y-15504103D02*
X6846253Y-15513627D01*
X7046253Y-15637436D02*
X7055777Y-15646960D01*
X7055777Y-15646960D02*
X7046253Y-15656484D01*
X7046253Y-15656484D02*
X7036729Y-15646960D01*
X7036729Y-15646960D02*
X7046253Y-15637436D01*
X7046253Y-15637436D02*
X7046253Y-15656484D01*
X7179586Y-15456484D02*
X7198634Y-15456484D01*
X7198634Y-15456484D02*
X7217682Y-15466008D01*
X7217682Y-15466008D02*
X7227205Y-15475531D01*
X7227205Y-15475531D02*
X7236729Y-15494579D01*
X7236729Y-15494579D02*
X7246253Y-15532674D01*
X7246253Y-15532674D02*
X7246253Y-15580293D01*
X7246253Y-15580293D02*
X7236729Y-15618388D01*
X7236729Y-15618388D02*
X7227205Y-15637436D01*
X7227205Y-15637436D02*
X7217682Y-15646960D01*
X7217682Y-15646960D02*
X7198634Y-15656484D01*
X7198634Y-15656484D02*
X7179586Y-15656484D01*
X7179586Y-15656484D02*
X7160539Y-15646960D01*
X7160539Y-15646960D02*
X7151015Y-15637436D01*
X7151015Y-15637436D02*
X7141491Y-15618388D01*
X7141491Y-15618388D02*
X7131967Y-15580293D01*
X7131967Y-15580293D02*
X7131967Y-15532674D01*
X7131967Y-15532674D02*
X7141491Y-15494579D01*
X7141491Y-15494579D02*
X7151015Y-15475531D01*
X7151015Y-15475531D02*
X7160539Y-15466008D01*
X7160539Y-15466008D02*
X7179586Y-15456484D01*
X7322443Y-15475531D02*
X7331967Y-15466008D01*
X7331967Y-15466008D02*
X7351015Y-15456484D01*
X7351015Y-15456484D02*
X7398634Y-15456484D01*
X7398634Y-15456484D02*
X7417682Y-15466008D01*
X7417682Y-15466008D02*
X7427205Y-15475531D01*
X7427205Y-15475531D02*
X7436729Y-15494579D01*
X7436729Y-15494579D02*
X7436729Y-15513627D01*
X7436729Y-15513627D02*
X7427205Y-15542198D01*
X7427205Y-15542198D02*
X7312920Y-15656484D01*
X7312920Y-15656484D02*
X7436729Y-15656484D01*
X7560539Y-15456484D02*
X7579586Y-15456484D01*
X7579586Y-15456484D02*
X7598634Y-15466008D01*
X7598634Y-15466008D02*
X7608158Y-15475531D01*
X7608158Y-15475531D02*
X7617682Y-15494579D01*
X7617682Y-15494579D02*
X7627205Y-15532674D01*
X7627205Y-15532674D02*
X7627205Y-15580293D01*
X7627205Y-15580293D02*
X7617682Y-15618388D01*
X7617682Y-15618388D02*
X7608158Y-15637436D01*
X7608158Y-15637436D02*
X7598634Y-15646960D01*
X7598634Y-15646960D02*
X7579586Y-15656484D01*
X7579586Y-15656484D02*
X7560539Y-15656484D01*
X7560539Y-15656484D02*
X7541491Y-15646960D01*
X7541491Y-15646960D02*
X7531967Y-15637436D01*
X7531967Y-15637436D02*
X7522443Y-15618388D01*
X7522443Y-15618388D02*
X7512920Y-15580293D01*
X7512920Y-15580293D02*
X7512920Y-15532674D01*
X7512920Y-15532674D02*
X7522443Y-15494579D01*
X7522443Y-15494579D02*
X7531967Y-15475531D01*
X7531967Y-15475531D02*
X7541491Y-15466008D01*
X7541491Y-15466008D02*
X7560539Y-15456484D01*
X7712920Y-15656484D02*
X7712920Y-15523150D01*
X7712920Y-15542198D02*
X7722443Y-15532674D01*
X7722443Y-15532674D02*
X7741491Y-15523150D01*
X7741491Y-15523150D02*
X7770063Y-15523150D01*
X7770063Y-15523150D02*
X7789110Y-15532674D01*
X7789110Y-15532674D02*
X7798634Y-15551722D01*
X7798634Y-15551722D02*
X7798634Y-15656484D01*
X7798634Y-15551722D02*
X7808158Y-15532674D01*
X7808158Y-15532674D02*
X7827205Y-15523150D01*
X7827205Y-15523150D02*
X7855777Y-15523150D01*
X7855777Y-15523150D02*
X7874824Y-15532674D01*
X7874824Y-15532674D02*
X7884348Y-15551722D01*
X7884348Y-15551722D02*
X7884348Y-15656484D01*
X7979586Y-15656484D02*
X7979586Y-15523150D01*
X7979586Y-15542198D02*
X7989110Y-15532674D01*
X7989110Y-15532674D02*
X8008158Y-15523150D01*
X8008158Y-15523150D02*
X8036729Y-15523150D01*
X8036729Y-15523150D02*
X8055777Y-15532674D01*
X8055777Y-15532674D02*
X8065301Y-15551722D01*
X8065301Y-15551722D02*
X8065301Y-15656484D01*
X8065301Y-15551722D02*
X8074824Y-15532674D01*
X8074824Y-15532674D02*
X8093872Y-15523150D01*
X8093872Y-15523150D02*
X8122443Y-15523150D01*
X8122443Y-15523150D02*
X8141491Y-15532674D01*
X8141491Y-15532674D02*
X8151015Y-15551722D01*
X8151015Y-15551722D02*
X8151015Y-15656484D01*
X8541491Y-15446960D02*
X8370063Y-15704103D01*
X8798634Y-15456484D02*
X8817682Y-15456484D01*
X8817682Y-15456484D02*
X8836729Y-15466008D01*
X8836729Y-15466008D02*
X8846253Y-15475531D01*
X8846253Y-15475531D02*
X8855777Y-15494579D01*
X8855777Y-15494579D02*
X8865301Y-15532674D01*
X8865301Y-15532674D02*
X8865301Y-15580293D01*
X8865301Y-15580293D02*
X8855777Y-15618388D01*
X8855777Y-15618388D02*
X8846253Y-15637436D01*
X8846253Y-15637436D02*
X8836729Y-15646960D01*
X8836729Y-15646960D02*
X8817682Y-15656484D01*
X8817682Y-15656484D02*
X8798634Y-15656484D01*
X8798634Y-15656484D02*
X8779587Y-15646960D01*
X8779587Y-15646960D02*
X8770063Y-15637436D01*
X8770063Y-15637436D02*
X8760539Y-15618388D01*
X8760539Y-15618388D02*
X8751015Y-15580293D01*
X8751015Y-15580293D02*
X8751015Y-15532674D01*
X8751015Y-15532674D02*
X8760539Y-15494579D01*
X8760539Y-15494579D02*
X8770063Y-15475531D01*
X8770063Y-15475531D02*
X8779587Y-15466008D01*
X8779587Y-15466008D02*
X8798634Y-15456484D01*
X8951015Y-15637436D02*
X8960539Y-15646960D01*
X8960539Y-15646960D02*
X8951015Y-15656484D01*
X8951015Y-15656484D02*
X8941491Y-15646960D01*
X8941491Y-15646960D02*
X8951015Y-15637436D01*
X8951015Y-15637436D02*
X8951015Y-15656484D01*
X9084348Y-15456484D02*
X9103396Y-15456484D01*
X9103396Y-15456484D02*
X9122444Y-15466008D01*
X9122444Y-15466008D02*
X9131968Y-15475531D01*
X9131968Y-15475531D02*
X9141491Y-15494579D01*
X9141491Y-15494579D02*
X9151015Y-15532674D01*
X9151015Y-15532674D02*
X9151015Y-15580293D01*
X9151015Y-15580293D02*
X9141491Y-15618388D01*
X9141491Y-15618388D02*
X9131968Y-15637436D01*
X9131968Y-15637436D02*
X9122444Y-15646960D01*
X9122444Y-15646960D02*
X9103396Y-15656484D01*
X9103396Y-15656484D02*
X9084348Y-15656484D01*
X9084348Y-15656484D02*
X9065301Y-15646960D01*
X9065301Y-15646960D02*
X9055777Y-15637436D01*
X9055777Y-15637436D02*
X9046253Y-15618388D01*
X9046253Y-15618388D02*
X9036729Y-15580293D01*
X9036729Y-15580293D02*
X9036729Y-15532674D01*
X9036729Y-15532674D02*
X9046253Y-15494579D01*
X9046253Y-15494579D02*
X9055777Y-15475531D01*
X9055777Y-15475531D02*
X9065301Y-15466008D01*
X9065301Y-15466008D02*
X9084348Y-15456484D01*
X9322444Y-15523150D02*
X9322444Y-15656484D01*
X9274825Y-15446960D02*
X9227206Y-15589817D01*
X9227206Y-15589817D02*
X9351015Y-15589817D01*
X9465301Y-15456484D02*
X9484349Y-15456484D01*
X9484349Y-15456484D02*
X9503396Y-15466008D01*
X9503396Y-15466008D02*
X9512920Y-15475531D01*
X9512920Y-15475531D02*
X9522444Y-15494579D01*
X9522444Y-15494579D02*
X9531968Y-15532674D01*
X9531968Y-15532674D02*
X9531968Y-15580293D01*
X9531968Y-15580293D02*
X9522444Y-15618388D01*
X9522444Y-15618388D02*
X9512920Y-15637436D01*
X9512920Y-15637436D02*
X9503396Y-15646960D01*
X9503396Y-15646960D02*
X9484349Y-15656484D01*
X9484349Y-15656484D02*
X9465301Y-15656484D01*
X9465301Y-15656484D02*
X9446253Y-15646960D01*
X9446253Y-15646960D02*
X9436729Y-15637436D01*
X9436729Y-15637436D02*
X9427206Y-15618388D01*
X9427206Y-15618388D02*
X9417682Y-15580293D01*
X9417682Y-15580293D02*
X9417682Y-15532674D01*
X9417682Y-15532674D02*
X9427206Y-15494579D01*
X9427206Y-15494579D02*
X9436729Y-15475531D01*
X9436729Y-15475531D02*
X9446253Y-15466008D01*
X9446253Y-15466008D02*
X9465301Y-15456484D01*
X9608158Y-15475531D02*
X9617682Y-15466008D01*
X9617682Y-15466008D02*
X9636729Y-15456484D01*
X9636729Y-15456484D02*
X9684349Y-15456484D01*
X9684349Y-15456484D02*
X9703396Y-15466008D01*
X9703396Y-15466008D02*
X9712920Y-15475531D01*
X9712920Y-15475531D02*
X9722444Y-15494579D01*
X9722444Y-15494579D02*
X9722444Y-15513627D01*
X9722444Y-15513627D02*
X9712920Y-15542198D01*
X9712920Y-15542198D02*
X9598634Y-15656484D01*
X9598634Y-15656484D02*
X9722444Y-15656484D01*
X9798634Y-15456484D02*
X9798634Y-15494579D01*
X9874825Y-15456484D02*
X9874825Y-15494579D01*
X10170063Y-15732674D02*
X10160539Y-15723150D01*
X10160539Y-15723150D02*
X10141491Y-15694579D01*
X10141491Y-15694579D02*
X10131968Y-15675531D01*
X10131968Y-15675531D02*
X10122444Y-15646960D01*
X10122444Y-15646960D02*
X10112920Y-15599341D01*
X10112920Y-15599341D02*
X10112920Y-15561246D01*
X10112920Y-15561246D02*
X10122444Y-15513627D01*
X10122444Y-15513627D02*
X10131968Y-15485055D01*
X10131968Y-15485055D02*
X10141491Y-15466008D01*
X10141491Y-15466008D02*
X10160539Y-15437436D01*
X10160539Y-15437436D02*
X10170063Y-15427912D01*
X10227206Y-15456484D02*
X10351015Y-15456484D01*
X10351015Y-15456484D02*
X10284349Y-15532674D01*
X10284349Y-15532674D02*
X10312920Y-15532674D01*
X10312920Y-15532674D02*
X10331968Y-15542198D01*
X10331968Y-15542198D02*
X10341491Y-15551722D01*
X10341491Y-15551722D02*
X10351015Y-15570769D01*
X10351015Y-15570769D02*
X10351015Y-15618388D01*
X10351015Y-15618388D02*
X10341491Y-15637436D01*
X10341491Y-15637436D02*
X10331968Y-15646960D01*
X10331968Y-15646960D02*
X10312920Y-15656484D01*
X10312920Y-15656484D02*
X10255777Y-15656484D01*
X10255777Y-15656484D02*
X10236730Y-15646960D01*
X10236730Y-15646960D02*
X10227206Y-15637436D01*
X10446253Y-15656484D02*
X10484349Y-15656484D01*
X10484349Y-15656484D02*
X10503396Y-15646960D01*
X10503396Y-15646960D02*
X10512920Y-15637436D01*
X10512920Y-15637436D02*
X10531968Y-15608865D01*
X10531968Y-15608865D02*
X10541491Y-15570769D01*
X10541491Y-15570769D02*
X10541491Y-15494579D01*
X10541491Y-15494579D02*
X10531968Y-15475531D01*
X10531968Y-15475531D02*
X10522444Y-15466008D01*
X10522444Y-15466008D02*
X10503396Y-15456484D01*
X10503396Y-15456484D02*
X10465301Y-15456484D01*
X10465301Y-15456484D02*
X10446253Y-15466008D01*
X10446253Y-15466008D02*
X10436730Y-15475531D01*
X10436730Y-15475531D02*
X10427206Y-15494579D01*
X10427206Y-15494579D02*
X10427206Y-15542198D01*
X10427206Y-15542198D02*
X10436730Y-15561246D01*
X10436730Y-15561246D02*
X10446253Y-15570769D01*
X10446253Y-15570769D02*
X10465301Y-15580293D01*
X10465301Y-15580293D02*
X10503396Y-15580293D01*
X10503396Y-15580293D02*
X10522444Y-15570769D01*
X10522444Y-15570769D02*
X10531968Y-15561246D01*
X10531968Y-15561246D02*
X10541491Y-15542198D01*
X10779587Y-15656484D02*
X10779587Y-15456484D01*
X10865301Y-15656484D02*
X10865301Y-15551722D01*
X10865301Y-15551722D02*
X10855777Y-15532674D01*
X10855777Y-15532674D02*
X10836730Y-15523150D01*
X10836730Y-15523150D02*
X10808158Y-15523150D01*
X10808158Y-15523150D02*
X10789111Y-15532674D01*
X10789111Y-15532674D02*
X10779587Y-15542198D01*
X10989111Y-15656484D02*
X10970063Y-15646960D01*
X10970063Y-15646960D02*
X10960539Y-15637436D01*
X10960539Y-15637436D02*
X10951015Y-15618388D01*
X10951015Y-15618388D02*
X10951015Y-15561246D01*
X10951015Y-15561246D02*
X10960539Y-15542198D01*
X10960539Y-15542198D02*
X10970063Y-15532674D01*
X10970063Y-15532674D02*
X10989111Y-15523150D01*
X10989111Y-15523150D02*
X11017682Y-15523150D01*
X11017682Y-15523150D02*
X11036730Y-15532674D01*
X11036730Y-15532674D02*
X11046253Y-15542198D01*
X11046253Y-15542198D02*
X11055777Y-15561246D01*
X11055777Y-15561246D02*
X11055777Y-15618388D01*
X11055777Y-15618388D02*
X11046253Y-15637436D01*
X11046253Y-15637436D02*
X11036730Y-15646960D01*
X11036730Y-15646960D02*
X11017682Y-15656484D01*
X11017682Y-15656484D02*
X10989111Y-15656484D01*
X11170063Y-15656484D02*
X11151015Y-15646960D01*
X11151015Y-15646960D02*
X11141492Y-15627912D01*
X11141492Y-15627912D02*
X11141492Y-15456484D01*
X11322444Y-15646960D02*
X11303396Y-15656484D01*
X11303396Y-15656484D02*
X11265301Y-15656484D01*
X11265301Y-15656484D02*
X11246253Y-15646960D01*
X11246253Y-15646960D02*
X11236730Y-15627912D01*
X11236730Y-15627912D02*
X11236730Y-15551722D01*
X11236730Y-15551722D02*
X11246253Y-15532674D01*
X11246253Y-15532674D02*
X11265301Y-15523150D01*
X11265301Y-15523150D02*
X11303396Y-15523150D01*
X11303396Y-15523150D02*
X11322444Y-15532674D01*
X11322444Y-15532674D02*
X11331968Y-15551722D01*
X11331968Y-15551722D02*
X11331968Y-15570769D01*
X11331968Y-15570769D02*
X11236730Y-15589817D01*
X11408158Y-15646960D02*
X11427206Y-15656484D01*
X11427206Y-15656484D02*
X11465301Y-15656484D01*
X11465301Y-15656484D02*
X11484349Y-15646960D01*
X11484349Y-15646960D02*
X11493872Y-15627912D01*
X11493872Y-15627912D02*
X11493872Y-15618388D01*
X11493872Y-15618388D02*
X11484349Y-15599341D01*
X11484349Y-15599341D02*
X11465301Y-15589817D01*
X11465301Y-15589817D02*
X11436730Y-15589817D01*
X11436730Y-15589817D02*
X11417682Y-15580293D01*
X11417682Y-15580293D02*
X11408158Y-15561246D01*
X11408158Y-15561246D02*
X11408158Y-15551722D01*
X11408158Y-15551722D02*
X11417682Y-15532674D01*
X11417682Y-15532674D02*
X11436730Y-15523150D01*
X11436730Y-15523150D02*
X11465301Y-15523150D01*
X11465301Y-15523150D02*
X11484349Y-15532674D01*
X11560539Y-15732674D02*
X11570063Y-15723150D01*
X11570063Y-15723150D02*
X11589111Y-15694579D01*
X11589111Y-15694579D02*
X11598634Y-15675531D01*
X11598634Y-15675531D02*
X11608158Y-15646960D01*
X11608158Y-15646960D02*
X11617682Y-15599341D01*
X11617682Y-15599341D02*
X11617682Y-15561246D01*
X11617682Y-15561246D02*
X11608158Y-15513627D01*
X11608158Y-15513627D02*
X11598634Y-15485055D01*
X11598634Y-15485055D02*
X11589111Y-15466008D01*
X11589111Y-15466008D02*
X11570063Y-15437436D01*
X11570063Y-15437436D02*
X11560539Y-15427912D01*
X6395000Y-15729000D02*
X6595000Y-15929000D01*
X6595000Y-15729000D02*
X6395000Y-15929000D01*
X6495000Y-15729000D02*
X6495000Y-15929000D01*
X6395000Y-15829000D02*
X6595000Y-15829000D01*
X6846253Y-15739531D02*
X6855777Y-15730008D01*
X6855777Y-15730008D02*
X6874824Y-15720484D01*
X6874824Y-15720484D02*
X6922443Y-15720484D01*
X6922443Y-15720484D02*
X6941491Y-15730008D01*
X6941491Y-15730008D02*
X6951015Y-15739531D01*
X6951015Y-15739531D02*
X6960539Y-15758579D01*
X6960539Y-15758579D02*
X6960539Y-15777627D01*
X6960539Y-15777627D02*
X6951015Y-15806198D01*
X6951015Y-15806198D02*
X6836729Y-15920484D01*
X6836729Y-15920484D02*
X6960539Y-15920484D01*
X7046253Y-15901436D02*
X7055777Y-15910960D01*
X7055777Y-15910960D02*
X7046253Y-15920484D01*
X7046253Y-15920484D02*
X7036729Y-15910960D01*
X7036729Y-15910960D02*
X7046253Y-15901436D01*
X7046253Y-15901436D02*
X7046253Y-15920484D01*
X7246253Y-15920484D02*
X7131967Y-15920484D01*
X7189110Y-15920484D02*
X7189110Y-15720484D01*
X7189110Y-15720484D02*
X7170062Y-15749055D01*
X7170062Y-15749055D02*
X7151015Y-15768103D01*
X7151015Y-15768103D02*
X7131967Y-15777627D01*
X7360539Y-15806198D02*
X7341491Y-15796674D01*
X7341491Y-15796674D02*
X7331967Y-15787150D01*
X7331967Y-15787150D02*
X7322443Y-15768103D01*
X7322443Y-15768103D02*
X7322443Y-15758579D01*
X7322443Y-15758579D02*
X7331967Y-15739531D01*
X7331967Y-15739531D02*
X7341491Y-15730008D01*
X7341491Y-15730008D02*
X7360539Y-15720484D01*
X7360539Y-15720484D02*
X7398634Y-15720484D01*
X7398634Y-15720484D02*
X7417682Y-15730008D01*
X7417682Y-15730008D02*
X7427205Y-15739531D01*
X7427205Y-15739531D02*
X7436729Y-15758579D01*
X7436729Y-15758579D02*
X7436729Y-15768103D01*
X7436729Y-15768103D02*
X7427205Y-15787150D01*
X7427205Y-15787150D02*
X7417682Y-15796674D01*
X7417682Y-15796674D02*
X7398634Y-15806198D01*
X7398634Y-15806198D02*
X7360539Y-15806198D01*
X7360539Y-15806198D02*
X7341491Y-15815722D01*
X7341491Y-15815722D02*
X7331967Y-15825246D01*
X7331967Y-15825246D02*
X7322443Y-15844293D01*
X7322443Y-15844293D02*
X7322443Y-15882388D01*
X7322443Y-15882388D02*
X7331967Y-15901436D01*
X7331967Y-15901436D02*
X7341491Y-15910960D01*
X7341491Y-15910960D02*
X7360539Y-15920484D01*
X7360539Y-15920484D02*
X7398634Y-15920484D01*
X7398634Y-15920484D02*
X7417682Y-15910960D01*
X7417682Y-15910960D02*
X7427205Y-15901436D01*
X7427205Y-15901436D02*
X7436729Y-15882388D01*
X7436729Y-15882388D02*
X7436729Y-15844293D01*
X7436729Y-15844293D02*
X7427205Y-15825246D01*
X7427205Y-15825246D02*
X7417682Y-15815722D01*
X7417682Y-15815722D02*
X7398634Y-15806198D01*
X7560539Y-15720484D02*
X7579586Y-15720484D01*
X7579586Y-15720484D02*
X7598634Y-15730008D01*
X7598634Y-15730008D02*
X7608158Y-15739531D01*
X7608158Y-15739531D02*
X7617682Y-15758579D01*
X7617682Y-15758579D02*
X7627205Y-15796674D01*
X7627205Y-15796674D02*
X7627205Y-15844293D01*
X7627205Y-15844293D02*
X7617682Y-15882388D01*
X7617682Y-15882388D02*
X7608158Y-15901436D01*
X7608158Y-15901436D02*
X7598634Y-15910960D01*
X7598634Y-15910960D02*
X7579586Y-15920484D01*
X7579586Y-15920484D02*
X7560539Y-15920484D01*
X7560539Y-15920484D02*
X7541491Y-15910960D01*
X7541491Y-15910960D02*
X7531967Y-15901436D01*
X7531967Y-15901436D02*
X7522443Y-15882388D01*
X7522443Y-15882388D02*
X7512920Y-15844293D01*
X7512920Y-15844293D02*
X7512920Y-15796674D01*
X7512920Y-15796674D02*
X7522443Y-15758579D01*
X7522443Y-15758579D02*
X7531967Y-15739531D01*
X7531967Y-15739531D02*
X7541491Y-15730008D01*
X7541491Y-15730008D02*
X7560539Y-15720484D01*
X7712920Y-15920484D02*
X7712920Y-15787150D01*
X7712920Y-15806198D02*
X7722443Y-15796674D01*
X7722443Y-15796674D02*
X7741491Y-15787150D01*
X7741491Y-15787150D02*
X7770063Y-15787150D01*
X7770063Y-15787150D02*
X7789110Y-15796674D01*
X7789110Y-15796674D02*
X7798634Y-15815722D01*
X7798634Y-15815722D02*
X7798634Y-15920484D01*
X7798634Y-15815722D02*
X7808158Y-15796674D01*
X7808158Y-15796674D02*
X7827205Y-15787150D01*
X7827205Y-15787150D02*
X7855777Y-15787150D01*
X7855777Y-15787150D02*
X7874824Y-15796674D01*
X7874824Y-15796674D02*
X7884348Y-15815722D01*
X7884348Y-15815722D02*
X7884348Y-15920484D01*
X7979586Y-15920484D02*
X7979586Y-15787150D01*
X7979586Y-15806198D02*
X7989110Y-15796674D01*
X7989110Y-15796674D02*
X8008158Y-15787150D01*
X8008158Y-15787150D02*
X8036729Y-15787150D01*
X8036729Y-15787150D02*
X8055777Y-15796674D01*
X8055777Y-15796674D02*
X8065301Y-15815722D01*
X8065301Y-15815722D02*
X8065301Y-15920484D01*
X8065301Y-15815722D02*
X8074824Y-15796674D01*
X8074824Y-15796674D02*
X8093872Y-15787150D01*
X8093872Y-15787150D02*
X8122443Y-15787150D01*
X8122443Y-15787150D02*
X8141491Y-15796674D01*
X8141491Y-15796674D02*
X8151015Y-15815722D01*
X8151015Y-15815722D02*
X8151015Y-15920484D01*
X8541491Y-15710960D02*
X8370063Y-15968103D01*
X8798634Y-15720484D02*
X8817682Y-15720484D01*
X8817682Y-15720484D02*
X8836729Y-15730008D01*
X8836729Y-15730008D02*
X8846253Y-15739531D01*
X8846253Y-15739531D02*
X8855777Y-15758579D01*
X8855777Y-15758579D02*
X8865301Y-15796674D01*
X8865301Y-15796674D02*
X8865301Y-15844293D01*
X8865301Y-15844293D02*
X8855777Y-15882388D01*
X8855777Y-15882388D02*
X8846253Y-15901436D01*
X8846253Y-15901436D02*
X8836729Y-15910960D01*
X8836729Y-15910960D02*
X8817682Y-15920484D01*
X8817682Y-15920484D02*
X8798634Y-15920484D01*
X8798634Y-15920484D02*
X8779587Y-15910960D01*
X8779587Y-15910960D02*
X8770063Y-15901436D01*
X8770063Y-15901436D02*
X8760539Y-15882388D01*
X8760539Y-15882388D02*
X8751015Y-15844293D01*
X8751015Y-15844293D02*
X8751015Y-15796674D01*
X8751015Y-15796674D02*
X8760539Y-15758579D01*
X8760539Y-15758579D02*
X8770063Y-15739531D01*
X8770063Y-15739531D02*
X8779587Y-15730008D01*
X8779587Y-15730008D02*
X8798634Y-15720484D01*
X8951015Y-15901436D02*
X8960539Y-15910960D01*
X8960539Y-15910960D02*
X8951015Y-15920484D01*
X8951015Y-15920484D02*
X8941491Y-15910960D01*
X8941491Y-15910960D02*
X8951015Y-15901436D01*
X8951015Y-15901436D02*
X8951015Y-15920484D01*
X9084348Y-15720484D02*
X9103396Y-15720484D01*
X9103396Y-15720484D02*
X9122444Y-15730008D01*
X9122444Y-15730008D02*
X9131968Y-15739531D01*
X9131968Y-15739531D02*
X9141491Y-15758579D01*
X9141491Y-15758579D02*
X9151015Y-15796674D01*
X9151015Y-15796674D02*
X9151015Y-15844293D01*
X9151015Y-15844293D02*
X9141491Y-15882388D01*
X9141491Y-15882388D02*
X9131968Y-15901436D01*
X9131968Y-15901436D02*
X9122444Y-15910960D01*
X9122444Y-15910960D02*
X9103396Y-15920484D01*
X9103396Y-15920484D02*
X9084348Y-15920484D01*
X9084348Y-15920484D02*
X9065301Y-15910960D01*
X9065301Y-15910960D02*
X9055777Y-15901436D01*
X9055777Y-15901436D02*
X9046253Y-15882388D01*
X9046253Y-15882388D02*
X9036729Y-15844293D01*
X9036729Y-15844293D02*
X9036729Y-15796674D01*
X9036729Y-15796674D02*
X9046253Y-15758579D01*
X9046253Y-15758579D02*
X9055777Y-15739531D01*
X9055777Y-15739531D02*
X9065301Y-15730008D01*
X9065301Y-15730008D02*
X9084348Y-15720484D01*
X9265301Y-15806198D02*
X9246253Y-15796674D01*
X9246253Y-15796674D02*
X9236729Y-15787150D01*
X9236729Y-15787150D02*
X9227206Y-15768103D01*
X9227206Y-15768103D02*
X9227206Y-15758579D01*
X9227206Y-15758579D02*
X9236729Y-15739531D01*
X9236729Y-15739531D02*
X9246253Y-15730008D01*
X9246253Y-15730008D02*
X9265301Y-15720484D01*
X9265301Y-15720484D02*
X9303396Y-15720484D01*
X9303396Y-15720484D02*
X9322444Y-15730008D01*
X9322444Y-15730008D02*
X9331968Y-15739531D01*
X9331968Y-15739531D02*
X9341491Y-15758579D01*
X9341491Y-15758579D02*
X9341491Y-15768103D01*
X9341491Y-15768103D02*
X9331968Y-15787150D01*
X9331968Y-15787150D02*
X9322444Y-15796674D01*
X9322444Y-15796674D02*
X9303396Y-15806198D01*
X9303396Y-15806198D02*
X9265301Y-15806198D01*
X9265301Y-15806198D02*
X9246253Y-15815722D01*
X9246253Y-15815722D02*
X9236729Y-15825246D01*
X9236729Y-15825246D02*
X9227206Y-15844293D01*
X9227206Y-15844293D02*
X9227206Y-15882388D01*
X9227206Y-15882388D02*
X9236729Y-15901436D01*
X9236729Y-15901436D02*
X9246253Y-15910960D01*
X9246253Y-15910960D02*
X9265301Y-15920484D01*
X9265301Y-15920484D02*
X9303396Y-15920484D01*
X9303396Y-15920484D02*
X9322444Y-15910960D01*
X9322444Y-15910960D02*
X9331968Y-15901436D01*
X9331968Y-15901436D02*
X9341491Y-15882388D01*
X9341491Y-15882388D02*
X9341491Y-15844293D01*
X9341491Y-15844293D02*
X9331968Y-15825246D01*
X9331968Y-15825246D02*
X9322444Y-15815722D01*
X9322444Y-15815722D02*
X9303396Y-15806198D01*
X9522444Y-15720484D02*
X9427206Y-15720484D01*
X9427206Y-15720484D02*
X9417682Y-15815722D01*
X9417682Y-15815722D02*
X9427206Y-15806198D01*
X9427206Y-15806198D02*
X9446253Y-15796674D01*
X9446253Y-15796674D02*
X9493872Y-15796674D01*
X9493872Y-15796674D02*
X9512920Y-15806198D01*
X9512920Y-15806198D02*
X9522444Y-15815722D01*
X9522444Y-15815722D02*
X9531968Y-15834769D01*
X9531968Y-15834769D02*
X9531968Y-15882388D01*
X9531968Y-15882388D02*
X9522444Y-15901436D01*
X9522444Y-15901436D02*
X9512920Y-15910960D01*
X9512920Y-15910960D02*
X9493872Y-15920484D01*
X9493872Y-15920484D02*
X9446253Y-15920484D01*
X9446253Y-15920484D02*
X9427206Y-15910960D01*
X9427206Y-15910960D02*
X9417682Y-15901436D01*
X9646253Y-15806198D02*
X9627206Y-15796674D01*
X9627206Y-15796674D02*
X9617682Y-15787150D01*
X9617682Y-15787150D02*
X9608158Y-15768103D01*
X9608158Y-15768103D02*
X9608158Y-15758579D01*
X9608158Y-15758579D02*
X9617682Y-15739531D01*
X9617682Y-15739531D02*
X9627206Y-15730008D01*
X9627206Y-15730008D02*
X9646253Y-15720484D01*
X9646253Y-15720484D02*
X9684349Y-15720484D01*
X9684349Y-15720484D02*
X9703396Y-15730008D01*
X9703396Y-15730008D02*
X9712920Y-15739531D01*
X9712920Y-15739531D02*
X9722444Y-15758579D01*
X9722444Y-15758579D02*
X9722444Y-15768103D01*
X9722444Y-15768103D02*
X9712920Y-15787150D01*
X9712920Y-15787150D02*
X9703396Y-15796674D01*
X9703396Y-15796674D02*
X9684349Y-15806198D01*
X9684349Y-15806198D02*
X9646253Y-15806198D01*
X9646253Y-15806198D02*
X9627206Y-15815722D01*
X9627206Y-15815722D02*
X9617682Y-15825246D01*
X9617682Y-15825246D02*
X9608158Y-15844293D01*
X9608158Y-15844293D02*
X9608158Y-15882388D01*
X9608158Y-15882388D02*
X9617682Y-15901436D01*
X9617682Y-15901436D02*
X9627206Y-15910960D01*
X9627206Y-15910960D02*
X9646253Y-15920484D01*
X9646253Y-15920484D02*
X9684349Y-15920484D01*
X9684349Y-15920484D02*
X9703396Y-15910960D01*
X9703396Y-15910960D02*
X9712920Y-15901436D01*
X9712920Y-15901436D02*
X9722444Y-15882388D01*
X9722444Y-15882388D02*
X9722444Y-15844293D01*
X9722444Y-15844293D02*
X9712920Y-15825246D01*
X9712920Y-15825246D02*
X9703396Y-15815722D01*
X9703396Y-15815722D02*
X9684349Y-15806198D01*
X9798634Y-15720484D02*
X9798634Y-15758579D01*
X9874825Y-15720484D02*
X9874825Y-15758579D01*
X10170063Y-15996674D02*
X10160539Y-15987150D01*
X10160539Y-15987150D02*
X10141491Y-15958579D01*
X10141491Y-15958579D02*
X10131968Y-15939531D01*
X10131968Y-15939531D02*
X10122444Y-15910960D01*
X10122444Y-15910960D02*
X10112920Y-15863341D01*
X10112920Y-15863341D02*
X10112920Y-15825246D01*
X10112920Y-15825246D02*
X10122444Y-15777627D01*
X10122444Y-15777627D02*
X10131968Y-15749055D01*
X10131968Y-15749055D02*
X10141491Y-15730008D01*
X10141491Y-15730008D02*
X10160539Y-15701436D01*
X10160539Y-15701436D02*
X10170063Y-15691912D01*
X10331968Y-15787150D02*
X10331968Y-15920484D01*
X10284349Y-15710960D02*
X10236730Y-15853817D01*
X10236730Y-15853817D02*
X10360539Y-15853817D01*
X10589111Y-15920484D02*
X10589111Y-15720484D01*
X10674825Y-15920484D02*
X10674825Y-15815722D01*
X10674825Y-15815722D02*
X10665301Y-15796674D01*
X10665301Y-15796674D02*
X10646253Y-15787150D01*
X10646253Y-15787150D02*
X10617682Y-15787150D01*
X10617682Y-15787150D02*
X10598634Y-15796674D01*
X10598634Y-15796674D02*
X10589111Y-15806198D01*
X10798634Y-15920484D02*
X10779587Y-15910960D01*
X10779587Y-15910960D02*
X10770063Y-15901436D01*
X10770063Y-15901436D02*
X10760539Y-15882388D01*
X10760539Y-15882388D02*
X10760539Y-15825246D01*
X10760539Y-15825246D02*
X10770063Y-15806198D01*
X10770063Y-15806198D02*
X10779587Y-15796674D01*
X10779587Y-15796674D02*
X10798634Y-15787150D01*
X10798634Y-15787150D02*
X10827206Y-15787150D01*
X10827206Y-15787150D02*
X10846253Y-15796674D01*
X10846253Y-15796674D02*
X10855777Y-15806198D01*
X10855777Y-15806198D02*
X10865301Y-15825246D01*
X10865301Y-15825246D02*
X10865301Y-15882388D01*
X10865301Y-15882388D02*
X10855777Y-15901436D01*
X10855777Y-15901436D02*
X10846253Y-15910960D01*
X10846253Y-15910960D02*
X10827206Y-15920484D01*
X10827206Y-15920484D02*
X10798634Y-15920484D01*
X10979587Y-15920484D02*
X10960539Y-15910960D01*
X10960539Y-15910960D02*
X10951015Y-15891912D01*
X10951015Y-15891912D02*
X10951015Y-15720484D01*
X11131968Y-15910960D02*
X11112920Y-15920484D01*
X11112920Y-15920484D02*
X11074825Y-15920484D01*
X11074825Y-15920484D02*
X11055777Y-15910960D01*
X11055777Y-15910960D02*
X11046253Y-15891912D01*
X11046253Y-15891912D02*
X11046253Y-15815722D01*
X11046253Y-15815722D02*
X11055777Y-15796674D01*
X11055777Y-15796674D02*
X11074825Y-15787150D01*
X11074825Y-15787150D02*
X11112920Y-15787150D01*
X11112920Y-15787150D02*
X11131968Y-15796674D01*
X11131968Y-15796674D02*
X11141492Y-15815722D01*
X11141492Y-15815722D02*
X11141492Y-15834769D01*
X11141492Y-15834769D02*
X11046253Y-15853817D01*
X11217682Y-15910960D02*
X11236730Y-15920484D01*
X11236730Y-15920484D02*
X11274825Y-15920484D01*
X11274825Y-15920484D02*
X11293872Y-15910960D01*
X11293872Y-15910960D02*
X11303396Y-15891912D01*
X11303396Y-15891912D02*
X11303396Y-15882388D01*
X11303396Y-15882388D02*
X11293872Y-15863341D01*
X11293872Y-15863341D02*
X11274825Y-15853817D01*
X11274825Y-15853817D02*
X11246253Y-15853817D01*
X11246253Y-15853817D02*
X11227206Y-15844293D01*
X11227206Y-15844293D02*
X11217682Y-15825246D01*
X11217682Y-15825246D02*
X11217682Y-15815722D01*
X11217682Y-15815722D02*
X11227206Y-15796674D01*
X11227206Y-15796674D02*
X11246253Y-15787150D01*
X11246253Y-15787150D02*
X11274825Y-15787150D01*
X11274825Y-15787150D02*
X11293872Y-15796674D01*
X11370063Y-15996674D02*
X11379587Y-15987150D01*
X11379587Y-15987150D02*
X11398634Y-15958579D01*
X11398634Y-15958579D02*
X11408158Y-15939531D01*
X11408158Y-15939531D02*
X11417682Y-15910960D01*
X11417682Y-15910960D02*
X11427206Y-15863341D01*
X11427206Y-15863341D02*
X11427206Y-15825246D01*
X11427206Y-15825246D02*
X11417682Y-15777627D01*
X11417682Y-15777627D02*
X11408158Y-15749055D01*
X11408158Y-15749055D02*
X11398634Y-15730008D01*
X11398634Y-15730008D02*
X11379587Y-15701436D01*
X11379587Y-15701436D02*
X11370063Y-15691912D01*
X6395000Y-16049000D02*
X6595000Y-16249000D01*
X6595000Y-16049000D02*
X6395000Y-16249000D01*
X6565711Y-16219711D02*
X6565711Y-16078289D01*
X6424289Y-16078289D01*
X6424289Y-16219711D01*
X6565711Y-16219711D01*
X6846253Y-16059531D02*
X6855777Y-16050008D01*
X6855777Y-16050008D02*
X6874824Y-16040484D01*
X6874824Y-16040484D02*
X6922443Y-16040484D01*
X6922443Y-16040484D02*
X6941491Y-16050008D01*
X6941491Y-16050008D02*
X6951015Y-16059531D01*
X6951015Y-16059531D02*
X6960539Y-16078579D01*
X6960539Y-16078579D02*
X6960539Y-16097627D01*
X6960539Y-16097627D02*
X6951015Y-16126198D01*
X6951015Y-16126198D02*
X6836729Y-16240484D01*
X6836729Y-16240484D02*
X6960539Y-16240484D01*
X7046253Y-16221436D02*
X7055777Y-16230960D01*
X7055777Y-16230960D02*
X7046253Y-16240484D01*
X7046253Y-16240484D02*
X7036729Y-16230960D01*
X7036729Y-16230960D02*
X7046253Y-16221436D01*
X7046253Y-16221436D02*
X7046253Y-16240484D01*
X7236729Y-16040484D02*
X7141491Y-16040484D01*
X7141491Y-16040484D02*
X7131967Y-16135722D01*
X7131967Y-16135722D02*
X7141491Y-16126198D01*
X7141491Y-16126198D02*
X7160539Y-16116674D01*
X7160539Y-16116674D02*
X7208158Y-16116674D01*
X7208158Y-16116674D02*
X7227205Y-16126198D01*
X7227205Y-16126198D02*
X7236729Y-16135722D01*
X7236729Y-16135722D02*
X7246253Y-16154769D01*
X7246253Y-16154769D02*
X7246253Y-16202388D01*
X7246253Y-16202388D02*
X7236729Y-16221436D01*
X7236729Y-16221436D02*
X7227205Y-16230960D01*
X7227205Y-16230960D02*
X7208158Y-16240484D01*
X7208158Y-16240484D02*
X7160539Y-16240484D01*
X7160539Y-16240484D02*
X7141491Y-16230960D01*
X7141491Y-16230960D02*
X7131967Y-16221436D01*
X7370062Y-16040484D02*
X7389110Y-16040484D01*
X7389110Y-16040484D02*
X7408158Y-16050008D01*
X7408158Y-16050008D02*
X7417682Y-16059531D01*
X7417682Y-16059531D02*
X7427205Y-16078579D01*
X7427205Y-16078579D02*
X7436729Y-16116674D01*
X7436729Y-16116674D02*
X7436729Y-16164293D01*
X7436729Y-16164293D02*
X7427205Y-16202388D01*
X7427205Y-16202388D02*
X7417682Y-16221436D01*
X7417682Y-16221436D02*
X7408158Y-16230960D01*
X7408158Y-16230960D02*
X7389110Y-16240484D01*
X7389110Y-16240484D02*
X7370062Y-16240484D01*
X7370062Y-16240484D02*
X7351015Y-16230960D01*
X7351015Y-16230960D02*
X7341491Y-16221436D01*
X7341491Y-16221436D02*
X7331967Y-16202388D01*
X7331967Y-16202388D02*
X7322443Y-16164293D01*
X7322443Y-16164293D02*
X7322443Y-16116674D01*
X7322443Y-16116674D02*
X7331967Y-16078579D01*
X7331967Y-16078579D02*
X7341491Y-16059531D01*
X7341491Y-16059531D02*
X7351015Y-16050008D01*
X7351015Y-16050008D02*
X7370062Y-16040484D01*
X7560539Y-16040484D02*
X7579586Y-16040484D01*
X7579586Y-16040484D02*
X7598634Y-16050008D01*
X7598634Y-16050008D02*
X7608158Y-16059531D01*
X7608158Y-16059531D02*
X7617682Y-16078579D01*
X7617682Y-16078579D02*
X7627205Y-16116674D01*
X7627205Y-16116674D02*
X7627205Y-16164293D01*
X7627205Y-16164293D02*
X7617682Y-16202388D01*
X7617682Y-16202388D02*
X7608158Y-16221436D01*
X7608158Y-16221436D02*
X7598634Y-16230960D01*
X7598634Y-16230960D02*
X7579586Y-16240484D01*
X7579586Y-16240484D02*
X7560539Y-16240484D01*
X7560539Y-16240484D02*
X7541491Y-16230960D01*
X7541491Y-16230960D02*
X7531967Y-16221436D01*
X7531967Y-16221436D02*
X7522443Y-16202388D01*
X7522443Y-16202388D02*
X7512920Y-16164293D01*
X7512920Y-16164293D02*
X7512920Y-16116674D01*
X7512920Y-16116674D02*
X7522443Y-16078579D01*
X7522443Y-16078579D02*
X7531967Y-16059531D01*
X7531967Y-16059531D02*
X7541491Y-16050008D01*
X7541491Y-16050008D02*
X7560539Y-16040484D01*
X7712920Y-16240484D02*
X7712920Y-16107150D01*
X7712920Y-16126198D02*
X7722443Y-16116674D01*
X7722443Y-16116674D02*
X7741491Y-16107150D01*
X7741491Y-16107150D02*
X7770063Y-16107150D01*
X7770063Y-16107150D02*
X7789110Y-16116674D01*
X7789110Y-16116674D02*
X7798634Y-16135722D01*
X7798634Y-16135722D02*
X7798634Y-16240484D01*
X7798634Y-16135722D02*
X7808158Y-16116674D01*
X7808158Y-16116674D02*
X7827205Y-16107150D01*
X7827205Y-16107150D02*
X7855777Y-16107150D01*
X7855777Y-16107150D02*
X7874824Y-16116674D01*
X7874824Y-16116674D02*
X7884348Y-16135722D01*
X7884348Y-16135722D02*
X7884348Y-16240484D01*
X7979586Y-16240484D02*
X7979586Y-16107150D01*
X7979586Y-16126198D02*
X7989110Y-16116674D01*
X7989110Y-16116674D02*
X8008158Y-16107150D01*
X8008158Y-16107150D02*
X8036729Y-16107150D01*
X8036729Y-16107150D02*
X8055777Y-16116674D01*
X8055777Y-16116674D02*
X8065301Y-16135722D01*
X8065301Y-16135722D02*
X8065301Y-16240484D01*
X8065301Y-16135722D02*
X8074824Y-16116674D01*
X8074824Y-16116674D02*
X8093872Y-16107150D01*
X8093872Y-16107150D02*
X8122443Y-16107150D01*
X8122443Y-16107150D02*
X8141491Y-16116674D01*
X8141491Y-16116674D02*
X8151015Y-16135722D01*
X8151015Y-16135722D02*
X8151015Y-16240484D01*
X8541491Y-16030960D02*
X8370063Y-16288103D01*
X8798634Y-16040484D02*
X8817682Y-16040484D01*
X8817682Y-16040484D02*
X8836729Y-16050008D01*
X8836729Y-16050008D02*
X8846253Y-16059531D01*
X8846253Y-16059531D02*
X8855777Y-16078579D01*
X8855777Y-16078579D02*
X8865301Y-16116674D01*
X8865301Y-16116674D02*
X8865301Y-16164293D01*
X8865301Y-16164293D02*
X8855777Y-16202388D01*
X8855777Y-16202388D02*
X8846253Y-16221436D01*
X8846253Y-16221436D02*
X8836729Y-16230960D01*
X8836729Y-16230960D02*
X8817682Y-16240484D01*
X8817682Y-16240484D02*
X8798634Y-16240484D01*
X8798634Y-16240484D02*
X8779587Y-16230960D01*
X8779587Y-16230960D02*
X8770063Y-16221436D01*
X8770063Y-16221436D02*
X8760539Y-16202388D01*
X8760539Y-16202388D02*
X8751015Y-16164293D01*
X8751015Y-16164293D02*
X8751015Y-16116674D01*
X8751015Y-16116674D02*
X8760539Y-16078579D01*
X8760539Y-16078579D02*
X8770063Y-16059531D01*
X8770063Y-16059531D02*
X8779587Y-16050008D01*
X8779587Y-16050008D02*
X8798634Y-16040484D01*
X8951015Y-16221436D02*
X8960539Y-16230960D01*
X8960539Y-16230960D02*
X8951015Y-16240484D01*
X8951015Y-16240484D02*
X8941491Y-16230960D01*
X8941491Y-16230960D02*
X8951015Y-16221436D01*
X8951015Y-16221436D02*
X8951015Y-16240484D01*
X9084348Y-16040484D02*
X9103396Y-16040484D01*
X9103396Y-16040484D02*
X9122444Y-16050008D01*
X9122444Y-16050008D02*
X9131968Y-16059531D01*
X9131968Y-16059531D02*
X9141491Y-16078579D01*
X9141491Y-16078579D02*
X9151015Y-16116674D01*
X9151015Y-16116674D02*
X9151015Y-16164293D01*
X9151015Y-16164293D02*
X9141491Y-16202388D01*
X9141491Y-16202388D02*
X9131968Y-16221436D01*
X9131968Y-16221436D02*
X9122444Y-16230960D01*
X9122444Y-16230960D02*
X9103396Y-16240484D01*
X9103396Y-16240484D02*
X9084348Y-16240484D01*
X9084348Y-16240484D02*
X9065301Y-16230960D01*
X9065301Y-16230960D02*
X9055777Y-16221436D01*
X9055777Y-16221436D02*
X9046253Y-16202388D01*
X9046253Y-16202388D02*
X9036729Y-16164293D01*
X9036729Y-16164293D02*
X9036729Y-16116674D01*
X9036729Y-16116674D02*
X9046253Y-16078579D01*
X9046253Y-16078579D02*
X9055777Y-16059531D01*
X9055777Y-16059531D02*
X9065301Y-16050008D01*
X9065301Y-16050008D02*
X9084348Y-16040484D01*
X9246253Y-16240484D02*
X9284348Y-16240484D01*
X9284348Y-16240484D02*
X9303396Y-16230960D01*
X9303396Y-16230960D02*
X9312920Y-16221436D01*
X9312920Y-16221436D02*
X9331968Y-16192865D01*
X9331968Y-16192865D02*
X9341491Y-16154769D01*
X9341491Y-16154769D02*
X9341491Y-16078579D01*
X9341491Y-16078579D02*
X9331968Y-16059531D01*
X9331968Y-16059531D02*
X9322444Y-16050008D01*
X9322444Y-16050008D02*
X9303396Y-16040484D01*
X9303396Y-16040484D02*
X9265301Y-16040484D01*
X9265301Y-16040484D02*
X9246253Y-16050008D01*
X9246253Y-16050008D02*
X9236729Y-16059531D01*
X9236729Y-16059531D02*
X9227206Y-16078579D01*
X9227206Y-16078579D02*
X9227206Y-16126198D01*
X9227206Y-16126198D02*
X9236729Y-16145246D01*
X9236729Y-16145246D02*
X9246253Y-16154769D01*
X9246253Y-16154769D02*
X9265301Y-16164293D01*
X9265301Y-16164293D02*
X9303396Y-16164293D01*
X9303396Y-16164293D02*
X9322444Y-16154769D01*
X9322444Y-16154769D02*
X9331968Y-16145246D01*
X9331968Y-16145246D02*
X9341491Y-16126198D01*
X9455777Y-16126198D02*
X9436729Y-16116674D01*
X9436729Y-16116674D02*
X9427206Y-16107150D01*
X9427206Y-16107150D02*
X9417682Y-16088103D01*
X9417682Y-16088103D02*
X9417682Y-16078579D01*
X9417682Y-16078579D02*
X9427206Y-16059531D01*
X9427206Y-16059531D02*
X9436729Y-16050008D01*
X9436729Y-16050008D02*
X9455777Y-16040484D01*
X9455777Y-16040484D02*
X9493872Y-16040484D01*
X9493872Y-16040484D02*
X9512920Y-16050008D01*
X9512920Y-16050008D02*
X9522444Y-16059531D01*
X9522444Y-16059531D02*
X9531968Y-16078579D01*
X9531968Y-16078579D02*
X9531968Y-16088103D01*
X9531968Y-16088103D02*
X9522444Y-16107150D01*
X9522444Y-16107150D02*
X9512920Y-16116674D01*
X9512920Y-16116674D02*
X9493872Y-16126198D01*
X9493872Y-16126198D02*
X9455777Y-16126198D01*
X9455777Y-16126198D02*
X9436729Y-16135722D01*
X9436729Y-16135722D02*
X9427206Y-16145246D01*
X9427206Y-16145246D02*
X9417682Y-16164293D01*
X9417682Y-16164293D02*
X9417682Y-16202388D01*
X9417682Y-16202388D02*
X9427206Y-16221436D01*
X9427206Y-16221436D02*
X9436729Y-16230960D01*
X9436729Y-16230960D02*
X9455777Y-16240484D01*
X9455777Y-16240484D02*
X9493872Y-16240484D01*
X9493872Y-16240484D02*
X9512920Y-16230960D01*
X9512920Y-16230960D02*
X9522444Y-16221436D01*
X9522444Y-16221436D02*
X9531968Y-16202388D01*
X9531968Y-16202388D02*
X9531968Y-16164293D01*
X9531968Y-16164293D02*
X9522444Y-16145246D01*
X9522444Y-16145246D02*
X9512920Y-16135722D01*
X9512920Y-16135722D02*
X9493872Y-16126198D01*
X9703396Y-16107150D02*
X9703396Y-16240484D01*
X9655777Y-16030960D02*
X9608158Y-16173817D01*
X9608158Y-16173817D02*
X9731968Y-16173817D01*
X9798634Y-16040484D02*
X9798634Y-16078579D01*
X9874825Y-16040484D02*
X9874825Y-16078579D01*
X10170063Y-16316674D02*
X10160539Y-16307150D01*
X10160539Y-16307150D02*
X10141491Y-16278579D01*
X10141491Y-16278579D02*
X10131968Y-16259531D01*
X10131968Y-16259531D02*
X10122444Y-16230960D01*
X10122444Y-16230960D02*
X10112920Y-16183341D01*
X10112920Y-16183341D02*
X10112920Y-16145246D01*
X10112920Y-16145246D02*
X10122444Y-16097627D01*
X10122444Y-16097627D02*
X10131968Y-16069055D01*
X10131968Y-16069055D02*
X10141491Y-16050008D01*
X10141491Y-16050008D02*
X10160539Y-16021436D01*
X10160539Y-16021436D02*
X10170063Y-16011912D01*
X10331968Y-16040484D02*
X10293872Y-16040484D01*
X10293872Y-16040484D02*
X10274825Y-16050008D01*
X10274825Y-16050008D02*
X10265301Y-16059531D01*
X10265301Y-16059531D02*
X10246253Y-16088103D01*
X10246253Y-16088103D02*
X10236730Y-16126198D01*
X10236730Y-16126198D02*
X10236730Y-16202388D01*
X10236730Y-16202388D02*
X10246253Y-16221436D01*
X10246253Y-16221436D02*
X10255777Y-16230960D01*
X10255777Y-16230960D02*
X10274825Y-16240484D01*
X10274825Y-16240484D02*
X10312920Y-16240484D01*
X10312920Y-16240484D02*
X10331968Y-16230960D01*
X10331968Y-16230960D02*
X10341491Y-16221436D01*
X10341491Y-16221436D02*
X10351015Y-16202388D01*
X10351015Y-16202388D02*
X10351015Y-16154769D01*
X10351015Y-16154769D02*
X10341491Y-16135722D01*
X10341491Y-16135722D02*
X10331968Y-16126198D01*
X10331968Y-16126198D02*
X10312920Y-16116674D01*
X10312920Y-16116674D02*
X10274825Y-16116674D01*
X10274825Y-16116674D02*
X10255777Y-16126198D01*
X10255777Y-16126198D02*
X10246253Y-16135722D01*
X10246253Y-16135722D02*
X10236730Y-16154769D01*
X10589111Y-16240484D02*
X10589111Y-16040484D01*
X10674825Y-16240484D02*
X10674825Y-16135722D01*
X10674825Y-16135722D02*
X10665301Y-16116674D01*
X10665301Y-16116674D02*
X10646253Y-16107150D01*
X10646253Y-16107150D02*
X10617682Y-16107150D01*
X10617682Y-16107150D02*
X10598634Y-16116674D01*
X10598634Y-16116674D02*
X10589111Y-16126198D01*
X10798634Y-16240484D02*
X10779587Y-16230960D01*
X10779587Y-16230960D02*
X10770063Y-16221436D01*
X10770063Y-16221436D02*
X10760539Y-16202388D01*
X10760539Y-16202388D02*
X10760539Y-16145246D01*
X10760539Y-16145246D02*
X10770063Y-16126198D01*
X10770063Y-16126198D02*
X10779587Y-16116674D01*
X10779587Y-16116674D02*
X10798634Y-16107150D01*
X10798634Y-16107150D02*
X10827206Y-16107150D01*
X10827206Y-16107150D02*
X10846253Y-16116674D01*
X10846253Y-16116674D02*
X10855777Y-16126198D01*
X10855777Y-16126198D02*
X10865301Y-16145246D01*
X10865301Y-16145246D02*
X10865301Y-16202388D01*
X10865301Y-16202388D02*
X10855777Y-16221436D01*
X10855777Y-16221436D02*
X10846253Y-16230960D01*
X10846253Y-16230960D02*
X10827206Y-16240484D01*
X10827206Y-16240484D02*
X10798634Y-16240484D01*
X10979587Y-16240484D02*
X10960539Y-16230960D01*
X10960539Y-16230960D02*
X10951015Y-16211912D01*
X10951015Y-16211912D02*
X10951015Y-16040484D01*
X11131968Y-16230960D02*
X11112920Y-16240484D01*
X11112920Y-16240484D02*
X11074825Y-16240484D01*
X11074825Y-16240484D02*
X11055777Y-16230960D01*
X11055777Y-16230960D02*
X11046253Y-16211912D01*
X11046253Y-16211912D02*
X11046253Y-16135722D01*
X11046253Y-16135722D02*
X11055777Y-16116674D01*
X11055777Y-16116674D02*
X11074825Y-16107150D01*
X11074825Y-16107150D02*
X11112920Y-16107150D01*
X11112920Y-16107150D02*
X11131968Y-16116674D01*
X11131968Y-16116674D02*
X11141492Y-16135722D01*
X11141492Y-16135722D02*
X11141492Y-16154769D01*
X11141492Y-16154769D02*
X11046253Y-16173817D01*
X11217682Y-16230960D02*
X11236730Y-16240484D01*
X11236730Y-16240484D02*
X11274825Y-16240484D01*
X11274825Y-16240484D02*
X11293872Y-16230960D01*
X11293872Y-16230960D02*
X11303396Y-16211912D01*
X11303396Y-16211912D02*
X11303396Y-16202388D01*
X11303396Y-16202388D02*
X11293872Y-16183341D01*
X11293872Y-16183341D02*
X11274825Y-16173817D01*
X11274825Y-16173817D02*
X11246253Y-16173817D01*
X11246253Y-16173817D02*
X11227206Y-16164293D01*
X11227206Y-16164293D02*
X11217682Y-16145246D01*
X11217682Y-16145246D02*
X11217682Y-16135722D01*
X11217682Y-16135722D02*
X11227206Y-16116674D01*
X11227206Y-16116674D02*
X11246253Y-16107150D01*
X11246253Y-16107150D02*
X11274825Y-16107150D01*
X11274825Y-16107150D02*
X11293872Y-16116674D01*
X11370063Y-16316674D02*
X11379587Y-16307150D01*
X11379587Y-16307150D02*
X11398634Y-16278579D01*
X11398634Y-16278579D02*
X11408158Y-16259531D01*
X11408158Y-16259531D02*
X11417682Y-16230960D01*
X11417682Y-16230960D02*
X11427206Y-16183341D01*
X11427206Y-16183341D02*
X11427206Y-16145246D01*
X11427206Y-16145246D02*
X11417682Y-16097627D01*
X11417682Y-16097627D02*
X11408158Y-16069055D01*
X11408158Y-16069055D02*
X11398634Y-16050008D01*
X11398634Y-16050008D02*
X11379587Y-16021436D01*
X11379587Y-16021436D02*
X11370063Y-16011912D01*
M02*
