M48
; DRILL file {KiCad 8.0.2} date 2025-03-01T21:56:42-0800
; FORMAT={-:-/ absolute / inch / decimal}
; #@! TF.CreationDate,2025-03-01T21:56:42-08:00
; #@! TF.GenerationSoftware,Kicad,Pcbnew,8.0.2
; #@! TF.FileFunction,Plated,1,2,PTH
FMAT,2
INCH
; #@! TA.AperFunction,Plated,PTH,ViaDrill
T1C0.0157
; #@! TA.AperFunction,Plated,PTH,ComponentDrill
T2C0.0300
; #@! TA.AperFunction,Plated,PTH,ViaDrill
T3C0.0315
; #@! TA.AperFunction,Plated,PTH,ComponentDrill
T4C0.0315
; #@! TA.AperFunction,Plated,PTH,ComponentDrill
T5C0.0394
; #@! TA.AperFunction,Plated,PTH,ComponentDrill
T6C0.0402
; #@! TA.AperFunction,Plated,PTH,ComponentDrill
T7C0.0858
; #@! TA.AperFunction,Plated,PTH,ComponentDrill
T8C0.0984
%
G90
G05
T1
X3.0177Y-3.4882
X3.0177Y-4.2303
X3.3681Y-4.6142
X3.4685Y-4.9252
X3.7717Y-4.3504
X3.8681Y-4.5787
X3.872Y-3.5791
X3.998Y-4.6732
X4.0728Y-4.5472
X4.1654Y-3.6693
X4.3602Y-3.9791
X4.3701Y-3.8791
X4.4744Y-4.0551
X4.5728Y-3.7791
X4.5728Y-4.2402
X4.7776Y-4.7933
X6.8056Y-4.8565
X6.8701Y-4.8565
X6.8967Y-3.9945
X6.9065Y-3.7982
X6.9252Y-4.8565
X6.9409Y-3.8858
X6.9921Y-4.876
X7.0787Y-4.6634
X7.2165Y-4.3228
X7.2205Y-4.8051
X7.3228Y-4.3268
T2
X7.2181Y-3.3888
X7.2715Y-3.6832
X7.2715Y-3.7832
X7.2715Y-3.8832
X7.2715Y-3.9832
X7.2715Y-4.0832
X7.2715Y-4.1832
X7.3181Y-3.3888
X7.4181Y-3.3888
X7.5181Y-3.3888
X7.6181Y-3.3888
T3
X5.2874Y-4.8799
X5.939Y-4.8819
X6.0531Y-3.5276
X6.1063Y-3.1319
X6.4547Y-4.8228
X6.4587Y-3.6902
X7.565Y-3.1358
T4
X2.9094Y-3.2791
X2.9094Y-3.3791
X2.9094Y-3.4791
X2.9094Y-3.5791
X2.9094Y-3.6791
X2.9094Y-3.7791
X2.9094Y-3.8791
X2.9094Y-3.9791
X2.9094Y-4.0791
X2.9094Y-4.1791
X2.9094Y-4.2791
X2.9094Y-4.3791
X2.9094Y-4.4791
X2.9094Y-4.5791
X7.0055Y-3.7791
X7.0055Y-3.8791
X7.0055Y-3.9791
X7.0055Y-4.0791
T5
X3.6953Y-4.9094
X3.7953Y-4.9094
X6.2531Y-3.5902
X6.2531Y-3.6902
X6.2531Y-3.7902
X6.2531Y-3.8902
X6.2531Y-3.9902
X6.2531Y-4.0902
X6.2531Y-4.1902
X6.2531Y-4.2902
X6.6531Y-3.5902
X6.6531Y-3.6902
X6.6531Y-3.7902
X6.6531Y-3.8902
X6.6531Y-3.9902
X6.6531Y-4.0902
X6.6531Y-4.1902
X6.6531Y-4.2902
X7.4626Y-4.3764
X7.4626Y-4.4764
X7.4626Y-4.5764
X7.4626Y-4.6764
X7.4626Y-4.7764
X7.4626Y-4.8764
X7.4626Y-4.9764
X7.4626Y-5.0764
T6
X3.3703Y-3.4291
X3.3703Y-4.4291
X3.4703Y-3.4291
X3.4703Y-4.4291
X3.5703Y-3.4291
X3.5703Y-4.4291
X3.6703Y-3.4291
X3.6703Y-4.4291
X3.7703Y-3.4291
X3.7703Y-4.4291
X3.8703Y-3.4291
X3.8703Y-4.4291
X3.9703Y-3.4291
X3.9703Y-4.4291
X4.0703Y-3.4291
X4.0703Y-4.4291
X4.1703Y-3.4291
X4.1703Y-4.4291
X4.2703Y-3.4291
X4.2703Y-4.4291
X4.3703Y-3.4291
X4.3703Y-4.4291
X4.4703Y-3.4291
X4.4703Y-4.4291
X4.5703Y-3.4291
X4.5703Y-4.4291
X4.6703Y-3.4291
X4.6703Y-4.4291
X4.7703Y-3.4291
X4.7703Y-4.4291
X5.3595Y-4.5268
X5.4595Y-4.5268
X5.5579Y-3.3284
X5.5595Y-4.5268
X5.6579Y-3.3284
X5.6595Y-4.5268
X5.7579Y-3.3284
X5.7595Y-4.5268
X5.8579Y-3.3284
T7
X5.4095Y-4.6268
X5.6064Y-4.6268
X5.6111Y-3.2284
X5.8079Y-3.2284
T8
X6.2531Y-3.4402
X6.2531Y-4.4402
X6.6531Y-3.4402
X6.6531Y-4.4402
X7.8126Y-4.4264
X7.8126Y-5.0264
M30
