M48
; DRILL file {KiCad 8.0.2} date 2025-06-14T16:50:15-0700
; FORMAT={-:-/ absolute / metric / decimal}
; #@! TF.CreationDate,2025-06-14T16:50:15-07:00
; #@! TF.GenerationSoftware,Kicad,Pcbnew,8.0.2
; #@! TF.FileFunction,Plated,1,2,PTH
FMAT,2
METRIC
; #@! TA.AperFunction,Plated,PTH,ViaDrill
T1C0.400
; #@! TA.AperFunction,Plated,PTH,ComponentDrill
T2C0.762
; #@! TA.AperFunction,Plated,PTH,ViaDrill
T3C0.800
; #@! TA.AperFunction,Plated,PTH,ComponentDrill
T4C0.800
; #@! TA.AperFunction,Plated,PTH,ComponentDrill
T5C1.000
; #@! TA.AperFunction,Plated,PTH,ComponentDrill
T6C1.020
; #@! TA.AperFunction,Plated,PTH,ComponentDrill
T7C2.180
; #@! TA.AperFunction,Plated,PTH,ComponentDrill
T8C2.500
; #@! TA.AperFunction,Plated,PTH,ComponentDrill
T9C2.600
%
G90
G05
T1
X76.65Y-88.6
X76.65Y-107.45
X78.5Y-109.75
X79.1Y-83.45
X81.3Y-84.95
X81.5Y-108.6
X86.05Y-125.85
X88.4Y-118.7
X90.685Y-110.4
X91.335Y-82.95
X93.225Y-109.35
X93.6Y-84.55
X96.25Y-115.15
X98.35Y-90.91
X99.25Y-130.95
X101.15Y-128.35
X103.5Y-123.3
X105.8Y-93.2
X109.75Y-119.05
X110.6Y-132.75
X110.75Y-101.07
X111.0Y-98.53
X113.65Y-103.0
X116.15Y-95.99
X116.15Y-107.7
X121.55Y-120.4
X168.3Y-120.85
X170.65Y-130.5
X173.375Y-124.419
X173.375Y-128.38
X179.8Y-118.45
X182.8Y-132.45
X183.3Y-109.8
X183.3Y-123.7
X186.0Y-109.9
T2
X183.34Y-86.075
X184.697Y-93.554
X184.697Y-96.094
X184.697Y-98.634
X184.697Y-101.174
X184.697Y-103.714
X184.697Y-106.254
X185.88Y-86.075
X188.42Y-86.075
X190.96Y-86.075
X193.5Y-86.075
T3
X167.3Y-123.95
X192.6Y-78.35
T4
X73.9Y-83.29
X73.9Y-85.83
X73.9Y-88.37
X73.9Y-90.91
X73.9Y-93.45
X73.9Y-95.99
X73.9Y-98.53
X73.9Y-101.07
X73.9Y-103.61
X73.9Y-106.15
X73.9Y-108.69
X73.9Y-111.23
X73.9Y-113.77
X73.9Y-116.31
X177.94Y-95.99
X177.94Y-98.53
X177.94Y-101.07
X177.94Y-103.61
T5
X91.335Y-70.8
X93.875Y-70.8
X107.05Y-121.0
X107.05Y-123.54
X107.05Y-126.08
X107.05Y-128.62
X107.05Y-131.16
X107.05Y-133.7
X158.83Y-91.19
X158.83Y-93.73
X158.83Y-96.27
X158.83Y-98.81
X158.83Y-101.35
X158.83Y-103.89
X158.83Y-106.43
X158.83Y-108.97
X168.99Y-91.19
X168.99Y-93.73
X168.99Y-96.27
X168.99Y-98.81
X168.99Y-101.35
X168.99Y-103.89
X168.99Y-106.43
X168.99Y-108.97
X189.55Y-111.16
X189.55Y-113.7
X189.55Y-116.24
X189.55Y-118.78
X189.55Y-121.32
X189.55Y-123.86
X189.55Y-126.4
X189.55Y-128.94
T6
X85.605Y-87.1
X85.605Y-112.5
X88.145Y-87.1
X88.145Y-112.5
X90.685Y-87.1
X90.685Y-112.5
X93.225Y-87.1
X93.225Y-112.5
X95.765Y-87.1
X95.765Y-112.5
X98.305Y-87.1
X98.305Y-112.5
X100.845Y-87.1
X100.845Y-112.5
X103.385Y-87.1
X103.385Y-112.5
X105.925Y-87.1
X105.925Y-112.5
X108.465Y-87.1
X108.465Y-112.5
X111.005Y-87.1
X111.005Y-112.5
X113.545Y-87.1
X113.545Y-112.5
X116.085Y-87.1
X116.085Y-112.5
X118.625Y-87.1
X118.625Y-112.5
X121.165Y-87.1
X121.165Y-112.5
X133.62Y-94.75
X133.62Y-97.29
X133.62Y-99.83
X133.62Y-102.37
X133.62Y-104.91
X136.132Y-114.981
X138.672Y-114.981
X141.172Y-84.541
X141.212Y-114.981
X143.712Y-84.541
X143.752Y-114.981
X146.252Y-84.541
X146.292Y-114.981
X148.792Y-84.541
T7
X137.402Y-117.521
X142.402Y-117.521
X142.522Y-82.001
X147.522Y-82.001
T8
X158.83Y-87.38
X158.83Y-112.78
X168.99Y-87.38
X168.99Y-112.78
X198.44Y-112.43
X198.44Y-127.67
T9
X192.577Y-94.825
X192.577Y-105.25
M30
